<?xml version="1.0" encoding="UTF-8" standalone="no"?><!DOCTYPE svg PUBLIC "-//W3C//DTD SVG 1.1//EN" "http://www.w3.org/Graphics/SVG/1.1/DTD/svg11.dtd"><svg width="100%" height="100%" viewBox="0 0 203 283" version="1.1" xmlns="http://www.w3.org/2000/svg" xmlns:xlink="http://www.w3.org/1999/xlink" xml:space="preserve" xmlns:serif="http://www.serif.com/" style="fill-rule:evenodd;clip-rule:evenodd;stroke-linejoin:round;stroke-miterlimit:1.41421;"><path d="M200,13c0,-5.519 -4.481,-10 -10,-10l-180,0c-5.519,0 -10,4.481 -10,10l0,260c0,5.519 4.481,10 10,10l180,0c5.519,0 10,-4.481 10,-10l0,-260Z" style="fill-opacity:0.08;"/><path d="M203,10c0,-5.519 -4.481,-10 -10,-10l-180,0c-5.519,0 -10,4.481 -10,10l0,260c0,5.519 4.481,10 10,10l180,0c5.519,0 10,-4.481 10,-10l0,-260Z" style="fill:#fff;"/><g id="_5" serif:id="5"><path d="M28.479,22.041c-1.47,-1.817 -3.578,-2.997 -5.926,-2.996c-1.466,-0.001 -2.84,0.466 -4.024,1.257l-0.003,-5.64l10.494,0l0,-2.662l-13.005,0l0,0.931l-0.013,0l0.008,10.908l2.523,-0.003c0.847,-1.219 2.691,-2.129 4.02,-2.13c1.534,0.001 2.938,0.756 4.012,2.068c1.065,1.311 1.755,3.169 1.753,5.249c0.002,2.077 -0.688,3.935 -1.753,5.246c-1.074,1.313 -2.478,2.066 -4.012,2.068c-1.133,-0.001 -2.185,-0.411 -3.099,-1.15c-0.912,-0.741 -1.67,-1.82 -2.139,-3.115l-2.356,0.952c0.626,1.722 1.646,3.204 2.954,4.27c1.307,1.065 2.913,1.707 4.64,1.706c0.001,0 0.004,0 0.006,0c2.345,0 4.451,-1.182 5.92,-2.997c1.477,-1.82 2.361,-4.283 2.362,-6.98c-0.001,-2.698 -0.885,-5.163 -2.362,-6.982Z" style="fill:#e43f45;fill-rule:nonzero;"/><path d="M177.421,257.959c1.47,1.817 3.578,2.997 5.926,2.996c1.466,0.001 2.84,-0.466 4.024,-1.257l0.003,5.64l-10.494,0l0,2.662l13.005,0l0,-0.931l0.013,0l-0.008,-10.908l-2.523,0.003c-0.847,1.219 -2.691,2.129 -4.02,2.13c-1.534,-0.001 -2.938,-0.756 -4.012,-2.068c-1.065,-1.311 -1.755,-3.169 -1.753,-5.249c-0.002,-2.077 0.688,-3.935 1.753,-5.246c1.074,-1.313 2.478,-2.066 4.012,-2.068c1.133,0.001 2.185,0.411 3.099,1.15c0.912,0.741 1.67,1.82 2.139,3.115l2.356,-0.952c-0.626,-1.722 -1.646,-3.204 -2.954,-4.27c-1.307,-1.065 -2.913,-1.707 -4.64,-1.706c-0.001,0 -0.004,0 -0.006,0c-2.345,0 -4.451,1.182 -5.92,2.997c-1.477,1.82 -2.361,4.283 -2.362,6.98c0.001,2.698 0.885,5.163 2.362,6.982Z" style="fill:#e43f45;fill-rule:nonzero;"/><path d="M22.912,43.8c2.065,3.88 4.79,7.051 8.178,9.504c-3.388,2.464 -6.113,5.632 -8.178,9.496c-2.082,-3.864 -4.816,-7.032 -8.202,-9.496c3.386,-2.453 6.12,-5.624 8.202,-9.504Z" style="fill:#e43f45;fill-rule:nonzero;"/><path d="M183.012,217.2c2.065,3.88 4.79,7.051 8.178,9.504c-3.388,2.464 -6.113,5.632 -8.178,9.496c-2.082,-3.864 -4.816,-7.032 -8.202,-9.496c3.386,-2.453 6.12,-5.624 8.202,-9.504Z" style="fill:#e43f45;fill-rule:nonzero;"/><path d="M59.629,28.95c5.163,9.701 11.977,17.628 20.446,23.761c-8.469,6.16 -15.283,14.079 -20.446,23.739c-5.204,-9.66 -12.038,-17.579 -20.504,-23.739c8.466,-6.133 15.3,-14.06 20.504,-23.761Z" style="fill:#e43f45;fill-rule:nonzero;"/><path d="M59.629,203.55c5.163,9.701 11.977,17.628 20.446,23.761c-8.469,6.16 -15.283,14.079 -20.446,23.739c-5.204,-9.66 -12.038,-17.579 -20.504,-23.739c8.466,-6.133 15.3,-14.06 20.504,-23.761Z" style="fill:#e43f45;fill-rule:nonzero;"/><path d="M146.429,28.95c5.163,9.701 11.977,17.628 20.446,23.761c-8.469,6.16 -15.283,14.079 -20.446,23.739c-5.204,-9.66 -12.038,-17.579 -20.504,-23.739c8.466,-6.133 15.3,-14.06 20.504,-23.761Z" style="fill:#e43f45;fill-rule:nonzero;"/><path d="M146.429,203.55c5.163,9.701 11.977,17.628 20.446,23.761c-8.469,6.16 -15.283,14.079 -20.446,23.739c-5.204,-9.66 -12.038,-17.579 -20.504,-23.739c8.466,-6.133 15.3,-14.06 20.504,-23.761Z" style="fill:#e43f45;fill-rule:nonzero;"/><path d="M103.029,116.25c5.163,9.701 11.977,17.628 20.446,23.761c-8.469,6.16 -15.283,14.079 -20.446,23.739c-5.204,-9.66 -12.038,-17.579 -20.504,-23.739c8.466,-6.133 15.3,-14.06 20.504,-23.761Z" style="fill:#e43f45;fill-rule:nonzero;"/></g></svg>