<?xml version="1.0" encoding="UTF-8" standalone="no"?><!DOCTYPE svg PUBLIC "-//W3C//DTD SVG 1.1//EN" "http://www.w3.org/Graphics/SVG/1.1/DTD/svg11.dtd"><svg width="100%" height="100%" viewBox="0 0 203 283" version="1.1" xmlns="http://www.w3.org/2000/svg" xmlns:xlink="http://www.w3.org/1999/xlink" xml:space="preserve" xmlns:serif="http://www.serif.com/" style="fill-rule:evenodd;clip-rule:evenodd;stroke-linejoin:round;stroke-miterlimit:1.41421;"><path d="M200,13c0,-5.519 -4.481,-10 -10,-10l-180,0c-5.519,0 -10,4.481 -10,10l0,260c0,5.519 4.481,10 10,10l180,0c5.519,0 10,-4.481 10,-10l0,-260Z" style="fill-opacity:0.08;"/><path d="M203,10c0,-5.519 -4.481,-10 -10,-10l-180,0c-5.519,0 -10,4.481 -10,10l0,260c0,5.519 4.481,10 10,10l180,0c5.519,0 10,-4.481 10,-10l0,-260Z" style="fill:#fff;"/><g id="_7" serif:id="7"><path d="M14.961,12l0,1.616l-0.002,0l0,2.747l2.496,-0.002l-0.003,-1.665l10.472,0c-1.624,2.977 -5.998,11.909 -7.581,24.304l2.508,-0.002c0.93,-7.309 2.525,-13.028 4.347,-17.267c0.911,-2.12 1.761,-3.781 2.381,-4.903c0.311,-0.561 0.562,-0.989 0.734,-1.272c0.182,-0.299 0.484,-0.79 0.528,-0.86l0,-2.696l-15.88,0Z" style="fill:#e43f45;fill-rule:nonzero;"/><path d="M190.939,268l0,-1.616l0.002,0l0,-2.747l-2.496,0.002l0.003,1.665l-10.472,0c1.624,-2.977 5.998,-11.909 7.581,-24.304l-2.508,0.002c-0.93,7.309 -2.525,13.028 -4.347,17.267c-0.911,2.12 -1.761,3.781 -2.381,4.903c-0.311,0.561 -0.562,0.989 -0.734,1.272c-0.182,0.299 -0.484,0.79 -0.528,0.86l0,2.696l15.88,0Z" style="fill:#e43f45;fill-rule:nonzero;"/><path d="M22.912,43.8c2.065,3.88 4.79,7.051 8.178,9.504c-3.388,2.464 -6.113,5.632 -8.178,9.496c-2.082,-3.864 -4.816,-7.032 -8.202,-9.496c3.386,-2.453 6.12,-5.624 8.202,-9.504Z" style="fill:#e43f45;fill-rule:nonzero;"/><path d="M59.629,28.95c5.163,9.701 11.977,17.628 20.446,23.761c-8.469,6.16 -15.283,14.079 -20.446,23.739c-5.204,-9.66 -12.038,-17.579 -20.504,-23.739c8.466,-6.133 15.3,-14.06 20.504,-23.761Z" style="fill:#e43f45;fill-rule:nonzero;"/><path d="M59.629,203.55c5.163,9.701 11.977,17.628 20.446,23.761c-8.469,6.16 -15.283,14.079 -20.446,23.739c-5.204,-9.66 -12.038,-17.579 -20.504,-23.739c8.466,-6.133 15.3,-14.06 20.504,-23.761Z" style="fill:#e43f45;fill-rule:nonzero;"/><path d="M146.429,28.95c5.163,9.701 11.977,17.628 20.446,23.761c-8.469,6.16 -15.283,14.079 -20.446,23.739c-5.204,-9.66 -12.038,-17.579 -20.504,-23.739c8.466,-6.133 15.3,-14.06 20.504,-23.761Z" style="fill:#e43f45;fill-rule:nonzero;"/><path d="M146.429,203.55c5.163,9.701 11.977,17.628 20.446,23.761c-8.469,6.16 -15.283,14.079 -20.446,23.739c-5.204,-9.66 -12.038,-17.579 -20.504,-23.739c8.466,-6.133 15.3,-14.06 20.504,-23.761Z" style="fill:#e43f45;fill-rule:nonzero;"/><path d="M59.629,116.25c5.163,9.701 11.977,17.628 20.446,23.761c-8.469,6.16 -15.283,14.079 -20.446,23.739c-5.204,-9.66 -12.038,-17.579 -20.504,-23.739c8.466,-6.133 15.3,-14.06 20.504,-23.761Z" style="fill:#e43f45;fill-rule:nonzero;"/><path d="M146.429,116.25c5.163,9.701 11.977,17.628 20.446,23.761c-8.469,6.16 -15.283,14.079 -20.446,23.739c-5.204,-9.66 -12.038,-17.579 -20.504,-23.739c8.466,-6.133 15.3,-14.06 20.504,-23.761Z" style="fill:#e43f45;fill-rule:nonzero;"/><path d="M183.012,217.2c2.065,3.88 4.79,7.051 8.178,9.504c-3.388,2.464 -6.113,5.632 -8.178,9.496c-2.082,-3.864 -4.816,-7.032 -8.202,-9.496c3.386,-2.453 6.12,-5.624 8.202,-9.504Z" style="fill:#e43f45;fill-rule:nonzero;"/><path d="M103.029,72.65c5.163,9.701 11.977,17.628 20.446,23.761c-8.469,6.16 -15.283,14.079 -20.446,23.739c-5.204,-9.66 -12.038,-17.579 -20.504,-23.739c8.466,-6.133 15.3,-14.06 20.504,-23.761Z" style="fill:#e43f45;fill-rule:nonzero;"/></g></svg>