<?xml version="1.0" encoding="UTF-8" standalone="no"?><!DOCTYPE svg PUBLIC "-//W3C//DTD SVG 1.1//EN" "http://www.w3.org/Graphics/SVG/1.1/DTD/svg11.dtd"><svg width="100%" height="100%" viewBox="0 0 459 261" version="1.1" xmlns="http://www.w3.org/2000/svg" xmlns:xlink="http://www.w3.org/1999/xlink" xml:space="preserve" xmlns:serif="http://www.serif.com/" style="fill-rule:evenodd;clip-rule:evenodd;stroke-linejoin:round;stroke-miterlimit:1.41421;"><g><g><path d="M242.88,208.954l0,51.556l-5.604,0l0,-6.375c-1.027,2.195 -2.58,3.888 -4.658,5.079c-2.078,1.19 -4.495,1.786 -7.25,1.786c-3.082,0 -5.803,-0.771 -8.161,-2.312c-2.358,-1.541 -4.191,-3.701 -5.499,-6.479c-1.307,-2.779 -1.961,-5.989 -1.961,-9.632c0,-3.642 0.642,-6.83 1.926,-9.562c1.284,-2.732 3.117,-4.845 5.499,-6.339c2.382,-1.494 5.114,-2.242 8.196,-2.242c2.755,0 5.16,0.596 7.215,1.787c2.054,1.19 3.596,2.86 4.623,5.008l0,-22.275l5.674,0Zm-16.392,47.353c3.456,0 6.118,-1.18 7.986,-3.538c1.868,-2.358 2.802,-5.709 2.802,-10.052c0,-4.296 -0.934,-7.624 -2.802,-9.982c-1.868,-2.358 -4.53,-3.537 -7.986,-3.537c-3.455,0 -6.152,1.167 -8.09,3.502c-1.938,2.335 -2.907,5.627 -2.907,9.877c0,4.343 0.969,7.717 2.907,10.122c1.938,2.405 4.635,3.608 8.09,3.608Z" style="fill:#fff;fill-rule:nonzero;"/><path d="M283.368,242.717l-25.848,0c0.047,4.483 1.086,7.869 3.117,10.157c2.032,2.288 4.985,3.433 8.861,3.433c4.11,0 7.893,-1.378 11.348,-4.133l1.892,4.133c-1.541,1.447 -3.515,2.591 -5.92,3.432c-2.405,0.841 -4.868,1.261 -7.39,1.261c-5.51,0 -9.83,-1.623 -12.959,-4.869c-3.129,-3.245 -4.693,-7.693 -4.693,-13.344c0,-3.596 0.701,-6.783 2.102,-9.561c1.4,-2.779 3.362,-4.939 5.884,-6.48c2.521,-1.541 5.393,-2.312 8.616,-2.312c4.67,0 8.335,1.53 10.997,4.589c2.662,3.058 3.993,7.273 3.993,12.643l0,1.051Zm-14.92,-13.87c-2.942,0 -5.336,0.888 -7.18,2.662c-1.845,1.775 -3.024,4.273 -3.538,7.496l20.524,0c-0.28,-3.316 -1.249,-5.838 -2.907,-7.566c-1.657,-1.728 -3.957,-2.592 -6.899,-2.592Z" style="fill:#fff;fill-rule:nonzero;"/><path d="M317.001,225.345l5.674,0l-15.2,35.165l-5.394,0l-14.99,-35.165l5.954,0l11.908,29l12.048,-29Z" style="fill:#fff;fill-rule:nonzero;"/><path d="M367.547,224.434c7.799,0 11.698,4.647 11.698,13.94l0,22.136l-5.674,0l0,-21.856c0,-3.315 -0.572,-5.72 -1.716,-7.215c-1.144,-1.494 -3.001,-2.241 -5.569,-2.241c-2.989,0 -5.324,1.004 -7.005,3.012c-1.681,2.008 -2.522,4.74 -2.522,8.196l0,20.104l-5.674,0l0,-21.856c0,-3.269 -0.583,-5.662 -1.751,-7.18c-1.167,-1.517 -3.035,-2.276 -5.604,-2.276c-2.989,0 -5.335,1.004 -7.04,3.012c-1.704,2.008 -2.556,4.74 -2.556,8.196l0,20.104l-5.674,0l0,-25.358c0,-3.643 -0.187,-6.935 -0.561,-9.877l5.394,0l0.56,6.164c0.981,-2.241 2.44,-3.969 4.378,-5.183c1.938,-1.214 4.192,-1.822 6.76,-1.822c2.802,0 5.09,0.561 6.865,1.682c1.774,1.12 3.082,2.848 3.923,5.183c1.074,-2.101 2.65,-3.771 4.728,-5.008c2.078,-1.238 4.425,-1.857 7.04,-1.857Z" style="fill:#fff;fill-rule:nonzero;"/><path d="M419.523,242.717l-25.848,0c0.047,4.483 1.086,7.869 3.117,10.157c2.031,2.288 4.985,3.433 8.861,3.433c4.11,0 7.892,-1.378 11.348,-4.133l1.891,4.133c-1.541,1.447 -3.514,2.591 -5.919,3.432c-2.405,0.841 -4.868,1.261 -7.39,1.261c-5.51,0 -9.83,-1.623 -12.959,-4.869c-3.129,-3.245 -4.693,-7.693 -4.693,-13.344c0,-3.596 0.7,-6.783 2.101,-9.561c1.401,-2.779 3.363,-4.939 5.884,-6.48c2.522,-1.541 5.394,-2.312 8.616,-2.312c4.67,0 8.336,1.53 10.998,4.589c2.662,3.058 3.993,7.273 3.993,12.643l0,1.051Zm-14.92,-13.87c-2.943,0 -5.336,0.888 -7.18,2.662c-1.845,1.775 -3.024,4.273 -3.538,7.496l20.524,0c-0.28,-3.316 -1.249,-5.838 -2.907,-7.566c-1.658,-1.728 -3.957,-2.592 -6.899,-2.592Z" style="fill:#fff;fill-rule:nonzero;"/><path d="M445.721,224.434c8.453,0 12.679,4.647 12.679,13.94l0,22.136l-5.674,0l0,-21.856c0,-3.269 -0.654,-5.662 -1.961,-7.18c-1.308,-1.517 -3.363,-2.276 -6.165,-2.276c-3.269,0 -5.884,1.004 -7.845,3.012c-1.961,2.008 -2.942,4.716 -2.942,8.125l0,20.175l-5.674,0l0,-25.358c0,-3.643 -0.187,-6.935 -0.561,-9.877l5.394,0l0.561,6.304c1.074,-2.288 2.685,-4.051 4.833,-5.288c2.148,-1.238 4.6,-1.857 7.355,-1.857Z" style="fill:#fff;fill-rule:nonzero;"/><rect x="142" y="253.636" width="55.957" height="6.874" style="fill:#fff;"/><path d="M251.539,171.856l8.457,14.646l-117.965,0l58.982,-102.163l50.526,87.517Z" style="fill:#fff;fill-rule:nonzero;"/><path d="M357.382,186.502l-65.973,0l-0.522,-0.908l-23.642,-40.944l-2.529,-4.381l-47.997,-83.134l32.985,-57.135l41.183,71.322l6.816,11.808l2.529,4.382l57.15,98.99Z" style="fill:#fff;fill-rule:nonzero;"/><path d="M458.434,186.502l-70.182,0l-10.303,-17.846l-62.284,-107.878l6.983,-12.086l28.109,-48.692l28.111,48.692l79.566,137.81Z" style="fill:#fff;fill-rule:nonzero;"/><path d="M215.353,0.003l-107.676,186.494l-15.704,-27.196l-32.978,-57.145l-7.04,-12.175l15.998,-27.716l39.724,68.804l59.677,-103.353l-151.334,0l-7.557,-13.081l-8.463,-14.632l215.353,0Z" style="fill:#fff;fill-rule:nonzero;"/></g></g></svg>