<?xml version="1.0" encoding="UTF-8" standalone="no"?><!DOCTYPE svg PUBLIC "-//W3C//DTD SVG 1.1//EN" "http://www.w3.org/Graphics/SVG/1.1/DTD/svg11.dtd"><svg width="100%" height="100%" viewBox="0 0 203 283" version="1.1" xmlns="http://www.w3.org/2000/svg" xmlns:xlink="http://www.w3.org/1999/xlink" xml:space="preserve" xmlns:serif="http://www.serif.com/" style="fill-rule:evenodd;clip-rule:evenodd;stroke-linejoin:round;stroke-miterlimit:1.41421;"><path d="M200,13c0,-5.519 -4.481,-10 -10,-10l-180,0c-5.519,0 -10,4.481 -10,10l0,260c0,5.519 4.481,10 10,10l180,0c5.519,0 10,-4.481 10,-10l0,-260Z" style="fill-opacity:0.08;"/><path d="M203,10c0,-5.519 -4.481,-10 -10,-10l-180,0c-5.519,0 -10,4.481 -10,10l0,260c0,5.519 4.481,10 10,10l180,0c5.519,0 10,-4.481 10,-10l0,-260Z" style="fill:#fff;"/><g id="_10" serif:id="10"><rect x="14.959" y="12" width="2.444" height="26.96" style="fill-rule:nonzero;"/><path d="M22.512,37.524c-0.89,-0.915 -1.46,-2.22 -1.458,-3.655l0,-16.737c-0.002,-1.437 0.568,-2.741 1.458,-3.656c0.888,-0.919 2.106,-1.476 3.435,-1.476c1.327,0 2.545,0.557 3.436,1.476c0.889,0.915 1.46,2.219 1.458,3.656l0,16.737c0.002,1.435 -0.569,2.74 -1.458,3.655c-0.891,0.919 -2.109,1.476 -3.436,1.476c-1.329,0 -2.547,-0.557 -3.435,-1.476Zm1.677,-22.102c-0.439,0.457 -0.691,1.051 -0.692,1.71l0,16.737c0.001,0.659 0.253,1.25 0.692,1.71c0.439,0.454 1.058,0.745 1.758,0.745c0.701,0 1.318,-0.291 1.757,-0.745c0.441,-0.46 0.692,-1.051 0.693,-1.71l0,-16.737c-0.001,-0.659 -0.252,-1.253 -0.693,-1.71c-0.439,-0.454 -1.056,-0.746 -1.757,-0.746c-0.7,0 -1.319,0.292 -1.758,0.746Z" style="fill-rule:nonzero;"/><rect x="188.497" y="241.04" width="2.444" height="26.96" style="fill-rule:nonzero;"/><path d="M183.388,242.476c0.89,0.915 1.46,2.22 1.458,3.655l0,16.737c0.002,1.437 -0.568,2.741 -1.458,3.656c-0.888,0.919 -2.106,1.476 -3.435,1.476c-1.327,0 -2.545,-0.557 -3.436,-1.476c-0.889,-0.915 -1.46,-2.219 -1.458,-3.656l0,-16.737c-0.002,-1.435 0.569,-2.74 1.458,-3.655c0.891,-0.919 2.109,-1.476 3.436,-1.476c1.329,0 2.547,0.557 3.435,1.476Zm-1.677,22.102c0.439,-0.457 0.691,-1.051 0.692,-1.71l0,-16.737c-0.001,-0.659 -0.253,-1.25 -0.692,-1.71c-0.439,-0.454 -1.058,-0.745 -1.758,-0.745c-0.701,0 -1.318,0.291 -1.757,0.745c-0.441,0.46 -0.692,1.051 -0.693,1.71l0,16.737c0.001,0.659 0.252,1.253 0.693,1.71c0.439,0.454 1.056,0.746 1.757,0.746c0.7,0 1.319,-0.292 1.758,-0.746Z" style="fill-rule:nonzero;"/><path d="M22.9,43.8c-2.082,0 -3.772,1.903 -3.772,4.246c0,1.341 0.559,2.529 1.417,3.314c0.29,0.265 0.165,0.554 -0.13,0.374c-0.535,-0.326 -1.14,-0.533 -1.794,-0.533c-2.008,0 -3.638,1.835 -3.638,4.095c0,2.261 1.63,4.097 3.638,4.097c1.34,0 2.511,-0.814 3.141,-2.029c0.061,-0.119 0.11,-0.282 0.198,-0.282c0.119,0 0.175,0.195 0.175,0.561c0,1.469 -0.564,3.184 -1.398,5.157c0.36,-0.086 1.452,-0.303 2.163,-0.303c0.713,0 1.804,0.217 2.165,0.303c-0.835,-1.973 -1.399,-3.688 -1.399,-5.157c0,-0.366 0.057,-0.561 0.176,-0.561c0.088,0 0.137,0.163 0.197,0.282c0.631,1.215 1.801,2.029 3.14,2.029c2.009,0 3.638,-1.836 3.638,-4.097c0,-2.26 -1.629,-4.095 -3.638,-4.095c-0.652,0 -1.258,0.207 -1.795,0.533c-0.293,0.18 -0.419,-0.109 -0.128,-0.374c0.857,-0.785 1.416,-1.973 1.416,-3.314c0,-2.343 -1.69,-4.246 -3.772,-4.246Z" style="fill-rule:nonzero;"/><path d="M59.6,28.95c-5.206,0 -9.43,4.757 -9.43,10.615c0,3.352 1.398,6.323 3.544,8.285c0.724,0.663 0.412,1.384 -0.326,0.934c-1.339,-0.813 -2.851,-1.331 -4.486,-1.331c-5.019,0 -9.093,4.586 -9.093,10.238c0,5.653 4.074,10.241 9.093,10.241c3.349,0 6.277,-2.036 7.853,-5.072c0.153,-0.298 0.274,-0.705 0.495,-0.705c0.297,0 0.436,0.488 0.436,1.402c0,3.673 -1.41,7.961 -3.493,12.893c0.899,-0.215 3.628,-0.759 5.407,-0.759c1.783,0 4.51,0.544 5.411,0.759c-2.085,-4.932 -3.496,-9.22 -3.496,-12.893c0,-0.914 0.142,-1.402 0.44,-1.402c0.219,0 0.342,0.407 0.493,0.705c1.577,3.036 4.502,5.072 7.85,5.072c5.023,0 9.093,-4.588 9.093,-10.241c0,-5.652 -4.07,-10.238 -9.093,-10.238c-1.631,0 -3.145,0.518 -4.489,1.331c-0.732,0.45 -1.046,-0.271 -0.319,-0.934c2.142,-1.962 3.54,-4.933 3.54,-8.285c0,-5.858 -4.224,-10.615 -9.43,-10.615Z" style="fill-rule:nonzero;"/><path d="M183,236.2c-2.082,0 -3.772,-1.903 -3.772,-4.246c0,-1.341 0.559,-2.529 1.417,-3.314c0.29,-0.265 0.165,-0.554 -0.13,-0.374c-0.535,0.326 -1.14,0.533 -1.794,0.533c-2.008,0 -3.638,-1.835 -3.638,-4.095c0,-2.261 1.63,-4.097 3.638,-4.097c1.34,0 2.511,0.814 3.141,2.029c0.061,0.119 0.11,0.282 0.198,0.282c0.119,0 0.175,-0.195 0.175,-0.561c0,-1.469 -0.564,-3.184 -1.398,-5.157c0.36,0.086 1.452,0.303 2.163,0.303c0.713,0 1.804,-0.217 2.165,-0.303c-0.835,1.973 -1.399,3.688 -1.399,5.157c0,0.366 0.057,0.561 0.176,0.561c0.088,0 0.137,-0.163 0.197,-0.282c0.631,-1.215 1.801,-2.029 3.14,-2.029c2.009,0 3.638,1.836 3.638,4.097c0,2.26 -1.629,4.095 -3.638,4.095c-0.652,0 -1.258,-0.207 -1.795,-0.533c-0.293,-0.18 -0.419,0.109 -0.128,0.374c0.857,0.785 1.416,1.973 1.416,3.314c0,2.343 -1.69,4.246 -3.772,4.246Z" style="fill-rule:nonzero;"/><path d="M146.4,28.95c-5.206,0 -9.43,4.757 -9.43,10.615c0,3.352 1.398,6.323 3.544,8.285c0.724,0.663 0.412,1.384 -0.326,0.934c-1.339,-0.813 -2.851,-1.331 -4.486,-1.331c-5.019,0 -9.093,4.586 -9.093,10.238c0,5.653 4.074,10.241 9.093,10.241c3.349,0 6.277,-2.036 7.853,-5.072c0.153,-0.298 0.274,-0.705 0.495,-0.705c0.297,0 0.436,0.488 0.436,1.402c0,3.673 -1.41,7.961 -3.493,12.893c0.899,-0.215 3.628,-0.759 5.407,-0.759c1.783,0 4.51,0.544 5.411,0.759c-2.085,-4.932 -3.496,-9.22 -3.496,-12.893c0,-0.914 0.142,-1.402 0.44,-1.402c0.219,0 0.342,0.407 0.493,0.705c1.577,3.036 4.502,5.072 7.85,5.072c5.023,0 9.093,-4.588 9.093,-10.241c0,-5.652 -4.07,-10.238 -9.093,-10.238c-1.631,0 -3.145,0.518 -4.489,1.331c-0.732,0.45 -1.046,-0.271 -0.319,-0.934c2.142,-1.962 3.54,-4.933 3.54,-8.285c0,-5.858 -4.224,-10.615 -9.43,-10.615Z" style="fill-rule:nonzero;"/><path d="M59.6,251.05c-5.206,0 -9.43,-4.757 -9.43,-10.615c0,-3.352 1.398,-6.323 3.544,-8.285c0.724,-0.663 0.412,-1.384 -0.326,-0.934c-1.339,0.813 -2.851,1.331 -4.486,1.331c-5.019,0 -9.093,-4.586 -9.093,-10.238c0,-5.653 4.074,-10.241 9.093,-10.241c3.349,0 6.277,2.036 7.853,5.072c0.153,0.298 0.274,0.705 0.495,0.705c0.297,0 0.436,-0.488 0.436,-1.402c0,-3.673 -1.41,-7.961 -3.493,-12.893c0.899,0.215 3.628,0.759 5.407,0.759c1.783,0 4.51,-0.544 5.411,-0.759c-2.085,4.932 -3.496,9.22 -3.496,12.893c0,0.914 0.142,1.402 0.44,1.402c0.219,0 0.342,-0.407 0.493,-0.705c1.577,-3.036 4.502,-5.072 7.85,-5.072c5.023,0 9.093,4.588 9.093,10.241c0,5.652 -4.07,10.238 -9.093,10.238c-1.631,0 -3.145,-0.518 -4.489,-1.331c-0.732,-0.45 -1.046,0.271 -0.319,0.934c2.142,1.962 3.54,4.933 3.54,8.285c0,5.858 -4.224,10.615 -9.43,10.615Z" style="fill-rule:nonzero;"/><path d="M146.4,251.05c-5.206,0 -9.43,-4.757 -9.43,-10.615c0,-3.352 1.398,-6.323 3.544,-8.285c0.724,-0.663 0.412,-1.384 -0.326,-0.934c-1.339,0.813 -2.851,1.331 -4.486,1.331c-5.019,0 -9.093,-4.586 -9.093,-10.238c0,-5.653 4.074,-10.241 9.093,-10.241c3.349,0 6.277,2.036 7.853,5.072c0.153,0.298 0.274,0.705 0.495,0.705c0.297,0 0.436,-0.488 0.436,-1.402c0,-3.673 -1.41,-7.961 -3.493,-12.893c0.899,0.215 3.628,0.759 5.407,0.759c1.783,0 4.51,-0.544 5.411,-0.759c-2.085,4.932 -3.496,9.22 -3.496,12.893c0,0.914 0.142,1.402 0.44,1.402c0.219,0 0.342,-0.407 0.493,-0.705c1.577,-3.036 4.502,-5.072 7.85,-5.072c5.023,0 9.093,4.588 9.093,10.241c0,5.652 -4.07,10.238 -9.093,10.238c-1.631,0 -3.145,-0.518 -4.489,-1.331c-0.732,-0.45 -1.046,0.271 -0.319,0.934c2.142,1.962 3.54,4.933 3.54,8.285c0,5.858 -4.224,10.615 -9.43,10.615Z" style="fill-rule:nonzero;"/><path d="M59.6,191.85c-5.206,0 -9.43,-4.757 -9.43,-10.615c0,-3.352 1.398,-6.323 3.544,-8.285c0.724,-0.663 0.412,-1.384 -0.326,-0.934c-1.339,0.813 -2.851,1.331 -4.486,1.331c-5.019,0 -9.093,-4.586 -9.093,-10.238c0,-5.653 4.074,-10.241 9.093,-10.241c3.349,0 6.277,2.036 7.853,5.072c0.153,0.298 0.274,0.705 0.495,0.705c0.297,0 0.436,-0.488 0.436,-1.402c0,-3.673 -1.41,-7.961 -3.493,-12.893c0.899,0.215 3.628,0.759 5.407,0.759c1.783,0 4.51,-0.544 5.411,-0.759c-2.085,4.932 -3.496,9.22 -3.496,12.893c0,0.914 0.142,1.402 0.44,1.402c0.219,0 0.342,-0.407 0.493,-0.705c1.577,-3.036 4.502,-5.072 7.85,-5.072c5.023,0 9.093,4.588 9.093,10.241c0,5.652 -4.07,10.238 -9.093,10.238c-1.631,0 -3.145,-0.518 -4.489,-1.331c-0.732,-0.45 -1.046,0.271 -0.319,0.934c2.142,1.962 3.54,4.933 3.54,8.285c0,5.858 -4.224,10.615 -9.43,10.615Z" style="fill-rule:nonzero;"/><path d="M146.4,191.85c-5.206,0 -9.43,-4.757 -9.43,-10.615c0,-3.352 1.398,-6.323 3.544,-8.285c0.724,-0.663 0.412,-1.384 -0.326,-0.934c-1.339,0.813 -2.851,1.331 -4.486,1.331c-5.019,0 -9.093,-4.586 -9.093,-10.238c0,-5.653 4.074,-10.241 9.093,-10.241c3.349,0 6.277,2.036 7.853,5.072c0.153,0.298 0.274,0.705 0.495,0.705c0.297,0 0.436,-0.488 0.436,-1.402c0,-3.673 -1.41,-7.961 -3.493,-12.893c0.899,0.215 3.628,0.759 5.407,0.759c1.783,0 4.51,-0.544 5.411,-0.759c-2.085,4.932 -3.496,9.22 -3.496,12.893c0,0.914 0.142,1.402 0.44,1.402c0.219,0 0.342,-0.407 0.493,-0.705c1.577,-3.036 4.502,-5.072 7.85,-5.072c5.023,0 9.093,4.588 9.093,10.241c0,5.652 -4.07,10.238 -9.093,10.238c-1.631,0 -3.145,-0.518 -4.489,-1.331c-0.732,-0.45 -1.046,0.271 -0.319,0.934c2.142,1.962 3.54,4.933 3.54,8.285c0,5.858 -4.224,10.615 -9.43,10.615Z" style="fill-rule:nonzero;"/><path d="M59.6,88.15c-5.206,0 -9.43,4.757 -9.43,10.615c0,3.352 1.398,6.323 3.544,8.285c0.724,0.663 0.412,1.384 -0.326,0.934c-1.339,-0.813 -2.851,-1.331 -4.486,-1.331c-5.019,0 -9.093,4.586 -9.093,10.238c0,5.653 4.074,10.241 9.093,10.241c3.349,0 6.277,-2.036 7.853,-5.072c0.153,-0.298 0.274,-0.705 0.495,-0.705c0.297,0 0.436,0.488 0.436,1.402c0,3.673 -1.41,7.961 -3.493,12.893c0.899,-0.215 3.628,-0.759 5.407,-0.759c1.783,0 4.51,0.544 5.411,0.759c-2.085,-4.932 -3.496,-9.22 -3.496,-12.893c0,-0.914 0.142,-1.402 0.44,-1.402c0.219,0 0.342,0.407 0.493,0.705c1.577,3.036 4.502,5.072 7.85,5.072c5.023,0 9.093,-4.588 9.093,-10.241c0,-5.652 -4.07,-10.238 -9.093,-10.238c-1.631,0 -3.145,0.518 -4.489,1.331c-0.732,0.45 -1.046,-0.271 -0.319,-0.934c2.142,-1.962 3.54,-4.933 3.54,-8.285c0,-5.858 -4.224,-10.615 -9.43,-10.615Z" style="fill-rule:nonzero;"/><path d="M146.4,88.15c-5.206,0 -9.43,4.757 -9.43,10.615c0,3.352 1.398,6.323 3.544,8.285c0.724,0.663 0.412,1.384 -0.326,0.934c-1.339,-0.813 -2.851,-1.331 -4.486,-1.331c-5.019,0 -9.093,4.586 -9.093,10.238c0,5.653 4.074,10.241 9.093,10.241c3.349,0 6.277,-2.036 7.853,-5.072c0.153,-0.298 0.274,-0.705 0.495,-0.705c0.297,0 0.436,0.488 0.436,1.402c0,3.673 -1.41,7.961 -3.493,12.893c0.899,-0.215 3.628,-0.759 5.407,-0.759c1.783,0 4.51,0.544 5.411,0.759c-2.085,-4.932 -3.496,-9.22 -3.496,-12.893c0,-0.914 0.142,-1.402 0.44,-1.402c0.219,0 0.342,0.407 0.493,0.705c1.577,3.036 4.502,5.072 7.85,5.072c5.023,0 9.093,-4.588 9.093,-10.241c0,-5.652 -4.07,-10.238 -9.093,-10.238c-1.631,0 -3.145,0.518 -4.489,1.331c-0.732,0.45 -1.046,-0.271 -0.319,-0.934c2.142,-1.962 3.54,-4.933 3.54,-8.285c0,-5.858 -4.224,-10.615 -9.43,-10.615Z" style="fill-rule:nonzero;"/><path d="M103,58.55c-5.206,0 -9.43,4.757 -9.43,10.615c0,3.352 1.398,6.323 3.544,8.285c0.724,0.663 0.412,1.384 -0.326,0.934c-1.339,-0.813 -2.851,-1.331 -4.486,-1.331c-5.019,0 -9.093,4.586 -9.093,10.238c0,5.653 4.074,10.241 9.093,10.241c3.349,0 6.277,-2.036 7.853,-5.072c0.153,-0.298 0.274,-0.705 0.495,-0.705c0.297,0 0.436,0.488 0.436,1.402c0,3.673 -1.41,7.961 -3.493,12.893c0.899,-0.215 3.628,-0.759 5.407,-0.759c1.783,0 4.51,0.544 5.411,0.759c-2.085,-4.932 -3.496,-9.22 -3.496,-12.893c0,-0.914 0.142,-1.402 0.44,-1.402c0.219,0 0.342,0.407 0.493,0.705c1.577,3.036 4.502,5.072 7.85,5.072c5.023,0 9.093,-4.588 9.093,-10.241c0,-5.652 -4.07,-10.238 -9.093,-10.238c-1.631,0 -3.145,0.518 -4.489,1.331c-0.732,0.45 -1.046,-0.271 -0.319,-0.934c2.142,-1.962 3.54,-4.933 3.54,-8.285c0,-5.858 -4.224,-10.615 -9.43,-10.615Z" style="fill-rule:nonzero;"/><path d="M103,221.45c-5.206,0 -9.43,-4.757 -9.43,-10.615c0,-3.352 1.398,-6.323 3.544,-8.285c0.724,-0.663 0.412,-1.384 -0.326,-0.934c-1.339,0.813 -2.851,1.331 -4.486,1.331c-5.019,0 -9.093,-4.586 -9.093,-10.238c0,-5.653 4.074,-10.241 9.093,-10.241c3.349,0 6.277,2.036 7.853,5.072c0.153,0.298 0.274,0.705 0.495,0.705c0.297,0 0.436,-0.488 0.436,-1.402c0,-3.673 -1.41,-7.961 -3.493,-12.893c0.899,0.215 3.628,0.759 5.407,0.759c1.783,0 4.51,-0.544 5.411,-0.759c-2.085,4.932 -3.496,9.22 -3.496,12.893c0,0.914 0.142,1.402 0.44,1.402c0.219,0 0.342,-0.407 0.493,-0.705c1.577,-3.036 4.502,-5.072 7.85,-5.072c5.023,0 9.093,4.588 9.093,10.241c0,5.652 -4.07,10.238 -9.093,10.238c-1.631,0 -3.145,-0.518 -4.489,-1.331c-0.732,-0.45 -1.046,0.271 -0.319,0.934c2.142,1.962 3.54,4.933 3.54,8.285c0,5.858 -4.224,10.615 -9.43,10.615Z" style="fill-rule:nonzero;"/></g></svg>