<?xml version="1.0" encoding="UTF-8" standalone="no"?><!DOCTYPE svg PUBLIC "-//W3C//DTD SVG 1.1//EN" "http://www.w3.org/Graphics/SVG/1.1/DTD/svg11.dtd"><svg width="100%" height="100%" viewBox="0 0 203 283" version="1.1" xmlns="http://www.w3.org/2000/svg" xmlns:xlink="http://www.w3.org/1999/xlink" xml:space="preserve" xmlns:serif="http://www.serif.com/" style="fill-rule:evenodd;clip-rule:evenodd;stroke-linejoin:round;stroke-miterlimit:1.41421;"><path d="M200,13c0,-5.519 -4.481,-10 -10,-10l-180,0c-5.519,0 -10,4.481 -10,10l0,260c0,5.519 4.481,10 10,10l180,0c5.519,0 10,-4.481 10,-10l0,-260Z" style="fill-opacity:0.08;"/><path d="M203,10c0,-5.519 -4.481,-10 -10,-10l-180,0c-5.519,0 -10,4.481 -10,10l0,260c0,5.519 4.481,10 10,10l180,0c5.519,0 10,-4.481 10,-10l0,-260Z" style="fill:#fff;"/><g id="_2" serif:id="2"><path d="M30.828,34.774l-2.552,-0.011l-0.009,1.623l-10.713,0c0.057,-0.373 0.218,-0.847 0.519,-1.388c0.548,-0.998 1.513,-2.171 2.674,-3.331c1.161,-1.164 2.512,-2.328 3.828,-3.387l0.006,-0.004l0.01,-0.009c1.59,-1.325 2.949,-2.304 4.052,-3.472c0.549,-0.584 1.031,-1.225 1.393,-1.969c0.363,-0.745 0.594,-1.582 0.68,-2.507c0.018,-0.194 0.028,-0.401 0.028,-0.627c-0.001,-0.629 -0.074,-1.39 -0.285,-2.21c-0.315,-1.224 -0.949,-2.602 -2.161,-3.688c-1.208,-1.09 -2.971,-1.801 -5.239,-1.794c-1.822,-0.003 -3.317,0.471 -4.457,1.242c-0.858,0.573 -1.505,1.301 -1.983,2.049c-0.717,1.129 -1.065,2.303 -1.25,3.244c-0.183,0.944 -0.198,1.663 -0.198,1.9c0,0.042 0,0.069 0.002,0.08l2.21,-0.059l0.34,-0.005c0,-0.003 0,-0.007 0,-0.016c-0.007,-0.2 0.047,-1.817 0.745,-3.204c0.348,-0.697 0.832,-1.331 1.533,-1.803c0.704,-0.471 1.65,-0.809 3.058,-0.814c1.186,0.001 2.052,0.233 2.71,0.567c0.978,0.505 1.553,1.255 1.929,2.108c0.371,0.844 0.497,1.78 0.493,2.403c0,0.146 -0.006,0.276 -0.015,0.377c-0.062,0.646 -0.207,1.139 -0.425,1.59c-0.326,0.676 -0.858,1.296 -1.665,2.02c-0.801,0.72 -1.855,1.524 -3.093,2.551c-1.818,1.462 -3.723,3.13 -5.231,4.848c-0.755,0.86 -1.414,1.735 -1.911,2.634c-0.465,0.849 -0.793,1.732 -0.858,2.673l-0.009,0l-0.009,0.162l0,0.009l-0.006,2.444l15.862,0l0,-1.122l-0.003,-3.104Z" style="fill-rule:nonzero;"/><path d="M175.093,245.207l2.552,0.011l0.009,-1.622l10.714,0c-0.058,0.373 -0.219,0.847 -0.519,1.387c-0.548,0.998 -1.514,2.172 -2.675,3.331c-1.161,1.165 -2.511,2.329 -3.828,3.388l-0.005,0.003l-0.011,0.009c-1.59,1.326 -2.949,2.304 -4.051,3.473c-0.55,0.584 -1.031,1.225 -1.393,1.969c-0.363,0.745 -0.594,1.582 -0.68,2.506c-0.018,0.194 -0.029,0.402 -0.029,0.628c0.002,0.629 0.074,1.389 0.285,2.21c0.315,1.223 0.949,2.602 2.162,3.687c1.208,1.091 2.97,1.801 5.238,1.794c1.822,0.004 3.317,-0.47 4.458,-1.241c0.857,-0.574 1.505,-1.301 1.982,-2.05c0.717,-1.128 1.066,-2.302 1.251,-3.244c0.182,-0.943 0.197,-1.663 0.197,-1.899c0,-0.043 0,-0.069 -0.001,-0.081l-2.211,0.06l-0.34,0.004c0,0.004 0,0.008 0,0.017c0.007,0.199 -0.047,1.816 -0.745,3.204c-0.347,0.697 -0.831,1.331 -1.533,1.803c-0.703,0.47 -1.649,0.809 -3.058,0.813c-1.185,-0.001 -2.051,-0.233 -2.709,-0.567c-0.978,-0.504 -1.553,-1.255 -1.93,-2.108c-0.371,-0.843 -0.496,-1.779 -0.493,-2.402c0,-0.147 0.007,-0.277 0.016,-0.378c0.061,-0.645 0.206,-1.138 0.424,-1.59c0.327,-0.676 0.859,-1.295 1.666,-2.019c0.801,-0.721 1.854,-1.524 3.092,-2.552c1.818,-1.462 3.723,-3.129 5.231,-4.847c0.755,-0.861 1.414,-1.736 1.912,-2.635c0.465,-0.849 0.792,-1.732 0.857,-2.672l0.009,0l0.009,-0.163l0,-0.009l0.007,-2.444l-15.863,0l0,1.122l0.003,3.104Z" style="fill-rule:nonzero;"/><path d="M103,28.95c-5.206,0 -9.43,4.757 -9.43,10.615c0,3.352 1.398,6.323 3.544,8.285c0.724,0.663 0.412,1.384 -0.326,0.934c-1.339,-0.813 -2.851,-1.331 -4.486,-1.331c-5.019,0 -9.093,4.586 -9.093,10.238c0,5.653 4.074,10.241 9.093,10.241c3.349,0 6.277,-2.036 7.853,-5.072c0.153,-0.298 0.274,-0.705 0.495,-0.705c0.297,0 0.436,0.488 0.436,1.402c0,3.673 -1.41,7.961 -3.493,12.893c0.899,-0.215 3.628,-0.759 5.407,-0.759c1.783,0 4.51,0.544 5.411,0.759c-2.085,-4.932 -3.496,-9.22 -3.496,-12.893c0,-0.914 0.142,-1.402 0.44,-1.402c0.219,0 0.342,0.407 0.493,0.705c1.577,3.036 4.502,5.072 7.85,5.072c5.023,0 9.093,-4.588 9.093,-10.241c0,-5.652 -4.07,-10.238 -9.093,-10.238c-1.631,0 -3.145,0.518 -4.489,1.331c-0.732,0.45 -1.046,-0.271 -0.319,-0.934c2.142,-1.962 3.54,-4.933 3.54,-8.285c0,-5.858 -4.224,-10.615 -9.43,-10.615Z" style="fill-rule:nonzero;"/><path d="M103,251.05c-5.206,0 -9.43,-4.757 -9.43,-10.615c0,-3.352 1.398,-6.323 3.544,-8.285c0.724,-0.663 0.412,-1.384 -0.326,-0.934c-1.339,0.813 -2.851,1.331 -4.486,1.331c-5.019,0 -9.093,-4.586 -9.093,-10.238c0,-5.653 4.074,-10.241 9.093,-10.241c3.349,0 6.277,2.036 7.853,5.072c0.153,0.298 0.274,0.705 0.495,0.705c0.297,0 0.436,-0.488 0.436,-1.402c0,-3.673 -1.41,-7.961 -3.493,-12.893c0.899,0.215 3.628,0.759 5.407,0.759c1.783,0 4.51,-0.544 5.411,-0.759c-2.085,4.932 -3.496,9.22 -3.496,12.893c0,0.914 0.142,1.402 0.44,1.402c0.219,0 0.342,-0.407 0.493,-0.705c1.577,-3.036 4.502,-5.072 7.85,-5.072c5.023,0 9.093,4.588 9.093,10.241c0,5.652 -4.07,10.238 -9.093,10.238c-1.631,0 -3.145,-0.518 -4.489,-1.331c-0.732,-0.45 -1.046,0.271 -0.319,0.934c2.142,1.962 3.54,4.933 3.54,8.285c0,5.858 -4.224,10.615 -9.43,10.615Z" style="fill-rule:nonzero;"/><path d="M183,236.2c-2.082,0 -3.772,-1.903 -3.772,-4.246c0,-1.341 0.559,-2.529 1.417,-3.314c0.29,-0.265 0.165,-0.554 -0.13,-0.374c-0.535,0.326 -1.14,0.533 -1.794,0.533c-2.008,0 -3.638,-1.835 -3.638,-4.095c0,-2.261 1.63,-4.097 3.638,-4.097c1.34,0 2.511,0.814 3.141,2.029c0.061,0.119 0.11,0.282 0.198,0.282c0.119,0 0.175,-0.195 0.175,-0.561c0,-1.469 -0.564,-3.184 -1.398,-5.157c0.36,0.086 1.452,0.303 2.163,0.303c0.713,0 1.804,-0.217 2.165,-0.303c-0.835,1.973 -1.399,3.688 -1.399,5.157c0,0.366 0.057,0.561 0.176,0.561c0.088,0 0.137,-0.163 0.197,-0.282c0.631,-1.215 1.801,-2.029 3.14,-2.029c2.009,0 3.638,1.836 3.638,4.097c0,2.26 -1.629,4.095 -3.638,4.095c-0.652,0 -1.258,-0.207 -1.795,-0.533c-0.293,-0.18 -0.419,0.109 -0.128,0.374c0.857,0.785 1.416,1.973 1.416,3.314c0,2.343 -1.69,4.246 -3.772,4.246Z" style="fill-rule:nonzero;"/><path d="M22.9,43.8c-2.082,0 -3.772,1.903 -3.772,4.246c0,1.341 0.559,2.529 1.417,3.314c0.29,0.265 0.165,0.554 -0.13,0.374c-0.535,-0.326 -1.14,-0.533 -1.794,-0.533c-2.008,0 -3.638,1.835 -3.638,4.095c0,2.261 1.63,4.097 3.638,4.097c1.34,0 2.511,-0.814 3.141,-2.029c0.061,-0.119 0.11,-0.282 0.198,-0.282c0.119,0 0.175,0.195 0.175,0.561c0,1.469 -0.564,3.184 -1.398,5.157c0.36,-0.086 1.452,-0.303 2.163,-0.303c0.713,0 1.804,0.217 2.165,0.303c-0.835,-1.973 -1.399,-3.688 -1.399,-5.157c0,-0.366 0.057,-0.561 0.176,-0.561c0.088,0 0.137,0.163 0.197,0.282c0.631,1.215 1.801,2.029 3.14,2.029c2.009,0 3.638,-1.836 3.638,-4.097c0,-2.26 -1.629,-4.095 -3.638,-4.095c-0.652,0 -1.258,0.207 -1.795,0.533c-0.293,0.18 -0.419,-0.109 -0.128,-0.374c0.857,-0.785 1.416,-1.973 1.416,-3.314c0,-2.343 -1.69,-4.246 -3.772,-4.246Z" style="fill-rule:nonzero;"/></g></svg>