<?xml version="1.0" encoding="UTF-8" standalone="no"?><!DOCTYPE svg PUBLIC "-//W3C//DTD SVG 1.1//EN" "http://www.w3.org/Graphics/SVG/1.1/DTD/svg11.dtd"><svg width="100%" height="100%" viewBox="0 0 203 283" version="1.1" xmlns="http://www.w3.org/2000/svg" xmlns:xlink="http://www.w3.org/1999/xlink" xml:space="preserve" xmlns:serif="http://www.serif.com/" style="fill-rule:evenodd;clip-rule:evenodd;stroke-linejoin:round;stroke-miterlimit:1.41421;"><path d="M200,13c0,-5.519 -4.481,-10 -10,-10l-180,0c-5.519,0 -10,4.481 -10,10l0,260c0,5.519 4.481,10 10,10l180,0c5.519,0 10,-4.481 10,-10l0,-260Z" style="fill-opacity:0.08;"/><path d="M203,10c0,-5.519 -4.481,-10 -10,-10l-180,0c-5.519,0 -10,4.481 -10,10l0,260c0,5.519 4.481,10 10,10l180,0c5.519,0 10,-4.481 10,-10l0,-260Z" style="fill:#fff;"/><g id="_6" serif:id="6"><path d="M28.798,22.444c-0.677,-0.889 -1.523,-1.621 -2.504,-2.122c-0.982,-0.502 -2.098,-0.772 -3.296,-0.772c-0.032,0.002 -0.062,0.002 -0.085,0.002c-1.204,0.012 -2.324,0.317 -3.305,0.86c-0.651,0.36 -1.232,0.826 -1.749,1.365c0.046,-0.278 0.094,-0.547 0.141,-0.793c0.148,-0.759 0.295,-1.362 0.403,-1.768c0.055,-0.202 0.098,-0.356 0.13,-0.457c0.014,-0.049 0.025,-0.086 0.032,-0.11c0.005,-0.011 0.007,-0.02 0.008,-0.023c0,-0.001 0.001,-0.001 0.001,-0.001l0,-0.002l0.011,-0.034l0.008,-0.029l0.002,-0.006l0,-0.001c0.026,-0.093 0.332,-1.049 1.022,-1.945c0.359,-0.466 0.815,-0.919 1.388,-1.264c0.572,-0.345 1.265,-0.594 2.154,-0.645c0.126,-0.006 0.245,-0.01 0.363,-0.01c1.582,0.005 2.621,0.563 3.307,1.106c0.342,0.272 0.586,0.543 0.741,0.734c0.075,0.097 0.129,0.173 0.16,0.219c0.015,0.022 0.025,0.038 0.028,0.044l0.002,0.003l0.61,-0.434l1.461,-1.003c-0.059,-0.101 -0.535,-0.916 -1.56,-1.737c-1.018,-0.82 -2.613,-1.625 -4.749,-1.621c-0.156,0 -0.318,0.004 -0.484,0.015c-1.294,0.068 -2.404,0.465 -3.301,1.026c-1.348,0.844 -2.207,2.02 -2.734,2.969c-0.48,0.867 -0.694,1.56 -0.745,1.736c-0.126,0.405 -1.297,4.198 -1.299,9.386c0,0.953 0.049,1.959 0.144,2.993c0.107,2.363 0.849,4.497 2.128,6.092c1.374,1.724 3.39,2.783 5.668,2.783c0.008,0 0.017,0 0.026,0c1.199,0 2.321,-0.286 3.307,-0.809c1.483,-0.784 2.647,-2.09 3.424,-3.661c0.779,-1.574 1.184,-3.421 1.185,-5.362c-0.001,-2.561 -0.689,-4.941 -2.043,-6.724Zm-1.934,11.847c-0.477,0.635 -1.044,1.132 -1.697,1.478c-0.652,0.344 -1.392,0.542 -2.242,0.542c-1.618,-0.007 -2.902,-0.696 -3.856,-1.872c-0.836,-1.041 -1.395,-2.494 -1.514,-4.216l0.012,-0.001c-0.01,-0.105 -0.014,-0.203 -0.023,-0.308c-0.005,-0.127 -0.014,-0.254 -0.014,-0.385c-0.003,-2.048 0.562,-3.905 1.505,-5.198c0.47,-0.649 1.032,-1.161 1.676,-1.519c0.645,-0.356 1.378,-0.562 2.224,-0.572c0.025,0 0.046,0 0.063,0c0.87,0.001 1.615,0.19 2.261,0.52c0.967,0.496 1.731,1.315 2.278,2.411c0.544,1.096 0.854,2.471 0.854,3.997c0.001,2.042 -0.575,3.861 -1.527,5.123Z" style="fill-rule:nonzero;"/><path d="M177.102,257.556c0.677,0.889 1.523,1.621 2.504,2.122c0.982,0.502 2.098,0.772 3.296,0.772c0.032,-0.002 0.062,-0.002 0.085,-0.002c1.204,-0.012 2.324,-0.317 3.305,-0.86c0.651,-0.36 1.232,-0.826 1.749,-1.365c-0.046,0.278 -0.094,0.547 -0.141,0.793c-0.148,0.759 -0.295,1.362 -0.403,1.768c-0.055,0.202 -0.098,0.356 -0.13,0.457c-0.014,0.049 -0.025,0.086 -0.032,0.11c-0.005,0.011 -0.007,0.02 -0.008,0.023c0,0.001 -0.001,0.001 -0.001,0.001l0,0.002l-0.011,0.034l-0.008,0.029l-0.002,0.006l0,0.001c-0.026,0.093 -0.332,1.049 -1.022,1.945c-0.359,0.466 -0.815,0.919 -1.388,1.264c-0.572,0.345 -1.265,0.594 -2.154,0.645c-0.126,0.006 -0.245,0.01 -0.363,0.01c-1.582,-0.005 -2.621,-0.563 -3.307,-1.106c-0.342,-0.272 -0.586,-0.543 -0.741,-0.734c-0.075,-0.097 -0.129,-0.173 -0.16,-0.219c-0.015,-0.022 -0.025,-0.038 -0.028,-0.044l-0.002,-0.003l-0.61,0.434l-1.461,1.003c0.059,0.101 0.535,0.916 1.56,1.737c1.018,0.82 2.613,1.625 4.749,1.621c0.156,0 0.318,-0.004 0.484,-0.015c1.294,-0.068 2.404,-0.465 3.301,-1.026c1.348,-0.844 2.207,-2.02 2.734,-2.969c0.48,-0.867 0.694,-1.56 0.745,-1.736c0.126,-0.405 1.297,-4.198 1.299,-9.386c0,-0.953 -0.049,-1.959 -0.144,-2.993c-0.107,-2.363 -0.849,-4.497 -2.128,-6.092c-1.374,-1.724 -3.39,-2.783 -5.668,-2.783c-0.008,0 -0.017,0 -0.026,0c-1.199,0 -2.321,0.286 -3.307,0.809c-1.483,0.784 -2.647,2.09 -3.424,3.661c-0.779,1.574 -1.184,3.421 -1.185,5.362c0.001,2.561 0.689,4.941 2.043,6.724Zm1.934,-11.847c0.477,-0.635 1.044,-1.132 1.697,-1.478c0.652,-0.344 1.392,-0.542 2.242,-0.542c1.618,0.007 2.902,0.696 3.856,1.872c0.836,1.041 1.395,2.494 1.514,4.216l-0.012,0.001c0.01,0.105 0.014,0.203 0.023,0.308c0.005,0.127 0.014,0.254 0.014,0.385c0.003,2.048 -0.562,3.905 -1.505,5.198c-0.47,0.649 -1.032,1.161 -1.676,1.519c-0.645,0.356 -1.378,0.562 -2.224,0.572c-0.025,0 -0.046,0 -0.063,0c-0.87,-0.001 -1.615,-0.19 -2.261,-0.52c-0.967,-0.496 -1.731,-1.315 -2.278,-2.411c-0.544,-1.096 -0.854,-2.471 -0.854,-3.997c-0.001,-2.042 0.575,-3.861 1.527,-5.123Z" style="fill-rule:nonzero;"/><path d="M22.9,43.8c-2.082,0 -3.772,1.903 -3.772,4.246c0,1.341 0.559,2.529 1.417,3.314c0.29,0.265 0.165,0.554 -0.13,0.374c-0.535,-0.326 -1.14,-0.533 -1.794,-0.533c-2.008,0 -3.638,1.835 -3.638,4.095c0,2.261 1.63,4.097 3.638,4.097c1.34,0 2.511,-0.814 3.141,-2.029c0.061,-0.119 0.11,-0.282 0.198,-0.282c0.119,0 0.175,0.195 0.175,0.561c0,1.469 -0.564,3.184 -1.398,5.157c0.36,-0.086 1.452,-0.303 2.163,-0.303c0.713,0 1.804,0.217 2.165,0.303c-0.835,-1.973 -1.399,-3.688 -1.399,-5.157c0,-0.366 0.057,-0.561 0.176,-0.561c0.088,0 0.137,0.163 0.197,0.282c0.631,1.215 1.801,2.029 3.14,2.029c2.009,0 3.638,-1.836 3.638,-4.097c0,-2.26 -1.629,-4.095 -3.638,-4.095c-0.652,0 -1.258,0.207 -1.795,0.533c-0.293,0.18 -0.419,-0.109 -0.128,-0.374c0.857,-0.785 1.416,-1.973 1.416,-3.314c0,-2.343 -1.69,-4.246 -3.772,-4.246Z" style="fill-rule:nonzero;"/><path d="M59.6,28.95c-5.206,0 -9.43,4.757 -9.43,10.615c0,3.352 1.398,6.323 3.544,8.285c0.724,0.663 0.412,1.384 -0.326,0.934c-1.339,-0.813 -2.851,-1.331 -4.486,-1.331c-5.019,0 -9.093,4.586 -9.093,10.238c0,5.653 4.074,10.241 9.093,10.241c3.349,0 6.277,-2.036 7.853,-5.072c0.153,-0.298 0.274,-0.705 0.495,-0.705c0.297,0 0.436,0.488 0.436,1.402c0,3.673 -1.41,7.961 -3.493,12.893c0.899,-0.215 3.628,-0.759 5.407,-0.759c1.783,0 4.51,0.544 5.411,0.759c-2.085,-4.932 -3.496,-9.22 -3.496,-12.893c0,-0.914 0.142,-1.402 0.44,-1.402c0.219,0 0.342,0.407 0.493,0.705c1.577,3.036 4.502,5.072 7.85,5.072c5.023,0 9.093,-4.588 9.093,-10.241c0,-5.652 -4.07,-10.238 -9.093,-10.238c-1.631,0 -3.145,0.518 -4.489,1.331c-0.732,0.45 -1.046,-0.271 -0.319,-0.934c2.142,-1.962 3.54,-4.933 3.54,-8.285c0,-5.858 -4.224,-10.615 -9.43,-10.615Z" style="fill-rule:nonzero;"/><path d="M183,236.2c-2.082,0 -3.772,-1.903 -3.772,-4.246c0,-1.341 0.559,-2.529 1.417,-3.314c0.29,-0.265 0.165,-0.554 -0.13,-0.374c-0.535,0.326 -1.14,0.533 -1.794,0.533c-2.008,0 -3.638,-1.835 -3.638,-4.095c0,-2.261 1.63,-4.097 3.638,-4.097c1.34,0 2.511,0.814 3.141,2.029c0.061,0.119 0.11,0.282 0.198,0.282c0.119,0 0.175,-0.195 0.175,-0.561c0,-1.469 -0.564,-3.184 -1.398,-5.157c0.36,0.086 1.452,0.303 2.163,0.303c0.713,0 1.804,-0.217 2.165,-0.303c-0.835,1.973 -1.399,3.688 -1.399,5.157c0,0.366 0.057,0.561 0.176,0.561c0.088,0 0.137,-0.163 0.197,-0.282c0.631,-1.215 1.801,-2.029 3.14,-2.029c2.009,0 3.638,1.836 3.638,4.097c0,2.26 -1.629,4.095 -3.638,4.095c-0.652,0 -1.258,-0.207 -1.795,-0.533c-0.293,-0.18 -0.419,0.109 -0.128,0.374c0.857,0.785 1.416,1.973 1.416,3.314c0,2.343 -1.69,4.246 -3.772,4.246Z" style="fill-rule:nonzero;"/><path d="M146.4,28.95c-5.206,0 -9.43,4.757 -9.43,10.615c0,3.352 1.398,6.323 3.544,8.285c0.724,0.663 0.412,1.384 -0.326,0.934c-1.339,-0.813 -2.851,-1.331 -4.486,-1.331c-5.019,0 -9.093,4.586 -9.093,10.238c0,5.653 4.074,10.241 9.093,10.241c3.349,0 6.277,-2.036 7.853,-5.072c0.153,-0.298 0.274,-0.705 0.495,-0.705c0.297,0 0.436,0.488 0.436,1.402c0,3.673 -1.41,7.961 -3.493,12.893c0.899,-0.215 3.628,-0.759 5.407,-0.759c1.783,0 4.51,0.544 5.411,0.759c-2.085,-4.932 -3.496,-9.22 -3.496,-12.893c0,-0.914 0.142,-1.402 0.44,-1.402c0.219,0 0.342,0.407 0.493,0.705c1.577,3.036 4.502,5.072 7.85,5.072c5.023,0 9.093,-4.588 9.093,-10.241c0,-5.652 -4.07,-10.238 -9.093,-10.238c-1.631,0 -3.145,0.518 -4.489,1.331c-0.732,0.45 -1.046,-0.271 -0.319,-0.934c2.142,-1.962 3.54,-4.933 3.54,-8.285c0,-5.858 -4.224,-10.615 -9.43,-10.615Z" style="fill-rule:nonzero;"/><path d="M59.6,251.05c-5.206,0 -9.43,-4.757 -9.43,-10.615c0,-3.352 1.398,-6.323 3.544,-8.285c0.724,-0.663 0.412,-1.384 -0.326,-0.934c-1.339,0.813 -2.851,1.331 -4.486,1.331c-5.019,0 -9.093,-4.586 -9.093,-10.238c0,-5.653 4.074,-10.241 9.093,-10.241c3.349,0 6.277,2.036 7.853,5.072c0.153,0.298 0.274,0.705 0.495,0.705c0.297,0 0.436,-0.488 0.436,-1.402c0,-3.673 -1.41,-7.961 -3.493,-12.893c0.899,0.215 3.628,0.759 5.407,0.759c1.783,0 4.51,-0.544 5.411,-0.759c-2.085,4.932 -3.496,9.22 -3.496,12.893c0,0.914 0.142,1.402 0.44,1.402c0.219,0 0.342,-0.407 0.493,-0.705c1.577,-3.036 4.502,-5.072 7.85,-5.072c5.023,0 9.093,4.588 9.093,10.241c0,5.652 -4.07,10.238 -9.093,10.238c-1.631,0 -3.145,-0.518 -4.489,-1.331c-0.732,-0.45 -1.046,0.271 -0.319,0.934c2.142,1.962 3.54,4.933 3.54,8.285c0,5.858 -4.224,10.615 -9.43,10.615Z" style="fill-rule:nonzero;"/><path d="M146.4,251.05c-5.206,0 -9.43,-4.757 -9.43,-10.615c0,-3.352 1.398,-6.323 3.544,-8.285c0.724,-0.663 0.412,-1.384 -0.326,-0.934c-1.339,0.813 -2.851,1.331 -4.486,1.331c-5.019,0 -9.093,-4.586 -9.093,-10.238c0,-5.653 4.074,-10.241 9.093,-10.241c3.349,0 6.277,2.036 7.853,5.072c0.153,0.298 0.274,0.705 0.495,0.705c0.297,0 0.436,-0.488 0.436,-1.402c0,-3.673 -1.41,-7.961 -3.493,-12.893c0.899,0.215 3.628,0.759 5.407,0.759c1.783,0 4.51,-0.544 5.411,-0.759c-2.085,4.932 -3.496,9.22 -3.496,12.893c0,0.914 0.142,1.402 0.44,1.402c0.219,0 0.342,-0.407 0.493,-0.705c1.577,-3.036 4.502,-5.072 7.85,-5.072c5.023,0 9.093,4.588 9.093,10.241c0,5.652 -4.07,10.238 -9.093,10.238c-1.631,0 -3.145,-0.518 -4.489,-1.331c-0.732,-0.45 -1.046,0.271 -0.319,0.934c2.142,1.962 3.54,4.933 3.54,8.285c0,5.858 -4.224,10.615 -9.43,10.615Z" style="fill-rule:nonzero;"/><path d="M59.6,116.25c-5.206,0 -9.43,4.757 -9.43,10.615c0,3.352 1.398,6.323 3.544,8.285c0.724,0.663 0.412,1.384 -0.326,0.934c-1.339,-0.813 -2.851,-1.331 -4.486,-1.331c-5.019,0 -9.093,4.586 -9.093,10.238c0,5.653 4.074,10.241 9.093,10.241c3.349,0 6.277,-2.036 7.853,-5.072c0.153,-0.298 0.274,-0.705 0.495,-0.705c0.297,0 0.436,0.488 0.436,1.402c0,3.673 -1.41,7.961 -3.493,12.893c0.899,-0.215 3.628,-0.759 5.407,-0.759c1.783,0 4.51,0.544 5.411,0.759c-2.085,-4.932 -3.496,-9.22 -3.496,-12.893c0,-0.914 0.142,-1.402 0.44,-1.402c0.219,0 0.342,0.407 0.493,0.705c1.577,3.036 4.502,5.072 7.85,5.072c5.023,0 9.093,-4.588 9.093,-10.241c0,-5.652 -4.07,-10.238 -9.093,-10.238c-1.631,0 -3.145,0.518 -4.489,1.331c-0.732,0.45 -1.046,-0.271 -0.319,-0.934c2.142,-1.962 3.54,-4.933 3.54,-8.285c0,-5.858 -4.224,-10.615 -9.43,-10.615Z" style="fill-rule:nonzero;"/><path d="M146.4,116.25c-5.206,0 -9.43,4.757 -9.43,10.615c0,3.352 1.398,6.323 3.544,8.285c0.724,0.663 0.412,1.384 -0.326,0.934c-1.339,-0.813 -2.851,-1.331 -4.486,-1.331c-5.019,0 -9.093,4.586 -9.093,10.238c0,5.653 4.074,10.241 9.093,10.241c3.349,0 6.277,-2.036 7.853,-5.072c0.153,-0.298 0.274,-0.705 0.495,-0.705c0.297,0 0.436,0.488 0.436,1.402c0,3.673 -1.41,7.961 -3.493,12.893c0.899,-0.215 3.628,-0.759 5.407,-0.759c1.783,0 4.51,0.544 5.411,0.759c-2.085,-4.932 -3.496,-9.22 -3.496,-12.893c0,-0.914 0.142,-1.402 0.44,-1.402c0.219,0 0.342,0.407 0.493,0.705c1.577,3.036 4.502,5.072 7.85,5.072c5.023,0 9.093,-4.588 9.093,-10.241c0,-5.652 -4.07,-10.238 -9.093,-10.238c-1.631,0 -3.145,0.518 -4.489,1.331c-0.732,0.45 -1.046,-0.271 -0.319,-0.934c2.142,-1.962 3.54,-4.933 3.54,-8.285c0,-5.858 -4.224,-10.615 -9.43,-10.615Z" style="fill-rule:nonzero;"/></g></svg>