<?xml version="1.0" encoding="UTF-8" standalone="no"?><!DOCTYPE svg PUBLIC "-//W3C//DTD SVG 1.1//EN" "http://www.w3.org/Graphics/SVG/1.1/DTD/svg11.dtd"><svg width="100%" height="100%" viewBox="0 0 203 283" version="1.1" xmlns="http://www.w3.org/2000/svg" xmlns:xlink="http://www.w3.org/1999/xlink" xml:space="preserve" xmlns:serif="http://www.serif.com/" style="fill-rule:evenodd;clip-rule:evenodd;stroke-linejoin:round;stroke-miterlimit:1.41421;"><path d="M200,13c0,-5.519 -4.481,-10 -10,-10l-180,0c-5.519,0 -10,4.481 -10,10l0,260c0,5.519 4.481,10 10,10l180,0c5.519,0 10,-4.481 10,-10l0,-260Z" style="fill-opacity:0.08;"/><path d="M203,10c0,-5.519 -4.481,-10 -10,-10l-180,0c-5.519,0 -10,4.481 -10,10l0,260c0,5.519 4.481,10 10,10l180,0c5.519,0 10,-4.481 10,-10l0,-260Z" style="fill:#fff;"/><g id="_8" serif:id="8"><path d="M28.465,25.376c-0.413,-0.407 -0.874,-0.761 -1.367,-1.069c0.211,-0.162 0.413,-0.334 0.603,-0.52c1.249,-1.221 2.059,-2.972 2.056,-4.911c0.003,-1.94 -0.807,-3.689 -2.056,-4.912c-1.248,-1.227 -2.947,-1.963 -4.8,-1.964c-1.855,0.001 -3.553,0.737 -4.802,1.964c-1.248,1.223 -2.056,2.972 -2.055,4.912c-0.001,1.939 0.807,3.69 2.055,4.911c0.19,0.186 0.393,0.358 0.603,0.52c-0.492,0.308 -0.953,0.662 -1.367,1.069c-1.445,1.414 -2.377,3.435 -2.376,5.674c-0.001,2.237 0.931,4.258 2.376,5.673c1.445,1.421 3.414,2.276 5.566,2.277c2.15,-0.001 4.119,-0.856 5.564,-2.277c1.446,-1.415 2.379,-3.436 2.376,-5.673c0.003,-2.239 -0.93,-4.26 -2.376,-5.674Zm-8.731,-9.419c0.79,-0.777 1.908,-1.279 3.164,-1.279l0.003,0c1.258,-0.001 2.375,0.501 3.166,1.279c0.79,0.781 1.243,1.8 1.244,2.919c-0.001,1.119 -0.454,2.138 -1.244,2.92c-0.791,0.777 -1.908,1.28 -3.166,1.279c-1.258,0.001 -2.377,-0.502 -3.167,-1.279c-0.789,-0.782 -1.243,-1.801 -1.244,-2.92c0.001,-1.119 0.455,-2.138 1.244,-2.919Zm6.996,18.653c-0.959,0.942 -2.313,1.548 -3.829,1.547c-1.518,0.001 -2.872,-0.605 -3.831,-1.547c-0.958,-0.948 -1.512,-2.192 -1.515,-3.56c0.003,-1.369 0.557,-2.612 1.515,-3.562c0.959,-0.941 2.311,-1.548 3.828,-1.548l0.003,0c1.516,0 2.87,0.607 3.829,1.548c0.959,0.95 1.515,2.193 1.516,3.562c-0.001,1.368 -0.557,2.612 -1.516,3.56Z" style="fill-rule:nonzero;"/><path d="M177.435,254.624c0.413,0.407 0.874,0.761 1.367,1.069c-0.211,0.162 -0.413,0.334 -0.603,0.52c-1.249,1.221 -2.059,2.972 -2.056,4.911c-0.003,1.94 0.807,3.689 2.056,4.912c1.248,1.227 2.947,1.963 4.8,1.964c1.855,-0.001 3.553,-0.737 4.802,-1.964c1.248,-1.223 2.056,-2.972 2.055,-4.912c0.001,-1.939 -0.807,-3.69 -2.055,-4.911c-0.19,-0.186 -0.393,-0.358 -0.603,-0.52c0.492,-0.308 0.953,-0.662 1.367,-1.069c1.445,-1.414 2.377,-3.435 2.376,-5.674c0.001,-2.237 -0.931,-4.258 -2.376,-5.673c-1.445,-1.421 -3.414,-2.276 -5.566,-2.277c-2.15,0.001 -4.119,0.856 -5.564,2.277c-1.446,1.415 -2.379,3.436 -2.376,5.673c-0.003,2.239 0.93,4.26 2.376,5.674Zm8.731,9.419c-0.79,0.777 -1.908,1.279 -3.164,1.279l-0.003,0c-1.258,0.001 -2.375,-0.501 -3.166,-1.279c-0.79,-0.781 -1.243,-1.8 -1.244,-2.919c0.001,-1.119 0.454,-2.138 1.244,-2.92c0.791,-0.777 1.908,-1.28 3.166,-1.279c1.258,-0.001 2.377,0.502 3.167,1.279c0.789,0.782 1.243,1.801 1.244,2.92c-0.001,1.119 -0.455,2.138 -1.244,2.919Zm-6.996,-18.653c0.959,-0.942 2.313,-1.548 3.829,-1.547c1.518,-0.001 2.872,0.605 3.831,1.547c0.958,0.948 1.512,2.192 1.515,3.56c-0.003,1.369 -0.557,2.612 -1.515,3.562c-0.959,0.941 -2.311,1.548 -3.828,1.548l-0.003,0c-1.516,0 -2.87,-0.607 -3.829,-1.548c-0.959,-0.95 -1.515,-2.193 -1.516,-3.562c0.001,-1.368 0.557,-2.612 1.516,-3.56Z" style="fill-rule:nonzero;"/><path d="M22.9,43.8c-2.082,0 -3.772,1.903 -3.772,4.246c0,1.341 0.559,2.529 1.417,3.314c0.29,0.265 0.165,0.554 -0.13,0.374c-0.535,-0.326 -1.14,-0.533 -1.794,-0.533c-2.008,0 -3.638,1.835 -3.638,4.095c0,2.261 1.63,4.097 3.638,4.097c1.34,0 2.511,-0.814 3.141,-2.029c0.061,-0.119 0.11,-0.282 0.198,-0.282c0.119,0 0.175,0.195 0.175,0.561c0,1.469 -0.564,3.184 -1.398,5.157c0.36,-0.086 1.452,-0.303 2.163,-0.303c0.713,0 1.804,0.217 2.165,0.303c-0.835,-1.973 -1.399,-3.688 -1.399,-5.157c0,-0.366 0.057,-0.561 0.176,-0.561c0.088,0 0.137,0.163 0.197,0.282c0.631,1.215 1.801,2.029 3.14,2.029c2.009,0 3.638,-1.836 3.638,-4.097c0,-2.26 -1.629,-4.095 -3.638,-4.095c-0.652,0 -1.258,0.207 -1.795,0.533c-0.293,0.18 -0.419,-0.109 -0.128,-0.374c0.857,-0.785 1.416,-1.973 1.416,-3.314c0,-2.343 -1.69,-4.246 -3.772,-4.246Z" style="fill-rule:nonzero;"/><path d="M59.6,28.95c-5.206,0 -9.43,4.757 -9.43,10.615c0,3.352 1.398,6.323 3.544,8.285c0.724,0.663 0.412,1.384 -0.326,0.934c-1.339,-0.813 -2.851,-1.331 -4.486,-1.331c-5.019,0 -9.093,4.586 -9.093,10.238c0,5.653 4.074,10.241 9.093,10.241c3.349,0 6.277,-2.036 7.853,-5.072c0.153,-0.298 0.274,-0.705 0.495,-0.705c0.297,0 0.436,0.488 0.436,1.402c0,3.673 -1.41,7.961 -3.493,12.893c0.899,-0.215 3.628,-0.759 5.407,-0.759c1.783,0 4.51,0.544 5.411,0.759c-2.085,-4.932 -3.496,-9.22 -3.496,-12.893c0,-0.914 0.142,-1.402 0.44,-1.402c0.219,0 0.342,0.407 0.493,0.705c1.577,3.036 4.502,5.072 7.85,5.072c5.023,0 9.093,-4.588 9.093,-10.241c0,-5.652 -4.07,-10.238 -9.093,-10.238c-1.631,0 -3.145,0.518 -4.489,1.331c-0.732,0.45 -1.046,-0.271 -0.319,-0.934c2.142,-1.962 3.54,-4.933 3.54,-8.285c0,-5.858 -4.224,-10.615 -9.43,-10.615Z" style="fill-rule:nonzero;"/><path d="M183,236.2c-2.082,0 -3.772,-1.903 -3.772,-4.246c0,-1.341 0.559,-2.529 1.417,-3.314c0.29,-0.265 0.165,-0.554 -0.13,-0.374c-0.535,0.326 -1.14,0.533 -1.794,0.533c-2.008,0 -3.638,-1.835 -3.638,-4.095c0,-2.261 1.63,-4.097 3.638,-4.097c1.34,0 2.511,0.814 3.141,2.029c0.061,0.119 0.11,0.282 0.198,0.282c0.119,0 0.175,-0.195 0.175,-0.561c0,-1.469 -0.564,-3.184 -1.398,-5.157c0.36,0.086 1.452,0.303 2.163,0.303c0.713,0 1.804,-0.217 2.165,-0.303c-0.835,1.973 -1.399,3.688 -1.399,5.157c0,0.366 0.057,0.561 0.176,0.561c0.088,0 0.137,-0.163 0.197,-0.282c0.631,-1.215 1.801,-2.029 3.14,-2.029c2.009,0 3.638,1.836 3.638,4.097c0,2.26 -1.629,4.095 -3.638,4.095c-0.652,0 -1.258,-0.207 -1.795,-0.533c-0.293,-0.18 -0.419,0.109 -0.128,0.374c0.857,0.785 1.416,1.973 1.416,3.314c0,2.343 -1.69,4.246 -3.772,4.246Z" style="fill-rule:nonzero;"/><path d="M146.4,28.95c-5.206,0 -9.43,4.757 -9.43,10.615c0,3.352 1.398,6.323 3.544,8.285c0.724,0.663 0.412,1.384 -0.326,0.934c-1.339,-0.813 -2.851,-1.331 -4.486,-1.331c-5.019,0 -9.093,4.586 -9.093,10.238c0,5.653 4.074,10.241 9.093,10.241c3.349,0 6.277,-2.036 7.853,-5.072c0.153,-0.298 0.274,-0.705 0.495,-0.705c0.297,0 0.436,0.488 0.436,1.402c0,3.673 -1.41,7.961 -3.493,12.893c0.899,-0.215 3.628,-0.759 5.407,-0.759c1.783,0 4.51,0.544 5.411,0.759c-2.085,-4.932 -3.496,-9.22 -3.496,-12.893c0,-0.914 0.142,-1.402 0.44,-1.402c0.219,0 0.342,0.407 0.493,0.705c1.577,3.036 4.502,5.072 7.85,5.072c5.023,0 9.093,-4.588 9.093,-10.241c0,-5.652 -4.07,-10.238 -9.093,-10.238c-1.631,0 -3.145,0.518 -4.489,1.331c-0.732,0.45 -1.046,-0.271 -0.319,-0.934c2.142,-1.962 3.54,-4.933 3.54,-8.285c0,-5.858 -4.224,-10.615 -9.43,-10.615Z" style="fill-rule:nonzero;"/><path d="M59.6,251.05c-5.206,0 -9.43,-4.757 -9.43,-10.615c0,-3.352 1.398,-6.323 3.544,-8.285c0.724,-0.663 0.412,-1.384 -0.326,-0.934c-1.339,0.813 -2.851,1.331 -4.486,1.331c-5.019,0 -9.093,-4.586 -9.093,-10.238c0,-5.653 4.074,-10.241 9.093,-10.241c3.349,0 6.277,2.036 7.853,5.072c0.153,0.298 0.274,0.705 0.495,0.705c0.297,0 0.436,-0.488 0.436,-1.402c0,-3.673 -1.41,-7.961 -3.493,-12.893c0.899,0.215 3.628,0.759 5.407,0.759c1.783,0 4.51,-0.544 5.411,-0.759c-2.085,4.932 -3.496,9.22 -3.496,12.893c0,0.914 0.142,1.402 0.44,1.402c0.219,0 0.342,-0.407 0.493,-0.705c1.577,-3.036 4.502,-5.072 7.85,-5.072c5.023,0 9.093,4.588 9.093,10.241c0,5.652 -4.07,10.238 -9.093,10.238c-1.631,0 -3.145,-0.518 -4.489,-1.331c-0.732,-0.45 -1.046,0.271 -0.319,0.934c2.142,1.962 3.54,4.933 3.54,8.285c0,5.858 -4.224,10.615 -9.43,10.615Z" style="fill-rule:nonzero;"/><path d="M146.4,251.05c-5.206,0 -9.43,-4.757 -9.43,-10.615c0,-3.352 1.398,-6.323 3.544,-8.285c0.724,-0.663 0.412,-1.384 -0.326,-0.934c-1.339,0.813 -2.851,1.331 -4.486,1.331c-5.019,0 -9.093,-4.586 -9.093,-10.238c0,-5.653 4.074,-10.241 9.093,-10.241c3.349,0 6.277,2.036 7.853,5.072c0.153,0.298 0.274,0.705 0.495,0.705c0.297,0 0.436,-0.488 0.436,-1.402c0,-3.673 -1.41,-7.961 -3.493,-12.893c0.899,0.215 3.628,0.759 5.407,0.759c1.783,0 4.51,-0.544 5.411,-0.759c-2.085,4.932 -3.496,9.22 -3.496,12.893c0,0.914 0.142,1.402 0.44,1.402c0.219,0 0.342,-0.407 0.493,-0.705c1.577,-3.036 4.502,-5.072 7.85,-5.072c5.023,0 9.093,4.588 9.093,10.241c0,5.652 -4.07,10.238 -9.093,10.238c-1.631,0 -3.145,-0.518 -4.489,-1.331c-0.732,-0.45 -1.046,0.271 -0.319,0.934c2.142,1.962 3.54,4.933 3.54,8.285c0,5.858 -4.224,10.615 -9.43,10.615Z" style="fill-rule:nonzero;"/><path d="M59.6,116.25c-5.206,0 -9.43,4.757 -9.43,10.615c0,3.352 1.398,6.323 3.544,8.285c0.724,0.663 0.412,1.384 -0.326,0.934c-1.339,-0.813 -2.851,-1.331 -4.486,-1.331c-5.019,0 -9.093,4.586 -9.093,10.238c0,5.653 4.074,10.241 9.093,10.241c3.349,0 6.277,-2.036 7.853,-5.072c0.153,-0.298 0.274,-0.705 0.495,-0.705c0.297,0 0.436,0.488 0.436,1.402c0,3.673 -1.41,7.961 -3.493,12.893c0.899,-0.215 3.628,-0.759 5.407,-0.759c1.783,0 4.51,0.544 5.411,0.759c-2.085,-4.932 -3.496,-9.22 -3.496,-12.893c0,-0.914 0.142,-1.402 0.44,-1.402c0.219,0 0.342,0.407 0.493,0.705c1.577,3.036 4.502,5.072 7.85,5.072c5.023,0 9.093,-4.588 9.093,-10.241c0,-5.652 -4.07,-10.238 -9.093,-10.238c-1.631,0 -3.145,0.518 -4.489,1.331c-0.732,0.45 -1.046,-0.271 -0.319,-0.934c2.142,-1.962 3.54,-4.933 3.54,-8.285c0,-5.858 -4.224,-10.615 -9.43,-10.615Z" style="fill-rule:nonzero;"/><path d="M146.4,116.25c-5.206,0 -9.43,4.757 -9.43,10.615c0,3.352 1.398,6.323 3.544,8.285c0.724,0.663 0.412,1.384 -0.326,0.934c-1.339,-0.813 -2.851,-1.331 -4.486,-1.331c-5.019,0 -9.093,4.586 -9.093,10.238c0,5.653 4.074,10.241 9.093,10.241c3.349,0 6.277,-2.036 7.853,-5.072c0.153,-0.298 0.274,-0.705 0.495,-0.705c0.297,0 0.436,0.488 0.436,1.402c0,3.673 -1.41,7.961 -3.493,12.893c0.899,-0.215 3.628,-0.759 5.407,-0.759c1.783,0 4.51,0.544 5.411,0.759c-2.085,-4.932 -3.496,-9.22 -3.496,-12.893c0,-0.914 0.142,-1.402 0.44,-1.402c0.219,0 0.342,0.407 0.493,0.705c1.577,3.036 4.502,5.072 7.85,5.072c5.023,0 9.093,-4.588 9.093,-10.241c0,-5.652 -4.07,-10.238 -9.093,-10.238c-1.631,0 -3.145,0.518 -4.489,1.331c-0.732,0.45 -1.046,-0.271 -0.319,-0.934c2.142,-1.962 3.54,-4.933 3.54,-8.285c0,-5.858 -4.224,-10.615 -9.43,-10.615Z" style="fill-rule:nonzero;"/><path d="M103,72.65c-5.206,0 -9.43,4.757 -9.43,10.615c0,3.352 1.398,6.323 3.544,8.285c0.724,0.663 0.412,1.384 -0.326,0.934c-1.339,-0.813 -2.851,-1.331 -4.486,-1.331c-5.019,0 -9.093,4.586 -9.093,10.238c0,5.653 4.074,10.241 9.093,10.241c3.349,0 6.277,-2.036 7.853,-5.072c0.153,-0.298 0.274,-0.705 0.495,-0.705c0.297,0 0.436,0.488 0.436,1.402c0,3.673 -1.41,7.961 -3.493,12.893c0.899,-0.215 3.628,-0.759 5.407,-0.759c1.783,0 4.51,0.544 5.411,0.759c-2.085,-4.932 -3.496,-9.22 -3.496,-12.893c0,-0.914 0.142,-1.402 0.44,-1.402c0.219,0 0.342,0.407 0.493,0.705c1.577,3.036 4.502,5.072 7.85,5.072c5.023,0 9.093,-4.588 9.093,-10.241c0,-5.652 -4.07,-10.238 -9.093,-10.238c-1.631,0 -3.145,0.518 -4.489,1.331c-0.732,0.45 -1.046,-0.271 -0.319,-0.934c2.142,-1.962 3.54,-4.933 3.54,-8.285c0,-5.858 -4.224,-10.615 -9.43,-10.615Z" style="fill-rule:nonzero;"/><path d="M103,159.95c-5.206,0 -9.43,4.757 -9.43,10.615c0,3.352 1.398,6.323 3.544,8.285c0.724,0.663 0.412,1.384 -0.326,0.934c-1.339,-0.813 -2.851,-1.331 -4.486,-1.331c-5.019,0 -9.093,4.586 -9.093,10.238c0,5.653 4.074,10.241 9.093,10.241c3.349,0 6.277,-2.036 7.853,-5.072c0.153,-0.298 0.274,-0.705 0.495,-0.705c0.297,0 0.436,0.488 0.436,1.402c0,3.673 -1.41,7.961 -3.493,12.893c0.899,-0.215 3.628,-0.759 5.407,-0.759c1.783,0 4.51,0.544 5.411,0.759c-2.085,-4.932 -3.496,-9.22 -3.496,-12.893c0,-0.914 0.142,-1.402 0.44,-1.402c0.219,0 0.342,0.407 0.493,0.705c1.577,3.036 4.502,5.072 7.85,5.072c5.023,0 9.093,-4.588 9.093,-10.241c0,-5.652 -4.07,-10.238 -9.093,-10.238c-1.631,0 -3.145,0.518 -4.489,1.331c-0.732,0.45 -1.046,-0.271 -0.319,-0.934c2.142,-1.962 3.54,-4.933 3.54,-8.285c0,-5.858 -4.224,-10.615 -9.43,-10.615Z" style="fill-rule:nonzero;"/></g></svg>