<?xml version="1.0" encoding="UTF-8" standalone="no"?><!DOCTYPE svg PUBLIC "-//W3C//DTD SVG 1.1//EN" "http://www.w3.org/Graphics/SVG/1.1/DTD/svg11.dtd"><svg width="100%" height="100%" viewBox="0 0 203 283" version="1.1" xmlns="http://www.w3.org/2000/svg" xmlns:xlink="http://www.w3.org/1999/xlink" xml:space="preserve" xmlns:serif="http://www.serif.com/" style="fill-rule:evenodd;clip-rule:evenodd;stroke-linejoin:round;stroke-miterlimit:1.41421;"><path d="M200,13c0,-5.519 -4.481,-10 -10,-10l-180,0c-5.519,0 -10,4.481 -10,10l0,260c0,5.519 4.481,10 10,10l180,0c5.519,0 10,-4.481 10,-10l0,-260Z" style="fill-opacity:0.08;"/><path d="M203,10c0,-5.519 -4.481,-10 -10,-10l-180,0c-5.519,0 -10,4.481 -10,10l0,260c0,5.519 4.481,10 10,10l180,0c5.519,0 10,-4.481 10,-10l0,-260Z" style="fill:#fff;"/><g id="_5" serif:id="5"><path d="M27.388,43.859c-1.397,-0.434 -3.568,0.33 -4.367,3.497c-0.066,0.173 -0.136,0.168 -0.199,-0.007c-1.151,-3.208 -3.048,-3.909 -4.382,-3.49c-1.976,0.637 -3.576,2.993 -3.431,5.998c0.041,5.247 4.735,7.89 7.905,12.906c3.169,-5.016 7.916,-7.651 7.931,-12.921c0.274,-3.037 -1.427,-5.359 -3.457,-5.983Z" style="fill:#e43f45;fill-rule:nonzero;"/><path d="M70.73,29.21c-3.491,-1.084 -8.932,0.824 -10.925,8.739c-0.167,0.433 -0.342,0.424 -0.5,-0.016c-2.877,-8.019 -7.616,-9.77 -10.952,-8.723c-4.937,1.593 -8.938,7.481 -8.571,14.995c0.098,13.119 11.83,19.725 19.753,32.264c7.936,-12.538 19.8,-19.126 19.834,-32.303c0.686,-7.592 -3.564,-13.391 -8.639,-14.956Z" style="fill:#e43f45;fill-rule:nonzero;"/><path d="M178.534,236.123c1.396,0.433 3.568,-0.33 4.366,-3.498c0.066,-0.172 0.137,-0.168 0.2,0.007c1.151,3.209 3.047,3.91 4.382,3.491c1.975,-0.637 3.576,-2.994 3.43,-5.998c-0.04,-5.247 -4.735,-7.89 -7.904,-12.906c-3.17,5.016 -7.917,7.651 -7.932,12.92c-0.274,3.037 1.427,5.359 3.458,5.984Z" style="fill:#e43f45;fill-rule:nonzero;"/><path d="M70.73,250.79c-3.491,1.084 -8.932,-0.824 -10.925,-8.739c-0.167,-0.433 -0.342,-0.424 -0.5,0.016c-2.877,8.019 -7.616,9.77 -10.952,8.723c-4.937,-1.593 -8.938,-7.481 -8.571,-14.995c0.098,-13.119 11.83,-19.725 19.753,-32.264c7.936,12.538 19.8,19.126 19.834,32.303c0.686,7.592 -3.564,13.391 -8.639,14.956Z" style="fill:#e43f45;fill-rule:nonzero;"/><path d="M157.53,29.21c-3.491,-1.084 -8.932,0.824 -10.925,8.739c-0.167,0.433 -0.342,0.424 -0.5,-0.016c-2.877,-8.019 -7.616,-9.77 -10.952,-8.723c-4.937,1.593 -8.938,7.481 -8.571,14.995c0.098,13.119 11.83,19.725 19.753,32.264c7.936,-12.538 19.8,-19.126 19.834,-32.303c0.686,-7.592 -3.564,-13.391 -8.639,-14.956Z" style="fill:#e43f45;fill-rule:nonzero;"/><path d="M157.53,250.79c-3.491,1.084 -8.932,-0.824 -10.925,-8.739c-0.167,-0.433 -0.342,-0.424 -0.5,0.016c-2.877,8.019 -7.616,9.77 -10.952,8.723c-4.937,-1.593 -8.938,-7.481 -8.571,-14.995c0.098,-13.119 11.83,-19.725 19.753,-32.264c7.936,12.538 19.8,19.126 19.834,32.303c0.686,7.592 -3.564,13.391 -8.639,14.956Z" style="fill:#e43f45;fill-rule:nonzero;"/><path d="M114.13,116.51c-3.491,-1.084 -8.932,0.824 -10.925,8.739c-0.167,0.433 -0.342,0.424 -0.5,-0.016c-2.877,-8.019 -7.616,-9.77 -10.952,-8.723c-4.937,1.593 -8.938,7.481 -8.571,14.995c0.098,13.119 11.83,19.725 19.753,32.264c7.936,-12.538 19.8,-19.126 19.834,-32.303c0.686,-7.592 -3.564,-13.391 -8.639,-14.956Z" style="fill:#e43f45;fill-rule:nonzero;"/><path d="M28.479,22.041c-1.47,-1.817 -3.578,-2.997 -5.926,-2.996c-1.466,-0.001 -2.84,0.466 -4.024,1.257l-0.003,-5.64l10.494,0l0,-2.662l-13.005,0l0,0.931l-0.013,0l0.008,10.908l2.523,-0.003c0.847,-1.219 2.691,-2.129 4.02,-2.13c1.534,0.001 2.938,0.756 4.012,2.068c1.065,1.311 1.755,3.169 1.753,5.249c0.002,2.077 -0.688,3.935 -1.753,5.246c-1.074,1.313 -2.478,2.066 -4.012,2.068c-1.133,-0.001 -2.185,-0.411 -3.099,-1.15c-0.912,-0.741 -1.67,-1.82 -2.139,-3.115l-2.356,0.952c0.626,1.722 1.646,3.204 2.954,4.27c1.307,1.065 2.913,1.707 4.64,1.706c0.001,0 0.004,0 0.006,0c2.345,0 4.451,-1.182 5.92,-2.997c1.477,-1.82 2.361,-4.283 2.362,-6.98c-0.001,-2.698 -0.885,-5.163 -2.362,-6.982Z" style="fill:#e43f45;fill-rule:nonzero;"/><path d="M177.421,257.959c1.47,1.817 3.578,2.997 5.926,2.996c1.466,0.001 2.84,-0.466 4.024,-1.257l0.003,5.64l-10.494,0l0,2.662l13.005,0l0,-0.931l0.013,0l-0.008,-10.908l-2.523,0.003c-0.847,1.219 -2.691,2.129 -4.02,2.13c-1.534,-0.001 -2.938,-0.756 -4.012,-2.068c-1.065,-1.311 -1.755,-3.169 -1.753,-5.249c-0.002,-2.077 0.688,-3.935 1.753,-5.246c1.074,-1.313 2.478,-2.066 4.012,-2.068c1.133,0.001 2.185,0.411 3.099,1.15c0.912,0.741 1.67,1.82 2.139,3.115l2.356,-0.952c-0.626,-1.722 -1.646,-3.204 -2.954,-4.27c-1.307,-1.065 -2.913,-1.707 -4.64,-1.706c-0.001,0 -0.004,0 -0.006,0c-2.345,0 -4.451,1.182 -5.92,2.997c-1.477,1.82 -2.361,4.283 -2.362,6.98c0.001,2.698 0.885,5.163 2.362,6.982Z" style="fill:#e43f45;fill-rule:nonzero;"/></g></svg>