<?xml version="1.0" encoding="UTF-8" standalone="no"?><!DOCTYPE svg PUBLIC "-//W3C//DTD SVG 1.1//EN" "http://www.w3.org/Graphics/SVG/1.1/DTD/svg11.dtd"><svg width="100%" height="100%" viewBox="0 0 203 283" version="1.1" xmlns="http://www.w3.org/2000/svg" xmlns:xlink="http://www.w3.org/1999/xlink" xml:space="preserve" xmlns:serif="http://www.serif.com/" style="fill-rule:evenodd;clip-rule:evenodd;stroke-linejoin:round;stroke-miterlimit:1.41421;"><path d="M200,13c0,-5.519 -4.481,-10 -10,-10l-180,0c-5.519,0 -10,4.481 -10,10l0,260c0,5.519 4.481,10 10,10l180,0c5.519,0 10,-4.481 10,-10l0,-260Z" style="fill-opacity:0.08;"/><path d="M203,10c0,-5.519 -4.481,-10 -10,-10l-180,0c-5.519,0 -10,4.481 -10,10l0,260c0,5.519 4.481,10 10,10l180,0c5.519,0 10,-4.481 10,-10l0,-260Z" style="fill:#fff;"/><g id="_6" serif:id="6"><path d="M27.388,43.859c-1.397,-0.434 -3.568,0.33 -4.367,3.497c-0.066,0.173 -0.136,0.168 -0.199,-0.007c-1.151,-3.208 -3.048,-3.909 -4.382,-3.49c-1.976,0.637 -3.576,2.993 -3.431,5.998c0.041,5.247 4.735,7.89 7.905,12.906c3.169,-5.016 7.916,-7.651 7.931,-12.921c0.274,-3.037 -1.427,-5.359 -3.457,-5.983Z" style="fill:#e43f45;fill-rule:nonzero;"/><path d="M70.73,29.21c-3.491,-1.084 -8.932,0.824 -10.925,8.739c-0.167,0.433 -0.342,0.424 -0.5,-0.016c-2.877,-8.019 -7.616,-9.77 -10.952,-8.723c-4.937,1.593 -8.938,7.481 -8.571,14.995c0.098,13.119 11.83,19.725 19.753,32.264c7.936,-12.538 19.8,-19.126 19.834,-32.303c0.686,-7.592 -3.564,-13.391 -8.639,-14.956Z" style="fill:#e43f45;fill-rule:nonzero;"/><path d="M178.534,236.123c1.396,0.433 3.568,-0.33 4.366,-3.498c0.066,-0.172 0.137,-0.168 0.2,0.007c1.151,3.209 3.047,3.91 4.382,3.491c1.975,-0.637 3.576,-2.994 3.43,-5.998c-0.04,-5.247 -4.735,-7.89 -7.904,-12.906c-3.17,5.016 -7.917,7.651 -7.932,12.92c-0.274,3.037 1.427,5.359 3.458,5.984Z" style="fill:#e43f45;fill-rule:nonzero;"/><path d="M70.73,250.79c-3.491,1.084 -8.932,-0.824 -10.925,-8.739c-0.167,-0.433 -0.342,-0.424 -0.5,0.016c-2.877,8.019 -7.616,9.77 -10.952,8.723c-4.937,-1.593 -8.938,-7.481 -8.571,-14.995c0.098,-13.119 11.83,-19.725 19.753,-32.264c7.936,12.538 19.8,19.126 19.834,32.303c0.686,7.592 -3.564,13.391 -8.639,14.956Z" style="fill:#e43f45;fill-rule:nonzero;"/><path d="M157.53,29.21c-3.491,-1.084 -8.932,0.824 -10.925,8.739c-0.167,0.433 -0.342,0.424 -0.5,-0.016c-2.877,-8.019 -7.616,-9.77 -10.952,-8.723c-4.937,1.593 -8.938,7.481 -8.571,14.995c0.098,13.119 11.83,19.725 19.753,32.264c7.936,-12.538 19.8,-19.126 19.834,-32.303c0.686,-7.592 -3.564,-13.391 -8.639,-14.956Z" style="fill:#e43f45;fill-rule:nonzero;"/><path d="M157.53,250.79c-3.491,1.084 -8.932,-0.824 -10.925,-8.739c-0.167,-0.433 -0.342,-0.424 -0.5,0.016c-2.877,8.019 -7.616,9.77 -10.952,8.723c-4.937,-1.593 -8.938,-7.481 -8.571,-14.995c0.098,-13.119 11.83,-19.725 19.753,-32.264c7.936,12.538 19.8,19.126 19.834,32.303c0.686,7.592 -3.564,13.391 -8.639,14.956Z" style="fill:#e43f45;fill-rule:nonzero;"/><path d="M70.73,116.51c-3.491,-1.084 -8.932,0.824 -10.925,8.739c-0.167,0.433 -0.342,0.424 -0.5,-0.016c-2.877,-8.019 -7.616,-9.77 -10.952,-8.723c-4.937,1.593 -8.938,7.481 -8.571,14.995c0.098,13.119 11.83,19.725 19.753,32.264c7.936,-12.538 19.8,-19.126 19.834,-32.303c0.686,-7.592 -3.564,-13.391 -8.639,-14.956Z" style="fill:#e43f45;fill-rule:nonzero;"/><path d="M28.798,22.444c-0.677,-0.889 -1.523,-1.621 -2.504,-2.122c-0.982,-0.502 -2.098,-0.772 -3.296,-0.772c-0.032,0.002 -0.062,0.002 -0.085,0.002c-1.204,0.012 -2.324,0.317 -3.305,0.86c-0.651,0.36 -1.232,0.826 -1.749,1.365c0.046,-0.278 0.094,-0.547 0.141,-0.793c0.148,-0.759 0.295,-1.362 0.403,-1.768c0.055,-0.202 0.098,-0.356 0.13,-0.457c0.014,-0.049 0.025,-0.086 0.032,-0.11c0.005,-0.011 0.007,-0.02 0.008,-0.023c0,-0.001 0.001,-0.001 0.001,-0.001l0,-0.002l0.011,-0.034l0.008,-0.029l0.002,-0.006l0,-0.001c0.026,-0.093 0.332,-1.049 1.022,-1.945c0.359,-0.466 0.815,-0.919 1.388,-1.264c0.572,-0.345 1.265,-0.594 2.154,-0.645c0.126,-0.006 0.245,-0.01 0.363,-0.01c1.582,0.005 2.621,0.563 3.307,1.106c0.342,0.272 0.586,0.543 0.741,0.734c0.075,0.097 0.129,0.173 0.16,0.219c0.015,0.022 0.025,0.038 0.028,0.044l0.002,0.003l0.61,-0.434l1.461,-1.003c-0.059,-0.101 -0.535,-0.916 -1.56,-1.737c-1.018,-0.82 -2.613,-1.625 -4.749,-1.621c-0.156,0 -0.318,0.004 -0.484,0.015c-1.294,0.068 -2.404,0.465 -3.301,1.026c-1.348,0.844 -2.207,2.02 -2.734,2.969c-0.48,0.867 -0.694,1.56 -0.745,1.736c-0.126,0.405 -1.297,4.198 -1.299,9.386c0,0.953 0.049,1.959 0.144,2.993c0.107,2.363 0.849,4.497 2.128,6.092c1.374,1.724 3.39,2.783 5.668,2.783c0.008,0 0.017,0 0.026,0c1.199,0 2.321,-0.286 3.307,-0.809c1.483,-0.784 2.647,-2.09 3.424,-3.661c0.779,-1.574 1.184,-3.421 1.185,-5.362c-0.001,-2.561 -0.689,-4.941 -2.043,-6.724Zm-1.934,11.847c-0.477,0.635 -1.044,1.132 -1.697,1.478c-0.652,0.344 -1.392,0.542 -2.242,0.542c-1.618,-0.007 -2.902,-0.696 -3.856,-1.872c-0.836,-1.041 -1.395,-2.494 -1.514,-4.216l0.012,-0.001c-0.01,-0.105 -0.014,-0.203 -0.023,-0.308c-0.005,-0.127 -0.014,-0.254 -0.014,-0.385c-0.003,-2.048 0.562,-3.905 1.505,-5.198c0.47,-0.649 1.032,-1.161 1.676,-1.519c0.645,-0.356 1.378,-0.562 2.224,-0.572c0.025,0 0.046,0 0.063,0c0.87,0.001 1.615,0.19 2.261,0.52c0.967,0.496 1.731,1.315 2.278,2.411c0.544,1.096 0.854,2.471 0.854,3.997c0.001,2.042 -0.575,3.861 -1.527,5.123Z" style="fill:#e43f45;fill-rule:nonzero;"/><path d="M177.102,257.556c0.677,0.889 1.523,1.621 2.504,2.122c0.982,0.502 2.098,0.772 3.296,0.772c0.032,-0.002 0.062,-0.002 0.085,-0.002c1.204,-0.012 2.324,-0.317 3.305,-0.86c0.651,-0.36 1.232,-0.826 1.749,-1.365c-0.046,0.278 -0.094,0.547 -0.141,0.793c-0.148,0.759 -0.295,1.362 -0.403,1.768c-0.055,0.202 -0.098,0.356 -0.13,0.457c-0.014,0.049 -0.025,0.086 -0.032,0.11c-0.005,0.011 -0.007,0.02 -0.008,0.023c0,0.001 -0.001,0.001 -0.001,0.001l0,0.002l-0.011,0.034l-0.008,0.029l-0.002,0.006l0,0.001c-0.026,0.093 -0.332,1.049 -1.022,1.945c-0.359,0.466 -0.815,0.919 -1.388,1.264c-0.572,0.345 -1.265,0.594 -2.154,0.645c-0.126,0.006 -0.245,0.01 -0.363,0.01c-1.582,-0.005 -2.621,-0.563 -3.307,-1.106c-0.342,-0.272 -0.586,-0.543 -0.741,-0.734c-0.075,-0.097 -0.129,-0.173 -0.16,-0.219c-0.015,-0.022 -0.025,-0.038 -0.028,-0.044l-0.002,-0.003l-0.61,0.434l-1.461,1.003c0.059,0.101 0.535,0.916 1.56,1.737c1.018,0.82 2.613,1.625 4.749,1.621c0.156,0 0.318,-0.004 0.484,-0.015c1.294,-0.068 2.404,-0.465 3.301,-1.026c1.348,-0.844 2.207,-2.02 2.734,-2.969c0.48,-0.867 0.694,-1.56 0.745,-1.736c0.126,-0.405 1.297,-4.198 1.299,-9.386c0,-0.953 -0.049,-1.959 -0.144,-2.993c-0.107,-2.363 -0.849,-4.497 -2.128,-6.092c-1.374,-1.724 -3.39,-2.783 -5.668,-2.783c-0.008,0 -0.017,0 -0.026,0c-1.199,0 -2.321,0.286 -3.307,0.809c-1.483,0.784 -2.647,2.09 -3.424,3.661c-0.779,1.574 -1.184,3.421 -1.185,5.362c0.001,2.561 0.689,4.941 2.043,6.724Zm1.934,-11.847c0.477,-0.635 1.044,-1.132 1.697,-1.478c0.652,-0.344 1.392,-0.542 2.242,-0.542c1.618,0.007 2.902,0.696 3.856,1.872c0.836,1.041 1.395,2.494 1.514,4.216l-0.012,0.001c0.01,0.105 0.014,0.203 0.023,0.308c0.005,0.127 0.014,0.254 0.014,0.385c0.003,2.048 -0.562,3.905 -1.505,5.198c-0.47,0.649 -1.032,1.161 -1.676,1.519c-0.645,0.356 -1.378,0.562 -2.224,0.572c-0.025,0 -0.046,0 -0.063,0c-0.87,-0.001 -1.615,-0.19 -2.261,-0.52c-0.967,-0.496 -1.731,-1.315 -2.278,-2.411c-0.544,-1.096 -0.854,-2.471 -0.854,-3.997c-0.001,-2.042 0.575,-3.861 1.527,-5.123Z" style="fill:#e43f45;fill-rule:nonzero;"/><path d="M157.53,116.51c-3.491,-1.084 -8.932,0.824 -10.925,8.739c-0.167,0.433 -0.342,0.424 -0.5,-0.016c-2.877,-8.019 -7.616,-9.77 -10.952,-8.723c-4.937,1.593 -8.938,7.481 -8.571,14.995c0.098,13.119 11.83,19.725 19.753,32.264c7.936,-12.538 19.8,-19.126 19.834,-32.303c0.686,-7.592 -3.564,-13.391 -8.639,-14.956Z" style="fill:#e43f45;fill-rule:nonzero;"/></g></svg>