<?xml version="1.0" encoding="UTF-8" standalone="no"?><!DOCTYPE svg PUBLIC "-//W3C//DTD SVG 1.1//EN" "http://www.w3.org/Graphics/SVG/1.1/DTD/svg11.dtd"><svg width="100%" height="100%" viewBox="0 0 203 283" version="1.1" xmlns="http://www.w3.org/2000/svg" xmlns:xlink="http://www.w3.org/1999/xlink" xml:space="preserve" xmlns:serif="http://www.serif.com/" style="fill-rule:evenodd;clip-rule:evenodd;stroke-linejoin:round;stroke-miterlimit:1.41421;"><path d="M200,13c0,-5.519 -4.481,-10 -10,-10l-180,0c-5.519,0 -10,4.481 -10,10l0,260c0,5.519 4.481,10 10,10l180,0c5.519,0 10,-4.481 10,-10l0,-260Z" style="fill-opacity:0.08;"/><path d="M203,10c0,-5.519 -4.481,-10 -10,-10l-180,0c-5.519,0 -10,4.481 -10,10l0,260c0,5.519 4.481,10 10,10l180,0c5.519,0 10,-4.481 10,-10l0,-260Z" style="fill:#fff;"/><g id="_7" serif:id="7"><path d="M27.388,43.859c-1.397,-0.434 -3.568,0.33 -4.367,3.497c-0.066,0.173 -0.136,0.168 -0.199,-0.007c-1.151,-3.208 -3.048,-3.909 -4.382,-3.49c-1.976,0.637 -3.576,2.993 -3.431,5.998c0.041,5.247 4.735,7.89 7.905,12.906c3.169,-5.016 7.916,-7.651 7.931,-12.921c0.274,-3.037 -1.427,-5.359 -3.457,-5.983Z" style="fill:#e43f45;fill-rule:nonzero;"/><path d="M70.73,29.21c-3.491,-1.084 -8.932,0.824 -10.925,8.739c-0.167,0.433 -0.342,0.424 -0.5,-0.016c-2.877,-8.019 -7.616,-9.77 -10.952,-8.723c-4.937,1.593 -8.938,7.481 -8.571,14.995c0.098,13.119 11.83,19.725 19.753,32.264c7.936,-12.538 19.8,-19.126 19.834,-32.303c0.686,-7.592 -3.564,-13.391 -8.639,-14.956Z" style="fill:#e43f45;fill-rule:nonzero;"/><path d="M178.534,236.123c1.396,0.433 3.568,-0.33 4.366,-3.498c0.066,-0.172 0.137,-0.168 0.2,0.007c1.151,3.209 3.047,3.91 4.382,3.491c1.975,-0.637 3.576,-2.994 3.43,-5.998c-0.04,-5.247 -4.735,-7.89 -7.904,-12.906c-3.17,5.016 -7.917,7.651 -7.932,12.92c-0.274,3.037 1.427,5.359 3.458,5.984Z" style="fill:#e43f45;fill-rule:nonzero;"/><path d="M70.73,250.79c-3.491,1.084 -8.932,-0.824 -10.925,-8.739c-0.167,-0.433 -0.342,-0.424 -0.5,0.016c-2.877,8.019 -7.616,9.77 -10.952,8.723c-4.937,-1.593 -8.938,-7.481 -8.571,-14.995c0.098,-13.119 11.83,-19.725 19.753,-32.264c7.936,12.538 19.8,19.126 19.834,32.303c0.686,7.592 -3.564,13.391 -8.639,14.956Z" style="fill:#e43f45;fill-rule:nonzero;"/><path d="M157.53,29.21c-3.491,-1.084 -8.932,0.824 -10.925,8.739c-0.167,0.433 -0.342,0.424 -0.5,-0.016c-2.877,-8.019 -7.616,-9.77 -10.952,-8.723c-4.937,1.593 -8.938,7.481 -8.571,14.995c0.098,13.119 11.83,19.725 19.753,32.264c7.936,-12.538 19.8,-19.126 19.834,-32.303c0.686,-7.592 -3.564,-13.391 -8.639,-14.956Z" style="fill:#e43f45;fill-rule:nonzero;"/><path d="M157.53,250.79c-3.491,1.084 -8.932,-0.824 -10.925,-8.739c-0.167,-0.433 -0.342,-0.424 -0.5,0.016c-2.877,8.019 -7.616,9.77 -10.952,8.723c-4.937,-1.593 -8.938,-7.481 -8.571,-14.995c0.098,-13.119 11.83,-19.725 19.753,-32.264c7.936,12.538 19.8,19.126 19.834,32.303c0.686,7.592 -3.564,13.391 -8.639,14.956Z" style="fill:#e43f45;fill-rule:nonzero;"/><path d="M70.73,116.51c-3.491,-1.084 -8.932,0.824 -10.925,8.739c-0.167,0.433 -0.342,0.424 -0.5,-0.016c-2.877,-8.019 -7.616,-9.77 -10.952,-8.723c-4.937,1.593 -8.938,7.481 -8.571,14.995c0.098,13.119 11.83,19.725 19.753,32.264c7.936,-12.538 19.8,-19.126 19.834,-32.303c0.686,-7.592 -3.564,-13.391 -8.639,-14.956Z" style="fill:#e43f45;fill-rule:nonzero;"/><path d="M14.961,12l0,1.616l-0.002,0l0,2.747l2.496,-0.002l-0.003,-1.665l10.472,0c-1.624,2.977 -5.998,11.909 -7.581,24.304l2.508,-0.002c0.93,-7.309 2.525,-13.028 4.347,-17.267c0.911,-2.12 1.761,-3.781 2.381,-4.903c0.311,-0.561 0.562,-0.989 0.734,-1.272c0.182,-0.299 0.484,-0.79 0.528,-0.86l0,-2.696l-15.88,0Z" style="fill:#e43f45;fill-rule:nonzero;"/><path d="M157.53,116.51c-3.491,-1.084 -8.932,0.824 -10.925,8.739c-0.167,0.433 -0.342,0.424 -0.5,-0.016c-2.877,-8.019 -7.616,-9.77 -10.952,-8.723c-4.937,1.593 -8.938,7.481 -8.571,14.995c0.098,13.119 11.83,19.725 19.753,32.264c7.936,-12.538 19.8,-19.126 19.834,-32.303c0.686,-7.592 -3.564,-13.391 -8.639,-14.956Z" style="fill:#e43f45;fill-rule:nonzero;"/><path d="M114.13,72.91c-3.491,-1.084 -8.932,0.824 -10.925,8.739c-0.167,0.433 -0.342,0.424 -0.5,-0.016c-2.877,-8.019 -7.616,-9.77 -10.952,-8.723c-4.937,1.593 -8.938,7.481 -8.571,14.995c0.098,13.119 11.83,19.725 19.753,32.264c7.936,-12.538 19.8,-19.126 19.834,-32.303c0.686,-7.592 -3.564,-13.391 -8.639,-14.956Z" style="fill:#e43f45;fill-rule:nonzero;"/><path d="M190.939,268l0,-1.616l0.002,0l0,-2.747l-2.496,0.002l0.003,1.665l-10.472,0c1.624,-2.977 5.998,-11.909 7.581,-24.304l-2.508,0.002c-0.93,7.309 -2.525,13.028 -4.347,17.267c-0.911,2.12 -1.761,3.781 -2.381,4.903c-0.311,0.561 -0.562,0.989 -0.734,1.272c-0.182,0.299 -0.484,0.79 -0.528,0.86l0,2.696l15.88,0Z" style="fill:#e43f45;fill-rule:nonzero;"/></g></svg>