<?xml version="1.0" encoding="UTF-8" standalone="no"?><!DOCTYPE svg PUBLIC "-//W3C//DTD SVG 1.1//EN" "http://www.w3.org/Graphics/SVG/1.1/DTD/svg11.dtd"><svg width="100%" height="100%" viewBox="0 0 203 283" version="1.1" xmlns="http://www.w3.org/2000/svg" xmlns:xlink="http://www.w3.org/1999/xlink" xml:space="preserve" xmlns:serif="http://www.serif.com/" style="fill-rule:evenodd;clip-rule:evenodd;stroke-linejoin:round;stroke-miterlimit:1.41421;"><path d="M200,13c0,-5.519 -4.481,-10 -10,-10l-180,0c-5.519,0 -10,4.481 -10,10l0,260c0,5.519 4.481,10 10,10l180,0c5.519,0 10,-4.481 10,-10l0,-260Z" style="fill-opacity:0.08;"/><path d="M203,10c0,-5.519 -4.481,-10 -10,-10l-180,0c-5.519,0 -10,4.481 -10,10l0,260c0,5.519 4.481,10 10,10l180,0c5.519,0 10,-4.481 10,-10l0,-260Z" style="fill:#fff;"/><g id="_9" serif:id="9"><path d="M27.388,43.859c-1.397,-0.434 -3.568,0.33 -4.367,3.497c-0.066,0.173 -0.136,0.168 -0.199,-0.007c-1.151,-3.208 -3.048,-3.909 -4.382,-3.49c-1.976,0.637 -3.576,2.993 -3.431,5.998c0.041,5.247 4.735,7.89 7.905,12.906c3.169,-5.016 7.916,-7.651 7.931,-12.921c0.274,-3.037 -1.427,-5.359 -3.457,-5.983Z" style="fill:#e43f45;fill-rule:nonzero;"/><path d="M178.534,236.123c1.396,0.433 3.568,-0.33 4.366,-3.498c0.066,-0.172 0.137,-0.168 0.2,0.007c1.151,3.209 3.047,3.91 4.382,3.491c1.975,-0.637 3.576,-2.994 3.43,-5.998c-0.04,-5.247 -4.735,-7.89 -7.904,-12.906c-3.17,5.016 -7.917,7.651 -7.932,12.92c-0.274,3.037 1.427,5.359 3.458,5.984Z" style="fill:#e43f45;fill-rule:nonzero;"/><path d="M30.623,20.264c-0.142,-2.169 -0.87,-4.125 -2.082,-5.599c-1.35,-1.651 -3.33,-2.665 -5.569,-2.665c-0.007,0 -0.016,0 -0.023,0c-1.18,0 -2.28,0.273 -3.249,0.774c-1.456,0.752 -2.599,2.001 -3.362,3.507c-0.764,1.506 -1.162,3.273 -1.164,5.131c0.002,2.453 0.678,4.732 2.007,6.437c0.665,0.851 1.494,1.551 2.459,2.032c0.965,0.481 2.06,0.738 3.238,0.737c0.03,0 0.06,0 0.082,0c1.183,-0.011 2.283,-0.302 3.246,-0.823c0.819,-0.442 1.528,-1.046 2.13,-1.759c-0.077,1.799 -0.365,3.95 -1.187,5.527c-0.429,0.828 -0.978,1.499 -1.724,1.986c-0.747,0.482 -1.72,0.801 -3.084,0.803c-0.993,-0.001 -1.771,-0.233 -2.416,-0.572c-0.963,-0.509 -1.64,-1.294 -2.073,-1.963c-0.216,-0.334 -0.368,-0.635 -0.464,-0.843c-0.046,-0.105 -0.078,-0.185 -0.099,-0.237c-0.01,-0.024 -0.016,-0.041 -0.019,-0.05l-0.029,0.012l-2.282,0.888c0.038,0.099 0.466,1.381 1.6,2.716c0.567,0.664 1.318,1.341 2.282,1.852c0.964,0.511 2.141,0.846 3.5,0.845c0.004,0 0.011,0 0.016,0c1.717,0 3.173,-0.428 4.335,-1.184c0.875,-0.566 1.573,-1.308 2.114,-2.126c0.81,-1.232 1.278,-2.622 1.565,-3.978c0.284,-1.356 0.39,-2.686 0.431,-3.819c0.028,-0.792 0.039,-1.562 0.039,-2.288c0,-2.671 -0.186,-4.965 -0.218,-5.341Zm-3.855,5.78c-0.461,0.62 -1.011,1.109 -1.645,1.452c-0.633,0.341 -1.352,0.538 -2.185,0.548c-0.026,0 -0.046,0 -0.06,0c-0.854,0 -1.587,-0.181 -2.223,-0.497c-0.949,-0.474 -1.699,-1.259 -2.236,-2.309c-0.534,-1.047 -0.841,-2.363 -0.838,-3.826c-0.003,-1.954 0.564,-3.696 1.499,-4.905c0.468,-0.606 1.024,-1.083 1.665,-1.413c0.642,-0.331 1.368,-0.518 2.204,-0.52c1.587,0.008 2.85,0.667 3.787,1.793c0.93,1.127 1.51,2.759 1.512,4.701c0,1.961 -0.553,3.739 -1.48,4.976Z" style="fill:#e43f45;fill-rule:nonzero;"/><path d="M114.13,116.51c-3.491,-1.084 -8.932,0.824 -10.925,8.739c-0.167,0.433 -0.342,0.424 -0.5,-0.016c-2.877,-8.019 -7.616,-9.77 -10.952,-8.723c-4.937,1.593 -8.938,7.481 -8.571,14.995c0.098,13.119 11.83,19.725 19.753,32.264c7.936,-12.538 19.8,-19.126 19.834,-32.303c0.686,-7.592 -3.564,-13.391 -8.639,-14.956Z" style="fill:#e43f45;fill-rule:nonzero;"/><path d="M70.725,29.179c-3.491,-1.084 -8.919,0.824 -10.915,8.742c-0.165,0.432 -0.338,0.422 -0.496,-0.016c-2.878,-8.021 -7.621,-9.775 -10.956,-8.726c-4.939,1.593 -8.943,7.482 -8.575,14.997c0.097,13.115 11.832,19.718 19.758,32.259c7.927,-12.54 19.794,-19.126 19.827,-32.296c0.687,-7.595 -3.563,-13.396 -8.643,-14.96Z" style="fill:#e43f45;fill-rule:nonzero;"/><path d="M70.725,88.437c-3.491,-1.084 -8.919,0.825 -10.915,8.743c-0.165,0.432 -0.338,0.423 -0.497,-0.016c-2.877,-8.022 -7.62,-9.775 -10.955,-8.727c-4.939,1.594 -8.943,7.484 -8.575,14.998c0.097,13.115 11.832,19.718 19.758,32.258c7.927,-12.539 19.794,-19.125 19.827,-32.296c0.687,-7.594 -3.563,-13.395 -8.643,-14.96Z" style="fill:#e43f45;fill-rule:nonzero;"/><path d="M70.725,250.821c-3.491,1.084 -8.919,-0.824 -10.915,-8.742c-0.165,-0.432 -0.338,-0.422 -0.496,0.016c-2.878,8.021 -7.621,9.775 -10.956,8.726c-4.939,-1.593 -8.943,-7.482 -8.575,-14.997c0.097,-13.115 11.832,-19.718 19.758,-32.259c7.927,12.54 19.794,19.126 19.827,32.296c0.687,7.595 -3.563,13.396 -8.643,14.96Z" style="fill:#e43f45;fill-rule:nonzero;"/><path d="M70.725,191.563c-3.491,1.084 -8.919,-0.825 -10.915,-8.743c-0.165,-0.432 -0.338,-0.423 -0.497,0.016c-2.877,8.022 -7.62,9.775 -10.955,8.727c-4.939,-1.594 -8.943,-7.484 -8.575,-14.998c0.097,-13.115 11.832,-19.718 19.758,-32.258c7.927,12.539 19.794,19.125 19.827,32.296c0.687,7.594 -3.563,13.395 -8.643,14.96Z" style="fill:#e43f45;fill-rule:nonzero;"/><path d="M157.525,29.179c-3.491,-1.084 -8.919,0.824 -10.915,8.742c-0.165,0.432 -0.338,0.422 -0.496,-0.016c-2.878,-8.021 -7.621,-9.775 -10.956,-8.726c-4.939,1.593 -8.943,7.482 -8.575,14.997c0.097,13.115 11.832,19.718 19.758,32.259c7.927,-12.54 19.794,-19.126 19.827,-32.296c0.687,-7.595 -3.563,-13.396 -8.643,-14.96Z" style="fill:#e43f45;fill-rule:nonzero;"/><path d="M157.525,88.437c-3.491,-1.084 -8.919,0.825 -10.915,8.743c-0.165,0.432 -0.338,0.423 -0.497,-0.016c-2.877,-8.022 -7.62,-9.775 -10.955,-8.727c-4.939,1.594 -8.943,7.484 -8.575,14.998c0.097,13.115 11.832,19.718 19.758,32.258c7.927,-12.539 19.794,-19.125 19.827,-32.296c0.687,-7.594 -3.563,-13.395 -8.643,-14.96Z" style="fill:#e43f45;fill-rule:nonzero;"/><path d="M157.525,250.821c-3.491,1.084 -8.919,-0.824 -10.915,-8.742c-0.165,-0.432 -0.338,-0.422 -0.496,0.016c-2.878,8.021 -7.621,9.775 -10.956,8.726c-4.939,-1.593 -8.943,-7.482 -8.575,-14.997c0.097,-13.115 11.832,-19.718 19.758,-32.259c7.927,12.54 19.794,19.126 19.827,32.296c0.687,7.595 -3.563,13.396 -8.643,14.96Z" style="fill:#e43f45;fill-rule:nonzero;"/><path d="M157.525,191.563c-3.491,1.084 -8.919,-0.825 -10.915,-8.743c-0.165,-0.432 -0.338,-0.423 -0.497,0.016c-2.877,8.022 -7.62,9.775 -10.955,8.727c-4.939,-1.594 -8.943,-7.484 -8.575,-14.998c0.097,-13.115 11.832,-19.718 19.758,-32.258c7.927,12.539 19.794,19.125 19.827,32.296c0.687,7.594 -3.563,13.395 -8.643,14.96Z" style="fill:#e43f45;fill-rule:nonzero;"/><path d="M175.277,259.736c0.142,2.169 0.87,4.125 2.082,5.599c1.35,1.651 3.33,2.665 5.569,2.665c0.007,0 0.016,0 0.023,0c1.18,0 2.28,-0.273 3.249,-0.774c1.456,-0.752 2.599,-2.001 3.362,-3.507c0.764,-1.506 1.162,-3.273 1.164,-5.131c-0.002,-2.453 -0.678,-4.732 -2.007,-6.437c-0.665,-0.851 -1.494,-1.551 -2.459,-2.032c-0.965,-0.481 -2.06,-0.738 -3.238,-0.737c-0.03,0 -0.06,0 -0.082,0c-1.183,0.011 -2.283,0.302 -3.246,0.823c-0.819,0.442 -1.528,1.046 -2.13,1.759c0.077,-1.799 0.365,-3.95 1.187,-5.527c0.429,-0.828 0.978,-1.499 1.724,-1.986c0.747,-0.482 1.72,-0.801 3.084,-0.803c0.993,0.001 1.771,0.233 2.416,0.572c0.963,0.509 1.64,1.294 2.073,1.963c0.216,0.334 0.368,0.635 0.464,0.843c0.046,0.105 0.078,0.185 0.099,0.237c0.01,0.024 0.016,0.041 0.019,0.05l0.029,-0.012l2.282,-0.888c-0.038,-0.099 -0.466,-1.381 -1.6,-2.716c-0.567,-0.664 -1.318,-1.341 -2.282,-1.852c-0.964,-0.511 -2.141,-0.846 -3.5,-0.845c-0.004,0 -0.011,0 -0.016,0c-1.717,0 -3.173,0.428 -4.335,1.184c-0.875,0.566 -1.573,1.308 -2.114,2.126c-0.81,1.232 -1.278,2.622 -1.565,3.978c-0.284,1.356 -0.39,2.686 -0.431,3.819c-0.028,0.792 -0.039,1.562 -0.039,2.288c0,2.671 0.186,4.965 0.218,5.341Zm3.855,-5.78c0.461,-0.62 1.011,-1.109 1.645,-1.452c0.633,-0.341 1.352,-0.538 2.185,-0.548c0.026,0 0.046,0 0.06,0c0.854,0 1.587,0.181 2.223,0.497c0.949,0.474 1.699,1.259 2.236,2.309c0.534,1.047 0.841,2.363 0.838,3.826c0.003,1.954 -0.564,3.696 -1.499,4.905c-0.468,0.606 -1.024,1.083 -1.665,1.413c-0.642,0.331 -1.368,0.518 -2.204,0.52c-1.587,-0.008 -2.85,-0.667 -3.787,-1.793c-0.93,-1.127 -1.51,-2.759 -1.512,-4.701c0,-1.961 0.553,-3.739 1.48,-4.976Z" style="fill:#e43f45;fill-rule:nonzero;"/></g></svg>