<?xml version="1.0" encoding="UTF-8" standalone="no"?><!DOCTYPE svg PUBLIC "-//W3C//DTD SVG 1.1//EN" "http://www.w3.org/Graphics/SVG/1.1/DTD/svg11.dtd"><svg width="100%" height="100%" viewBox="0 0 203 283" version="1.1" xmlns="http://www.w3.org/2000/svg" xmlns:xlink="http://www.w3.org/1999/xlink" xml:space="preserve" xmlns:serif="http://www.serif.com/" style="fill-rule:evenodd;clip-rule:evenodd;stroke-linejoin:round;stroke-miterlimit:1.41421;"><path d="M200,13c0,-5.519 -4.481,-10 -10,-10l-180,0c-5.519,0 -10,4.481 -10,10l0,260c0,5.519 4.481,10 10,10l180,0c5.519,0 10,-4.481 10,-10l0,-260Z" style="fill-opacity:0.08;"/><path d="M203,10c0,-5.519 -4.481,-10 -10,-10l-180,0c-5.519,0 -10,4.481 -10,10l0,260c0,5.519 4.481,10 10,10l180,0c5.519,0 10,-4.481 10,-10l0,-260Z" style="fill:#fff;"/><g id="_10" serif:id="10"><rect x="14.959" y="12" width="2.444" height="26.96" style="fill:#e43f45;fill-rule:nonzero;"/><path d="M22.512,37.524c-0.89,-0.915 -1.46,-2.22 -1.458,-3.655l0,-16.737c-0.002,-1.437 0.568,-2.741 1.458,-3.656c0.888,-0.919 2.106,-1.476 3.435,-1.476c1.327,0 2.545,0.557 3.436,1.476c0.889,0.915 1.46,2.219 1.458,3.656l0,16.737c0.002,1.435 -0.569,2.74 -1.458,3.655c-0.891,0.919 -2.109,1.476 -3.436,1.476c-1.329,0 -2.547,-0.557 -3.435,-1.476Zm1.677,-22.102c-0.439,0.457 -0.691,1.051 -0.692,1.71l0,16.737c0.001,0.659 0.253,1.25 0.692,1.71c0.439,0.454 1.058,0.745 1.758,0.745c0.701,0 1.318,-0.291 1.757,-0.745c0.441,-0.46 0.692,-1.051 0.693,-1.71l0,-16.737c-0.001,-0.659 -0.252,-1.253 -0.693,-1.71c-0.439,-0.454 -1.056,-0.746 -1.757,-0.746c-0.7,0 -1.319,0.292 -1.758,0.746Z" style="fill:#e43f45;fill-rule:nonzero;"/><rect x="188.497" y="241.04" width="2.444" height="26.96" style="fill:#e43f45;fill-rule:nonzero;"/><path d="M183.388,242.476c0.89,0.915 1.46,2.22 1.458,3.655l0,16.737c0.002,1.437 -0.568,2.741 -1.458,3.656c-0.888,0.919 -2.106,1.476 -3.435,1.476c-1.327,0 -2.545,-0.557 -3.436,-1.476c-0.889,-0.915 -1.46,-2.219 -1.458,-3.656l0,-16.737c-0.002,-1.435 0.569,-2.74 1.458,-3.655c0.891,-0.919 2.109,-1.476 3.436,-1.476c1.329,0 2.547,0.557 3.435,1.476Zm-1.677,22.102c0.439,-0.457 0.691,-1.051 0.692,-1.71l0,-16.737c-0.001,-0.659 -0.253,-1.25 -0.692,-1.71c-0.439,-0.454 -1.058,-0.745 -1.758,-0.745c-0.701,0 -1.318,0.291 -1.757,0.745c-0.441,0.46 -0.692,1.051 -0.693,1.71l0,16.737c0.001,0.659 0.252,1.253 0.693,1.71c0.439,0.454 1.056,0.746 1.757,0.746c0.7,0 1.319,-0.292 1.758,-0.746Z" style="fill:#e43f45;fill-rule:nonzero;"/><path d="M22.912,43.8c2.065,3.88 4.79,7.051 8.178,9.504c-3.388,2.464 -6.113,5.632 -8.178,9.496c-2.082,-3.864 -4.816,-7.032 -8.202,-9.496c3.386,-2.453 6.12,-5.624 8.202,-9.504Z" style="fill:#e43f45;fill-rule:nonzero;"/><path d="M59.629,28.95c5.163,9.701 11.977,17.628 20.446,23.761c-8.469,6.16 -15.283,14.079 -20.446,23.739c-5.204,-9.66 -12.038,-17.579 -20.504,-23.739c8.466,-6.133 15.3,-14.06 20.504,-23.761Z" style="fill:#e43f45;fill-rule:nonzero;"/><path d="M59.629,203.55c5.163,9.701 11.977,17.628 20.446,23.761c-8.469,6.16 -15.283,14.079 -20.446,23.739c-5.204,-9.66 -12.038,-17.579 -20.504,-23.739c8.466,-6.133 15.3,-14.06 20.504,-23.761Z" style="fill:#e43f45;fill-rule:nonzero;"/><path d="M146.429,28.95c5.163,9.701 11.977,17.628 20.446,23.761c-8.469,6.16 -15.283,14.079 -20.446,23.739c-5.204,-9.66 -12.038,-17.579 -20.504,-23.739c8.466,-6.133 15.3,-14.06 20.504,-23.761Z" style="fill:#e43f45;fill-rule:nonzero;"/><path d="M146.429,203.55c5.163,9.701 11.977,17.628 20.446,23.761c-8.469,6.16 -15.283,14.079 -20.446,23.739c-5.204,-9.66 -12.038,-17.579 -20.504,-23.739c8.466,-6.133 15.3,-14.06 20.504,-23.761Z" style="fill:#e43f45;fill-rule:nonzero;"/><path d="M59.629,88.15c5.163,9.701 11.977,17.628 20.446,23.761c-8.469,6.16 -15.283,14.079 -20.446,23.739c-5.204,-9.66 -12.038,-17.579 -20.504,-23.739c8.466,-6.133 15.3,-14.06 20.504,-23.761Z" style="fill:#e43f45;fill-rule:nonzero;"/><path d="M146.429,144.35c5.163,9.701 11.977,17.628 20.446,23.761c-8.469,6.16 -15.283,14.079 -20.446,23.739c-5.204,-9.66 -12.038,-17.579 -20.504,-23.739c8.466,-6.133 15.3,-14.06 20.504,-23.761Z" style="fill:#e43f45;fill-rule:nonzero;"/><path d="M183.012,217.2c2.065,3.88 4.79,7.051 8.178,9.504c-3.388,2.464 -6.113,5.632 -8.178,9.496c-2.082,-3.864 -4.816,-7.032 -8.202,-9.496c3.386,-2.453 6.12,-5.624 8.202,-9.504Z" style="fill:#e43f45;fill-rule:nonzero;"/><path d="M103.029,58.55c5.163,9.701 11.977,17.628 20.446,23.761c-8.469,6.16 -15.283,14.079 -20.446,23.739c-5.204,-9.66 -12.038,-17.579 -20.504,-23.739c8.466,-6.133 15.3,-14.06 20.504,-23.761Z" style="fill:#e43f45;fill-rule:nonzero;"/><path d="M146.429,88.15c5.163,9.701 11.977,17.628 20.446,23.761c-8.469,6.16 -15.283,14.079 -20.446,23.739c-5.204,-9.66 -12.038,-17.579 -20.504,-23.739c8.466,-6.133 15.3,-14.06 20.504,-23.761Z" style="fill:#e43f45;fill-rule:nonzero;"/><path d="M59.629,144.35c5.163,9.701 11.977,17.628 20.446,23.761c-8.469,6.16 -15.283,14.079 -20.446,23.739c-5.204,-9.66 -12.038,-17.579 -20.504,-23.739c8.466,-6.133 15.3,-14.06 20.504,-23.761Z" style="fill:#e43f45;fill-rule:nonzero;"/><path d="M103.029,173.95c5.163,9.701 11.977,17.628 20.446,23.761c-8.469,6.16 -15.283,14.079 -20.446,23.739c-5.204,-9.66 -12.038,-17.579 -20.504,-23.739c8.466,-6.133 15.3,-14.06 20.504,-23.761Z" style="fill:#e43f45;fill-rule:nonzero;"/></g></svg>