<?xml version="1.0" encoding="UTF-8" standalone="no"?><!DOCTYPE svg PUBLIC "-//W3C//DTD SVG 1.1//EN" "http://www.w3.org/Graphics/SVG/1.1/DTD/svg11.dtd"><svg width="100%" height="100%" viewBox="0 0 203 283" version="1.1" xmlns="http://www.w3.org/2000/svg" xmlns:xlink="http://www.w3.org/1999/xlink" xml:space="preserve" xmlns:serif="http://www.serif.com/" style="fill-rule:evenodd;clip-rule:evenodd;stroke-linejoin:round;stroke-miterlimit:1.41421;"><path d="M200,13c0,-5.519 -4.481,-10 -10,-10l-180,0c-5.519,0 -10,4.481 -10,10l0,260c0,5.519 4.481,10 10,10l180,0c5.519,0 10,-4.481 10,-10l0,-260Z" style="fill-opacity:0.08;"/><path d="M203,10c0,-5.519 -4.481,-10 -10,-10l-180,0c-5.519,0 -10,4.481 -10,10l0,260c0,5.519 4.481,10 10,10l180,0c5.519,0 10,-4.481 10,-10l0,-260Z" style="fill:#fff;"/><g id="_3" serif:id="3"><path d="M24.085,20.728l6.586,-5.881l0.021,0l0,-0.019l0.007,-0.006l-0.007,-0.008l0,-2.814l-15.161,0.001l0.007,2.032l0,2.529l2.329,0l0,-1.728l8.868,0.009l-8.706,8.063l1.254,1.858c0.951,-0.874 2.143,-1.394 3.452,-1.394c1.534,0 3.072,0.717 4.08,1.882c1.005,1.166 1.623,2.763 1.623,4.541c0,1.779 -0.618,3.376 -1.623,4.542c-1.008,1.165 -2.546,1.882 -4.08,1.883c-1.537,-0.001 -2.915,-0.718 -3.922,-1.883c-0.727,-0.844 -1.253,-1.913 -1.487,-3.113l-2.367,0.488c0.761,4.165 3.952,7.289 7.776,7.29c4.389,-0.001 8.106,-4.121 8.106,-9.207c0,-4.552 -2.983,-8.322 -6.756,-9.065Z" style="fill:#e43f45;fill-rule:nonzero;"/><path d="M181.815,259.272l-6.586,5.881l-0.021,0l0,0.019l-0.007,0.006l0.007,0.008l0,2.814l15.161,-0.001l-0.007,-2.032l0,-2.529l-2.329,0l0,1.728l-8.868,-0.009l8.706,-8.063l-1.254,-1.858c-0.951,0.874 -2.143,1.394 -3.452,1.394c-1.534,0 -3.072,-0.717 -4.08,-1.882c-1.005,-1.166 -1.623,-2.763 -1.623,-4.541c0,-1.779 0.618,-3.376 1.623,-4.542c1.008,-1.165 2.546,-1.882 4.08,-1.883c1.537,0.001 2.915,0.718 3.922,1.883c0.727,0.844 1.253,1.913 1.487,3.113l2.367,-0.488c-0.761,-4.165 -3.952,-7.289 -7.776,-7.29c-4.389,0.001 -8.106,4.121 -8.106,9.207c0,4.552 2.983,8.322 6.756,9.065Z" style="fill:#e43f45;fill-rule:nonzero;"/><path d="M22.912,43.8c2.065,3.88 4.79,7.051 8.178,9.504c-3.388,2.464 -6.113,5.632 -8.178,9.496c-2.082,-3.864 -4.816,-7.032 -8.202,-9.496c3.386,-2.453 6.12,-5.624 8.202,-9.504Z" style="fill:#e43f45;fill-rule:nonzero;"/><path d="M183.012,217.2c2.065,3.88 4.79,7.051 8.178,9.504c-3.388,2.464 -6.113,5.632 -8.178,9.496c-2.082,-3.864 -4.816,-7.032 -8.202,-9.496c3.386,-2.453 6.12,-5.624 8.202,-9.504Z" style="fill:#e43f45;fill-rule:nonzero;"/><path d="M103.029,28.95c5.163,9.701 11.977,17.628 20.446,23.761c-8.469,6.16 -15.283,14.079 -20.446,23.739c-5.204,-9.66 -12.038,-17.579 -20.504,-23.739c8.466,-6.133 15.3,-14.06 20.504,-23.761Z" style="fill:#e43f45;fill-rule:nonzero;"/><path d="M103.029,203.55c5.163,9.701 11.977,17.628 20.446,23.761c-8.469,6.16 -15.283,14.079 -20.446,23.739c-5.204,-9.66 -12.038,-17.579 -20.504,-23.739c8.466,-6.133 15.3,-14.06 20.504,-23.761Z" style="fill:#e43f45;fill-rule:nonzero;"/><path d="M103.029,116.25c5.163,9.701 11.977,17.628 20.446,23.761c-8.469,6.16 -15.283,14.079 -20.446,23.739c-5.204,-9.66 -12.038,-17.579 -20.504,-23.739c8.466,-6.133 15.3,-14.06 20.504,-23.761Z" style="fill:#e43f45;fill-rule:nonzero;"/></g></svg>