<?xml version="1.0" encoding="UTF-8" standalone="no"?><!DOCTYPE svg PUBLIC "-//W3C//DTD SVG 1.1//EN" "http://www.w3.org/Graphics/SVG/1.1/DTD/svg11.dtd"><svg width="100%" height="100%" viewBox="0 0 203 283" version="1.1" xmlns="http://www.w3.org/2000/svg" xmlns:xlink="http://www.w3.org/1999/xlink" xml:space="preserve" xmlns:serif="http://www.serif.com/" style="fill-rule:evenodd;clip-rule:evenodd;stroke-linejoin:round;stroke-miterlimit:1.41421;"><path d="M200,13c0,-5.519 -4.481,-10 -10,-10l-180,0c-5.519,0 -10,4.481 -10,10l0,260c0,5.519 4.481,10 10,10l180,0c5.519,0 10,-4.481 10,-10l0,-260Z" style="fill-opacity:0.08;"/><path d="M203,10c0,-5.519 -4.481,-10 -10,-10l-180,0c-5.519,0 -10,4.481 -10,10l0,260c0,5.519 4.481,10 10,10l180,0c5.519,0 10,-4.481 10,-10l0,-260Z" style="fill:#fff;"/><g id="_4" serif:id="4"><path d="M30.841,32.123l0,-2.679l-3.337,0l-0.006,-17.444l-2.507,0.001l-0.085,0l-9.947,17.443l0,2.679l10.041,0l0.002,4.192l-1.676,0.005l0.008,2.68l5.867,-0.02l-0.009,-2.681l-1.685,0.006l-0.001,-4.182l3.335,0Zm-12.948,-2.679l7.1,-12.476l0.006,12.476l-7.106,0Z" style="fill:#e43f45;fill-rule:nonzero;"/><path d="M175.059,247.877l0,2.679l3.337,0l0.006,17.444l2.507,-0.001l0.085,0l9.947,-17.443l0,-2.679l-10.041,0l-0.002,-4.192l1.676,-0.005l-0.008,-2.68l-5.867,0.02l0.009,2.681l1.685,-0.006l0.001,4.182l-3.335,0Zm12.948,2.679l-7.1,12.476l-0.006,-12.476l7.106,0Z" style="fill:#e43f45;fill-rule:nonzero;"/><path d="M22.912,43.8c2.065,3.88 4.79,7.051 8.178,9.504c-3.388,2.464 -6.113,5.632 -8.178,9.496c-2.082,-3.864 -4.816,-7.032 -8.202,-9.496c3.386,-2.453 6.12,-5.624 8.202,-9.504Z" style="fill:#e43f45;fill-rule:nonzero;"/><path d="M183.012,217.2c2.065,3.88 4.79,7.051 8.178,9.504c-3.388,2.464 -6.113,5.632 -8.178,9.496c-2.082,-3.864 -4.816,-7.032 -8.202,-9.496c3.386,-2.453 6.12,-5.624 8.202,-9.504Z" style="fill:#e43f45;fill-rule:nonzero;"/><path d="M59.629,28.95c5.163,9.701 11.977,17.628 20.446,23.761c-8.469,6.16 -15.283,14.079 -20.446,23.739c-5.204,-9.66 -12.038,-17.579 -20.504,-23.739c8.466,-6.133 15.3,-14.06 20.504,-23.761Z" style="fill:#e43f45;fill-rule:nonzero;"/><path d="M59.629,203.55c5.163,9.701 11.977,17.628 20.446,23.761c-8.469,6.16 -15.283,14.079 -20.446,23.739c-5.204,-9.66 -12.038,-17.579 -20.504,-23.739c8.466,-6.133 15.3,-14.06 20.504,-23.761Z" style="fill:#e43f45;fill-rule:nonzero;"/><path d="M146.429,28.95c5.163,9.701 11.977,17.628 20.446,23.761c-8.469,6.16 -15.283,14.079 -20.446,23.739c-5.204,-9.66 -12.038,-17.579 -20.504,-23.739c8.466,-6.133 15.3,-14.06 20.504,-23.761Z" style="fill:#e43f45;fill-rule:nonzero;"/><path d="M146.429,203.55c5.163,9.701 11.977,17.628 20.446,23.761c-8.469,6.16 -15.283,14.079 -20.446,23.739c-5.204,-9.66 -12.038,-17.579 -20.504,-23.739c8.466,-6.133 15.3,-14.06 20.504,-23.761Z" style="fill:#e43f45;fill-rule:nonzero;"/></g></svg>