<?xml version="1.0" encoding="UTF-8" standalone="no"?><!DOCTYPE svg PUBLIC "-//W3C//DTD SVG 1.1//EN" "http://www.w3.org/Graphics/SVG/1.1/DTD/svg11.dtd"><svg width="100%" height="100%" viewBox="0 0 203 283" version="1.1" xmlns="http://www.w3.org/2000/svg" xmlns:xlink="http://www.w3.org/1999/xlink" xml:space="preserve" xmlns:serif="http://www.serif.com/" style="fill-rule:evenodd;clip-rule:evenodd;stroke-linejoin:round;stroke-miterlimit:1.41421;"><path d="M200,13c0,-5.519 -4.481,-10 -10,-10l-180,0c-5.519,0 -10,4.481 -10,10l0,260c0,5.519 4.481,10 10,10l180,0c5.519,0 10,-4.481 10,-10l0,-260Z" style="fill-opacity:0.08;"/><path d="M203,10c0,-5.519 -4.481,-10 -10,-10l-180,0c-5.519,0 -10,4.481 -10,10l0,260c0,5.519 4.481,10 10,10l180,0c5.519,0 10,-4.481 10,-10l0,-260Z" style="fill:#fff;"/><g id="A"><path d="M29.069,36.405l-4.556,-24.376l-2.45,-0.029l0.003,0.018l-0.61,-0.006l-4.544,24.395l-1.908,0l-0.004,2.578l6.103,0l0.003,-2.578l-1.76,0l0.7,-3.734l5.891,-0.008l0.699,3.74l-1.867,-0.001l-0.004,2.578l6.105,0.003l0.003,-2.578l-1.804,-0.002Zm-8.498,-6.533l2.426,-12.945l2.417,12.939l-4.843,0.006Z" style="fill:#e43f45;fill-rule:nonzero;"/><path d="M176.905,243.558l4.556,24.376l2.451,0.029l-0.004,-0.018l0.611,0.006l4.543,-24.395l1.909,0l0.003,-2.578l-6.103,0l-0.003,2.578l1.761,0l-0.7,3.734l-5.892,0.008l-0.699,-3.74l1.867,0.001l0.004,-2.578l-6.104,-0.003l-0.004,2.578l1.804,0.002Zm8.498,6.533l-2.425,12.945l-2.418,-12.939l4.843,-0.006Z" style="fill:#e43f45;fill-rule:nonzero;"/><path d="M22.912,43.8c2.065,3.88 4.79,7.051 8.178,9.504c-3.388,2.464 -6.113,5.632 -8.178,9.496c-2.082,-3.864 -4.816,-7.032 -8.202,-9.496c3.386,-2.453 6.12,-5.624 8.202,-9.504Z" style="fill:#e43f45;fill-rule:nonzero;"/><path d="M183.012,217.2c2.065,3.88 4.79,7.051 8.178,9.504c-3.388,2.464 -6.113,5.632 -8.178,9.496c-2.082,-3.864 -4.816,-7.032 -8.202,-9.496c3.386,-2.453 6.12,-5.624 8.202,-9.504Z" style="fill:#e43f45;fill-rule:nonzero;"/><path d="M103.029,116.25c5.163,9.701 11.977,17.628 20.446,23.761c-8.469,6.16 -15.283,14.079 -20.446,23.739c-5.204,-9.66 -12.038,-17.579 -20.504,-23.739c8.466,-6.133 15.3,-14.06 20.504,-23.761Z" style="fill:#e43f45;fill-rule:nonzero;"/></g></svg>