<?xml version="1.0" encoding="UTF-8" standalone="no"?><!DOCTYPE svg PUBLIC "-//W3C//DTD SVG 1.1//EN" "http://www.w3.org/Graphics/SVG/1.1/DTD/svg11.dtd"><svg width="100%" height="100%" viewBox="0 0 203 283" version="1.1" xmlns="http://www.w3.org/2000/svg" xmlns:xlink="http://www.w3.org/1999/xlink" xml:space="preserve" xmlns:serif="http://www.serif.com/" style="fill-rule:evenodd;clip-rule:evenodd;stroke-linejoin:round;stroke-miterlimit:1.41421;"><path d="M200,13c0,-5.519 -4.481,-10 -10,-10l-180,0c-5.519,0 -10,4.481 -10,10l0,260c0,5.519 4.481,10 10,10l180,0c5.519,0 10,-4.481 10,-10l0,-260Z" style="fill-opacity:0.08;"/><path d="M203,10c0,-5.519 -4.481,-10 -10,-10l-180,0c-5.519,0 -10,4.481 -10,10l0,260c0,5.519 4.481,10 10,10l180,0c5.519,0 10,-4.481 10,-10l0,-260Z" style="fill:#fff;"/><g id="_9" serif:id="9"><path d="M30.623,20.264c-0.142,-2.169 -0.87,-4.125 -2.082,-5.599c-1.35,-1.651 -3.33,-2.665 -5.569,-2.665c-0.007,0 -0.016,0 -0.023,0c-1.18,0 -2.28,0.273 -3.249,0.774c-1.456,0.752 -2.599,2.001 -3.362,3.507c-0.764,1.506 -1.162,3.273 -1.164,5.131c0.002,2.453 0.678,4.732 2.007,6.437c0.665,0.851 1.494,1.551 2.459,2.032c0.965,0.481 2.06,0.738 3.238,0.737c0.03,0 0.06,0 0.082,0c1.183,-0.011 2.283,-0.302 3.246,-0.823c0.819,-0.442 1.528,-1.046 2.13,-1.759c-0.077,1.799 -0.365,3.95 -1.187,5.527c-0.429,0.828 -0.978,1.499 -1.724,1.986c-0.747,0.482 -1.72,0.801 -3.084,0.803c-0.993,-0.001 -1.771,-0.233 -2.416,-0.572c-0.963,-0.509 -1.64,-1.294 -2.073,-1.963c-0.216,-0.334 -0.368,-0.635 -0.464,-0.843c-0.046,-0.105 -0.078,-0.185 -0.099,-0.237c-0.01,-0.024 -0.016,-0.041 -0.019,-0.05l-0.029,0.012l-2.282,0.888c0.038,0.099 0.466,1.381 1.6,2.716c0.567,0.664 1.318,1.341 2.282,1.852c0.964,0.511 2.141,0.846 3.5,0.845c0.004,0 0.011,0 0.016,0c1.717,0 3.173,-0.428 4.335,-1.184c0.875,-0.566 1.573,-1.308 2.114,-2.126c0.81,-1.232 1.278,-2.622 1.565,-3.978c0.284,-1.356 0.39,-2.686 0.431,-3.819c0.028,-0.792 0.039,-1.562 0.039,-2.288c0,-2.671 -0.186,-4.965 -0.218,-5.341Zm-3.855,5.78c-0.461,0.62 -1.011,1.109 -1.645,1.452c-0.633,0.341 -1.352,0.538 -2.185,0.548c-0.026,0 -0.046,0 -0.06,0c-0.854,0 -1.587,-0.181 -2.223,-0.497c-0.949,-0.474 -1.699,-1.259 -2.236,-2.309c-0.534,-1.047 -0.841,-2.363 -0.838,-3.826c-0.003,-1.954 0.564,-3.696 1.499,-4.905c0.468,-0.606 1.024,-1.083 1.665,-1.413c0.642,-0.331 1.368,-0.518 2.204,-0.52c1.587,0.008 2.85,0.667 3.787,1.793c0.93,1.127 1.51,2.759 1.512,4.701c0,1.961 -0.553,3.739 -1.48,4.976Z" style="fill-rule:nonzero;"/><path d="M175.277,259.736c0.142,2.169 0.87,4.125 2.082,5.599c1.35,1.651 3.33,2.665 5.569,2.665c0.007,0 0.016,0 0.023,0c1.18,0 2.28,-0.273 3.249,-0.774c1.456,-0.752 2.599,-2.001 3.362,-3.507c0.764,-1.506 1.162,-3.273 1.164,-5.131c-0.002,-2.453 -0.678,-4.732 -2.007,-6.437c-0.665,-0.851 -1.494,-1.551 -2.459,-2.032c-0.965,-0.481 -2.06,-0.738 -3.238,-0.737c-0.03,0 -0.06,0 -0.082,0c-1.183,0.011 -2.283,0.302 -3.246,0.823c-0.819,0.442 -1.528,1.046 -2.13,1.759c0.077,-1.799 0.365,-3.95 1.187,-5.527c0.429,-0.828 0.978,-1.499 1.724,-1.986c0.747,-0.482 1.72,-0.801 3.084,-0.803c0.993,0.001 1.771,0.233 2.416,0.572c0.963,0.509 1.64,1.294 2.073,1.963c0.216,0.334 0.368,0.635 0.464,0.843c0.046,0.105 0.078,0.185 0.099,0.237c0.01,0.024 0.016,0.041 0.019,0.05l0.029,-0.012l2.282,-0.888c-0.038,-0.099 -0.466,-1.381 -1.6,-2.716c-0.567,-0.664 -1.318,-1.341 -2.282,-1.852c-0.964,-0.511 -2.141,-0.846 -3.5,-0.845c-0.004,0 -0.011,0 -0.016,0c-1.717,0 -3.173,0.428 -4.335,1.184c-0.875,0.566 -1.573,1.308 -2.114,2.126c-0.81,1.232 -1.278,2.622 -1.565,3.978c-0.284,1.356 -0.39,2.686 -0.431,3.819c-0.028,0.792 -0.039,1.562 -0.039,2.288c0,2.671 0.186,4.965 0.218,5.341Zm3.855,-5.78c0.461,-0.62 1.011,-1.109 1.645,-1.452c0.633,-0.341 1.352,-0.538 2.185,-0.548c0.026,0 0.046,0 0.06,0c0.854,0 1.587,0.181 2.223,0.497c0.949,0.474 1.699,1.259 2.236,2.309c0.534,1.047 0.841,2.363 0.838,3.826c0.003,1.954 -0.564,3.696 -1.499,4.905c-0.468,0.606 -1.024,1.083 -1.665,1.413c-0.642,0.331 -1.368,0.518 -2.204,0.52c-1.587,-0.008 -2.85,-0.667 -3.787,-1.793c-0.93,-1.127 -1.51,-2.759 -1.512,-4.701c0,-1.961 0.553,-3.739 1.48,-4.976Z" style="fill-rule:nonzero;"/><path d="M22.9,43.8c-2.082,0 -3.772,1.903 -3.772,4.246c0,1.341 0.559,2.529 1.417,3.314c0.29,0.265 0.165,0.554 -0.13,0.374c-0.535,-0.326 -1.14,-0.533 -1.794,-0.533c-2.008,0 -3.638,1.835 -3.638,4.095c0,2.261 1.63,4.097 3.638,4.097c1.34,0 2.511,-0.814 3.141,-2.029c0.061,-0.119 0.11,-0.282 0.198,-0.282c0.119,0 0.175,0.195 0.175,0.561c0,1.469 -0.564,3.184 -1.398,5.157c0.36,-0.086 1.452,-0.303 2.163,-0.303c0.713,0 1.804,0.217 2.165,0.303c-0.835,-1.973 -1.399,-3.688 -1.399,-5.157c0,-0.366 0.057,-0.561 0.176,-0.561c0.088,0 0.137,0.163 0.197,0.282c0.631,1.215 1.801,2.029 3.14,2.029c2.009,0 3.638,-1.836 3.638,-4.097c0,-2.26 -1.629,-4.095 -3.638,-4.095c-0.652,0 -1.258,0.207 -1.795,0.533c-0.293,0.18 -0.419,-0.109 -0.128,-0.374c0.857,-0.785 1.416,-1.973 1.416,-3.314c0,-2.343 -1.69,-4.246 -3.772,-4.246Z" style="fill-rule:nonzero;"/><path d="M59.6,28.95c-5.206,0 -9.43,4.757 -9.43,10.615c0,3.352 1.398,6.323 3.544,8.285c0.724,0.663 0.412,1.384 -0.326,0.934c-1.339,-0.813 -2.851,-1.331 -4.486,-1.331c-5.019,0 -9.093,4.586 -9.093,10.238c0,5.653 4.074,10.241 9.093,10.241c3.349,0 6.277,-2.036 7.853,-5.072c0.153,-0.298 0.274,-0.705 0.495,-0.705c0.297,0 0.436,0.488 0.436,1.402c0,3.673 -1.41,7.961 -3.493,12.893c0.899,-0.215 3.628,-0.759 5.407,-0.759c1.783,0 4.51,0.544 5.411,0.759c-2.085,-4.932 -3.496,-9.22 -3.496,-12.893c0,-0.914 0.142,-1.402 0.44,-1.402c0.219,0 0.342,0.407 0.493,0.705c1.577,3.036 4.502,5.072 7.85,5.072c5.023,0 9.093,-4.588 9.093,-10.241c0,-5.652 -4.07,-10.238 -9.093,-10.238c-1.631,0 -3.145,0.518 -4.489,1.331c-0.732,0.45 -1.046,-0.271 -0.319,-0.934c2.142,-1.962 3.54,-4.933 3.54,-8.285c0,-5.858 -4.224,-10.615 -9.43,-10.615Z" style="fill-rule:nonzero;"/><path d="M183,236.2c-2.082,0 -3.772,-1.903 -3.772,-4.246c0,-1.341 0.559,-2.529 1.417,-3.314c0.29,-0.265 0.165,-0.554 -0.13,-0.374c-0.535,0.326 -1.14,0.533 -1.794,0.533c-2.008,0 -3.638,-1.835 -3.638,-4.095c0,-2.261 1.63,-4.097 3.638,-4.097c1.34,0 2.511,0.814 3.141,2.029c0.061,0.119 0.11,0.282 0.198,0.282c0.119,0 0.175,-0.195 0.175,-0.561c0,-1.469 -0.564,-3.184 -1.398,-5.157c0.36,0.086 1.452,0.303 2.163,0.303c0.713,0 1.804,-0.217 2.165,-0.303c-0.835,1.973 -1.399,3.688 -1.399,5.157c0,0.366 0.057,0.561 0.176,0.561c0.088,0 0.137,-0.163 0.197,-0.282c0.631,-1.215 1.801,-2.029 3.14,-2.029c2.009,0 3.638,1.836 3.638,4.097c0,2.26 -1.629,4.095 -3.638,4.095c-0.652,0 -1.258,-0.207 -1.795,-0.533c-0.293,-0.18 -0.419,0.109 -0.128,0.374c0.857,0.785 1.416,1.973 1.416,3.314c0,2.343 -1.69,4.246 -3.772,4.246Z" style="fill-rule:nonzero;"/><path d="M146.4,28.95c-5.206,0 -9.43,4.757 -9.43,10.615c0,3.352 1.398,6.323 3.544,8.285c0.724,0.663 0.412,1.384 -0.326,0.934c-1.339,-0.813 -2.851,-1.331 -4.486,-1.331c-5.019,0 -9.093,4.586 -9.093,10.238c0,5.653 4.074,10.241 9.093,10.241c3.349,0 6.277,-2.036 7.853,-5.072c0.153,-0.298 0.274,-0.705 0.495,-0.705c0.297,0 0.436,0.488 0.436,1.402c0,3.673 -1.41,7.961 -3.493,12.893c0.899,-0.215 3.628,-0.759 5.407,-0.759c1.783,0 4.51,0.544 5.411,0.759c-2.085,-4.932 -3.496,-9.22 -3.496,-12.893c0,-0.914 0.142,-1.402 0.44,-1.402c0.219,0 0.342,0.407 0.493,0.705c1.577,3.036 4.502,5.072 7.85,5.072c5.023,0 9.093,-4.588 9.093,-10.241c0,-5.652 -4.07,-10.238 -9.093,-10.238c-1.631,0 -3.145,0.518 -4.489,1.331c-0.732,0.45 -1.046,-0.271 -0.319,-0.934c2.142,-1.962 3.54,-4.933 3.54,-8.285c0,-5.858 -4.224,-10.615 -9.43,-10.615Z" style="fill-rule:nonzero;"/><path d="M59.6,251.05c-5.206,0 -9.43,-4.757 -9.43,-10.615c0,-3.352 1.398,-6.323 3.544,-8.285c0.724,-0.663 0.412,-1.384 -0.326,-0.934c-1.339,0.813 -2.851,1.331 -4.486,1.331c-5.019,0 -9.093,-4.586 -9.093,-10.238c0,-5.653 4.074,-10.241 9.093,-10.241c3.349,0 6.277,2.036 7.853,5.072c0.153,0.298 0.274,0.705 0.495,0.705c0.297,0 0.436,-0.488 0.436,-1.402c0,-3.673 -1.41,-7.961 -3.493,-12.893c0.899,0.215 3.628,0.759 5.407,0.759c1.783,0 4.51,-0.544 5.411,-0.759c-2.085,4.932 -3.496,9.22 -3.496,12.893c0,0.914 0.142,1.402 0.44,1.402c0.219,0 0.342,-0.407 0.493,-0.705c1.577,-3.036 4.502,-5.072 7.85,-5.072c5.023,0 9.093,4.588 9.093,10.241c0,5.652 -4.07,10.238 -9.093,10.238c-1.631,0 -3.145,-0.518 -4.489,-1.331c-0.732,-0.45 -1.046,0.271 -0.319,0.934c2.142,1.962 3.54,4.933 3.54,8.285c0,5.858 -4.224,10.615 -9.43,10.615Z" style="fill-rule:nonzero;"/><path d="M146.4,251.05c-5.206,0 -9.43,-4.757 -9.43,-10.615c0,-3.352 1.398,-6.323 3.544,-8.285c0.724,-0.663 0.412,-1.384 -0.326,-0.934c-1.339,0.813 -2.851,1.331 -4.486,1.331c-5.019,0 -9.093,-4.586 -9.093,-10.238c0,-5.653 4.074,-10.241 9.093,-10.241c3.349,0 6.277,2.036 7.853,5.072c0.153,0.298 0.274,0.705 0.495,0.705c0.297,0 0.436,-0.488 0.436,-1.402c0,-3.673 -1.41,-7.961 -3.493,-12.893c0.899,0.215 3.628,0.759 5.407,0.759c1.783,0 4.51,-0.544 5.411,-0.759c-2.085,4.932 -3.496,9.22 -3.496,12.893c0,0.914 0.142,1.402 0.44,1.402c0.219,0 0.342,-0.407 0.493,-0.705c1.577,-3.036 4.502,-5.072 7.85,-5.072c5.023,0 9.093,4.588 9.093,10.241c0,5.652 -4.07,10.238 -9.093,10.238c-1.631,0 -3.145,-0.518 -4.489,-1.331c-0.732,-0.45 -1.046,0.271 -0.319,0.934c2.142,1.962 3.54,4.933 3.54,8.285c0,5.858 -4.224,10.615 -9.43,10.615Z" style="fill-rule:nonzero;"/><path d="M59.6,191.85c-5.206,0 -9.43,-4.757 -9.43,-10.615c0,-3.352 1.398,-6.323 3.544,-8.285c0.724,-0.663 0.412,-1.384 -0.326,-0.934c-1.339,0.813 -2.851,1.331 -4.486,1.331c-5.019,0 -9.093,-4.586 -9.093,-10.238c0,-5.653 4.074,-10.241 9.093,-10.241c3.349,0 6.277,2.036 7.853,5.072c0.153,0.298 0.274,0.705 0.495,0.705c0.297,0 0.436,-0.488 0.436,-1.402c0,-3.673 -1.41,-7.961 -3.493,-12.893c0.899,0.215 3.628,0.759 5.407,0.759c1.783,0 4.51,-0.544 5.411,-0.759c-2.085,4.932 -3.496,9.22 -3.496,12.893c0,0.914 0.142,1.402 0.44,1.402c0.219,0 0.342,-0.407 0.493,-0.705c1.577,-3.036 4.502,-5.072 7.85,-5.072c5.023,0 9.093,4.588 9.093,10.241c0,5.652 -4.07,10.238 -9.093,10.238c-1.631,0 -3.145,-0.518 -4.489,-1.331c-0.732,-0.45 -1.046,0.271 -0.319,0.934c2.142,1.962 3.54,4.933 3.54,8.285c0,5.858 -4.224,10.615 -9.43,10.615Z" style="fill-rule:nonzero;"/><path d="M146.4,191.85c-5.206,0 -9.43,-4.757 -9.43,-10.615c0,-3.352 1.398,-6.323 3.544,-8.285c0.724,-0.663 0.412,-1.384 -0.326,-0.934c-1.339,0.813 -2.851,1.331 -4.486,1.331c-5.019,0 -9.093,-4.586 -9.093,-10.238c0,-5.653 4.074,-10.241 9.093,-10.241c3.349,0 6.277,2.036 7.853,5.072c0.153,0.298 0.274,0.705 0.495,0.705c0.297,0 0.436,-0.488 0.436,-1.402c0,-3.673 -1.41,-7.961 -3.493,-12.893c0.899,0.215 3.628,0.759 5.407,0.759c1.783,0 4.51,-0.544 5.411,-0.759c-2.085,4.932 -3.496,9.22 -3.496,12.893c0,0.914 0.142,1.402 0.44,1.402c0.219,0 0.342,-0.407 0.493,-0.705c1.577,-3.036 4.502,-5.072 7.85,-5.072c5.023,0 9.093,4.588 9.093,10.241c0,5.652 -4.07,10.238 -9.093,10.238c-1.631,0 -3.145,-0.518 -4.489,-1.331c-0.732,-0.45 -1.046,0.271 -0.319,0.934c2.142,1.962 3.54,4.933 3.54,8.285c0,5.858 -4.224,10.615 -9.43,10.615Z" style="fill-rule:nonzero;"/><path d="M59.6,88.15c-5.206,0 -9.43,4.757 -9.43,10.615c0,3.352 1.398,6.323 3.544,8.285c0.724,0.663 0.412,1.384 -0.326,0.934c-1.339,-0.813 -2.851,-1.331 -4.486,-1.331c-5.019,0 -9.093,4.586 -9.093,10.238c0,5.653 4.074,10.241 9.093,10.241c3.349,0 6.277,-2.036 7.853,-5.072c0.153,-0.298 0.274,-0.705 0.495,-0.705c0.297,0 0.436,0.488 0.436,1.402c0,3.673 -1.41,7.961 -3.493,12.893c0.899,-0.215 3.628,-0.759 5.407,-0.759c1.783,0 4.51,0.544 5.411,0.759c-2.085,-4.932 -3.496,-9.22 -3.496,-12.893c0,-0.914 0.142,-1.402 0.44,-1.402c0.219,0 0.342,0.407 0.493,0.705c1.577,3.036 4.502,5.072 7.85,5.072c5.023,0 9.093,-4.588 9.093,-10.241c0,-5.652 -4.07,-10.238 -9.093,-10.238c-1.631,0 -3.145,0.518 -4.489,1.331c-0.732,0.45 -1.046,-0.271 -0.319,-0.934c2.142,-1.962 3.54,-4.933 3.54,-8.285c0,-5.858 -4.224,-10.615 -9.43,-10.615Z" style="fill-rule:nonzero;"/><path d="M146.4,88.15c-5.206,0 -9.43,4.757 -9.43,10.615c0,3.352 1.398,6.323 3.544,8.285c0.724,0.663 0.412,1.384 -0.326,0.934c-1.339,-0.813 -2.851,-1.331 -4.486,-1.331c-5.019,0 -9.093,4.586 -9.093,10.238c0,5.653 4.074,10.241 9.093,10.241c3.349,0 6.277,-2.036 7.853,-5.072c0.153,-0.298 0.274,-0.705 0.495,-0.705c0.297,0 0.436,0.488 0.436,1.402c0,3.673 -1.41,7.961 -3.493,12.893c0.899,-0.215 3.628,-0.759 5.407,-0.759c1.783,0 4.51,0.544 5.411,0.759c-2.085,-4.932 -3.496,-9.22 -3.496,-12.893c0,-0.914 0.142,-1.402 0.44,-1.402c0.219,0 0.342,0.407 0.493,0.705c1.577,3.036 4.502,5.072 7.85,5.072c5.023,0 9.093,-4.588 9.093,-10.241c0,-5.652 -4.07,-10.238 -9.093,-10.238c-1.631,0 -3.145,0.518 -4.489,1.331c-0.732,0.45 -1.046,-0.271 -0.319,-0.934c2.142,-1.962 3.54,-4.933 3.54,-8.285c0,-5.858 -4.224,-10.615 -9.43,-10.615Z" style="fill-rule:nonzero;"/><path d="M103,116.25c-5.206,0 -9.43,4.757 -9.43,10.615c0,3.352 1.398,6.323 3.544,8.285c0.724,0.663 0.412,1.384 -0.326,0.934c-1.339,-0.813 -2.851,-1.331 -4.486,-1.331c-5.019,0 -9.093,4.586 -9.093,10.238c0,5.653 4.074,10.241 9.093,10.241c3.349,0 6.277,-2.036 7.853,-5.072c0.153,-0.298 0.274,-0.705 0.495,-0.705c0.297,0 0.436,0.488 0.436,1.402c0,3.673 -1.41,7.961 -3.493,12.893c0.899,-0.215 3.628,-0.759 5.407,-0.759c1.783,0 4.51,0.544 5.411,0.759c-2.085,-4.932 -3.496,-9.22 -3.496,-12.893c0,-0.914 0.142,-1.402 0.44,-1.402c0.219,0 0.342,0.407 0.493,0.705c1.577,3.036 4.502,5.072 7.85,5.072c5.023,0 9.093,-4.588 9.093,-10.241c0,-5.652 -4.07,-10.238 -9.093,-10.238c-1.631,0 -3.145,0.518 -4.489,1.331c-0.732,0.45 -1.046,-0.271 -0.319,-0.934c2.142,-1.962 3.54,-4.933 3.54,-8.285c0,-5.858 -4.224,-10.615 -9.43,-10.615Z" style="fill-rule:nonzero;"/></g></svg>