<?xml version="1.0" encoding="UTF-8" standalone="no"?><!DOCTYPE svg PUBLIC "-//W3C//DTD SVG 1.1//EN" "http://www.w3.org/Graphics/SVG/1.1/DTD/svg11.dtd"><svg width="100%" height="100%" viewBox="0 0 203 283" version="1.1" xmlns="http://www.w3.org/2000/svg" xmlns:xlink="http://www.w3.org/1999/xlink" xml:space="preserve" xmlns:serif="http://www.serif.com/" style="fill-rule:evenodd;clip-rule:evenodd;stroke-linejoin:round;stroke-miterlimit:1.41421;"><path d="M200,13c0,-5.519 -4.481,-10 -10,-10l-180,0c-5.519,0 -10,4.481 -10,10l0,260c0,5.519 4.481,10 10,10l180,0c5.519,0 10,-4.481 10,-10l0,-260Z" style="fill-opacity:0.08;"/><path d="M203,10c0,-5.519 -4.481,-10 -10,-10l-180,0c-5.519,0 -10,4.481 -10,10l0,260c0,5.519 4.481,10 10,10l180,0c5.519,0 10,-4.481 10,-10l0,-260Z" style="fill:#fff;"/><g id="A"><path d="M29.069,36.405l-4.556,-24.376l-2.45,-0.029l0.003,0.018l-0.61,-0.006l-4.544,24.395l-1.908,0l-0.004,2.578l6.103,0l0.003,-2.578l-1.76,0l0.7,-3.734l5.891,-0.008l0.699,3.74l-1.867,-0.001l-0.004,2.578l6.105,0.003l0.003,-2.578l-1.804,-0.002Zm-8.498,-6.533l2.426,-12.945l2.417,12.939l-4.843,0.006Z" style="fill-rule:nonzero;"/><path d="M176.905,243.558l4.556,24.376l2.451,0.029l-0.004,-0.018l0.611,0.006l4.543,-24.395l1.909,0l0.003,-2.578l-6.103,0l-0.003,2.578l1.761,0l-0.7,3.734l-5.892,0.008l-0.699,-3.74l1.867,0.001l0.004,-2.578l-6.104,-0.003l-0.004,2.578l1.804,0.002Zm8.498,6.533l-2.425,12.945l-2.418,-12.939l4.843,-0.006Z" style="fill-rule:nonzero;"/><path d="M103,116.25c-5.206,0 -9.43,4.757 -9.43,10.615c0,3.352 1.398,6.323 3.544,8.285c0.724,0.663 0.412,1.384 -0.326,0.934c-1.339,-0.813 -2.851,-1.331 -4.486,-1.331c-5.019,0 -9.093,4.586 -9.093,10.238c0,5.653 4.074,10.241 9.093,10.241c3.349,0 6.277,-2.036 7.853,-5.072c0.153,-0.298 0.274,-0.705 0.495,-0.705c0.297,0 0.436,0.488 0.436,1.402c0,3.673 -1.41,7.961 -3.493,12.893c0.899,-0.215 3.628,-0.759 5.407,-0.759c1.783,0 4.51,0.544 5.411,0.759c-2.085,-4.932 -3.496,-9.22 -3.496,-12.893c0,-0.914 0.142,-1.402 0.44,-1.402c0.219,0 0.342,0.407 0.493,0.705c1.577,3.036 4.502,5.072 7.85,5.072c5.023,0 9.093,-4.588 9.093,-10.241c0,-5.652 -4.07,-10.238 -9.093,-10.238c-1.631,0 -3.145,0.518 -4.489,1.331c-0.732,0.45 -1.046,-0.271 -0.319,-0.934c2.142,-1.962 3.54,-4.933 3.54,-8.285c0,-5.858 -4.224,-10.615 -9.43,-10.615Z" style="fill-rule:nonzero;"/><path d="M22.9,43.8c-2.082,0 -3.772,1.903 -3.772,4.246c0,1.341 0.559,2.529 1.417,3.314c0.29,0.265 0.165,0.554 -0.13,0.374c-0.535,-0.326 -1.14,-0.533 -1.794,-0.533c-2.008,0 -3.638,1.835 -3.638,4.095c0,2.261 1.63,4.097 3.638,4.097c1.34,0 2.511,-0.814 3.141,-2.029c0.061,-0.119 0.11,-0.282 0.198,-0.282c0.119,0 0.175,0.195 0.175,0.561c0,1.469 -0.564,3.184 -1.398,5.157c0.36,-0.086 1.452,-0.303 2.163,-0.303c0.713,0 1.804,0.217 2.165,0.303c-0.835,-1.973 -1.399,-3.688 -1.399,-5.157c0,-0.366 0.057,-0.561 0.176,-0.561c0.088,0 0.137,0.163 0.197,0.282c0.631,1.215 1.801,2.029 3.14,2.029c2.009,0 3.638,-1.836 3.638,-4.097c0,-2.26 -1.629,-4.095 -3.638,-4.095c-0.652,0 -1.258,0.207 -1.795,0.533c-0.293,0.18 -0.419,-0.109 -0.128,-0.374c0.857,-0.785 1.416,-1.973 1.416,-3.314c0,-2.343 -1.69,-4.246 -3.772,-4.246Z" style="fill-rule:nonzero;"/><path d="M183,236.2c2.082,0 3.772,-1.903 3.772,-4.246c0,-1.341 -0.559,-2.529 -1.417,-3.314c-0.29,-0.265 -0.165,-0.554 0.13,-0.374c0.535,0.326 1.14,0.533 1.794,0.533c2.008,0 3.638,-1.835 3.638,-4.095c0,-2.261 -1.63,-4.097 -3.638,-4.097c-1.34,0 -2.511,0.814 -3.141,2.029c-0.061,0.119 -0.11,0.282 -0.198,0.282c-0.119,0 -0.175,-0.195 -0.175,-0.561c0,-1.469 0.564,-3.184 1.398,-5.157c-0.36,0.086 -1.452,0.303 -2.163,0.303c-0.713,0 -1.804,-0.217 -2.165,-0.303c0.835,1.973 1.399,3.688 1.399,5.157c0,0.366 -0.057,0.561 -0.176,0.561c-0.088,0 -0.137,-0.163 -0.197,-0.282c-0.631,-1.215 -1.801,-2.029 -3.14,-2.029c-2.009,0 -3.638,1.836 -3.638,4.097c0,2.26 1.629,4.095 3.638,4.095c0.652,0 1.258,-0.207 1.795,-0.533c0.293,-0.18 0.419,0.109 0.128,0.374c-0.857,0.785 -1.416,1.973 -1.416,3.314c0,2.343 1.69,4.246 3.772,4.246Z" style="fill-rule:nonzero;"/></g></svg>