<?xml version="1.0" encoding="UTF-8" standalone="no"?><!DOCTYPE svg PUBLIC "-//W3C//DTD SVG 1.1//EN" "http://www.w3.org/Graphics/SVG/1.1/DTD/svg11.dtd"><svg width="100%" height="100%" viewBox="0 0 175 175" version="1.1" xmlns="http://www.w3.org/2000/svg" xmlns:xlink="http://www.w3.org/1999/xlink" xml:space="preserve" xmlns:serif="http://www.serif.com/" style="fill-rule:evenodd;clip-rule:evenodd;stroke-linejoin:round;stroke-miterlimit:1.41421;"><path d="M175.001,87.488c0,48.346 -39.169,87.512 -87.515,87.512c-48.32,0 -87.487,-39.166 -87.487,-87.512c0,-48.32 39.167,-87.488 87.487,-87.488c48.346,0 87.515,39.168 87.515,87.488" style="fill:#fff;fill-rule:nonzero;"/><path d="M75.177,0.859l1.806,12.369c7.038,-0.974 14.205,-0.985 21.269,0.037l1.759,-12.376c8.43,1.207 16.472,3.615 23.947,7.044l-5.185,11.374c6.167,2.845 11.939,6.523 17.124,10.891c0.262,0.223 0.524,0.446 0.784,0.672l8.132,-9.493c6.319,5.481 11.844,11.852 16.38,18.918l-10.499,6.784c3.635,5.689 6.507,11.864 8.506,18.325c0.107,0.35 0.212,0.701 0.315,1.052l11.997,-3.51c2.271,7.786 3.489,16.022 3.489,24.542l-12.5,-0.018l0,0.262c-0.033,6.696 -0.932,13.376 -2.719,19.859c-0.098,0.352 -0.198,0.703 -0.3,1.053l11.997,3.509c-2.374,8.103 -5.889,15.718 -10.358,22.659l-10.513,-6.762l-0.037,0.056c-3.675,5.677 -8.102,10.85 -13.146,15.367c-0.274,0.243 -0.549,0.485 -0.825,0.726l8.197,9.437c-6.267,5.433 -13.314,9.991 -20.952,13.482l-5.201,-11.366l-0.078,0.035c-6.484,2.942 -13.378,4.968 -20.381,5.958l1.793,12.371c-4.08,0.583 -8.251,0.884 -12.492,0.884c-4.236,0 -8.403,-0.301 -12.478,-0.883l1.74,-12.378c-7.018,-1.016 -13.885,-3.029 -20.324,-5.951c-0.036,-0.017 -0.072,-0.033 -0.108,-0.049l-5.131,11.398c-7.687,-3.51 -14.778,-8.102 -21.078,-13.58l8.14,-9.487c-5.32,-4.65 -9.983,-10.036 -13.819,-15.962c-0.02,-0.031 -0.039,-0.061 -0.059,-0.091l-10.474,6.822c-4.496,-6.978 -8.027,-14.637 -10.405,-22.79l11.98,-3.569c-1.859,-6.429 -2.845,-13.114 -2.961,-19.777c-0.006,-0.412 -0.011,-0.824 -0.01,-1.236l-12.5,-0.021c0.004,-8.565 1.239,-16.843 3.537,-24.665l11.999,3.505c2.027,-6.853 5.038,-13.406 8.889,-19.393l-10.513,-6.761c4.53,-7.026 10.04,-13.361 16.337,-18.812l8.169,9.461l0.169,-0.146c5.097,-4.376 10.779,-8.071 16.807,-10.943c0.339,-0.161 0.679,-0.319 1.02,-0.475l-5.204,-11.365c7.484,-3.415 15.533,-5.805 23.968,-6.993Z" style="fill:#2772c7;fill-rule:nonzero;"/><path d="M87.878,29.501c14.631,0.138 29.049,5.902 39.653,15.892c8.869,8.355 15.034,19.52 17.324,31.458c2.34,12.198 0.688,25.148 -4.717,36.359c-9.465,19.631 -30.519,33.09 -52.637,33.09c-14.948,0 -29.778,-5.995 -40.537,-16.376c-9.303,-8.976 -15.506,-21.086 -17.296,-33.862c-1.656,-11.82 0.391,-24.133 5.826,-34.74c9.699,-18.925 30.273,-31.619 51.63,-31.821c0.251,-0.001 0.503,-0.001 0.754,0Zm-0.743,1.8c-14.186,0.134 -28.152,5.719 -38.43,15.402c-8.58,8.084 -14.566,18.893 -16.791,30.488c-2.246,11.711 -0.699,24.137 4.423,34.928c9.116,19.204 29.6,32.381 51.164,32.381c14.464,0 28.86,-5.81 39.287,-15.872c9.086,-8.767 15.136,-20.635 16.812,-33.169c1.515,-11.333 -0.472,-23.126 -5.694,-33.316c-9.401,-18.344 -29.331,-30.646 -50.039,-30.842c-0.244,-0.001 -0.488,-0.001 -0.732,0Z" style="fill:#fff;fill-rule:nonzero;"/><circle cx="87.501" cy="87.9" r="42.7" style="fill:#fff;"/><rect x="57.3" y="102.791" width="60.4" height="4.675"/><rect x="57.325" y="67.571" width="7.578" height="28.858"/><path d="M79.811,86.982c0,1.869 1.502,3.371 3.395,3.371c1.894,0 3.396,-1.502 3.396,-3.371l0,-9.89c0,-1.894 -1.502,-3.395 -3.396,-3.395c-1.893,0 -3.395,1.501 -3.395,3.346l0,9.939Zm-6.027,-9.988c0,-5.192 4.181,-9.423 9.422,-9.423c5.193,0 9.473,4.231 9.473,9.472l0,9.964c0,5.241 -4.232,9.422 -9.473,9.422c-5.241,0 -9.422,-4.181 -9.422,-9.422l0,-10.013Z" style="fill-rule:nonzero;"/><path d="M104.833,86.982c0,1.869 1.5,3.371 3.394,3.371c1.871,0 3.371,-1.502 3.371,-3.371l0,-9.89c0,-1.894 -1.5,-3.395 -3.371,-3.395c-1.894,0 -3.394,1.501 -3.394,3.346l0,9.939Zm-6.027,-9.988c0,-5.192 4.181,-9.423 9.421,-9.423c5.191,0 9.448,4.231 9.448,9.472l0,9.964c0,5.241 -4.232,9.422 -9.448,9.422c-5.24,0 -9.421,-4.181 -9.421,-9.422l0,-10.013Z" style="fill-rule:nonzero;"/></svg>