<?xml version="1.0" encoding="UTF-8" standalone="no"?><!DOCTYPE svg PUBLIC "-//W3C//DTD SVG 1.1//EN" "http://www.w3.org/Graphics/SVG/1.1/DTD/svg11.dtd"><svg width="100%" height="100%" viewBox="0 0 203 283" version="1.1" xmlns="http://www.w3.org/2000/svg" xmlns:xlink="http://www.w3.org/1999/xlink" xml:space="preserve" xmlns:serif="http://www.serif.com/" style="fill-rule:evenodd;clip-rule:evenodd;stroke-linejoin:round;stroke-miterlimit:1.41421;"><path d="M200,13c0,-5.519 -4.481,-10 -10,-10l-180,0c-5.519,0 -10,4.481 -10,10l0,260c0,5.519 4.481,10 10,10l180,0c5.519,0 10,-4.481 10,-10l0,-260Z" style="fill-opacity:0.08;"/><path d="M203,10c0,-5.519 -4.481,-10 -10,-10l-180,0c-5.519,0 -10,4.481 -10,10l0,260c0,5.519 4.481,10 10,10l180,0c5.519,0 10,-4.481 10,-10l0,-260Z" style="fill:#fff;"/><g id="_10" serif:id="10"><rect x="14.959" y="12" width="2.444" height="26.96" style="fill-rule:nonzero;"/><path d="M22.512,37.524c-0.89,-0.915 -1.46,-2.22 -1.458,-3.655l0,-16.737c-0.002,-1.437 0.568,-2.741 1.458,-3.656c0.888,-0.919 2.106,-1.476 3.435,-1.476c1.327,0 2.545,0.557 3.436,1.476c0.889,0.915 1.46,2.219 1.458,3.656l0,16.737c0.002,1.435 -0.569,2.74 -1.458,3.655c-0.891,0.919 -2.109,1.476 -3.436,1.476c-1.329,0 -2.547,-0.557 -3.435,-1.476Zm1.677,-22.102c-0.439,0.457 -0.691,1.051 -0.692,1.71l0,16.737c0.001,0.659 0.253,1.25 0.692,1.71c0.439,0.454 1.058,0.745 1.758,0.745c0.701,0 1.318,-0.291 1.757,-0.745c0.441,-0.46 0.692,-1.051 0.693,-1.71l0,-16.737c-0.001,-0.659 -0.252,-1.253 -0.693,-1.71c-0.439,-0.454 -1.056,-0.746 -1.757,-0.746c-0.7,0 -1.319,0.292 -1.758,0.746Z" style="fill-rule:nonzero;"/><rect x="188.497" y="241.04" width="2.444" height="26.96" style="fill-rule:nonzero;"/><path d="M183.388,242.476c0.89,0.915 1.46,2.22 1.458,3.655l0,16.737c0.002,1.437 -0.568,2.741 -1.458,3.656c-0.888,0.919 -2.106,1.476 -3.435,1.476c-1.327,0 -2.545,-0.557 -3.436,-1.476c-0.889,-0.915 -1.46,-2.219 -1.458,-3.656l0,-16.737c-0.002,-1.435 0.569,-2.74 1.458,-3.655c0.891,-0.919 2.109,-1.476 3.436,-1.476c1.329,0 2.547,0.557 3.435,1.476Zm-1.677,22.102c0.439,-0.457 0.691,-1.051 0.692,-1.71l0,-16.737c-0.001,-0.659 -0.253,-1.25 -0.692,-1.71c-0.439,-0.454 -1.058,-0.745 -1.758,-0.745c-0.701,0 -1.318,0.291 -1.757,0.745c-0.441,0.46 -0.692,1.051 -0.693,1.71l0,16.737c0.001,0.659 0.252,1.253 0.693,1.71c0.439,0.454 1.056,0.746 1.757,0.746c0.7,0 1.319,-0.292 1.758,-0.746Z" style="fill-rule:nonzero;"/><path d="M22.889,43.8c-0.045,0.03 -0.078,0.047 -0.13,0.08c-3.395,2.169 -7.354,6.396 -7.76,11.665c-0.193,2.507 1.41,4.243 3.482,4.281c1.324,0.024 2.388,-0.447 2.964,-1.344c0.479,-0.746 0.601,-1.899 0.679,-1.366c0.279,2.029 -0.571,3.979 -1.03,5.684c0.513,-0.187 1.156,-0.28 1.802,-0.283l0.011,0c0.644,0.003 1.287,0.096 1.799,0.283c-0.459,-1.705 -1.307,-3.655 -1.029,-5.684c0.078,-0.533 0.2,0.62 0.678,1.366c0.575,0.897 1.641,1.368 2.963,1.344c2.073,-0.038 3.676,-1.774 3.483,-4.281c-0.407,-5.269 -4.366,-9.496 -7.756,-11.665c-0.037,-0.026 -0.071,-0.043 -0.123,-0.08l-0.033,0Z"/><path d="M59.573,28.95c-0.114,0.075 -0.195,0.117 -0.326,0.201c-8.488,5.421 -18.385,15.989 -19.399,29.162c-0.483,6.268 3.524,10.607 8.705,10.702c3.31,0.059 5.968,-1.117 7.409,-3.359c1.198,-1.866 1.503,-4.748 1.698,-3.416c0.699,5.072 -1.427,9.948 -2.575,14.21c1.282,-0.467 2.891,-0.701 4.505,-0.707l0.028,0c1.609,0.006 3.217,0.24 4.497,0.707c-1.148,-4.262 -3.268,-9.138 -2.573,-14.21c0.196,-1.332 0.5,1.55 1.696,3.416c1.438,2.242 4.102,3.418 7.406,3.359c5.184,-0.095 9.191,-4.434 8.708,-10.702c-1.016,-13.173 -10.914,-23.741 -19.39,-29.162c-0.092,-0.067 -0.176,-0.109 -0.308,-0.201l-0.081,0Z"/><path d="M182.989,236.2c-0.045,-0.03 -0.078,-0.047 -0.13,-0.08c-3.395,-2.169 -7.354,-6.396 -7.76,-11.665c-0.193,-2.507 1.41,-4.243 3.482,-4.281c1.324,-0.024 2.388,0.447 2.964,1.344c0.479,0.746 0.601,1.899 0.679,1.366c0.279,-2.029 -0.571,-3.979 -1.03,-5.684c0.513,0.187 1.156,0.28 1.802,0.283l0.011,0c0.644,-0.003 1.287,-0.096 1.799,-0.283c-0.459,1.705 -1.307,3.655 -1.029,5.684c0.078,0.533 0.2,-0.62 0.678,-1.366c0.575,-0.897 1.641,-1.368 2.963,-1.344c2.073,0.038 3.676,1.774 3.483,4.281c-0.407,5.269 -4.366,9.496 -7.756,11.665c-0.037,0.026 -0.071,0.043 -0.123,0.08l-0.033,0Z"/><path d="M146.373,251.05c-0.114,-0.075 -0.195,-0.117 -0.326,-0.201c-8.488,-5.421 -18.385,-15.989 -19.399,-29.162c-0.483,-6.268 3.524,-10.607 8.705,-10.702c3.31,-0.059 5.968,1.117 7.409,3.359c1.198,1.866 1.503,4.748 1.698,3.416c0.699,-5.072 -1.427,-9.948 -2.575,-14.21c1.282,0.467 2.891,0.701 4.505,0.707l0.028,0c1.609,-0.006 3.217,-0.24 4.497,-0.707c-1.148,4.262 -3.268,9.138 -2.573,14.21c0.196,1.332 0.5,-1.55 1.696,-3.416c1.438,-2.242 4.102,-3.418 7.406,-3.359c5.184,0.095 9.191,4.434 8.708,10.702c-1.016,13.173 -10.914,23.741 -19.39,29.162c-0.092,0.067 -0.176,0.109 -0.308,0.201l-0.081,0Z"/><path d="M146.373,28.95c-0.114,0.075 -0.195,0.117 -0.326,0.201c-8.488,5.421 -18.385,15.989 -19.399,29.162c-0.483,6.268 3.524,10.607 8.705,10.702c3.31,0.059 5.968,-1.117 7.409,-3.359c1.198,-1.866 1.503,-4.748 1.698,-3.416c0.699,5.072 -1.427,9.948 -2.575,14.21c1.282,-0.467 2.891,-0.701 4.505,-0.707l0.028,0c1.609,0.006 3.217,0.24 4.497,0.707c-1.148,-4.262 -3.268,-9.138 -2.573,-14.21c0.196,-1.332 0.5,1.55 1.696,3.416c1.438,2.242 4.102,3.418 7.406,3.359c5.184,-0.095 9.191,-4.434 8.708,-10.702c-1.016,-13.173 -10.914,-23.741 -19.39,-29.162c-0.092,-0.067 -0.176,-0.109 -0.308,-0.201l-0.081,0Z"/><path d="M59.573,251.05c-0.114,-0.075 -0.195,-0.117 -0.326,-0.201c-8.488,-5.421 -18.385,-15.989 -19.399,-29.162c-0.483,-6.268 3.524,-10.607 8.705,-10.702c3.31,-0.059 5.968,1.117 7.409,3.359c1.198,1.866 1.503,4.748 1.698,3.416c0.699,-5.072 -1.427,-9.948 -2.575,-14.21c1.282,0.467 2.891,0.701 4.505,0.707l0.028,0c1.609,-0.006 3.217,-0.24 4.497,-0.707c-1.148,4.262 -3.268,9.138 -2.573,14.21c0.196,1.332 0.5,-1.55 1.696,-3.416c1.438,-2.242 4.102,-3.418 7.406,-3.359c5.184,0.095 9.191,4.434 8.708,10.702c-1.016,13.173 -10.914,23.741 -19.39,29.162c-0.092,0.067 -0.176,0.109 -0.308,0.201l-0.081,0Z"/><path d="M59.573,88.15c-0.114,0.075 -0.195,0.117 -0.326,0.201c-8.488,5.421 -18.385,15.989 -19.399,29.162c-0.483,6.268 3.524,10.607 8.705,10.702c3.31,0.059 5.968,-1.117 7.409,-3.359c1.198,-1.866 1.503,-4.748 1.698,-3.416c0.699,5.072 -1.427,9.948 -2.575,14.21c1.282,-0.467 2.891,-0.701 4.505,-0.707l0.028,0c1.609,0.006 3.217,0.24 4.497,0.707c-1.148,-4.262 -3.268,-9.138 -2.573,-14.21c0.196,-1.332 0.5,1.55 1.696,3.416c1.438,2.242 4.102,3.418 7.406,3.359c5.184,-0.095 9.191,-4.434 8.708,-10.702c-1.016,-13.173 -10.914,-23.741 -19.39,-29.162c-0.092,-0.067 -0.176,-0.109 -0.308,-0.201l-0.081,0Z"/><path d="M146.373,88.15c-0.114,0.075 -0.195,0.117 -0.326,0.201c-8.488,5.421 -18.385,15.989 -19.399,29.162c-0.483,6.268 3.524,10.607 8.705,10.702c3.31,0.059 5.968,-1.117 7.409,-3.359c1.198,-1.866 1.503,-4.748 1.698,-3.416c0.699,5.072 -1.427,9.948 -2.575,14.21c1.282,-0.467 2.891,-0.701 4.505,-0.707l0.028,0c1.609,0.006 3.217,0.24 4.497,0.707c-1.148,-4.262 -3.268,-9.138 -2.573,-14.21c0.196,-1.332 0.5,1.55 1.696,3.416c1.438,2.242 4.102,3.418 7.406,3.359c5.184,-0.095 9.191,-4.434 8.708,-10.702c-1.016,-13.173 -10.914,-23.741 -19.39,-29.162c-0.092,-0.067 -0.176,-0.109 -0.308,-0.201l-0.081,0Z"/><path d="M102.973,58.55c-0.114,0.075 -0.195,0.117 -0.326,0.201c-8.488,5.421 -18.385,15.989 -19.399,29.162c-0.483,6.268 3.524,10.607 8.705,10.702c3.31,0.059 5.968,-1.117 7.409,-3.359c1.198,-1.866 1.503,-4.748 1.698,-3.416c0.699,5.072 -1.427,9.948 -2.575,14.21c1.282,-0.467 2.891,-0.701 4.505,-0.707l0.028,0c1.609,0.006 3.217,0.24 4.497,0.707c-1.148,-4.262 -3.268,-9.138 -2.573,-14.21c0.196,-1.332 0.5,1.55 1.696,3.416c1.438,2.242 4.102,3.418 7.406,3.359c5.184,-0.095 9.191,-4.434 8.708,-10.702c-1.016,-13.173 -10.914,-23.741 -19.39,-29.162c-0.092,-0.067 -0.176,-0.109 -0.308,-0.201l-0.081,0Z"/><path d="M59.573,191.85c-0.114,-0.075 -0.195,-0.117 -0.326,-0.201c-8.488,-5.421 -18.385,-15.989 -19.399,-29.162c-0.483,-6.268 3.524,-10.607 8.705,-10.702c3.31,-0.059 5.968,1.117 7.409,3.359c1.198,1.866 1.503,4.748 1.698,3.416c0.699,-5.072 -1.427,-9.948 -2.575,-14.21c1.282,0.467 2.891,0.701 4.505,0.707l0.028,0c1.609,-0.006 3.217,-0.24 4.497,-0.707c-1.148,4.262 -3.268,9.138 -2.573,14.21c0.196,1.332 0.5,-1.55 1.696,-3.416c1.438,-2.242 4.102,-3.418 7.406,-3.359c5.184,0.095 9.191,4.434 8.708,10.702c-1.016,13.173 -10.914,23.741 -19.39,29.162c-0.092,0.067 -0.176,0.109 -0.308,0.201l-0.081,0Z"/><path d="M146.373,191.85c-0.114,-0.075 -0.195,-0.117 -0.326,-0.201c-8.488,-5.421 -18.385,-15.989 -19.399,-29.162c-0.483,-6.268 3.524,-10.607 8.705,-10.702c3.31,-0.059 5.968,1.117 7.409,3.359c1.198,1.866 1.503,4.748 1.698,3.416c0.699,-5.072 -1.427,-9.948 -2.575,-14.21c1.282,0.467 2.891,0.701 4.505,0.707l0.028,0c1.609,-0.006 3.217,-0.24 4.497,-0.707c-1.148,4.262 -3.268,9.138 -2.573,14.21c0.196,1.332 0.5,-1.55 1.696,-3.416c1.438,-2.242 4.102,-3.418 7.406,-3.359c5.184,0.095 9.191,4.434 8.708,10.702c-1.016,13.173 -10.914,23.741 -19.39,29.162c-0.092,0.067 -0.176,0.109 -0.308,0.201l-0.081,0Z"/><path d="M102.973,221.45c-0.114,-0.075 -0.195,-0.117 -0.326,-0.201c-8.488,-5.421 -18.385,-15.989 -19.399,-29.162c-0.483,-6.268 3.524,-10.607 8.705,-10.702c3.31,-0.059 5.968,1.117 7.409,3.359c1.198,1.866 1.503,4.748 1.698,3.416c0.699,-5.072 -1.427,-9.948 -2.575,-14.21c1.282,0.467 2.891,0.701 4.505,0.707l0.028,0c1.609,-0.006 3.217,-0.24 4.497,-0.707c-1.148,4.262 -3.268,9.138 -2.573,14.21c0.196,1.332 0.5,-1.55 1.696,-3.416c1.438,-2.242 4.102,-3.418 7.406,-3.359c5.184,0.095 9.191,4.434 8.708,10.702c-1.016,13.173 -10.914,23.741 -19.39,29.162c-0.092,0.067 -0.176,0.109 -0.308,0.201l-0.081,0Z"/></g></svg>