<?xml version="1.0" encoding="UTF-8" standalone="no"?><!DOCTYPE svg PUBLIC "-//W3C//DTD SVG 1.1//EN" "http://www.w3.org/Graphics/SVG/1.1/DTD/svg11.dtd"><svg width="100%" height="100%" viewBox="0 0 203 283" version="1.1" xmlns="http://www.w3.org/2000/svg" xmlns:xlink="http://www.w3.org/1999/xlink" xml:space="preserve" xmlns:serif="http://www.serif.com/" style="fill-rule:evenodd;clip-rule:evenodd;stroke-linejoin:round;stroke-miterlimit:1.41421;"><path d="M200,13c0,-5.519 -4.481,-10 -10,-10l-180,0c-5.519,0 -10,4.481 -10,10l0,260c0,5.519 4.481,10 10,10l180,0c5.519,0 10,-4.481 10,-10l0,-260Z" style="fill-opacity:0.08;"/><path d="M203,10c0,-5.519 -4.481,-10 -10,-10l-180,0c-5.519,0 -10,4.481 -10,10l0,260c0,5.519 4.481,10 10,10l180,0c5.519,0 10,-4.481 10,-10l0,-260Z" style="fill:#fff;"/><g id="_3" serif:id="3"><path d="M24.085,20.728l6.586,-5.881l0.021,0l0,-0.019l0.007,-0.006l-0.007,-0.008l0,-2.814l-15.161,0.001l0.007,2.032l0,2.529l2.329,0l0,-1.728l8.868,0.009l-8.706,8.063l1.254,1.858c0.951,-0.874 2.143,-1.394 3.452,-1.394c1.534,0 3.072,0.717 4.08,1.882c1.005,1.166 1.623,2.763 1.623,4.541c0,1.779 -0.618,3.376 -1.623,4.542c-1.008,1.165 -2.546,1.882 -4.08,1.883c-1.537,-0.001 -2.915,-0.718 -3.922,-1.883c-0.727,-0.844 -1.253,-1.913 -1.487,-3.113l-2.367,0.488c0.761,4.165 3.952,7.289 7.776,7.29c4.389,-0.001 8.106,-4.121 8.106,-9.207c0,-4.552 -2.983,-8.322 -6.756,-9.065Z" style="fill-rule:nonzero;"/><path d="M181.815,259.272l-6.586,5.881l-0.021,0l0,0.019l-0.007,0.006l0.007,0.008l0,2.814l15.161,-0.001l-0.007,-2.032l0,-2.529l-2.329,0l0,1.728l-8.868,-0.009l8.706,-8.063l-1.254,-1.858c-0.951,0.874 -2.143,1.394 -3.452,1.394c-1.534,0 -3.072,-0.717 -4.08,-1.882c-1.005,-1.166 -1.623,-2.763 -1.623,-4.541c0,-1.779 0.618,-3.376 1.623,-4.542c1.008,-1.165 2.546,-1.882 4.08,-1.883c1.537,0.001 2.915,0.718 3.922,1.883c0.727,0.844 1.253,1.913 1.487,3.113l2.367,-0.488c-0.761,-4.165 -3.952,-7.289 -7.776,-7.29c-4.389,0.001 -8.106,4.121 -8.106,9.207c0,4.552 2.983,8.322 6.756,9.065Z" style="fill-rule:nonzero;"/><path d="M22.889,43.8c-0.045,0.03 -0.078,0.047 -0.13,0.08c-3.395,2.169 -7.354,6.396 -7.76,11.665c-0.193,2.507 1.41,4.243 3.482,4.281c1.324,0.024 2.388,-0.447 2.964,-1.344c0.479,-0.746 0.601,-1.899 0.679,-1.366c0.279,2.029 -0.571,3.979 -1.03,5.684c0.513,-0.187 1.156,-0.28 1.802,-0.283l0.011,0c0.644,0.003 1.287,0.096 1.799,0.283c-0.459,-1.705 -1.307,-3.655 -1.029,-5.684c0.078,-0.533 0.2,0.62 0.678,1.366c0.575,0.897 1.641,1.368 2.963,1.344c2.073,-0.038 3.676,-1.774 3.483,-4.281c-0.407,-5.269 -4.366,-9.496 -7.756,-11.665c-0.037,-0.026 -0.071,-0.043 -0.123,-0.08l-0.033,0Z"/><path d="M102.973,28.95c-0.114,0.075 -0.195,0.117 -0.326,0.201c-8.488,5.421 -18.385,15.989 -19.399,29.162c-0.483,6.268 3.524,10.607 8.705,10.702c3.31,0.059 5.968,-1.117 7.409,-3.359c1.198,-1.866 1.503,-4.748 1.698,-3.416c0.699,5.072 -1.427,9.948 -2.575,14.21c1.282,-0.467 2.891,-0.701 4.505,-0.707l0.028,0c1.609,0.006 3.217,0.24 4.497,0.707c-1.148,-4.262 -3.268,-9.138 -2.573,-14.21c0.196,-1.332 0.5,1.55 1.696,3.416c1.438,2.242 4.102,3.418 7.406,3.359c5.184,-0.095 9.191,-4.434 8.708,-10.702c-1.016,-13.173 -10.914,-23.741 -19.39,-29.162c-0.092,-0.067 -0.176,-0.109 -0.308,-0.201l-0.081,0Z"/><path d="M182.989,236.2c-0.045,-0.03 -0.078,-0.047 -0.13,-0.08c-3.395,-2.169 -7.354,-6.396 -7.76,-11.665c-0.193,-2.507 1.41,-4.243 3.482,-4.281c1.324,-0.024 2.388,0.447 2.964,1.344c0.479,0.746 0.601,1.899 0.679,1.366c0.279,-2.029 -0.571,-3.979 -1.03,-5.684c0.513,0.187 1.156,0.28 1.802,0.283l0.011,0c0.644,-0.003 1.287,-0.096 1.799,-0.283c-0.459,1.705 -1.307,3.655 -1.029,5.684c0.078,0.533 0.2,-0.62 0.678,-1.366c0.575,-0.897 1.641,-1.368 2.963,-1.344c2.073,0.038 3.676,1.774 3.483,4.281c-0.407,5.269 -4.366,9.496 -7.756,11.665c-0.037,0.026 -0.071,0.043 -0.123,0.08l-0.033,0Z"/><path d="M102.973,251.05c-0.114,-0.075 -0.195,-0.117 -0.326,-0.201c-8.488,-5.421 -18.385,-15.989 -19.399,-29.162c-0.483,-6.268 3.524,-10.607 8.705,-10.702c3.31,-0.059 5.968,1.117 7.409,3.359c1.198,1.866 1.503,4.748 1.698,3.416c0.699,-5.072 -1.427,-9.948 -2.575,-14.21c1.282,0.467 2.891,0.701 4.505,0.707l0.028,0c1.609,-0.006 3.217,-0.24 4.497,-0.707c-1.148,4.262 -3.268,9.138 -2.573,14.21c0.196,1.332 0.5,-1.55 1.696,-3.416c1.438,-2.242 4.102,-3.418 7.406,-3.359c5.184,0.095 9.191,4.434 8.708,10.702c-1.016,13.173 -10.914,23.741 -19.39,29.162c-0.092,0.067 -0.176,0.109 -0.308,0.201l-0.081,0Z"/><path d="M102.973,116.25c-0.114,0.075 -0.195,0.117 -0.326,0.201c-8.488,5.421 -18.385,15.989 -19.399,29.162c-0.483,6.268 3.524,10.607 8.705,10.702c3.31,0.059 5.968,-1.117 7.409,-3.359c1.198,-1.866 1.503,-4.748 1.698,-3.416c0.699,5.072 -1.427,9.948 -2.575,14.21c1.282,-0.467 2.891,-0.701 4.505,-0.707l0.028,0c1.609,0.006 3.217,0.24 4.497,0.707c-1.148,-4.262 -3.268,-9.138 -2.573,-14.21c0.196,-1.332 0.5,1.55 1.696,3.416c1.438,2.242 4.102,3.418 7.406,3.359c5.184,-0.095 9.191,-4.434 8.708,-10.702c-1.016,-13.173 -10.914,-23.741 -19.39,-29.162c-0.092,-0.067 -0.176,-0.109 -0.308,-0.201l-0.081,0Z"/></g></svg>