<?xml version="1.0" encoding="UTF-8" standalone="no"?><!DOCTYPE svg PUBLIC "-//W3C//DTD SVG 1.1//EN" "http://www.w3.org/Graphics/SVG/1.1/DTD/svg11.dtd"><svg width="100%" height="100%" viewBox="0 0 203 283" version="1.1" xmlns="http://www.w3.org/2000/svg" xmlns:xlink="http://www.w3.org/1999/xlink" xml:space="preserve" xmlns:serif="http://www.serif.com/" style="fill-rule:evenodd;clip-rule:evenodd;stroke-linejoin:round;stroke-miterlimit:1.41421;"><path d="M200,13c0,-5.519 -4.481,-10 -10,-10l-180,0c-5.519,0 -10,4.481 -10,10l0,260c0,5.519 4.481,10 10,10l180,0c5.519,0 10,-4.481 10,-10l0,-260Z" style="fill-opacity:0.08;"/><path d="M203,10c0,-5.519 -4.481,-10 -10,-10l-180,0c-5.519,0 -10,4.481 -10,10l0,260c0,5.519 4.481,10 10,10l180,0c5.519,0 10,-4.481 10,-10l0,-260Z" style="fill:#fff;"/><g id="_8" serif:id="8"><path d="M28.465,25.376c-0.413,-0.407 -0.874,-0.761 -1.367,-1.069c0.211,-0.162 0.413,-0.334 0.603,-0.52c1.249,-1.221 2.059,-2.972 2.056,-4.911c0.003,-1.94 -0.807,-3.689 -2.056,-4.912c-1.248,-1.227 -2.947,-1.963 -4.8,-1.964c-1.855,0.001 -3.553,0.737 -4.802,1.964c-1.248,1.223 -2.056,2.972 -2.055,4.912c-0.001,1.939 0.807,3.69 2.055,4.911c0.19,0.186 0.393,0.358 0.603,0.52c-0.492,0.308 -0.953,0.662 -1.367,1.069c-1.445,1.414 -2.377,3.435 -2.376,5.674c-0.001,2.237 0.931,4.258 2.376,5.673c1.445,1.421 3.414,2.276 5.566,2.277c2.15,-0.001 4.119,-0.856 5.564,-2.277c1.446,-1.415 2.379,-3.436 2.376,-5.673c0.003,-2.239 -0.93,-4.26 -2.376,-5.674Zm-8.731,-9.419c0.79,-0.777 1.908,-1.279 3.164,-1.279l0.003,0c1.258,-0.001 2.375,0.501 3.166,1.279c0.79,0.781 1.243,1.8 1.244,2.919c-0.001,1.119 -0.454,2.138 -1.244,2.92c-0.791,0.777 -1.908,1.28 -3.166,1.279c-1.258,0.001 -2.377,-0.502 -3.167,-1.279c-0.789,-0.782 -1.243,-1.801 -1.244,-2.92c0.001,-1.119 0.455,-2.138 1.244,-2.919Zm6.996,18.653c-0.959,0.942 -2.313,1.548 -3.829,1.547c-1.518,0.001 -2.872,-0.605 -3.831,-1.547c-0.958,-0.948 -1.512,-2.192 -1.515,-3.56c0.003,-1.369 0.557,-2.612 1.515,-3.562c0.959,-0.941 2.311,-1.548 3.828,-1.548l0.003,0c1.516,0 2.87,0.607 3.829,1.548c0.959,0.95 1.515,2.193 1.516,3.562c-0.001,1.368 -0.557,2.612 -1.516,3.56Z" style="fill-rule:nonzero;"/><path d="M177.435,254.624c0.413,0.407 0.874,0.761 1.367,1.069c-0.211,0.162 -0.413,0.334 -0.603,0.52c-1.249,1.221 -2.059,2.972 -2.056,4.911c-0.003,1.94 0.807,3.689 2.056,4.912c1.248,1.227 2.947,1.963 4.8,1.964c1.855,-0.001 3.553,-0.737 4.802,-1.964c1.248,-1.223 2.056,-2.972 2.055,-4.912c0.001,-1.939 -0.807,-3.69 -2.055,-4.911c-0.19,-0.186 -0.393,-0.358 -0.603,-0.52c0.492,-0.308 0.953,-0.662 1.367,-1.069c1.445,-1.414 2.377,-3.435 2.376,-5.674c0.001,-2.237 -0.931,-4.258 -2.376,-5.673c-1.445,-1.421 -3.414,-2.276 -5.566,-2.277c-2.15,0.001 -4.119,0.856 -5.564,2.277c-1.446,1.415 -2.379,3.436 -2.376,5.673c-0.003,2.239 0.93,4.26 2.376,5.674Zm8.731,9.419c-0.79,0.777 -1.908,1.279 -3.164,1.279l-0.003,0c-1.258,0.001 -2.375,-0.501 -3.166,-1.279c-0.79,-0.781 -1.243,-1.8 -1.244,-2.919c0.001,-1.119 0.454,-2.138 1.244,-2.92c0.791,-0.777 1.908,-1.28 3.166,-1.279c1.258,-0.001 2.377,0.502 3.167,1.279c0.789,0.782 1.243,1.801 1.244,2.92c-0.001,1.119 -0.455,2.138 -1.244,2.919Zm-6.996,-18.653c0.959,-0.942 2.313,-1.548 3.829,-1.547c1.518,-0.001 2.872,0.605 3.831,1.547c0.958,0.948 1.512,2.192 1.515,3.56c-0.003,1.369 -0.557,2.612 -1.515,3.562c-0.959,0.941 -2.311,1.548 -3.828,1.548l-0.003,0c-1.516,0 -2.87,-0.607 -3.829,-1.548c-0.959,-0.95 -1.515,-2.193 -1.516,-3.562c0.001,-1.368 0.557,-2.612 1.516,-3.56Z" style="fill-rule:nonzero;"/><path d="M22.889,43.8c-0.045,0.03 -0.078,0.047 -0.13,0.08c-3.395,2.169 -7.354,6.396 -7.76,11.665c-0.193,2.507 1.41,4.243 3.482,4.281c1.324,0.024 2.388,-0.447 2.964,-1.344c0.479,-0.746 0.601,-1.899 0.679,-1.366c0.279,2.029 -0.571,3.979 -1.03,5.684c0.513,-0.187 1.156,-0.28 1.802,-0.283l0.011,0c0.644,0.003 1.287,0.096 1.799,0.283c-0.459,-1.705 -1.307,-3.655 -1.029,-5.684c0.078,-0.533 0.2,0.62 0.678,1.366c0.575,0.897 1.641,1.368 2.963,1.344c2.073,-0.038 3.676,-1.774 3.483,-4.281c-0.407,-5.269 -4.366,-9.496 -7.756,-11.665c-0.037,-0.026 -0.071,-0.043 -0.123,-0.08l-0.033,0Z"/><path d="M59.573,28.95c-0.114,0.075 -0.195,0.117 -0.326,0.201c-8.488,5.421 -18.385,15.989 -19.399,29.162c-0.483,6.268 3.524,10.607 8.705,10.702c3.31,0.059 5.968,-1.117 7.409,-3.359c1.198,-1.866 1.503,-4.748 1.698,-3.416c0.699,5.072 -1.427,9.948 -2.575,14.21c1.282,-0.467 2.891,-0.701 4.505,-0.707l0.028,0c1.609,0.006 3.217,0.24 4.497,0.707c-1.148,-4.262 -3.268,-9.138 -2.573,-14.21c0.196,-1.332 0.5,1.55 1.696,3.416c1.438,2.242 4.102,3.418 7.406,3.359c5.184,-0.095 9.191,-4.434 8.708,-10.702c-1.016,-13.173 -10.914,-23.741 -19.39,-29.162c-0.092,-0.067 -0.176,-0.109 -0.308,-0.201l-0.081,0Z"/><path d="M182.989,236.2c-0.045,-0.03 -0.078,-0.047 -0.13,-0.08c-3.395,-2.169 -7.354,-6.396 -7.76,-11.665c-0.193,-2.507 1.41,-4.243 3.482,-4.281c1.324,-0.024 2.388,0.447 2.964,1.344c0.479,0.746 0.601,1.899 0.679,1.366c0.279,-2.029 -0.571,-3.979 -1.03,-5.684c0.513,0.187 1.156,0.28 1.802,0.283l0.011,0c0.644,-0.003 1.287,-0.096 1.799,-0.283c-0.459,1.705 -1.307,3.655 -1.029,5.684c0.078,0.533 0.2,-0.62 0.678,-1.366c0.575,-0.897 1.641,-1.368 2.963,-1.344c2.073,0.038 3.676,1.774 3.483,4.281c-0.407,5.269 -4.366,9.496 -7.756,11.665c-0.037,0.026 -0.071,0.043 -0.123,0.08l-0.033,0Z"/><path d="M146.373,251.05c-0.114,-0.075 -0.195,-0.117 -0.326,-0.201c-8.488,-5.421 -18.385,-15.989 -19.399,-29.162c-0.483,-6.268 3.524,-10.607 8.705,-10.702c3.31,-0.059 5.968,1.117 7.409,3.359c1.198,1.866 1.503,4.748 1.698,3.416c0.699,-5.072 -1.427,-9.948 -2.575,-14.21c1.282,0.467 2.891,0.701 4.505,0.707l0.028,0c1.609,-0.006 3.217,-0.24 4.497,-0.707c-1.148,4.262 -3.268,9.138 -2.573,14.21c0.196,1.332 0.5,-1.55 1.696,-3.416c1.438,-2.242 4.102,-3.418 7.406,-3.359c5.184,0.095 9.191,4.434 8.708,10.702c-1.016,13.173 -10.914,23.741 -19.39,29.162c-0.092,0.067 -0.176,0.109 -0.308,0.201l-0.081,0Z"/><path d="M146.373,28.95c-0.114,0.075 -0.195,0.117 -0.326,0.201c-8.488,5.421 -18.385,15.989 -19.399,29.162c-0.483,6.268 3.524,10.607 8.705,10.702c3.31,0.059 5.968,-1.117 7.409,-3.359c1.198,-1.866 1.503,-4.748 1.698,-3.416c0.699,5.072 -1.427,9.948 -2.575,14.21c1.282,-0.467 2.891,-0.701 4.505,-0.707l0.028,0c1.609,0.006 3.217,0.24 4.497,0.707c-1.148,-4.262 -3.268,-9.138 -2.573,-14.21c0.196,-1.332 0.5,1.55 1.696,3.416c1.438,2.242 4.102,3.418 7.406,3.359c5.184,-0.095 9.191,-4.434 8.708,-10.702c-1.016,-13.173 -10.914,-23.741 -19.39,-29.162c-0.092,-0.067 -0.176,-0.109 -0.308,-0.201l-0.081,0Z"/><path d="M59.573,251.05c-0.114,-0.075 -0.195,-0.117 -0.326,-0.201c-8.488,-5.421 -18.385,-15.989 -19.399,-29.162c-0.483,-6.268 3.524,-10.607 8.705,-10.702c3.31,-0.059 5.968,1.117 7.409,3.359c1.198,1.866 1.503,4.748 1.698,3.416c0.699,-5.072 -1.427,-9.948 -2.575,-14.21c1.282,0.467 2.891,0.701 4.505,0.707l0.028,0c1.609,-0.006 3.217,-0.24 4.497,-0.707c-1.148,4.262 -3.268,9.138 -2.573,14.21c0.196,1.332 0.5,-1.55 1.696,-3.416c1.438,-2.242 4.102,-3.418 7.406,-3.359c5.184,0.095 9.191,4.434 8.708,10.702c-1.016,13.173 -10.914,23.741 -19.39,29.162c-0.092,0.067 -0.176,0.109 -0.308,0.201l-0.081,0Z"/><path d="M59.573,116.25c-0.114,0.075 -0.195,0.117 -0.326,0.201c-8.488,5.421 -18.385,15.989 -19.399,29.162c-0.483,6.268 3.524,10.607 8.705,10.702c3.31,0.059 5.968,-1.117 7.409,-3.359c1.198,-1.866 1.503,-4.748 1.698,-3.416c0.699,5.072 -1.427,9.948 -2.575,14.21c1.282,-0.467 2.891,-0.701 4.505,-0.707l0.028,0c1.609,0.006 3.217,0.24 4.497,0.707c-1.148,-4.262 -3.268,-9.138 -2.573,-14.21c0.196,-1.332 0.5,1.55 1.696,3.416c1.438,2.242 4.102,3.418 7.406,3.359c5.184,-0.095 9.191,-4.434 8.708,-10.702c-1.016,-13.173 -10.914,-23.741 -19.39,-29.162c-0.092,-0.067 -0.176,-0.109 -0.308,-0.201l-0.081,0Z"/><path d="M146.373,116.25c-0.114,0.075 -0.195,0.117 -0.326,0.201c-8.488,5.421 -18.385,15.989 -19.399,29.162c-0.483,6.268 3.524,10.607 8.705,10.702c3.31,0.059 5.968,-1.117 7.409,-3.359c1.198,-1.866 1.503,-4.748 1.698,-3.416c0.699,5.072 -1.427,9.948 -2.575,14.21c1.282,-0.467 2.891,-0.701 4.505,-0.707l0.028,0c1.609,0.006 3.217,0.24 4.497,0.707c-1.148,-4.262 -3.268,-9.138 -2.573,-14.21c0.196,-1.332 0.5,1.55 1.696,3.416c1.438,2.242 4.102,3.418 7.406,3.359c5.184,-0.095 9.191,-4.434 8.708,-10.702c-1.016,-13.173 -10.914,-23.741 -19.39,-29.162c-0.092,-0.067 -0.176,-0.109 -0.308,-0.201l-0.081,0Z"/><path d="M102.973,72.65c-0.114,0.075 -0.195,0.117 -0.326,0.201c-8.488,5.421 -18.385,15.989 -19.399,29.162c-0.483,6.268 3.524,10.607 8.705,10.702c3.31,0.059 5.968,-1.117 7.409,-3.359c1.198,-1.866 1.503,-4.748 1.698,-3.416c0.699,5.072 -1.427,9.948 -2.575,14.21c1.282,-0.467 2.891,-0.701 4.505,-0.707l0.028,0c1.609,0.006 3.217,0.24 4.497,0.707c-1.148,-4.262 -3.268,-9.138 -2.573,-14.21c0.196,-1.332 0.5,1.55 1.696,3.416c1.438,2.242 4.102,3.418 7.406,3.359c5.184,-0.095 9.191,-4.434 8.708,-10.702c-1.016,-13.173 -10.914,-23.741 -19.39,-29.162c-0.092,-0.067 -0.176,-0.109 -0.308,-0.201l-0.081,0Z"/><path d="M102.973,159.95c-0.114,0.075 -0.195,0.117 -0.326,0.201c-8.488,5.421 -18.385,15.989 -19.399,29.162c-0.483,6.268 3.524,10.607 8.705,10.702c3.31,0.059 5.968,-1.117 7.409,-3.359c1.198,-1.866 1.503,-4.748 1.698,-3.416c0.699,5.072 -1.427,9.948 -2.575,14.21c1.282,-0.467 2.891,-0.701 4.505,-0.707l0.028,0c1.609,0.006 3.217,0.24 4.497,0.707c-1.148,-4.262 -3.268,-9.138 -2.573,-14.21c0.196,-1.332 0.5,1.55 1.696,3.416c1.438,2.242 4.102,3.418 7.406,3.359c5.184,-0.095 9.191,-4.434 8.708,-10.702c-1.016,-13.173 -10.914,-23.741 -19.39,-29.162c-0.092,-0.067 -0.176,-0.109 -0.308,-0.201l-0.081,0Z"/></g></svg>