<?xml version="1.0" encoding="UTF-8" standalone="no"?><!DOCTYPE svg PUBLIC "-//W3C//DTD SVG 1.1//EN" "http://www.w3.org/Graphics/SVG/1.1/DTD/svg11.dtd"><svg width="100%" height="100%" viewBox="0 0 203 283" version="1.1" xmlns="http://www.w3.org/2000/svg" xmlns:xlink="http://www.w3.org/1999/xlink" xml:space="preserve" xmlns:serif="http://www.serif.com/" style="fill-rule:evenodd;clip-rule:evenodd;stroke-linejoin:round;stroke-miterlimit:1.41421;"><path d="M200,13c0,-5.519 -4.481,-10 -10,-10l-180,0c-5.519,0 -10,4.481 -10,10l0,260c0,5.519 4.481,10 10,10l180,0c5.519,0 10,-4.481 10,-10l0,-260Z" style="fill-opacity:0.08;"/><path d="M203,10c0,-5.519 -4.481,-10 -10,-10l-180,0c-5.519,0 -10,4.481 -10,10l0,260c0,5.519 4.481,10 10,10l180,0c5.519,0 10,-4.481 10,-10l0,-260Z" style="fill:#fff;"/><g id="_9" serif:id="9"><path d="M30.623,20.264c-0.142,-2.169 -0.87,-4.125 -2.082,-5.599c-1.35,-1.651 -3.33,-2.665 -5.569,-2.665c-0.007,0 -0.016,0 -0.023,0c-1.18,0 -2.28,0.273 -3.249,0.774c-1.456,0.752 -2.599,2.001 -3.362,3.507c-0.764,1.506 -1.162,3.273 -1.164,5.131c0.002,2.453 0.678,4.732 2.007,6.437c0.665,0.851 1.494,1.551 2.459,2.032c0.965,0.481 2.06,0.738 3.238,0.737c0.03,0 0.06,0 0.082,0c1.183,-0.011 2.283,-0.302 3.246,-0.823c0.819,-0.442 1.528,-1.046 2.13,-1.759c-0.077,1.799 -0.365,3.95 -1.187,5.527c-0.429,0.828 -0.978,1.499 -1.724,1.986c-0.747,0.482 -1.72,0.801 -3.084,0.803c-0.993,-0.001 -1.771,-0.233 -2.416,-0.572c-0.963,-0.509 -1.64,-1.294 -2.073,-1.963c-0.216,-0.334 -0.368,-0.635 -0.464,-0.843c-0.046,-0.105 -0.078,-0.185 -0.099,-0.237c-0.01,-0.024 -0.016,-0.041 -0.019,-0.05l-0.029,0.012l-2.282,0.888c0.038,0.099 0.466,1.381 1.6,2.716c0.567,0.664 1.318,1.341 2.282,1.852c0.964,0.511 2.141,0.846 3.5,0.845c0.004,0 0.011,0 0.016,0c1.717,0 3.173,-0.428 4.335,-1.184c0.875,-0.566 1.573,-1.308 2.114,-2.126c0.81,-1.232 1.278,-2.622 1.565,-3.978c0.284,-1.356 0.39,-2.686 0.431,-3.819c0.028,-0.792 0.039,-1.562 0.039,-2.288c0,-2.671 -0.186,-4.965 -0.218,-5.341Zm-3.855,5.78c-0.461,0.62 -1.011,1.109 -1.645,1.452c-0.633,0.341 -1.352,0.538 -2.185,0.548c-0.026,0 -0.046,0 -0.06,0c-0.854,0 -1.587,-0.181 -2.223,-0.497c-0.949,-0.474 -1.699,-1.259 -2.236,-2.309c-0.534,-1.047 -0.841,-2.363 -0.838,-3.826c-0.003,-1.954 0.564,-3.696 1.499,-4.905c0.468,-0.606 1.024,-1.083 1.665,-1.413c0.642,-0.331 1.368,-0.518 2.204,-0.52c1.587,0.008 2.85,0.667 3.787,1.793c0.93,1.127 1.51,2.759 1.512,4.701c0,1.961 -0.553,3.739 -1.48,4.976Z" style="fill-rule:nonzero;"/><path d="M175.277,259.736c0.142,2.169 0.87,4.125 2.082,5.599c1.35,1.651 3.33,2.665 5.569,2.665c0.007,0 0.016,0 0.023,0c1.18,0 2.28,-0.273 3.249,-0.774c1.456,-0.752 2.599,-2.001 3.362,-3.507c0.764,-1.506 1.162,-3.273 1.164,-5.131c-0.002,-2.453 -0.678,-4.732 -2.007,-6.437c-0.665,-0.851 -1.494,-1.551 -2.459,-2.032c-0.965,-0.481 -2.06,-0.738 -3.238,-0.737c-0.03,0 -0.06,0 -0.082,0c-1.183,0.011 -2.283,0.302 -3.246,0.823c-0.819,0.442 -1.528,1.046 -2.13,1.759c0.077,-1.799 0.365,-3.95 1.187,-5.527c0.429,-0.828 0.978,-1.499 1.724,-1.986c0.747,-0.482 1.72,-0.801 3.084,-0.803c0.993,0.001 1.771,0.233 2.416,0.572c0.963,0.509 1.64,1.294 2.073,1.963c0.216,0.334 0.368,0.635 0.464,0.843c0.046,0.105 0.078,0.185 0.099,0.237c0.01,0.024 0.016,0.041 0.019,0.05l0.029,-0.012l2.282,-0.888c-0.038,-0.099 -0.466,-1.381 -1.6,-2.716c-0.567,-0.664 -1.318,-1.341 -2.282,-1.852c-0.964,-0.511 -2.141,-0.846 -3.5,-0.845c-0.004,0 -0.011,0 -0.016,0c-1.717,0 -3.173,0.428 -4.335,1.184c-0.875,0.566 -1.573,1.308 -2.114,2.126c-0.81,1.232 -1.278,2.622 -1.565,3.978c-0.284,1.356 -0.39,2.686 -0.431,3.819c-0.028,0.792 -0.039,1.562 -0.039,2.288c0,2.671 0.186,4.965 0.218,5.341Zm3.855,-5.78c0.461,-0.62 1.011,-1.109 1.645,-1.452c0.633,-0.341 1.352,-0.538 2.185,-0.548c0.026,0 0.046,0 0.06,0c0.854,0 1.587,0.181 2.223,0.497c0.949,0.474 1.699,1.259 2.236,2.309c0.534,1.047 0.841,2.363 0.838,3.826c0.003,1.954 -0.564,3.696 -1.499,4.905c-0.468,0.606 -1.024,1.083 -1.665,1.413c-0.642,0.331 -1.368,0.518 -2.204,0.52c-1.587,-0.008 -2.85,-0.667 -3.787,-1.793c-0.93,-1.127 -1.51,-2.759 -1.512,-4.701c0,-1.961 0.553,-3.739 1.48,-4.976Z" style="fill-rule:nonzero;"/><path d="M22.889,43.8c-0.045,0.03 -0.078,0.047 -0.13,0.08c-3.395,2.169 -7.354,6.396 -7.76,11.665c-0.193,2.507 1.41,4.243 3.482,4.281c1.324,0.024 2.388,-0.447 2.964,-1.344c0.479,-0.746 0.601,-1.899 0.679,-1.366c0.279,2.029 -0.571,3.979 -1.03,5.684c0.513,-0.187 1.156,-0.28 1.802,-0.283l0.011,0c0.644,0.003 1.287,0.096 1.799,0.283c-0.459,-1.705 -1.307,-3.655 -1.029,-5.684c0.078,-0.533 0.2,0.62 0.678,1.366c0.575,0.897 1.641,1.368 2.963,1.344c2.073,-0.038 3.676,-1.774 3.483,-4.281c-0.407,-5.269 -4.366,-9.496 -7.756,-11.665c-0.037,-0.026 -0.071,-0.043 -0.123,-0.08l-0.033,0Z"/><path d="M59.573,28.95c-0.114,0.075 -0.195,0.117 -0.326,0.201c-8.488,5.421 -18.385,15.989 -19.399,29.162c-0.483,6.268 3.524,10.607 8.705,10.702c3.31,0.059 5.968,-1.117 7.409,-3.359c1.198,-1.866 1.503,-4.748 1.698,-3.416c0.699,5.072 -1.427,9.948 -2.575,14.21c1.282,-0.467 2.891,-0.701 4.505,-0.707l0.028,0c1.609,0.006 3.217,0.24 4.497,0.707c-1.148,-4.262 -3.268,-9.138 -2.573,-14.21c0.196,-1.332 0.5,1.55 1.696,3.416c1.438,2.242 4.102,3.418 7.406,3.359c5.184,-0.095 9.191,-4.434 8.708,-10.702c-1.016,-13.173 -10.914,-23.741 -19.39,-29.162c-0.092,-0.067 -0.176,-0.109 -0.308,-0.201l-0.081,0Z"/><path d="M182.989,236.2c-0.045,-0.03 -0.078,-0.047 -0.13,-0.08c-3.395,-2.169 -7.354,-6.396 -7.76,-11.665c-0.193,-2.507 1.41,-4.243 3.482,-4.281c1.324,-0.024 2.388,0.447 2.964,1.344c0.479,0.746 0.601,1.899 0.679,1.366c0.279,-2.029 -0.571,-3.979 -1.03,-5.684c0.513,0.187 1.156,0.28 1.802,0.283l0.011,0c0.644,-0.003 1.287,-0.096 1.799,-0.283c-0.459,1.705 -1.307,3.655 -1.029,5.684c0.078,0.533 0.2,-0.62 0.678,-1.366c0.575,-0.897 1.641,-1.368 2.963,-1.344c2.073,0.038 3.676,1.774 3.483,4.281c-0.407,5.269 -4.366,9.496 -7.756,11.665c-0.037,0.026 -0.071,0.043 -0.123,0.08l-0.033,0Z"/><path d="M146.373,251.05c-0.114,-0.075 -0.195,-0.117 -0.326,-0.201c-8.488,-5.421 -18.385,-15.989 -19.399,-29.162c-0.483,-6.268 3.524,-10.607 8.705,-10.702c3.31,-0.059 5.968,1.117 7.409,3.359c1.198,1.866 1.503,4.748 1.698,3.416c0.699,-5.072 -1.427,-9.948 -2.575,-14.21c1.282,0.467 2.891,0.701 4.505,0.707l0.028,0c1.609,-0.006 3.217,-0.24 4.497,-0.707c-1.148,4.262 -3.268,9.138 -2.573,14.21c0.196,1.332 0.5,-1.55 1.696,-3.416c1.438,-2.242 4.102,-3.418 7.406,-3.359c5.184,0.095 9.191,4.434 8.708,10.702c-1.016,13.173 -10.914,23.741 -19.39,29.162c-0.092,0.067 -0.176,0.109 -0.308,0.201l-0.081,0Z"/><path d="M146.373,28.95c-0.114,0.075 -0.195,0.117 -0.326,0.201c-8.488,5.421 -18.385,15.989 -19.399,29.162c-0.483,6.268 3.524,10.607 8.705,10.702c3.31,0.059 5.968,-1.117 7.409,-3.359c1.198,-1.866 1.503,-4.748 1.698,-3.416c0.699,5.072 -1.427,9.948 -2.575,14.21c1.282,-0.467 2.891,-0.701 4.505,-0.707l0.028,0c1.609,0.006 3.217,0.24 4.497,0.707c-1.148,-4.262 -3.268,-9.138 -2.573,-14.21c0.196,-1.332 0.5,1.55 1.696,3.416c1.438,2.242 4.102,3.418 7.406,3.359c5.184,-0.095 9.191,-4.434 8.708,-10.702c-1.016,-13.173 -10.914,-23.741 -19.39,-29.162c-0.092,-0.067 -0.176,-0.109 -0.308,-0.201l-0.081,0Z"/><path d="M59.573,251.05c-0.114,-0.075 -0.195,-0.117 -0.326,-0.201c-8.488,-5.421 -18.385,-15.989 -19.399,-29.162c-0.483,-6.268 3.524,-10.607 8.705,-10.702c3.31,-0.059 5.968,1.117 7.409,3.359c1.198,1.866 1.503,4.748 1.698,3.416c0.699,-5.072 -1.427,-9.948 -2.575,-14.21c1.282,0.467 2.891,0.701 4.505,0.707l0.028,0c1.609,-0.006 3.217,-0.24 4.497,-0.707c-1.148,4.262 -3.268,9.138 -2.573,14.21c0.196,1.332 0.5,-1.55 1.696,-3.416c1.438,-2.242 4.102,-3.418 7.406,-3.359c5.184,0.095 9.191,4.434 8.708,10.702c-1.016,13.173 -10.914,23.741 -19.39,29.162c-0.092,0.067 -0.176,0.109 -0.308,0.201l-0.081,0Z"/><path d="M59.573,88.15c-0.114,0.075 -0.195,0.117 -0.326,0.201c-8.488,5.421 -18.385,15.989 -19.399,29.162c-0.483,6.268 3.524,10.607 8.705,10.702c3.31,0.059 5.968,-1.117 7.409,-3.359c1.198,-1.866 1.503,-4.748 1.698,-3.416c0.699,5.072 -1.427,9.948 -2.575,14.21c1.282,-0.467 2.891,-0.701 4.505,-0.707l0.028,0c1.609,0.006 3.217,0.24 4.497,0.707c-1.148,-4.262 -3.268,-9.138 -2.573,-14.21c0.196,-1.332 0.5,1.55 1.696,3.416c1.438,2.242 4.102,3.418 7.406,3.359c5.184,-0.095 9.191,-4.434 8.708,-10.702c-1.016,-13.173 -10.914,-23.741 -19.39,-29.162c-0.092,-0.067 -0.176,-0.109 -0.308,-0.201l-0.081,0Z"/><path d="M146.373,88.15c-0.114,0.075 -0.195,0.117 -0.326,0.201c-8.488,5.421 -18.385,15.989 -19.399,29.162c-0.483,6.268 3.524,10.607 8.705,10.702c3.31,0.059 5.968,-1.117 7.409,-3.359c1.198,-1.866 1.503,-4.748 1.698,-3.416c0.699,5.072 -1.427,9.948 -2.575,14.21c1.282,-0.467 2.891,-0.701 4.505,-0.707l0.028,0c1.609,0.006 3.217,0.24 4.497,0.707c-1.148,-4.262 -3.268,-9.138 -2.573,-14.21c0.196,-1.332 0.5,1.55 1.696,3.416c1.438,2.242 4.102,3.418 7.406,3.359c5.184,-0.095 9.191,-4.434 8.708,-10.702c-1.016,-13.173 -10.914,-23.741 -19.39,-29.162c-0.092,-0.067 -0.176,-0.109 -0.308,-0.201l-0.081,0Z"/><path d="M102.973,116.25c-0.114,0.075 -0.195,0.117 -0.326,0.201c-8.488,5.421 -18.385,15.989 -19.399,29.162c-0.483,6.268 3.524,10.607 8.705,10.702c3.31,0.059 5.968,-1.117 7.409,-3.359c1.198,-1.866 1.503,-4.748 1.698,-3.416c0.699,5.072 -1.427,9.948 -2.575,14.21c1.282,-0.467 2.891,-0.701 4.505,-0.707l0.028,0c1.609,0.006 3.217,0.24 4.497,0.707c-1.148,-4.262 -3.268,-9.138 -2.573,-14.21c0.196,-1.332 0.5,1.55 1.696,3.416c1.438,2.242 4.102,3.418 7.406,3.359c5.184,-0.095 9.191,-4.434 8.708,-10.702c-1.016,-13.173 -10.914,-23.741 -19.39,-29.162c-0.092,-0.067 -0.176,-0.109 -0.308,-0.201l-0.081,0Z"/><path d="M59.573,191.85c-0.114,-0.075 -0.195,-0.117 -0.326,-0.201c-8.488,-5.421 -18.385,-15.989 -19.399,-29.162c-0.483,-6.268 3.524,-10.607 8.705,-10.702c3.31,-0.059 5.968,1.117 7.409,3.359c1.198,1.866 1.503,4.748 1.698,3.416c0.699,-5.072 -1.427,-9.948 -2.575,-14.21c1.282,0.467 2.891,0.701 4.505,0.707l0.028,0c1.609,-0.006 3.217,-0.24 4.497,-0.707c-1.148,4.262 -3.268,9.138 -2.573,14.21c0.196,1.332 0.5,-1.55 1.696,-3.416c1.438,-2.242 4.102,-3.418 7.406,-3.359c5.184,0.095 9.191,4.434 8.708,10.702c-1.016,13.173 -10.914,23.741 -19.39,29.162c-0.092,0.067 -0.176,0.109 -0.308,0.201l-0.081,0Z"/><path d="M146.373,191.85c-0.114,-0.075 -0.195,-0.117 -0.326,-0.201c-8.488,-5.421 -18.385,-15.989 -19.399,-29.162c-0.483,-6.268 3.524,-10.607 8.705,-10.702c3.31,-0.059 5.968,1.117 7.409,3.359c1.198,1.866 1.503,4.748 1.698,3.416c0.699,-5.072 -1.427,-9.948 -2.575,-14.21c1.282,0.467 2.891,0.701 4.505,0.707l0.028,0c1.609,-0.006 3.217,-0.24 4.497,-0.707c-1.148,4.262 -3.268,9.138 -2.573,14.21c0.196,1.332 0.5,-1.55 1.696,-3.416c1.438,-2.242 4.102,-3.418 7.406,-3.359c5.184,0.095 9.191,4.434 8.708,10.702c-1.016,13.173 -10.914,23.741 -19.39,29.162c-0.092,0.067 -0.176,0.109 -0.308,0.201l-0.081,0Z"/></g></svg>