<?xml version="1.0" encoding="UTF-8" standalone="no"?><!DOCTYPE svg PUBLIC "-//W3C//DTD SVG 1.1//EN" "http://www.w3.org/Graphics/SVG/1.1/DTD/svg11.dtd"><svg width="100%" height="100%" viewBox="0 0 203 283" version="1.1" xmlns="http://www.w3.org/2000/svg" xmlns:xlink="http://www.w3.org/1999/xlink" xml:space="preserve" xmlns:serif="http://www.serif.com/" style="fill-rule:evenodd;clip-rule:evenodd;stroke-linejoin:round;stroke-miterlimit:1.41421;"><path d="M200,13c0,-5.519 -4.481,-10 -10,-10l-180,0c-5.519,0 -10,4.481 -10,10l0,260c0,5.519 4.481,10 10,10l180,0c5.519,0 10,-4.481 10,-10l0,-260Z" style="fill-opacity:0.08;"/><path d="M203,10c0,-5.519 -4.481,-10 -10,-10l-180,0c-5.519,0 -10,4.481 -10,10l0,260c0,5.519 4.481,10 10,10l180,0c5.519,0 10,-4.481 10,-10l0,-260Z" style="fill:#fff;"/><g id="A"><path d="M29.069,36.405l-4.556,-24.376l-2.45,-0.029l0.003,0.018l-0.61,-0.006l-4.544,24.395l-1.908,0l-0.004,2.578l6.103,0l0.003,-2.578l-1.76,0l0.7,-3.734l5.891,-0.008l0.699,3.74l-1.867,-0.001l-0.004,2.578l6.105,0.003l0.003,-2.578l-1.804,-0.002Zm-8.498,-6.533l2.426,-12.945l2.417,12.939l-4.843,0.006Z" style="fill-rule:nonzero;"/><path d="M176.905,243.558l4.556,24.376l2.451,0.029l-0.004,-0.018l0.611,0.006l4.543,-24.395l1.909,0l0.003,-2.578l-6.103,0l-0.003,2.578l1.761,0l-0.7,3.734l-5.892,0.008l-0.699,-3.74l1.867,0.001l0.004,-2.578l-6.104,-0.003l-0.004,2.578l1.804,0.002Zm8.498,6.533l-2.425,12.945l-2.418,-12.939l4.843,-0.006Z" style="fill-rule:nonzero;"/><g><path d="M103.236,89.407c0.652,0.286 0.62,0.383 0.823,0.56c7.792,5.81 14.437,12.859 19.952,20.775c7.949,11.41 13.333,24.771 14.39,38.798c0.589,7.807 -1.342,16.098 -7.926,20.71c-5.639,3.951 -14.205,3.489 -19.2,-1.193c-2.173,-2.036 -3.477,-4.825 -4.353,-7.724l-0.008,-0.027c-0.279,8.502 2.546,16.849 4.48,24.805c0.05,0.207 0.1,0.415 0.149,0.622c0.001,0.004 0.096,0.407 0.097,0.412c0.01,0.115 0.002,0.231 0.003,0.346l-0.145,0.315l-0.265,0.224l-0.334,0.089c-0.942,-0.169 -2.031,-0.688 -3.132,-0.93c-4.119,-0.906 -8.569,-0.751 -12.422,0.847l-0.392,0.083l-0.335,-0.089l-0.265,-0.224l-0.144,-0.315c0.008,-0.879 0.337,-1.75 0.561,-2.635c1.977,-7.782 4.413,-15.507 4.175,-23.541c0,0 -0.487,1.606 -1.005,2.832c-1.471,3.48 -4.316,6.348 -7.862,7.702c-6.83,2.609 -15.068,0.26 -19.327,-6.543c-3.294,-5.262 -3.745,-11.975 -3.098,-17.983c2.369,-22.006 15.296,-42.528 32.399,-56.015c0.761,-0.6 1.554,-1.181 2.314,-1.744l0.261,-0.145c0.225,-0.037 0.06,-0.088 0.609,-0.012Zm-0.005,95.684c2.199,0.037 4.399,0.322 6.492,0.972l0.025,0.008c-2.134,-8.604 -4.939,-17.145 -4.364,-26.04c0.029,-0.456 0.067,-0.911 0.114,-1.364c0.088,-0.849 0.048,-2.212 1.322,-1.85c0,0 0.172,0.058 0.309,0.181c0.725,0.648 0.719,1.785 1.08,3.071c0.715,2.514 1.628,5.038 3.355,7.004c3.971,4.523 11.408,5.44 16.497,2.789c4.506,-2.348 7.367,-7.26 8.377,-12.372c0.648,-3.279 0.54,-6.659 0.18,-9.997c-2.377,-22.078 -15.452,-42.506 -32.84,-55.748c-0.38,-0.29 -0.835,-0.643 -0.835,-0.643c-7.175,5.07 -14.635,12.987 -20.267,21.229c-7.559,11.063 -12.631,23.938 -13.641,37.329c-0.509,6.749 0.898,13.919 6.156,18.436c4.912,4.219 13.122,4.477 18.14,-0.052c2.78,-2.508 3.759,-6.445 4.919,-10.115c0.021,-0.068 0.044,-0.135 0.067,-0.202c0.178,-0.512 0.501,-1.224 1.35,-0.873c0,0 0.173,0.08 0.3,0.233c0.331,0.398 0.324,0.949 0.38,1.455c0.958,9.098 -1.868,18.089 -4.141,27.12l-0.102,0.41c2.288,-0.719 4.713,-1.009 7.127,-0.981Z" style="fill-rule:nonzero;"/><path d="M78.273,156.552c-0.014,-0.216 -0.022,-0.428 -0.021,-0.636c0,-5.039 3.911,-9.274 9.005,-9.608c0.266,-0.018 0.529,-0.025 0.788,-0.025c6.227,0 11.462,4.835 11.874,11.138l0.001,0c0.019,0.293 -0.203,0.544 -0.495,0.563c-0.292,0.018 -0.544,-0.204 -0.562,-0.495c-0.374,-5.74 -5.148,-10.148 -10.818,-10.148c-0.239,0 -0.476,0.009 -0.717,0.025c-4.536,0.294 -8.016,4.068 -8.016,8.55c0,0.186 0.005,0.375 0.018,0.566c0.232,3.573 3.204,6.315 6.732,6.315c0.147,0 0.297,-0.005 0.447,-0.015c2.802,-0.181 4.953,-2.515 4.953,-5.281c0,-0.117 -0.004,-0.233 -0.012,-0.349c-0.141,-2.187 -1.962,-3.866 -4.119,-3.866c-0.093,0 -0.181,0.002 -0.273,0.011c-1.692,0.11 -2.992,1.518 -2.992,3.188c0,0.072 0.002,0.139 0.007,0.213c0.084,1.297 1.166,2.293 2.447,2.293c0.052,0 0.11,-0.002 0.162,-0.003c0.982,-0.064 1.735,-0.882 1.735,-1.851c0,-0.041 -0.001,-0.086 -0.003,-0.124c-0.047,-0.731 -0.657,-1.291 -1.376,-1.291c-0.037,0 -0.062,0.001 -0.089,0.004c-0.53,0.034 -0.935,0.474 -0.935,0.993c0,0.026 0.001,0.042 0.002,0.055c0.026,0.292 -0.189,0.55 -0.481,0.575c-0.292,0.026 -0.55,-0.191 -0.574,-0.48c-0.005,-0.059 -0.006,-0.109 -0.006,-0.15c0,-1.077 0.836,-1.979 1.906,-2.049c0.072,-0.008 0.131,-0.008 0.177,-0.008c1.277,0 2.349,0.992 2.433,2.288c0.004,0.059 0.006,0.12 0.006,0.187c0,1.525 -1.184,2.806 -2.74,2.909c-0.066,0.002 -0.138,0.005 -0.217,0.006c-1.838,-0.001 -3.383,-1.426 -3.503,-3.281c-0.006,-0.1 -0.01,-0.194 -0.01,-0.286c0,-2.227 1.729,-4.097 3.971,-4.245c0.124,-0.01 0.243,-0.012 0.353,-0.014c2.717,0.002 4.996,2.109 5.177,4.858c0.008,0.137 0.014,0.277 0.014,0.417c0,3.323 -2.581,6.118 -5.947,6.34c-0.171,0.009 -0.34,0.014 -0.513,0.016c-4.084,-0.002 -7.518,-3.173 -7.789,-7.305Z" style="fill-rule:nonzero;"/><path d="M119.327,163.84c-3.359,-0.222 -5.933,-3.016 -5.933,-6.337c0,-0.139 0.003,-0.281 0.013,-0.421c0.178,-2.746 2.457,-4.854 5.166,-4.854c0.112,0 0.228,0.002 0.343,0.011c2.251,0.149 3.976,2.019 3.976,4.246c0,0.095 -0.003,0.186 -0.01,0.281c-0.119,1.859 -1.663,3.285 -3.498,3.285c-0.08,0 -0.153,-0.002 -0.23,-0.007c-1.54,-0.102 -2.723,-1.383 -2.723,-2.908c0,-0.06 0.001,-0.13 0.008,-0.192c0.083,-1.289 1.152,-2.282 2.428,-2.282c0.045,0 0.104,0 0.16,0.007c1.087,0.072 1.921,0.974 1.921,2.052c0,0.05 -0.001,0.088 -0.002,0.117c-0.01,0.293 -0.256,0.522 -0.547,0.513c-0.292,-0.009 -0.522,-0.254 -0.513,-0.546c0.001,-0.041 0.002,-0.067 0.002,-0.084c0,-0.522 -0.404,-0.961 -0.946,-0.996c-0.016,-0.002 -0.038,-0.003 -0.075,-0.003c-0.717,0 -1.326,0.56 -1.373,1.309c-0.003,0.024 -0.004,0.06 -0.004,0.105c0,0.969 0.755,1.788 1.72,1.85c0.065,0.003 0.122,0.006 0.174,0.005c1.279,0.001 2.358,-0.996 2.442,-2.288c0.004,-0.079 0.006,-0.151 0.006,-0.218c0,-1.67 -1.296,-3.079 -2.996,-3.188c-0.082,-0.009 -0.17,-0.011 -0.263,-0.011c-2.149,0 -3.967,1.679 -4.109,3.871c-0.008,0.112 -0.012,0.227 -0.012,0.346c0,2.766 2.148,5.097 4.94,5.279c0.152,0.009 0.302,0.015 0.45,0.015c3.52,0 6.488,-2.742 6.719,-6.314c0.012,-0.193 0.018,-0.383 0.018,-0.568c0.001,-4.482 -3.474,-8.255 -8.003,-8.551c-0.239,-0.014 -0.477,-0.023 -0.716,-0.022c-5.658,-0.001 -10.435,4.407 -10.806,10.147l0,0.001c-0.019,0.291 -0.272,0.513 -0.563,0.495c-0.292,-0.02 -0.514,-0.272 -0.495,-0.565c0.411,-6.302 5.646,-11.137 11.864,-11.137c0.259,0 0.522,0.007 0.787,0.025c5.089,0.334 8.992,4.57 8.992,9.607c0,0.209 -0.007,0.42 -0.021,0.635c-0.269,4.134 -3.698,7.305 -7.776,7.305c-0.172,0 -0.344,-0.005 -0.515,-0.015Z" style="fill-rule:nonzero;"/><path d="M102.959,162.056c-0.141,0 -0.275,-0.054 -0.374,-0.154c-0.101,-0.1 -0.156,-0.233 -0.156,-0.375c0.001,-0.083 0.005,-0.165 0.011,-0.246c-0.111,-1.958 -1.735,-4.021 -2.587,-4.913c-0.292,-0.313 -0.474,-0.48 -0.475,-0.48c-0.153,-0.14 -0.211,-0.355 -0.148,-0.553c0.001,-0.006 1.003,-3.133 1.753,-6.509c0.515,-2.3 0.914,-4.781 1.49,-6.855c-0.231,-0.806 -0.476,-1.539 -0.747,-2.165c-0.012,-0.031 -0.022,-0.061 -0.028,-0.092c-1.07,-2.684 -3.614,-4.395 -6.327,-4.393c-0.721,0 -1.454,0.12 -2.18,0.376c-2.157,0.756 -3.504,2.784 -3.505,4.946c0.001,0.577 0.097,1.164 0.3,1.741c0.59,1.68 2.171,2.733 3.857,2.733c0.45,0 0.908,-0.074 1.357,-0.233c1.301,-0.458 2.116,-1.682 2.117,-2.985c-0.001,-0.35 -0.058,-0.704 -0.181,-1.051c-0.351,-1 -1.29,-1.623 -2.289,-1.623c-0.267,0 -0.537,0.044 -0.806,0.139c-0.755,0.264 -1.226,0.973 -1.227,1.73c0,0.203 0.034,0.406 0.106,0.611c0.195,0.558 0.723,0.909 1.283,0.909c0.152,0 0.304,-0.026 0.452,-0.077c0.405,-0.143 0.658,-0.524 0.658,-0.929c0,-0.108 -0.017,-0.217 -0.055,-0.326c-0.099,-0.282 -0.362,-0.455 -0.643,-0.456c-0.074,0 -0.149,0.012 -0.227,0.041c-0.181,0.061 -0.292,0.231 -0.293,0.413c0.001,0.046 0.01,0.095 0.026,0.145l0,0.002c0.097,0.276 -0.048,0.578 -0.324,0.675c-0.276,0.095 -0.578,-0.049 -0.675,-0.325c-0.058,-0.162 -0.087,-0.331 -0.085,-0.497c-0.002,-0.62 0.385,-1.198 1,-1.414c0.189,-0.066 0.385,-0.099 0.578,-0.099c0.719,0 1.39,0.447 1.642,1.163c0.079,0.224 0.116,0.454 0.116,0.678c0,0.845 -0.526,1.63 -1.366,1.929c-0.266,0.093 -0.538,0.136 -0.804,0.136c-0.999,0 -1.932,-0.624 -2.283,-1.617c-0.111,-0.316 -0.165,-0.642 -0.165,-0.962c-0.001,-1.195 0.745,-2.311 1.935,-2.729c0.381,-0.135 0.773,-0.199 1.157,-0.199c1.437,0 2.782,0.895 3.288,2.329c0.164,0.463 0.241,0.937 0.241,1.404c0,1.742 -1.088,3.372 -2.824,3.984c-0.565,0.2 -1.141,0.294 -1.709,0.294c-2.124,0 -4.111,-1.326 -4.857,-3.441c-0.243,-0.691 -0.359,-1.398 -0.358,-2.093c-0.001,-2.601 1.621,-5.034 4.211,-5.946c0.839,-0.294 1.692,-0.436 2.532,-0.436c3.194,0.002 6.146,2.024 7.349,5.158c0.006,0.019 0.012,0.036 0.017,0.055c0.104,0.248 0.205,0.509 0.3,0.779c0.125,-0.314 0.258,-0.613 0.402,-0.889c1.543,-2.954 4.292,-5.079 7.449,-5.085c0.785,0 1.591,0.133 2.4,0.418c2.59,0.913 4.212,3.345 4.211,5.946c0.001,0.694 -0.116,1.4 -0.358,2.093c-0.746,2.116 -2.731,3.441 -4.856,3.44c-0.568,0.001 -1.145,-0.095 -1.71,-0.293c-1.736,-0.611 -2.823,-2.241 -2.822,-3.984c-0.001,-0.467 0.076,-0.942 0.239,-1.403c0.506,-1.434 1.85,-2.33 3.289,-2.33c0.384,0 0.774,0.063 1.157,0.199c1.19,0.42 1.935,1.534 1.933,2.729c0,0.319 -0.054,0.644 -0.165,0.962c-0.349,0.995 -1.284,1.619 -2.283,1.617c-0.269,0.002 -0.54,-0.044 -0.803,-0.136c-0.841,-0.296 -1.367,-1.084 -1.366,-1.929c-0.001,-0.223 0.034,-0.455 0.117,-0.678c0.252,-0.716 0.924,-1.163 1.641,-1.163c0.19,0 0.388,0.031 0.577,0.099c0.616,0.219 1.003,0.794 1.002,1.414c0.001,0.167 -0.03,0.334 -0.082,0.491c-0.093,0.277 -0.395,0.425 -0.672,0.332c-0.277,-0.092 -0.427,-0.393 -0.332,-0.67c0.02,-0.058 0.026,-0.11 0.027,-0.153c-0.001,-0.181 -0.113,-0.352 -0.298,-0.414c-0.073,-0.028 -0.145,-0.04 -0.222,-0.04c-0.28,0 -0.544,0.175 -0.643,0.46c-0.037,0.104 -0.055,0.211 -0.056,0.322c0.001,0.406 0.253,0.787 0.657,0.928c0.15,0.052 0.304,0.078 0.453,0.078c0.56,0 1.088,-0.349 1.284,-0.908c0.071,-0.206 0.105,-0.41 0.105,-0.612c0,-0.756 -0.471,-1.466 -1.227,-1.73c-0.268,-0.095 -0.537,-0.139 -0.804,-0.139c-1,0 -1.939,0.625 -2.29,1.625c-0.123,0.345 -0.179,0.699 -0.179,1.049c0,1.303 0.814,2.527 2.115,2.985c0.45,0.158 0.908,0.232 1.358,0.232c1.686,0 3.266,-1.051 3.856,-2.731c0.202,-0.58 0.299,-1.165 0.299,-1.742c0,-2.161 -1.349,-4.189 -3.505,-4.947c-0.698,-0.247 -1.382,-0.358 -2.047,-0.358c-2.651,-0.006 -5.097,1.82 -6.512,4.517c-0.303,0.573 -0.564,1.296 -0.802,2.116c0.579,2.079 1.045,4.508 1.565,6.842c0.712,3.199 1.648,6.179 1.745,6.485c0.085,0.209 0.03,0.45 -0.146,0.601c0,0.001 -0.195,0.168 -0.504,0.48c-0.31,0.313 -0.725,0.762 -1.137,1.301c-0.78,1.013 -1.523,2.341 -1.601,3.607c0.004,0.08 0.007,0.16 0.008,0.24c0,0.142 -0.055,0.275 -0.155,0.375c-0.099,0.1 -0.232,0.154 -0.374,0.154l-0.016,0Zm0.023,-2.911c0.791,-1.822 2.219,-3.254 2.806,-3.805c-0.272,-0.875 -1.061,-3.495 -1.683,-6.297c-0.364,-1.648 -0.707,-3.336 -1.072,-4.893c-0.343,1.562 -0.657,3.274 -1.017,4.905c-0.621,2.8 -1.408,5.417 -1.68,6.294c0.551,0.55 1.897,1.982 2.646,3.796Z" style="fill-rule:nonzero;"/><path d="M113.156,120.336c-1.903,0 -3.814,-0.686 -5.325,-2.073c-1.379,-1.262 -2.081,-2.996 -2.08,-4.728c-0.001,-1.546 0.558,-3.103 1.688,-4.331c1.03,-1.128 2.444,-1.701 3.859,-1.7c1.262,-0.001 2.533,0.457 3.539,1.378c0.922,0.846 1.392,2.006 1.392,3.166c0,1.036 -0.375,2.078 -1.13,2.902c-0.697,0.76 -1.655,1.15 -2.611,1.149c-0.854,0 -1.716,-0.308 -2.393,-0.931c-0.631,-0.579 -0.954,-1.373 -0.953,-2.168c-0.001,-0.708 0.255,-1.424 0.773,-1.984c0.482,-0.529 1.149,-0.799 1.811,-0.799c0.591,0 1.19,0.215 1.66,0.646c0.446,0.408 0.674,0.97 0.673,1.529c0,0.499 -0.181,1.002 -0.545,1.4c-0.346,0.377 -0.825,0.57 -1.301,0.57c-0.423,0 -0.853,-0.154 -1.191,-0.464c-0.216,-0.197 -0.229,-0.533 -0.031,-0.748c0.198,-0.216 0.532,-0.23 0.748,-0.032c0.135,0.125 0.303,0.184 0.474,0.185c0.193,-0.001 0.381,-0.075 0.519,-0.228c0.181,-0.196 0.267,-0.438 0.267,-0.683c-0.001,-0.277 -0.109,-0.547 -0.328,-0.747c-0.272,-0.248 -0.606,-0.367 -0.945,-0.368c-0.38,0.001 -0.753,0.151 -1.031,0.454c-0.333,0.361 -0.493,0.811 -0.494,1.269c0.001,0.511 0.204,1.014 0.611,1.386c0.475,0.437 1.074,0.652 1.676,0.652c0.675,0 1.34,-0.27 1.831,-0.803c0.571,-0.625 0.849,-1.405 0.85,-2.187c-0.001,-0.878 -0.351,-1.746 -1.049,-2.384c-0.805,-0.739 -1.813,-1.1 -2.822,-1.1c-1.131,0 -2.255,0.455 -3.079,1.356c-0.945,1.027 -1.408,2.321 -1.408,3.615c0,1.45 0.584,2.891 1.736,3.948c1.311,1.201 2.96,1.793 4.609,1.793c1.848,0 3.686,-0.744 5.034,-2.211c1.524,-1.666 2.276,-3.76 2.277,-5.853c-0.001,-2.345 -0.944,-4.677 -2.808,-6.387l0,0.001c-0.215,-0.199 -0.231,-0.534 -0.033,-0.749c0.197,-0.216 0.534,-0.231 0.749,-0.033c2.091,1.916 3.151,4.54 3.151,7.168c0,2.345 -0.846,4.703 -2.556,6.568c-1.552,1.693 -3.68,2.556 -5.809,2.556c-0.002,0 -0.003,0 -0.005,0Z" style="fill-rule:nonzero;"/><path d="M86.816,117.78c-1.71,-1.865 -2.556,-4.223 -2.555,-6.567c-0.001,-2.628 1.061,-5.253 3.15,-7.169l0.001,0c0.216,-0.197 0.551,-0.183 0.748,0.033c0.198,0.215 0.184,0.55 -0.031,0.748c-1.866,1.709 -2.809,4.041 -2.81,6.388c0.001,2.092 0.752,4.186 2.278,5.851c1.348,1.469 3.186,2.212 5.036,2.212c1.651,0 3.302,-0.592 4.616,-1.793c1.155,-1.058 1.739,-2.498 1.739,-3.948c0,-1.294 -0.464,-2.587 -1.409,-3.616c-0.827,-0.9 -1.952,-1.354 -3.087,-1.355c-1.012,0.001 -2.021,0.362 -2.825,1.099c-0.698,0.639 -1.049,1.508 -1.049,2.385c0,0.783 0.278,1.562 0.849,2.186c0.492,0.535 1.158,0.804 1.833,0.805c0.602,0 1.203,-0.215 1.682,-0.653c0.407,-0.371 0.609,-0.876 0.61,-1.386c-0.001,-0.456 -0.162,-0.908 -0.495,-1.269c-0.277,-0.303 -0.652,-0.454 -1.033,-0.454c-0.342,0 -0.678,0.12 -0.947,0.367c-0.22,0.202 -0.329,0.472 -0.329,0.748c0,0.246 0.086,0.486 0.265,0.682c0.14,0.154 0.328,0.228 0.522,0.229c0.172,-0.001 0.341,-0.061 0.479,-0.186c0.216,-0.197 0.551,-0.182 0.749,0.034c0.196,0.217 0.18,0.552 -0.035,0.75c-0.339,0.307 -0.768,0.462 -1.193,0.461c-0.475,0.001 -0.955,-0.193 -1.301,-0.571c-0.366,-0.396 -0.546,-0.901 -0.546,-1.399c0,-0.561 0.227,-1.121 0.673,-1.529c0.471,-0.431 1.071,-0.646 1.663,-0.646c0.663,0 1.329,0.269 1.814,0.796c0.516,0.563 0.775,1.278 0.774,1.987c0.001,0.795 -0.324,1.589 -0.955,2.169c-0.68,0.621 -1.542,0.93 -2.397,0.93c-0.955,0 -1.916,-0.388 -2.613,-1.147c-0.756,-0.826 -1.131,-1.868 -1.13,-2.904c-0.001,-1.16 0.471,-2.321 1.393,-3.166c1.005,-0.922 2.279,-1.378 3.542,-1.378c1.417,0 2.834,0.572 3.866,1.699c1.131,1.229 1.69,2.785 1.689,4.332c0.001,1.733 -0.701,3.466 -2.083,4.73c-1.514,1.384 -3.428,2.072 -5.331,2.072c-2.133,0 -4.262,-0.861 -5.817,-2.557Z" style="fill-rule:nonzero;"/><path d="M83.94,135.774c-2.511,-0.829 -4.103,-3.162 -4.103,-5.671c0,-0.621 0.097,-1.252 0.302,-1.871c0.68,-2.055 2.587,-3.356 4.637,-3.356c0.507,0 1.025,0.079 1.532,0.248c1.687,0.557 2.758,2.124 2.757,3.81c0,0.417 -0.066,0.841 -0.204,1.258c-0.461,1.395 -1.755,2.277 -3.149,2.277c-0.345,0 -0.695,-0.054 -1.04,-0.166c-1.159,-0.385 -1.896,-1.461 -1.896,-2.621c0,-0.286 0.046,-0.58 0.141,-0.866c0.322,-0.972 1.224,-1.588 2.196,-1.588c0.241,0 0.486,0.038 0.726,0.118c0.822,0.272 1.344,1.036 1.344,1.859c0,0.201 -0.033,0.408 -0.098,0.611c-0.091,0.278 -0.391,0.429 -0.668,0.338c-0.279,-0.092 -0.43,-0.391 -0.339,-0.668c0.032,-0.096 0.044,-0.19 0.044,-0.281c0,-0.377 -0.238,-0.73 -0.617,-0.854c-0.131,-0.044 -0.261,-0.064 -0.392,-0.064c-0.525,0 -1.017,0.335 -1.19,0.864c-0.058,0.176 -0.086,0.354 -0.086,0.531c0,0.713 0.452,1.379 1.168,1.613c0.234,0.08 0.473,0.115 0.707,0.115c0.947,0 1.831,-0.601 2.143,-1.548c0.101,-0.311 0.15,-0.622 0.15,-0.928c0,-1.24 -0.786,-2.396 -2.029,-2.805c-0.4,-0.131 -0.803,-0.193 -1.2,-0.193c-1.604,0 -3.1,1.018 -3.63,2.628c-0.17,0.512 -0.249,1.029 -0.249,1.539c0,2.062 1.308,3.984 3.373,4.665c0.654,0.215 1.317,0.317 1.969,0.317c2.633,0 5.086,-1.672 5.956,-4.308c0.274,-0.832 0.405,-1.673 0.405,-2.5c-0.001,-3.347 -2.125,-6.466 -5.478,-7.574c-1.053,-0.346 -2.119,-0.51 -3.167,-0.51c-4.239,0 -8.189,2.691 -9.591,6.937l0.001,0c-0.092,0.279 -0.391,0.429 -0.669,0.337c-0.279,-0.091 -0.43,-0.39 -0.337,-0.668c1.55,-4.693 5.909,-7.666 10.596,-7.666c1.158,0 2.338,0.181 3.498,0.566c3.798,1.255 6.207,4.785 6.207,8.578c0,0.937 -0.149,1.893 -0.459,2.833c-1.018,3.081 -3.883,5.035 -6.962,5.035c-0.763,0 -1.537,-0.12 -2.299,-0.371Z" style="fill-rule:nonzero;"/><path d="M112.767,131.11c-0.312,-0.941 -0.459,-1.898 -0.459,-2.836c0,-3.791 2.405,-7.32 6.197,-8.575c1.158,-0.383 2.335,-0.566 3.493,-0.566c4.678,0 9.032,2.974 10.579,7.666c0.091,0.278 -0.059,0.577 -0.337,0.669c-0.279,0.091 -0.579,-0.06 -0.67,-0.338c-1.397,-4.247 -5.341,-6.937 -9.572,-6.938c-1.047,0.001 -2.112,0.164 -3.161,0.513c-3.347,1.105 -5.47,4.224 -5.47,7.569c0,0.828 0.129,1.67 0.406,2.503c0.868,2.637 3.318,4.307 5.945,4.308c0.65,-0.001 1.31,-0.102 1.963,-0.317c2.062,-0.681 3.369,-2.602 3.369,-4.664c0,-0.51 -0.08,-1.028 -0.25,-1.541c-0.529,-1.609 -2.023,-2.627 -3.622,-2.627c-0.398,0 -0.799,0.061 -1.196,0.193c-1.24,0.409 -2.026,1.566 -2.027,2.806c0.001,0.307 0.047,0.617 0.15,0.926c0.313,0.949 1.194,1.55 2.139,1.55c0.232,0 0.471,-0.036 0.706,-0.116c0.711,-0.233 1.164,-0.899 1.164,-1.612c0,-0.176 -0.027,-0.357 -0.086,-0.533c-0.172,-0.528 -0.664,-0.863 -1.187,-0.863c-0.131,0 -0.262,0.02 -0.392,0.064c-0.376,0.124 -0.615,0.476 -0.616,0.853c0.001,0.095 0.015,0.185 0.046,0.276c0.093,0.278 -0.055,0.578 -0.333,0.672c-0.276,0.094 -0.577,-0.055 -0.671,-0.331c-0.071,-0.207 -0.101,-0.418 -0.101,-0.617c0,-0.823 0.521,-1.586 1.34,-1.856c0.24,-0.082 0.486,-0.12 0.727,-0.12c0.97,-0.001 1.873,0.618 2.194,1.591c0.092,0.284 0.139,0.575 0.139,0.864c0,1.159 -0.733,2.234 -1.893,2.62c-0.343,0.112 -0.692,0.166 -1.037,0.166c-1.393,0.001 -2.686,-0.884 -3.144,-2.277c-0.139,-0.416 -0.205,-0.842 -0.205,-1.257c0,-1.687 1.068,-3.254 2.753,-3.81c0.506,-0.169 1.022,-0.249 1.53,-0.249c2.048,0 3.952,1.302 4.63,3.356c0.203,0.619 0.302,1.25 0.301,1.872c0.001,2.508 -1.588,4.841 -4.096,5.671c-0.761,0.249 -1.535,0.37 -2.295,0.37c-3.075,0 -5.935,-1.954 -6.951,-5.035Z" style="fill-rule:nonzero;"/><path d="M109.695,197.876c-0.552,0 -1.113,-0.094 -1.659,-0.288c-1.647,-0.593 -2.671,-2.143 -2.671,-3.797c0,-0.453 0.074,-0.915 0.237,-1.362c0.489,-1.363 1.768,-2.21 3.136,-2.209c0.374,-0.001 0.756,0.061 1.127,0.196c1.132,0.408 1.836,1.473 1.836,2.609c0,0.311 -0.053,0.626 -0.163,0.937c-0.342,0.948 -1.234,1.539 -2.188,1.539c-0.262,0 -0.527,-0.045 -0.783,-0.136c-0.804,-0.288 -1.304,-1.043 -1.304,-1.85c0,-0.22 0.036,-0.448 0.117,-0.663c0.246,-0.686 0.89,-1.113 1.579,-1.113c0.186,0 0.379,0.031 0.566,0.1c0.594,0.213 0.961,0.768 0.96,1.362c0,0.163 -0.028,0.328 -0.084,0.491c-0.093,0.254 -0.258,0.46 -0.462,0.605c0.27,-0.142 0.491,-0.381 0.6,-0.689c0.07,-0.197 0.102,-0.393 0.102,-0.583c0,-0.702 -0.434,-1.362 -1.134,-1.612c-0.256,-0.091 -0.513,-0.134 -0.769,-0.135c-0.931,0.001 -1.807,0.578 -2.139,1.509c-0.121,0.331 -0.176,0.668 -0.176,1.004c0,1.218 0.757,2.363 1.97,2.798c0.43,0.154 0.869,0.227 1.302,0.227c1.577,-0.001 3.06,-0.978 3.624,-2.549c0.199,-0.555 0.292,-1.118 0.292,-1.671c0,-2.029 -1.257,-3.933 -3.276,-4.654l0.001,0c-0.277,-0.099 -0.42,-0.403 -0.322,-0.678c0.098,-0.276 0.402,-0.42 0.678,-0.32c2.452,0.879 3.979,3.189 3.978,5.652c0.001,0.672 -0.114,1.358 -0.353,2.028c-0.721,2.003 -2.607,3.252 -4.62,3.252c-0.001,0 -0.001,0 -0.002,0Zm-1.32,-4.661c-0.036,0.096 -0.052,0.196 -0.052,0.3c0,0.15 0.038,0.299 0.109,0.43c0.001,-0.055 0.011,-0.11 0.03,-0.165c0.096,-0.277 0.399,-0.421 0.676,-0.323c0.024,0.007 0.047,0.011 0.072,0.011c0.083,0 0.165,-0.053 0.19,-0.128c0.018,-0.052 0.026,-0.096 0.026,-0.139c-0.001,-0.159 -0.099,-0.31 -0.26,-0.366c-0.071,-0.025 -0.138,-0.036 -0.207,-0.036c-0.253,0 -0.492,0.156 -0.584,0.416Z" style="fill-rule:nonzero;"/><path d="M115.879,190.37c-1.477,0.001 -2.961,-0.543 -4.12,-1.638l0.001,0.001c-0.214,-0.201 -0.224,-0.536 -0.022,-0.749c0.2,-0.212 0.535,-0.222 0.749,-0.021c0.956,0.903 2.173,1.347 3.392,1.348c1.316,-0.001 2.623,-0.518 3.598,-1.549c0.704,-0.747 1.05,-1.694 1.051,-2.645c-0.001,-1.024 -0.405,-2.042 -1.207,-2.798c-0.576,-0.544 -1.307,-0.812 -2.041,-0.814c-0.793,0.002 -1.579,0.312 -2.164,0.935c-0.416,0.441 -0.619,0.997 -0.619,1.558c0,0.605 0.237,1.205 0.713,1.655c0.33,0.313 0.75,0.466 1.173,0.467c0.457,-0.001 0.907,-0.181 1.247,-0.535c0.227,-0.242 0.34,-0.542 0.344,-0.849c-0.036,0.246 -0.148,0.487 -0.333,0.684c-0.284,0.298 -0.667,0.453 -1.052,0.452c-0.354,0.001 -0.713,-0.131 -0.992,-0.393c-0.35,-0.331 -0.528,-0.778 -0.527,-1.221c-0.001,-0.413 0.153,-0.831 0.456,-1.151c0.386,-0.411 0.912,-0.618 1.432,-0.617c0.483,-0.001 0.971,0.179 1.348,0.536c0.483,0.455 0.728,1.072 0.728,1.69c0.001,0.569 -0.208,1.146 -0.634,1.596c-0.545,0.574 -1.282,0.868 -2.017,0.867c-0.681,0.001 -1.366,-0.251 -1.902,-0.755c-0.693,-0.656 -1.045,-1.544 -1.044,-2.426c-0.001,-0.82 0.301,-1.644 0.907,-2.286c0.792,-0.841 1.866,-1.267 2.936,-1.266c0.991,-0.001 1.992,0.368 2.769,1.102c1.022,0.963 1.539,2.268 1.538,3.569c0.001,1.209 -0.444,2.423 -1.341,3.374c-1.179,1.245 -2.771,1.879 -4.363,1.879c-0.001,0 -0.002,0 -0.004,0Zm0.42,-6.537c-0.116,0.122 -0.169,0.271 -0.17,0.425c0.001,0.165 0.063,0.325 0.194,0.449c0.076,0.071 0.169,0.104 0.266,0.105c0.103,-0.001 0.206,-0.039 0.284,-0.12c0.038,-0.041 0.056,-0.09 0.056,-0.142c0,-0.055 -0.022,-0.109 -0.066,-0.15c-0.21,-0.201 -0.22,-0.536 -0.018,-0.749c0.041,-0.042 0.087,-0.076 0.136,-0.102c-0.007,-0.001 -0.016,-0.001 -0.023,-0.001c-0.244,0.001 -0.48,0.095 -0.659,0.285Z" style="fill-rule:nonzero;"/><path d="M122.877,194.94c-0.851,0.001 -1.704,-0.346 -2.323,-1.019c-0.464,-0.505 -0.698,-1.146 -0.698,-1.781c-0.001,-0.711 0.288,-1.423 0.852,-1.94c0.423,-0.389 0.962,-0.585 1.496,-0.584c0.596,-0.001 1.194,0.243 1.63,0.716c0.33,0.357 0.495,0.817 0.494,1.267c0.001,0.506 -0.205,1.011 -0.605,1.383c-0.308,0.282 -0.702,0.423 -1.089,0.423c-0.432,0 -0.866,-0.177 -1.181,-0.517c-0.244,-0.266 -0.369,-0.607 -0.368,-0.944c-0.001,-0.372 0.151,-0.752 0.449,-1.022c0.054,-0.05 0.112,-0.094 0.171,-0.132c-0.098,0.049 -0.193,0.111 -0.279,0.19c-0.341,0.311 -0.51,0.732 -0.511,1.16c0.001,0.38 0.138,0.758 0.417,1.062c0.415,0.451 0.977,0.678 1.545,0.679c0.511,-0.001 1.016,-0.183 1.421,-0.554c0.59,-0.545 0.889,-1.285 0.891,-2.03c-0.002,-0.667 -0.241,-1.334 -0.728,-1.864c-0.708,-0.77 -1.668,-1.155 -2.634,-1.156c-0.867,0 -1.732,0.311 -2.42,0.945l0,0.001c-0.216,0.198 -0.551,0.184 -0.749,-0.031c-0.198,-0.216 -0.184,-0.552 0.032,-0.749c0.889,-0.82 2.016,-1.226 3.137,-1.225c1.248,-0.001 2.499,0.504 3.414,1.498c0.674,0.731 1.007,1.661 1.006,2.581c0.001,1.028 -0.416,2.057 -1.233,2.809c-0.604,0.557 -1.371,0.834 -2.132,0.834c-0.002,0 -0.003,0 -0.005,0Zm-0.627,-3.236c-0.069,0.063 -0.105,0.148 -0.105,0.24c0,0.082 0.028,0.16 0.088,0.225c0.026,0.029 0.055,0.053 0.086,0.076c-0.039,-0.176 0.012,-0.367 0.152,-0.5c0.011,-0.009 0.012,-0.016 0.012,-0.022c-0.001,-0.006 -0.001,-0.009 -0.004,-0.012c-0.036,-0.038 -0.074,-0.052 -0.118,-0.053c-0.039,0 -0.075,0.013 -0.111,0.046Z" style="fill-rule:nonzero;"/><path d="M91.609,194.607c-0.241,-0.669 -0.355,-1.354 -0.355,-2.028c0,-2.465 1.529,-4.773 3.98,-5.652c0.274,-0.099 0.578,0.043 0.677,0.319c0.1,0.276 -0.045,0.579 -0.32,0.678c-2.018,0.724 -3.276,2.625 -3.277,4.655c0.001,0.554 0.093,1.116 0.292,1.67c0.564,1.573 2.047,2.55 3.627,2.55c0.431,0 0.87,-0.073 1.3,-0.225c1.214,-0.436 1.97,-1.582 1.97,-2.802c0,-0.333 -0.057,-0.674 -0.176,-1.004c-0.332,-0.928 -1.208,-1.507 -2.139,-1.507c-0.257,0 -0.514,0.043 -0.77,0.137c-0.699,0.249 -1.133,0.909 -1.134,1.61c0.001,0.192 0.032,0.386 0.101,0.579c0.111,0.309 0.329,0.548 0.599,0.691c-0.203,-0.144 -0.368,-0.35 -0.459,-0.603c-0.057,-0.162 -0.086,-0.329 -0.086,-0.492c0,-0.593 0.371,-1.15 0.955,-1.36c0.191,-0.071 0.386,-0.102 0.572,-0.101c0.69,-0.001 1.334,0.427 1.58,1.111c0.077,0.217 0.115,0.442 0.115,0.664c0.001,0.806 -0.499,1.561 -1.304,1.851c-0.255,0.09 -0.519,0.135 -0.782,0.134c-0.954,0.001 -1.845,-0.589 -2.187,-1.537c-0.111,-0.309 -0.164,-0.626 -0.164,-0.937c0,-1.138 0.705,-2.202 1.834,-2.608c0.373,-0.136 0.756,-0.198 1.13,-0.198c1.366,0 2.647,0.848 3.137,2.209c0.16,0.447 0.236,0.908 0.236,1.361c0,1.656 -1.023,3.206 -2.672,3.799c-0.547,0.195 -1.106,0.288 -1.656,0.288c-2.014,0.001 -3.902,-1.247 -4.624,-3.252Zm5.857,-0.841c0.017,0.053 0.027,0.108 0.028,0.161c0.07,-0.13 0.108,-0.279 0.108,-0.43c0,-0.102 -0.016,-0.205 -0.052,-0.305c-0.091,-0.254 -0.331,-0.41 -0.584,-0.411c-0.071,0.001 -0.136,0.011 -0.207,0.038c-0.16,0.056 -0.259,0.206 -0.26,0.364c0,0.045 0.008,0.087 0.025,0.133c0.027,0.083 0.106,0.134 0.192,0.135c0.022,-0.001 0.046,-0.004 0.076,-0.012c0.058,-0.021 0.116,-0.031 0.173,-0.031c0.221,0 0.425,0.139 0.501,0.358Z" style="fill-rule:nonzero;"/><path d="M85.677,188.473c-0.893,-0.949 -1.339,-2.164 -1.338,-3.372c-0.001,-1.302 0.516,-2.606 1.539,-3.57c0.777,-0.735 1.776,-1.102 2.768,-1.102c1.07,0 2.142,0.426 2.935,1.265c0.607,0.642 0.909,1.469 0.909,2.288c0,0.883 -0.353,1.769 -1.045,2.426c-0.535,0.503 -1.221,0.755 -1.903,0.755c-0.734,0 -1.472,-0.295 -2.016,-0.87c-0.424,-0.447 -0.636,-1.024 -0.635,-1.594c-0.001,-0.616 0.245,-1.237 0.729,-1.69c0.378,-0.358 0.866,-0.538 1.348,-0.537c0.52,-0.001 1.044,0.207 1.43,0.616c0.306,0.324 0.458,0.74 0.457,1.152c0.001,0.444 -0.177,0.89 -0.527,1.221c-0.277,0.262 -0.638,0.394 -0.991,0.393c-0.386,0.001 -0.77,-0.153 -1.053,-0.453c-0.186,-0.195 -0.297,-0.436 -0.334,-0.685c0.005,0.308 0.118,0.609 0.346,0.851c0.338,0.357 0.79,0.535 1.246,0.536c0.424,-0.001 0.844,-0.155 1.174,-0.465c0.476,-0.451 0.713,-1.053 0.714,-1.656c-0.001,-0.562 -0.204,-1.119 -0.621,-1.56c-0.585,-0.622 -1.37,-0.932 -2.163,-0.933c-0.733,0.001 -1.464,0.269 -2.041,0.813c-0.803,0.758 -1.206,1.775 -1.207,2.799c0.001,0.951 0.348,1.898 1.051,2.644c0.972,1.03 2.281,1.549 3.597,1.55c1.22,-0.001 2.437,-0.446 3.394,-1.35l0,0.001c0.213,-0.201 0.547,-0.192 0.749,0.021c0.201,0.212 0.19,0.547 -0.021,0.748c-1.159,1.095 -2.645,1.639 -4.122,1.639c-1.593,0 -3.188,-0.633 -4.369,-1.881Zm3.408,-4.835c0.2,0.214 0.187,0.549 -0.027,0.748c-0.04,0.039 -0.06,0.089 -0.061,0.146c0.001,0.052 0.018,0.101 0.055,0.14c0.076,0.081 0.18,0.123 0.285,0.123c0.096,-0.002 0.191,-0.034 0.264,-0.104c0.132,-0.126 0.195,-0.287 0.196,-0.451c-0.001,-0.154 -0.055,-0.303 -0.169,-0.423c-0.182,-0.191 -0.417,-0.286 -0.66,-0.287c-0.008,0 -0.016,0 -0.023,0.001c0.051,0.027 0.098,0.063 0.14,0.107Z" style="fill-rule:nonzero;"/><path d="M80.911,194.09c-0.818,-0.753 -1.234,-1.783 -1.233,-2.81c0,-0.921 0.335,-1.851 1.007,-2.581c0.912,-0.993 2.165,-1.5 3.414,-1.499c1.121,-0.001 2.248,0.407 3.137,1.225l0.001,0.001c0.215,0.198 0.229,0.533 0.031,0.748c-0.2,0.215 -0.534,0.23 -0.748,0.032c-0.69,-0.635 -1.554,-0.945 -2.421,-0.946c-0.969,0.001 -1.928,0.388 -2.634,1.156c-0.488,0.532 -0.727,1.197 -0.728,1.864c0.001,0.745 0.3,1.485 0.891,2.03c0.404,0.37 0.911,0.551 1.42,0.552c0.568,-0.001 1.131,-0.227 1.545,-0.677c0.28,-0.303 0.415,-0.681 0.416,-1.063c-0.001,-0.426 -0.171,-0.847 -0.509,-1.158c-0.087,-0.08 -0.182,-0.145 -0.282,-0.192c0.06,0.037 0.118,0.081 0.171,0.13c0.299,0.273 0.451,0.65 0.45,1.024c0.001,0.335 -0.121,0.677 -0.367,0.945c-0.316,0.34 -0.749,0.519 -1.181,0.518c-0.39,0 -0.78,-0.142 -1.088,-0.426c-0.4,-0.368 -0.607,-0.876 -0.606,-1.38c-0.001,-0.452 0.164,-0.91 0.495,-1.269c0.435,-0.474 1.034,-0.715 1.63,-0.715c0.532,0 1.073,0.194 1.496,0.584c0.562,0.518 0.851,1.231 0.849,1.939c0.002,0.635 -0.229,1.278 -0.695,1.782c-0.621,0.673 -1.472,1.019 -2.324,1.019c-0.762,0 -1.53,-0.277 -2.137,-0.833Zm2.537,-2.396c-0.004,0.006 -0.005,0.008 -0.005,0.012c0.001,0.008 0,0.011 0.009,0.018c0.142,0.133 0.195,0.326 0.156,0.502c0.031,-0.021 0.058,-0.046 0.086,-0.074c0.057,-0.065 0.086,-0.143 0.087,-0.226c-0.001,-0.092 -0.037,-0.177 -0.108,-0.242c-0.031,-0.03 -0.068,-0.043 -0.108,-0.043c-0.046,0.002 -0.084,0.017 -0.117,0.053Z" style="fill-rule:nonzero;"/><path d="M99.032,92.101c-1.593,0.002 -3.189,-0.633 -4.368,-1.881c-0.894,-0.948 -1.339,-2.163 -1.339,-3.371c0,-1.302 0.518,-2.607 1.538,-3.571c0.78,-0.734 1.777,-1.102 2.769,-1.102c1.07,0 2.142,0.426 2.934,1.265c0.608,0.643 0.912,1.469 0.91,2.288c0.002,0.883 -0.351,1.769 -1.044,2.425c-0.535,0.505 -1.222,0.756 -1.904,0.755c-0.735,0.001 -1.472,-0.291 -2.016,-0.868c-0.423,-0.448 -0.634,-1.024 -0.634,-1.595c0,-0.617 0.245,-1.235 0.728,-1.688c0.377,-0.359 0.866,-0.54 1.349,-0.538c0.52,-0.002 1.043,0.208 1.429,0.615c0.305,0.324 0.459,0.741 0.458,1.153c0.001,0.444 -0.177,0.889 -0.525,1.221c-0.28,0.261 -0.64,0.394 -0.995,0.394c-0.383,0 -0.769,-0.154 -1.053,-0.455c-0.184,-0.194 -0.294,-0.435 -0.331,-0.682c0.005,0.306 0.117,0.607 0.346,0.849c0.336,0.356 0.788,0.535 1.244,0.536c0.425,-0.001 0.843,-0.155 1.175,-0.467c0.475,-0.45 0.713,-1.049 0.714,-1.655c-0.001,-0.562 -0.205,-1.119 -0.62,-1.56c-0.588,-0.621 -1.372,-0.932 -2.165,-0.932c-0.735,0 -1.465,0.268 -2.041,0.811c-0.803,0.758 -1.206,1.776 -1.207,2.801c0.001,0.951 0.348,1.897 1.052,2.643c0.972,1.031 2.281,1.55 3.596,1.55c1.22,0 2.438,-0.446 3.395,-1.349l0,0.001c0.212,-0.202 0.548,-0.192 0.748,0.02c0.202,0.212 0.192,0.548 -0.02,0.748c-1.158,1.095 -2.642,1.639 -4.119,1.639c-0.001,0 -0.003,0 -0.003,0l-0.001,0Zm-0.961,-6.717c0.198,0.213 0.189,0.549 -0.024,0.749c-0.044,0.04 -0.064,0.09 -0.064,0.148c0,0.053 0.017,0.1 0.055,0.141c0.079,0.081 0.179,0.121 0.284,0.121c0.099,-0.001 0.192,-0.035 0.266,-0.103c0.131,-0.125 0.194,-0.288 0.195,-0.452c-0.001,-0.155 -0.056,-0.304 -0.168,-0.426c-0.181,-0.189 -0.418,-0.281 -0.66,-0.283c-0.007,0 -0.014,0 -0.021,0c0.049,0.027 0.096,0.062 0.137,0.105Z" style="fill-rule:nonzero;"/><path d="M92.035,96.67c-0.763,0.001 -1.533,-0.277 -2.138,-0.833c-0.817,-0.752 -1.233,-1.782 -1.232,-2.81c-0.001,-0.921 0.334,-1.849 1.006,-2.58c0.913,-0.994 2.165,-1.5 3.414,-1.499c1.12,-0.001 2.25,0.405 3.138,1.224c0.216,0.199 0.229,0.534 0.03,0.749c-0.198,0.215 -0.533,0.229 -0.748,0.031c-0.687,-0.633 -1.552,-0.943 -2.42,-0.943c-0.967,0 -1.928,0.387 -2.634,1.154c-0.488,0.532 -0.725,1.196 -0.726,1.864c0.001,0.746 0.298,1.485 0.89,2.03c0.404,0.371 0.91,0.554 1.42,0.555c0.569,-0.001 1.13,-0.228 1.545,-0.68c0.279,-0.303 0.414,-0.681 0.415,-1.063c-0.001,-0.426 -0.17,-0.848 -0.508,-1.159c-0.087,-0.08 -0.182,-0.143 -0.283,-0.191c0.061,0.038 0.119,0.083 0.174,0.132c0.295,0.274 0.449,0.65 0.448,1.024c0.001,0.334 -0.121,0.675 -0.369,0.943c-0.315,0.34 -0.749,0.518 -1.18,0.517c-0.387,0.001 -0.78,-0.14 -1.087,-0.424c-0.401,-0.369 -0.607,-0.876 -0.607,-1.381c0,-0.451 0.166,-0.91 0.495,-1.268c0.434,-0.473 1.035,-0.717 1.629,-0.716c0.533,0 1.074,0.195 1.496,0.585c0.565,0.517 0.852,1.229 0.851,1.938c0.001,0.635 -0.231,1.276 -0.694,1.782c-0.62,0.674 -1.472,1.019 -2.321,1.019c-0.002,0 -0.003,0 -0.004,0Zm0.4,-3.229c-0.006,0.006 -0.006,0.009 -0.006,0.013c0.002,0.008 0.002,0.01 0.008,0.017c0.143,0.132 0.197,0.326 0.159,0.504c0.028,-0.023 0.058,-0.047 0.083,-0.076c0.06,-0.064 0.086,-0.142 0.087,-0.224c0,-0.091 -0.036,-0.178 -0.107,-0.244c-0.031,-0.028 -0.067,-0.042 -0.107,-0.042c-0.045,0.001 -0.084,0.017 -0.117,0.052Z" style="fill-rule:nonzero;"/><path d="M102.673,90.408c-0.214,-0.2 -0.223,-0.534 -0.023,-0.748c0.202,-0.213 0.536,-0.222 0.748,-0.02c0.956,0.902 2.175,1.348 3.395,1.349c1.314,-0.001 2.623,-0.519 3.598,-1.55c0.704,-0.747 1.049,-1.693 1.051,-2.645c-0.002,-1.022 -0.405,-2.04 -1.207,-2.798c-0.577,-0.545 -1.308,-0.812 -2.04,-0.812c-0.795,0 -1.58,0.311 -2.165,0.933c-0.417,0.441 -0.62,0.997 -0.621,1.559c0.001,0.605 0.238,1.203 0.713,1.655c0.332,0.313 0.75,0.466 1.176,0.467c0.456,-0.001 0.907,-0.18 1.245,-0.536c0.227,-0.243 0.341,-0.547 0.346,-0.856c-0.035,0.25 -0.147,0.493 -0.333,0.691c-0.283,0.298 -0.67,0.453 -1.052,0.452c-0.356,0.001 -0.716,-0.132 -0.993,-0.394c-0.349,-0.328 -0.529,-0.777 -0.527,-1.22c-0.002,-0.414 0.152,-0.83 0.457,-1.151c0.385,-0.41 0.91,-0.618 1.429,-0.618c0.484,0 0.972,0.179 1.35,0.538c0.481,0.454 0.728,1.071 0.728,1.688c0.001,0.572 -0.211,1.147 -0.635,1.597c-0.544,0.575 -1.281,0.869 -2.015,0.868c-0.682,0.001 -1.369,-0.252 -1.904,-0.755c-0.695,-0.656 -1.046,-1.544 -1.045,-2.426c-0.001,-0.82 0.303,-1.646 0.91,-2.287c0.791,-0.84 1.866,-1.266 2.936,-1.265c0.99,-0.001 1.988,0.366 2.767,1.101c1.022,0.963 1.541,2.268 1.539,3.569c0.002,1.209 -0.446,2.425 -1.341,3.373c-1.18,1.249 -2.775,1.882 -4.367,1.882c-1.477,0 -2.963,-0.544 -4.12,-1.641Zm4.538,-4.897c-0.114,0.121 -0.167,0.27 -0.168,0.424c0.001,0.165 0.063,0.324 0.194,0.451c0.076,0.069 0.169,0.103 0.267,0.104c0.104,-0.001 0.205,-0.04 0.282,-0.12c0.038,-0.041 0.056,-0.089 0.056,-0.142c0,-0.055 -0.021,-0.109 -0.064,-0.151c-0.213,-0.202 -0.22,-0.537 -0.019,-0.748c0.04,-0.042 0.086,-0.077 0.135,-0.103c-0.009,0 -0.015,-0.001 -0.024,-0.001c-0.243,0.001 -0.478,0.096 -0.659,0.286Z" style="fill-rule:nonzero;"/><path d="M113.792,96.617c-0.852,0.002 -1.706,-0.343 -2.326,-1.019c-0.463,-0.505 -0.696,-1.146 -0.696,-1.782c-0.001,-0.709 0.288,-1.421 0.852,-1.938c0.423,-0.39 0.963,-0.586 1.497,-0.585c0.595,-0.001 1.193,0.242 1.629,0.716c0.331,0.358 0.494,0.818 0.494,1.27c0,0.503 -0.206,1.01 -0.606,1.379c-0.307,0.284 -0.701,0.425 -1.088,0.425c-0.432,0 -0.866,-0.176 -1.18,-0.519c-0.246,-0.266 -0.37,-0.607 -0.369,-0.942c-0.001,-0.373 0.152,-0.752 0.45,-1.024c0.055,-0.049 0.113,-0.094 0.173,-0.132c-0.101,0.048 -0.196,0.111 -0.284,0.193c-0.339,0.31 -0.508,0.73 -0.508,1.157c0,0.382 0.136,0.759 0.417,1.065c0.413,0.45 0.975,0.677 1.545,0.677c0.509,0 1.015,-0.183 1.419,-0.554c0.59,-0.544 0.889,-1.285 0.89,-2.03c-0.001,-0.667 -0.239,-1.332 -0.727,-1.863c-0.708,-0.769 -1.667,-1.155 -2.633,-1.156c-0.868,0 -1.732,0.311 -2.421,0.944l0.001,0c-0.215,0.198 -0.55,0.184 -0.749,-0.031c-0.197,-0.215 -0.185,-0.55 0.031,-0.749c0.889,-0.818 2.017,-1.225 3.138,-1.225c1.248,0 2.499,0.505 3.414,1.5c0.672,0.732 1.006,1.659 1.005,2.58c0.001,1.029 -0.416,2.058 -1.232,2.811c-0.604,0.554 -1.372,0.832 -2.132,0.832c-0.002,0 -0.003,0 -0.004,0Zm-0.629,-3.236c-0.069,0.064 -0.104,0.148 -0.105,0.241c0.001,0.081 0.028,0.159 0.089,0.226c0.026,0.027 0.054,0.051 0.083,0.074c-0.038,-0.176 0.015,-0.368 0.156,-0.5c0.009,-0.009 0.01,-0.015 0.011,-0.019c-0.001,-0.009 -0.002,-0.011 -0.006,-0.014c-0.034,-0.038 -0.074,-0.052 -0.118,-0.053c-0.038,0.001 -0.074,0.013 -0.11,0.045Z" style="fill-rule:nonzero;"/><path d="M102.964,93.716c-17.374,13.32 -15.131,17.626 -15.131,17.626c0,0 14.776,-17.759 29.73,-0.193c0,0 2.776,-4.113 -14.599,-17.433Z"/><path d="M103.016,93.481c0.05,0.017 0.05,0.017 0.095,0.044c3.905,2.999 7.721,6.128 10.952,9.787c1.474,1.67 2.912,3.462 3.616,5.526c0.275,0.804 0.5,1.75 0.091,2.435c0,0 -0.194,0.22 -0.391,0.033c-3.166,-3.705 -7.189,-6.831 -12.021,-7.527c-4.996,-0.719 -10.184,1.524 -14.023,4.582c-1.188,0.946 -2.323,1.97 -3.307,3.124c0,0 -0.382,0.435 -0.505,-0.375c-0.202,-1.331 0.529,-2.699 1.313,-3.974c1.806,-2.94 4.322,-5.402 6.902,-7.749c2.269,-2.065 4.65,-3.997 7.079,-5.862c0,0 0.053,-0.06 0.199,-0.044Zm-0.108,0.582c-4.337,3.343 -8.653,6.861 -12.042,11.064c-1.171,1.452 -2.316,3.022 -2.761,4.756c-0.078,0.302 -0.13,0.613 -0.124,0.925c0,0 0.456,-0.488 0.865,-0.89c3.647,-3.58 8.199,-6.368 13.4,-6.731c3.093,-0.215 6.224,0.595 8.922,2.14c2.369,1.357 4.418,3.209 6.225,5.258l0.07,0.08c0.093,-0.653 -0.1,-1.328 -0.344,-1.956c-0.503,-1.293 -1.301,-2.458 -2.156,-3.56c-2.198,-2.833 -4.87,-5.276 -7.62,-7.605c-1.412,-1.196 -2.858,-2.351 -4.323,-3.481c0,0 -0.012,-0.076 -0.112,0Z" style="fill-rule:nonzero;"/><path d="M126.969,124.051c0,0 14.109,24.997 5.165,39.43c-7.576,12.225 -24.104,2.928 -21.865,-6.715c0,0 2.066,10.331 12.223,9.643c0,0 10.983,-0.891 8.092,-14.119c-0.218,-1.001 -2.754,-9.127 -11.191,-10.159c0,0 9.298,-0.517 7.576,-18.08Z"/><path d="M127.027,123.817c0.087,0.035 0.215,0.23 0.31,0.404c3.125,5.781 5.512,11.984 6.923,18.371c1.51,6.83 1.876,14.167 -1.465,20.235c-2.073,3.767 -5.749,6.665 -10.272,6.732c-3.75,0.055 -7.446,-1.647 -9.958,-4.425c-2.01,-2.222 -3.208,-5.306 -2.557,-8.306c0.022,-0.102 0.046,-0.214 0.139,-0.269c0.358,-0.212 0.498,0.793 0.767,1.555c1.015,2.865 2.909,5.505 5.572,6.906c1.822,0.959 3.933,1.287 5.988,1.149c0.557,-0.038 1.118,-0.186 1.667,-0.351c2.786,-0.834 5.213,-2.883 6.154,-5.771c0.798,-2.444 0.6,-5.127 0.086,-7.552c-0.279,-1.317 -0.876,-2.555 -1.565,-3.721c-2.002,-3.389 -5.456,-5.901 -9.453,-6.404c0,0 -0.184,0.029 -0.209,-0.214c-0.036,-0.343 0.715,-0.314 1.286,-0.502c0.295,-0.097 0.583,-0.215 0.862,-0.351c3.141,-1.538 4.788,-5.309 5.338,-8.893c0.422,-2.747 0.359,-5.554 0.089,-8.335c0,0 0.019,-0.287 0.298,-0.258Zm0.285,1.424c0.293,4.089 0.122,8.363 -1.553,11.922c-1.033,2.193 -2.79,4.13 -5.092,4.924l-0.027,0.009c0.078,0.016 0.094,0.019 0.324,0.073c4.569,1.122 8.263,4.958 9.708,9.538c0.423,1.343 0.581,2.796 0.628,4.172c0.088,2.55 -0.486,5.218 -2.108,7.222c-1.593,1.97 -4.045,3.233 -6.548,3.534c-2.886,0.347 -6.133,-0.565 -8.467,-2.635c-1.813,-1.608 -3.074,-3.773 -3.831,-6.059l-0.013,-0.042c-0.359,4.049 2.708,8 6.573,9.883c3.328,1.621 7.448,1.764 10.665,-0.071c2.894,-1.651 4.878,-4.646 5.995,-7.777c1.574,-4.414 1.539,-9.232 0.86,-13.807c-1.077,-7.263 -3.695,-14.255 -7.012,-20.726c0,0 -0.112,-0.298 -0.102,-0.16Z" style="fill-rule:nonzero;"/><path d="M79.092,124.051c0,0 -14.11,24.997 -5.165,39.43c7.574,12.225 24.54,4.013 21.864,-6.715c0,0 -2.066,10.331 -12.224,9.643c0,0 -10.983,-0.891 -8.092,-14.119c0.22,-1.001 2.755,-9.127 11.191,-10.159c0,0 -9.296,-0.517 -7.574,-18.08Z"/><path d="M95.911,156.557c0.093,0.072 0.099,0.113 0.114,0.152c0.596,2.421 0.214,5.014 -1.066,7.178c-2.833,4.787 -9.22,7.063 -14.426,5.344c-4.911,-1.623 -8.16,-6.719 -9.252,-11.828c-1.037,-4.85 -0.559,-9.935 0.519,-14.811c1.337,-6.052 3.577,-11.887 6.418,-17.411c0.212,-0.413 0.428,-0.824 0.653,-1.229c0,0 0.029,-0.102 0.163,-0.135c0.141,-0.034 0.288,0.015 0.297,0.258c-0.354,3.655 -0.378,7.382 0.635,10.83c0.91,3.094 2.96,6.106 6.096,6.877c0.203,0.049 0.408,0.091 0.614,0.108c0,0 0.103,0.001 0.174,0.085c0.11,0.13 0.038,0.344 -0.154,0.395c-2.593,0.326 -5.06,1.457 -6.948,3.238c-1.9,1.792 -3.36,4.09 -4.012,6.628c-0.961,3.747 -0.794,8.089 1.851,10.961c1.515,1.646 3.7,2.697 5.886,2.959c2.786,0.335 5.984,-0.592 8.205,-2.62c1.955,-1.785 3.29,-4.252 3.864,-6.757c0,0 0.08,-0.34 0.369,-0.222Zm-17.194,-31.292c-3.414,6.617 -6.038,13.708 -7.098,20.964c-0.591,4.044 -0.657,8.211 0.384,12.122c1.076,4.039 3.479,7.866 7.036,9.725c3.565,1.863 8.102,1.562 11.604,-0.564c3.24,-1.968 5.635,-5.629 5.112,-9.654l-0.004,-0.031c-0.021,0.065 -0.042,0.13 -0.064,0.195c-0.929,2.752 -2.621,5.349 -5.062,6.939c-2.013,1.312 -4.471,1.834 -6.894,1.699c-0.695,-0.038 -1.379,-0.203 -2.047,-0.409c-2.949,-0.912 -5.471,-3.12 -6.423,-6.195c-0.793,-2.559 -0.631,-5.367 0,-7.906c0.229,-0.92 0.611,-1.803 1.041,-2.656c1.814,-3.598 5.046,-6.493 9.072,-7.389l0.045,-0.009c-0.048,-0.017 -0.096,-0.033 -0.144,-0.05c-2.257,-0.824 -3.991,-2.75 -5.016,-4.973c-1.671,-3.625 -1.798,-7.812 -1.511,-11.832c0,0 0.045,-0.123 -0.031,0.024Z" style="fill-rule:nonzero;"/><path d="M103.084,112c0,0 1.034,13.205 8.265,10.452c0,0 -3.099,4.01 -0.861,8.832c0,-0.001 -7.037,0.311 -7.208,4.786l-0.221,0c-0.171,-4.475 -7.598,-4.786 -7.598,-4.786c2.238,-4.822 -0.862,-8.832 -0.862,-8.832c7.232,2.753 8.265,-10.452 8.265,-10.452l0.22,0Z"/><path d="M111.45,122.233c0.27,0.159 0.134,0.295 -0.03,0.535c-1.632,2.442 -1.963,5.698 -0.713,8.415c0,0 0.035,0.041 0.02,0.138c-0.028,0.174 -0.243,0.201 -0.52,0.224c-1.53,0.142 -3.07,0.487 -4.415,1.233c-1.203,0.667 -2.205,1.814 -2.272,3.303c0,0 -0.061,0.213 -0.24,0.23l-0.221,0c-0.245,-0.023 -0.236,-0.172 -0.246,-0.329c-0.016,-0.232 -0.023,-0.259 -0.044,-0.376c-0.263,-1.526 -1.758,-2.63 -3.093,-3.172c-0.212,-0.086 -0.427,-0.164 -0.644,-0.236c-1.153,-0.381 -2.362,-0.604 -3.563,-0.673c0,0 -0.321,-0.072 -0.227,-0.342c1.222,-2.656 0.943,-5.863 -0.65,-8.319c-0.073,-0.111 -0.185,-0.267 -0.185,-0.267c-0.128,-0.21 0.02,-0.46 0.441,-0.311c1.065,0.37 2.247,0.429 3.27,-0.074c1.473,-0.726 2.353,-2.255 2.963,-3.703c0.872,-2.066 1.356,-4.309 1.543,-6.529c0,0 0.066,-0.205 0.24,-0.221l0.22,0c0.24,0.022 0.23,0.128 0.253,0.365c0.3,2.998 0.927,6.094 2.694,8.495c0.853,1.16 2.206,2.064 3.717,1.959c0.504,-0.035 0.998,-0.16 1.474,-0.336c0,0 0.045,-0.073 0.228,-0.009Zm-8.477,-9.09c-0.391,2.731 -0.998,5.493 -2.667,7.762c-0.863,1.172 -2.167,2.116 -3.682,2.163c-0.479,0.015 -0.959,-0.051 -1.425,-0.171c0,0 0.243,0.457 0.429,0.859c1.046,2.271 1.17,4.943 0.204,7.283l-0.012,0.028c0.051,0.005 0.101,0.009 0.152,0.014c1.671,0.169 3.322,0.525 4.807,1.342c1.085,0.597 2.064,1.526 2.388,2.75c0.112,-0.443 0.308,-0.86 0.566,-1.234c1.122,-1.63 3.163,-2.315 5.001,-2.67c0.461,-0.089 0.928,-0.157 1.396,-0.201c-1.105,-2.626 -0.807,-5.695 0.632,-8.158c0,0 -0.823,0.201 -1.586,0.151c-1.884,-0.123 -3.428,-1.75 -4.271,-3.343c-0.129,-0.244 -0.249,-0.492 -0.362,-0.744c-0.823,-1.842 -1.281,-3.827 -1.568,-5.831c0,0 0.001,-0.018 -0.002,0Z" style="fill-rule:nonzero;"/><path d="M86.862,129.328c0,0.696 -0.564,1.259 -1.261,1.259c-0.696,0 -1.26,-0.563 -1.26,-1.259c0,-0.696 0.564,-1.261 1.26,-1.261c0.697,0 1.261,0.565 1.261,1.261Z"/><path d="M85.62,127.826c0.571,0.011 1.116,0.366 1.35,0.884c0.405,0.895 -0.318,2.105 -1.35,2.118c-0.665,0.009 -1.305,-0.474 -1.472,-1.125c-0.22,-0.854 0.437,-1.822 1.376,-1.875c0.032,-0.002 0.064,-0.002 0.096,-0.002Zm-0.032,0.482c-0.454,0.009 -0.877,0.344 -0.98,0.789c-0.164,0.712 0.643,1.464 1.367,1.179c0.59,-0.232 0.839,-1.08 0.413,-1.597c-0.193,-0.234 -0.491,-0.373 -0.8,-0.371Z" style="fill-rule:nonzero;"/><path d="M95.165,112.573c0,0.696 -0.565,1.261 -1.261,1.261c-0.696,0 -1.259,-0.565 -1.259,-1.261c0,-0.696 0.563,-1.26 1.259,-1.26c0.696,0 1.261,0.564 1.261,1.26Z"/><path d="M93.924,111.072c0.572,0.011 1.116,0.367 1.349,0.883c0.406,0.896 -0.318,2.107 -1.349,2.12c-0.666,0.008 -1.306,-0.476 -1.473,-1.127c-0.222,-0.865 0.466,-1.845 1.415,-1.875c0.019,-0.001 0.038,-0.001 0.058,-0.001Zm-0.033,0.482c-0.8,0.015 -1.343,1.163 -0.672,1.774c0.507,0.461 1.485,0.229 1.673,-0.5c0.156,-0.607 -0.365,-1.278 -1.001,-1.274Z" style="fill-rule:nonzero;"/><path d="M113.101,112.624c0,0.696 -0.565,1.261 -1.26,1.261c-0.696,0 -1.261,-0.565 -1.261,-1.261c0,-0.696 0.565,-1.261 1.261,-1.261c0.695,0 1.26,0.565 1.26,1.261Z"/><path d="M111.861,111.122c0.682,0.013 1.314,0.531 1.451,1.2c0.175,0.856 -0.55,1.781 -1.432,1.803c-0.68,0.017 -1.347,-0.487 -1.503,-1.162c-0.195,-0.845 0.461,-1.786 1.387,-1.839c0.032,-0.001 0.065,-0.002 0.097,-0.002Zm-0.033,0.482c-0.798,0.015 -1.346,1.163 -0.673,1.775c0.507,0.46 1.476,0.229 1.67,-0.488c0.165,-0.609 -0.336,-1.291 -0.997,-1.287Z" style="fill-rule:nonzero;"/><path d="M121.5,129.277c0,0.696 -0.564,1.26 -1.26,1.26c-0.697,0 -1.261,-0.564 -1.261,-1.26c0,-0.695 0.564,-1.26 1.261,-1.26c0.696,0 1.26,0.565 1.26,1.26Z"/><path d="M120.259,127.776c0.676,0.013 1.303,0.518 1.447,1.181c0.188,0.862 -0.542,1.798 -1.427,1.82c-0.668,0.017 -1.324,-0.464 -1.494,-1.125c-0.219,-0.853 0.438,-1.82 1.378,-1.874c0.032,-0.001 0.064,-0.002 0.096,-0.002Zm-0.032,0.482c-0.798,0.015 -1.351,1.158 -0.673,1.773c0.504,0.458 1.474,0.236 1.669,-0.487c0.165,-0.608 -0.332,-1.29 -0.996,-1.286Z" style="fill-rule:nonzero;"/><path d="M87.791,156.761c0,0.696 -0.566,1.262 -1.262,1.262c-0.695,0 -1.26,-0.566 -1.26,-1.262c0,-0.696 0.565,-1.26 1.26,-1.26c0.696,0 1.262,0.564 1.262,1.26Z"/><path d="M86.548,155.26c0.573,0.011 1.117,0.367 1.351,0.883c0.409,0.902 -0.331,2.121 -1.37,2.121c-0.658,0 -1.287,-0.483 -1.453,-1.128c-0.223,-0.864 0.459,-1.845 1.415,-1.875c0.019,-0.001 0.038,-0.001 0.057,-0.001Zm-0.032,0.482c-0.799,0.016 -1.344,1.162 -0.671,1.775c0.509,0.463 1.496,0.223 1.676,-0.513c0.148,-0.605 -0.37,-1.266 -1.005,-1.262Z" style="fill-rule:nonzero;"/><path d="M120.668,156.761c0,0.696 -0.564,1.262 -1.261,1.262c-0.696,0 -1.259,-0.566 -1.259,-1.262c0,-0.696 0.563,-1.26 1.259,-1.26c0.697,0 1.261,0.564 1.261,1.26Z"/><path d="M119.427,155.26c0.573,0.011 1.117,0.368 1.349,0.883c0.408,0.902 -0.329,2.121 -1.369,2.121c-0.658,0 -1.288,-0.483 -1.453,-1.128c-0.222,-0.864 0.458,-1.845 1.415,-1.875c0.019,-0.001 0.038,-0.001 0.058,-0.001Zm-0.033,0.482c-0.8,0.016 -1.344,1.162 -0.672,1.775c0.51,0.463 1.497,0.223 1.676,-0.513c0.147,-0.604 -0.367,-1.266 -1.004,-1.262Z" style="fill-rule:nonzero;"/><path d="M95.159,141.321c0,0.531 -0.429,0.959 -0.958,0.959c-0.53,0 -0.959,-0.428 -0.959,-0.959c0,-0.529 0.429,-0.957 0.959,-0.957c0.529,0 0.958,0.428 0.958,0.957Z"/><path d="M94.23,140.182c0.881,0.033 1.479,1.279 0.758,1.966c-0.587,0.56 -1.78,0.239 -1.916,-0.653c-0.096,-0.631 0.419,-1.288 1.1,-1.313c0.029,-0.001 0.029,-0.001 0.058,0Zm-0.049,0.366c-0.663,0.025 -1.088,1.125 -0.299,1.48c0.546,0.247 1.325,-0.362 1.025,-1.025c-0.125,-0.276 -0.417,-0.459 -0.726,-0.455Z" style="fill-rule:nonzero;"/><path d="M112.803,141.389c0,0.53 -0.429,0.959 -0.957,0.959c-0.529,0 -0.958,-0.429 -0.958,-0.959c0,-0.529 0.429,-0.959 0.958,-0.959c0.528,0 0.957,0.43 0.957,0.959Z"/><path d="M111.875,140.247c0.752,0.029 1.351,0.907 0.999,1.637c-0.402,0.836 -1.986,0.792 -2.156,-0.321c-0.096,-0.632 0.417,-1.29 1.098,-1.316c0.03,0 0.03,0 0.059,0Zm-0.049,0.367c-0.67,0.025 -1.086,1.149 -0.282,1.49c0.499,0.211 1.17,-0.259 1.064,-0.852c-0.065,-0.367 -0.365,-0.644 -0.782,-0.638Z" style="fill-rule:nonzero;"/><path d="M95.237,132.812c0,0.701 -0.568,1.269 -1.268,1.269c-0.699,0 -1.268,-0.568 -1.268,-1.269c0,-0.7 0.569,-1.267 1.268,-1.267c0.7,0 1.268,0.567 1.268,1.267Z"/><path d="M93.988,131.362c0.552,0.011 1.078,0.353 1.304,0.853c0.389,0.859 -0.297,2.023 -1.286,2.048c-0.668,0.017 -1.312,-0.485 -1.455,-1.141c-0.182,-0.834 0.495,-1.766 1.437,-1.76Zm-0.033,0.367c-0.84,0.015 -1.429,1.207 -0.734,1.869c0.527,0.502 1.573,0.281 1.792,-0.488c0.183,-0.646 -0.365,-1.386 -1.058,-1.381Z" style="fill-rule:nonzero;"/><path d="M113.229,132.812c0,0.701 -0.568,1.269 -1.267,1.269c-0.7,0 -1.268,-0.568 -1.268,-1.269c0,-0.699 0.568,-1.267 1.268,-1.267c0.699,0 1.267,0.568 1.267,1.267Z"/><path d="M111.981,131.362c0.552,0.011 1.077,0.354 1.303,0.854c0.392,0.865 -0.308,2.035 -1.303,2.048c-0.642,0.008 -1.262,-0.46 -1.424,-1.089c-0.215,-0.835 0.443,-1.783 1.368,-1.812c0.019,-0.001 0.037,-0.001 0.056,-0.001Zm-0.033,0.367c-0.844,0.016 -1.423,1.213 -0.734,1.869c0.529,0.505 1.585,0.274 1.795,-0.501c0.174,-0.644 -0.368,-1.373 -1.061,-1.368Z" style="fill-rule:nonzero;"/><path d="M104.031,137.892c0,0.531 -0.431,0.963 -0.963,0.963c-0.533,0 -0.965,-0.432 -0.965,-0.963c0,-0.533 0.432,-0.965 0.965,-0.965c0.532,0 0.963,0.432 0.963,0.965Z"/><path d="M103.096,136.789c0.849,0.032 1.433,1.232 0.732,1.901c-0.309,0.294 -0.796,0.384 -1.19,0.217c-0.868,-0.366 -0.863,-2.07 0.401,-2.118c0.029,-0.001 0.029,-0.001 0.057,0Zm-0.05,0.278c-0.517,0.02 -0.932,0.583 -0.761,1.089c0.226,0.665 1.464,0.732 1.597,-0.139c0.072,-0.471 -0.315,-0.957 -0.836,-0.95Z" style="fill-rule:nonzero;"/><path d="M94.062,121.786c0,0.532 -0.432,0.963 -0.964,0.963c-0.531,0 -0.963,-0.431 -0.963,-0.963c0,-0.533 0.432,-0.964 0.963,-0.964c0.532,0 0.964,0.431 0.964,0.964Z"/><path d="M93.126,120.683c0.847,0.032 1.44,1.228 0.733,1.901c-0.634,0.604 -2.012,0.092 -1.851,-0.966c0.078,-0.504 0.538,-0.915 1.062,-0.935c0.028,0 0.028,0 0.056,0Zm-0.049,0.279c-0.633,0.024 -1.072,0.921 -0.547,1.421c0.516,0.491 1.742,-0.062 1.312,-0.954c-0.14,-0.29 -0.403,-0.472 -0.765,-0.467Z" style="fill-rule:nonzero;"/><path d="M113.941,121.64c0,0.533 -0.432,0.964 -0.964,0.964c-0.532,0 -0.963,-0.431 -0.963,-0.964c0,-0.532 0.431,-0.963 0.963,-0.963c0.532,0 0.964,0.431 0.964,0.963Z"/><path d="M113.006,120.538c0.846,0.032 1.439,1.227 0.732,1.901c-0.64,0.609 -2.035,0.065 -1.846,-0.994c0.088,-0.494 0.544,-0.887 1.057,-0.907c0.028,0 0.028,0 0.057,0Zm-0.05,0.279c-0.631,0.024 -1.075,0.916 -0.547,1.42c0.481,0.46 1.54,0.036 1.376,-0.763c-0.078,-0.382 -0.394,-0.663 -0.829,-0.657Z" style="fill-rule:nonzero;"/><path d="M104.996,108.8c0,1.242 -1.006,2.248 -2.248,2.248c-1.243,0 -2.249,-1.006 -2.249,-2.248c0,-1.243 1.006,-2.249 2.249,-2.249c1.242,0 2.248,1.006 2.248,2.249Z"/><path d="M102.779,106.412c1.346,0.025 2.525,1.349 2.333,2.722c-0.157,1.125 -1.221,2.054 -2.364,2.054c-1.397,0 -2.633,-1.437 -2.34,-2.869c0.215,-1.052 1.205,-1.886 2.309,-1.907c0.031,0 0.031,0 0.062,0Zm-0.058,0.278c-1.386,0.026 -2.52,1.645 -1.886,3.001c0.452,0.969 1.712,1.47 2.71,1.062c1.084,-0.443 1.638,-1.89 1.057,-2.959c-0.356,-0.656 -1.069,-1.089 -1.827,-1.104c-0.027,0 -0.027,0 -0.054,0Z" style="fill-rule:nonzero;"/><path d="M67.645,127.8c-1.9,-0.779 -3.05,-2.612 -3.049,-4.546c0,-0.619 0.116,-1.251 0.366,-1.857c0.64,-1.561 2.146,-2.509 3.734,-2.508c0.51,0 1.029,0.097 1.529,0.303c1.289,0.527 2.071,1.77 2.07,3.084c0,0.421 -0.081,0.848 -0.249,1.263c-0.44,1.073 -1.475,1.722 -2.567,1.721c-0.352,0.001 -0.707,-0.065 -1.05,-0.205c-0.899,-0.37 -1.444,-1.237 -1.443,-2.153c-0.001,-0.291 0.056,-0.592 0.174,-0.878c0.311,-0.76 1.043,-1.223 1.819,-1.222c0.248,0 0.5,0.047 0.743,0.147c0.649,0.267 1.043,0.892 1.042,1.553c0,0.211 -0.04,0.427 -0.125,0.636c-0.231,0.56 -0.77,0.9 -1.339,0.899c-0.185,0 -0.371,-0.035 -0.549,-0.108c-0.249,-0.102 -0.449,-0.277 -0.585,-0.488c0.129,0.277 0.359,0.508 0.663,0.633c0.213,0.087 0.433,0.128 0.65,0.128c0.675,-0.001 1.316,-0.402 1.587,-1.064c0.114,-0.284 0.169,-0.575 0.17,-0.862c-0.001,-0.897 -0.532,-1.745 -1.413,-2.104c-0.371,-0.153 -0.75,-0.224 -1.127,-0.224c-1.171,0.001 -2.282,0.698 -2.754,1.851c-0.196,0.477 -0.288,0.968 -0.288,1.455c0.001,1.517 0.903,2.957 2.393,3.567c0.614,0.25 1.248,0.368 1.871,0.368c1.95,0 3.799,-1.158 4.581,-3.072c0.11,-0.272 0.419,-0.401 0.69,-0.29c0.271,0.111 0.401,0.42 0.291,0.691c-0.953,2.324 -3.195,3.731 -5.562,3.731c-0.757,0 -1.529,-0.145 -2.273,-0.449Zm1.11,-5.808c0.269,0.113 0.396,0.424 0.283,0.693c-0.008,0.022 -0.014,0.044 -0.014,0.074c0,0.079 0.049,0.157 0.128,0.189c0.048,0.02 0.099,0.03 0.148,0.03c0.151,-0.001 0.3,-0.092 0.358,-0.239c0.034,-0.081 0.048,-0.16 0.048,-0.237c-0.002,-0.244 -0.145,-0.475 -0.385,-0.573c-0.113,-0.046 -0.228,-0.069 -0.342,-0.069c-0.137,0.002 -0.273,0.032 -0.394,0.092c0.057,0.004 0.114,0.018 0.17,0.04Z" style="fill-rule:nonzero;"/><path d="M66.611,135.044c-0.328,0 -0.661,-0.051 -0.987,-0.159c-1.607,-0.53 -2.625,-2.02 -2.624,-3.625c0,-0.396 0.063,-0.796 0.192,-1.192c0.642,-1.95 2.455,-3.189 4.403,-3.188c0.481,0 0.971,0.077 1.452,0.234c0.278,0.094 0.429,0.392 0.336,0.67c-0.091,0.278 -0.391,0.428 -0.668,0.337c-0.373,-0.123 -0.748,-0.181 -1.12,-0.181c-1.501,0 -2.902,0.954 -3.396,2.461c-0.095,0.286 -0.14,0.576 -0.141,0.859c0.001,1.158 0.737,2.237 1.897,2.619c0.218,0.071 0.437,0.105 0.656,0.105c0.88,0 1.703,-0.56 1.994,-1.444c0.054,-0.162 0.078,-0.327 0.078,-0.492c0,-0.66 -0.419,-1.276 -1.081,-1.492c-0.11,-0.036 -0.219,-0.054 -0.328,-0.058c0.069,0.01 0.137,0.027 0.203,0.048c0.586,0.195 0.957,0.737 0.957,1.321c0,0.144 -0.021,0.292 -0.071,0.436c-0.223,0.675 -0.849,1.104 -1.526,1.104c-0.166,0 -0.335,-0.027 -0.501,-0.082c-0.789,-0.259 -1.29,-0.992 -1.289,-1.78c-0.001,-0.196 0.03,-0.393 0.093,-0.585c0.307,-0.932 1.171,-1.523 2.101,-1.522c0.23,-0.001 0.464,0.037 0.693,0.111c1.105,0.367 1.81,1.392 1.809,2.499c0.001,0.273 -0.043,0.551 -0.132,0.825c-0.439,1.327 -1.672,2.171 -2.998,2.171c-0.001,0 -0.002,0 -0.002,0Zm0.333,-3.388l-0.001,0.006c0.001,0.006 0.006,0.018 0.017,0.021c0.185,0.061 0.313,0.215 0.352,0.393c0.018,-0.033 0.034,-0.068 0.047,-0.104c0.009,-0.035 0.016,-0.07 0.016,-0.105c0,-0.138 -0.09,-0.27 -0.229,-0.314c-0.018,-0.005 -0.034,-0.007 -0.051,-0.008c-0.066,0.001 -0.128,0.043 -0.151,0.111Z" style="fill-rule:nonzero;"/><path d="M130.523,124.518l0.001,0c-0.112,-0.271 0.017,-0.581 0.289,-0.691c0.27,-0.11 0.579,0.018 0.69,0.289c0.783,1.916 2.631,3.073 4.58,3.074c0.624,-0.001 1.255,-0.119 1.872,-0.369c1.489,-0.61 2.39,-2.05 2.391,-3.567c-0.001,-0.486 -0.092,-0.978 -0.286,-1.456c-0.472,-1.152 -1.583,-1.849 -2.756,-1.85c-0.376,0 -0.756,0.072 -1.125,0.224c-0.88,0.359 -1.412,1.207 -1.413,2.105c0,0.286 0.053,0.576 0.17,0.86c0.271,0.663 0.911,1.064 1.587,1.065c0.214,-0.001 0.434,-0.041 0.648,-0.127c0.303,-0.125 0.532,-0.354 0.662,-0.63c-0.136,0.209 -0.335,0.382 -0.585,0.485c-0.177,0.072 -0.361,0.108 -0.546,0.107c-0.57,0.001 -1.11,-0.339 -1.339,-0.898c-0.088,-0.209 -0.127,-0.428 -0.127,-0.637c0,-0.662 0.394,-1.287 1.04,-1.553c0.244,-0.1 0.498,-0.147 0.746,-0.147c0.776,-0.001 1.508,0.462 1.822,1.224c0.115,0.285 0.171,0.582 0.171,0.876c0,0.916 -0.542,1.782 -1.445,2.154c-0.341,0.139 -0.697,0.205 -1.047,0.205c-1.092,0.001 -2.127,-0.649 -2.566,-1.72c-0.171,-0.414 -0.251,-0.844 -0.25,-1.264c-0.001,-1.315 0.781,-2.558 2.069,-3.085c0.498,-0.206 1.02,-0.303 1.528,-0.303c1.59,-0.001 3.096,0.947 3.736,2.508c0.247,0.608 0.365,1.238 0.365,1.857c0.002,1.934 -1.15,3.767 -3.051,4.546c-0.744,0.305 -1.514,0.449 -2.271,0.449c-2.367,0.001 -4.609,-1.407 -5.56,-3.731Zm6.157,-2.59c-0.239,0.099 -0.382,0.331 -0.384,0.574c0,0.079 0.014,0.154 0.046,0.235c0.062,0.149 0.208,0.24 0.36,0.24c0.048,0 0.098,-0.008 0.148,-0.028c0.079,-0.032 0.127,-0.111 0.128,-0.191c0,-0.027 -0.004,-0.052 -0.015,-0.079c-0.111,-0.271 0.019,-0.578 0.29,-0.689c0.054,-0.021 0.109,-0.034 0.165,-0.038c-0.123,-0.06 -0.258,-0.09 -0.396,-0.09c-0.114,0 -0.229,0.022 -0.342,0.066Z" style="fill-rule:nonzero;"/><path d="M136.392,132.874c-0.091,-0.274 -0.134,-0.552 -0.134,-0.826c0,-1.106 0.703,-2.133 1.81,-2.499c0.229,-0.074 0.461,-0.111 0.691,-0.111c0.93,0 1.795,0.59 2.103,1.522c0.063,0.195 0.093,0.392 0.093,0.585c0,0.79 -0.501,1.52 -1.289,1.781c-0.168,0.054 -0.337,0.081 -0.503,0.081c-0.676,0 -1.303,-0.429 -1.523,-1.101c-0.049,-0.143 -0.073,-0.292 -0.073,-0.439c-0.001,-0.583 0.371,-1.128 0.956,-1.32c0.068,-0.022 0.139,-0.039 0.21,-0.05c-0.11,0.003 -0.221,0.022 -0.333,0.059c-0.663,0.216 -1.082,0.832 -1.082,1.492c0,0.165 0.024,0.329 0.079,0.493c0.29,0.884 1.112,1.443 1.993,1.443c0.217,0 0.439,-0.033 0.656,-0.104c1.16,-0.383 1.894,-1.463 1.896,-2.62c-0.002,-0.284 -0.045,-0.575 -0.139,-0.859c-0.496,-1.507 -1.897,-2.461 -3.397,-2.461c-0.371,0 -0.747,0.058 -1.12,0.181l0.001,0c-0.277,0.091 -0.577,-0.058 -0.668,-0.337c-0.092,-0.279 0.058,-0.576 0.337,-0.67c0.48,-0.157 0.969,-0.234 1.45,-0.234c1.948,0 3.759,1.238 4.403,3.188c0.131,0.396 0.192,0.797 0.191,1.192c0.001,1.604 -1.018,3.095 -2.622,3.626c-0.327,0.108 -0.66,0.157 -0.988,0.157c-1.327,0.002 -2.562,-0.842 -2.998,-2.169Zm2.462,-1.32c-0.14,0.044 -0.227,0.175 -0.228,0.313c0,0.033 0.005,0.067 0.019,0.105c0.011,0.036 0.027,0.071 0.046,0.103c0.037,-0.177 0.165,-0.331 0.35,-0.391c0.009,-0.002 0.016,-0.017 0.016,-0.023c0,0 -0.002,-0.007 0,-0.005c-0.023,-0.069 -0.087,-0.11 -0.152,-0.111c-0.016,0 -0.03,0.002 -0.051,0.009Z" style="fill-rule:nonzero;"/><path d="M105.864,182.309l-6.037,-0.001l3.021,-13.623l3.016,13.624Z" style="fill-rule:nonzero;"/><path d="M102.856,168.632c0.021,0.006 0.036,0.02 0.045,0.041l3.015,13.624c0.002,0.037 -0.014,0.059 -0.052,0.065l-6.037,-0.001c-0.037,-0.006 -0.055,-0.027 -0.052,-0.065l3.021,-13.623c0.009,-0.023 0.024,-0.041 0.06,-0.041Zm-2.963,13.622l5.904,0.001l-2.949,-13.324c-0.985,4.441 -1.97,8.882 -2.955,13.323Z" style="fill-rule:nonzero;"/><path d="M104.51,155.313l-3.019,-0.001l1.512,-6.812l1.507,6.813Z" style="fill-rule:nonzero;"/><path d="M103.007,148.474c0.011,0.003 0.018,0.01 0.022,0.021l1.507,6.812c0.001,0.019 -0.007,0.03 -0.026,0.032l-3.019,-0.001c-0.018,-0.002 -0.027,-0.013 -0.026,-0.032l1.512,-6.812c0.005,-0.012 0.014,-0.02 0.03,-0.02Zm-1.482,6.811l2.952,0.001l-1.474,-6.662c-0.493,2.22 -0.986,4.441 -1.478,6.661Z" style="fill-rule:nonzero;"/><path d="M80.718,116.752l1.621,-2.546l4.934,4.933l-6.555,-2.387Z" style="fill-rule:nonzero;"/><path d="M82.344,114.179c0.007,0.003 0.007,0.003 0.014,0.008l4.934,4.933c0.022,0.03 0.005,0.05 -0.028,0.044l-6.555,-2.387c-0.017,-0.009 -0.021,-0.022 -0.014,-0.04l1.621,-2.546c0.008,-0.009 0.016,-0.012 0.028,-0.012Zm-1.586,2.559l6.411,2.334l-4.825,-4.824c-0.529,0.83 -1.057,1.66 -1.586,2.49Z" style="fill-rule:nonzero;"/><path d="M125.261,116.693l-1.621,-2.546l-4.935,4.932l6.556,-2.386Z" style="fill-rule:nonzero;"/><path d="M123.65,114.123c0.007,0.004 0.007,0.004 0.012,0.01l1.621,2.546c0.008,0.017 0.004,0.03 -0.013,0.039l-6.556,2.386c-0.037,0.008 -0.048,-0.016 -0.028,-0.044l4.935,-4.932c0.01,-0.007 0.018,-0.008 0.029,-0.005Zm-4.841,4.89l6.412,-2.333l-1.586,-2.49c-1.609,1.607 -3.217,3.215 -4.826,4.823Z" style="fill-rule:nonzero;"/><path d="M84.33,123.529l1.621,-2.546l4.935,4.932l-6.556,-2.386Z" style="fill-rule:nonzero;"/><path d="M85.956,120.957c0.007,0.003 0.007,0.003 0.014,0.007l4.935,4.932c0.022,0.031 0.005,0.051 -0.028,0.044l-6.556,-2.386c-0.017,-0.009 -0.022,-0.022 -0.014,-0.039l1.621,-2.546c0.008,-0.009 0.016,-0.012 0.028,-0.012Zm-1.586,2.558l6.412,2.334l-4.827,-4.823c-0.528,0.83 -1.057,1.659 -1.585,2.489Z" style="fill-rule:nonzero;"/><path d="M121.746,123.529l-1.623,-2.546l-4.934,4.932l6.557,-2.386Z" style="fill-rule:nonzero;"/><path d="M120.134,120.959c0.007,0.004 0.007,0.004 0.012,0.01l1.622,2.546c0.008,0.017 0.004,0.03 -0.013,0.039l-6.556,2.386c-0.038,0.008 -0.049,-0.016 -0.028,-0.044l4.934,-4.932c0.009,-0.007 0.018,-0.008 0.029,-0.005Zm-4.841,4.89l6.412,-2.334l-1.586,-2.489c-1.609,1.607 -3.217,3.215 -4.826,4.823Z" style="fill-rule:nonzero;"/><path d="M106.723,149.099l2.709,-1.327l-4.35,-5.455l1.641,6.782Z" style="fill-rule:nonzero;"/><path d="M105.09,142.292c0.007,0.003 0.007,0.003 0.013,0.008l4.35,5.456c0.009,0.016 0.007,0.029 -0.009,0.04l-2.709,1.327c-0.018,0.005 -0.031,0 -0.038,-0.018l-1.641,-6.782c-0.002,-0.021 0.01,-0.035 0.034,-0.031Zm1.651,6.768l2.65,-1.297l-4.255,-5.335c0.535,2.211 1.07,4.422 1.605,6.632Z" style="fill-rule:nonzero;"/><path d="M99.415,149.12l-2.709,-1.326l4.349,-5.457l-1.64,6.783Z" style="fill-rule:nonzero;"/><path d="M101.063,142.312c0.012,0.006 0.019,0.015 0.018,0.031l-1.64,6.783c-0.007,0.018 -0.02,0.024 -0.038,0.018l-2.709,-1.326c-0.016,-0.011 -0.019,-0.024 -0.009,-0.041l4.349,-5.456c0.004,-0.004 0.006,-0.013 0.029,-0.009Zm-4.316,5.472l2.65,1.298l1.604,-6.634c-1.418,1.779 -2.836,3.557 -4.254,5.336Z" style="fill-rule:nonzero;"/><path d="M86.97,147.883l1.523,2.606l-6.641,2.135l5.118,-4.741Z" style="fill-rule:nonzero;"/><path d="M86.981,147.859c0.007,0.004 0.007,0.004 0.012,0.01l1.523,2.606c0.007,0.018 0.003,0.031 -0.014,0.039l-6.642,2.135c-0.038,0.006 -0.048,-0.018 -0.027,-0.045l5.119,-4.741c0.01,-0.007 0.018,-0.008 0.029,-0.004Zm-5.023,4.703l6.496,-2.088l-1.49,-2.549c-1.669,1.545 -3.338,3.091 -5.006,4.637Z" style="fill-rule:nonzero;"/><path d="M119.204,148.017l-1.523,2.606l6.642,2.135l-5.119,-4.741Z" style="fill-rule:nonzero;"/><path d="M119.208,147.991c0.007,0.002 0.007,0.002 0.014,0.007l5.119,4.741c0.024,0.03 0.008,0.05 -0.026,0.045l-6.642,-2.135c-0.017,-0.008 -0.022,-0.021 -0.015,-0.039l1.523,-2.606c0.007,-0.01 0.015,-0.013 0.027,-0.013Zm-1.487,2.617l6.496,2.088l-5.007,-4.637c-0.496,0.85 -0.993,1.7 -1.489,2.549Z" style="fill-rule:nonzero;"/><rect x="101.095" y="163.477" width="3.854" height="3.853" style="fill-rule:nonzero;"/><path d="M104.953,163.465c0.006,0.003 0.008,0.006 0.009,0.012l0,3.854c-0.001,0.007 -0.005,0.011 -0.013,0.013l-3.854,0c-0.008,-0.002 -0.012,-0.006 -0.013,-0.013l0,-3.854c0.001,-0.008 0.005,-0.011 0.013,-0.013c1.286,0 2.588,-0.2 3.858,0.001Zm-3.845,0.025l0,3.828l3.829,0l0,-3.828c-1.277,0 -2.553,0 -3.829,0Z" style="fill-rule:nonzero;"/><path d="M103.599,89.274c0,0.399 -0.325,0.723 -0.723,0.723c-0.399,0 -0.724,-0.324 -0.724,-0.723c0,-0.399 0.325,-0.722 0.724,-0.722c0.398,0 0.723,0.323 0.723,0.722Z"/><path d="M102.897,88.448c0.492,0.019 0.898,0.523 0.785,1.013c-0.103,0.443 -0.609,0.741 -1.052,0.603c-0.706,-0.219 -0.798,-1.63 0.267,-1.616Zm-0.037,0.209c-0.372,0.014 -0.679,0.401 -0.584,0.771c0.088,0.34 0.498,0.552 0.826,0.422c0.506,-0.2 0.467,-1.202 -0.242,-1.193Z" style="fill-rule:nonzero;"/><path d="M86.905,145.381l-0.394,-1.211l1.03,-0.749l1.031,0.749l-0.393,1.211l-1.274,0Z"/><path d="M87.544,143.408l0.002,0.001c0.37,0.213 0.719,0.467 1.036,0.752c0.003,0.005 0.003,0.005 0.003,0.011c-0.089,0.416 -0.222,0.826 -0.395,1.216c-0.003,0.004 -0.003,0.004 -0.008,0.006c-0.424,0.044 -0.855,0.044 -1.279,0c-0.006,-0.002 -0.006,-0.002 -0.009,-0.006c-0.174,-0.39 -0.307,-0.8 -0.396,-1.216c0,-0.006 0,-0.006 0.003,-0.011c0.317,-0.285 0.666,-0.539 1.035,-0.752c0.003,-0.001 0.005,-0.001 0.008,-0.001Zm-1.018,0.767l0.389,1.193l1.254,0l0.388,-1.193l-1.016,-0.738c-0.338,0.246 -0.676,0.492 -1.015,0.738Z" style="fill-rule:nonzero;"/><path d="M83.808,146.096l-0.394,-1.212l1.03,-0.749l1.031,0.749l-0.393,1.212l-1.274,0Z"/><path d="M84.447,144.122l0.002,0.001c0.37,0.214 0.719,0.467 1.036,0.752c0.003,0.005 0.003,0.005 0.003,0.011c-0.089,0.417 -0.222,0.827 -0.395,1.217c-0.003,0.004 -0.003,0.004 -0.008,0.006c-0.424,0.045 -0.855,0.045 -1.279,0c-0.006,-0.002 -0.006,-0.002 -0.009,-0.006c-0.174,-0.39 -0.307,-0.8 -0.396,-1.217c0,-0.006 0,-0.006 0.004,-0.011c0.316,-0.285 0.665,-0.538 1.034,-0.752c0.003,-0.001 0.005,-0.001 0.008,-0.001Zm-1.017,0.767l0.388,1.194l1.254,0l0.388,-1.194l-1.016,-0.738c-0.338,0.246 -0.676,0.492 -1.014,0.738Z" style="fill-rule:nonzero;"/><path d="M80.879,147.621l-0.394,-1.212l1.031,-0.749l1.031,0.749l-0.395,1.212l-1.273,0Z"/><path d="M81.518,145.647l0.003,0.001c0.369,0.213 0.718,0.467 1.035,0.752c0.003,0.005 0.004,0.005 0.004,0.01c-0.089,0.418 -0.223,0.828 -0.396,1.217c-0.004,0.005 -0.004,0.005 -0.009,0.007c-0.424,0.044 -0.855,0.044 -1.279,0c-0.005,-0.002 -0.005,-0.002 -0.008,-0.007c-0.174,-0.389 -0.307,-0.799 -0.396,-1.217c0,-0.005 0,-0.005 0.003,-0.01c0.317,-0.285 0.666,-0.539 1.035,-0.752c0.003,-0.001 0.005,-0.001 0.008,-0.001Zm-1.018,0.767l0.388,1.194l1.255,0l0.388,-1.194l-1.015,-0.738c-0.339,0.246 -0.677,0.492 -1.016,0.738Z" style="fill-rule:nonzero;"/><path d="M118.83,145.209l0.394,-1.211l-1.031,-0.749l-1.031,0.749l0.393,1.211l1.275,0Z"/><path d="M118.196,143.237l0.002,0.001c0.37,0.213 0.719,0.466 1.036,0.752c0.003,0.004 0.003,0.004 0.003,0.01c-0.089,0.417 -0.222,0.827 -0.396,1.216c-0.003,0.005 -0.003,0.005 -0.008,0.006c-0.425,0.045 -0.856,0.045 -1.28,0c-0.006,-0.001 -0.006,-0.002 -0.009,-0.006c-0.173,-0.389 -0.306,-0.799 -0.395,-1.216c0,-0.006 0,-0.006 0.003,-0.01c0.317,-0.286 0.666,-0.539 1.036,-0.752c0.003,-0.001 0.005,-0.002 0.008,-0.001Zm-1.018,0.766l0.387,1.193l1.255,0l0.389,-1.193l-1.016,-0.737c-0.338,0.246 -0.677,0.491 -1.015,0.737Z" style="fill-rule:nonzero;"/><path d="M121.926,145.925l0.395,-1.212l-1.031,-0.749l-1.031,0.749l0.393,1.212l1.274,0Z"/><path d="M121.293,143.951l0.002,0.001c0.37,0.213 0.719,0.466 1.036,0.752c0.003,0.004 0.003,0.004 0.003,0.01c-0.089,0.417 -0.223,0.827 -0.397,1.217c-0.003,0.005 -0.003,0.005 -0.009,0.006c-0.424,0.045 -0.855,0.045 -1.279,0c-0.005,-0.001 -0.005,-0.001 -0.008,-0.006c-0.173,-0.39 -0.306,-0.8 -0.395,-1.217c0,-0.006 0,-0.006 0.003,-0.01c0.317,-0.286 0.666,-0.539 1.036,-0.752c0.003,-0.001 0.005,-0.002 0.008,-0.001Zm-1.019,0.767l0.388,1.194l1.254,0l0.39,-1.194l-1.016,-0.738c-0.339,0.246 -0.677,0.492 -1.016,0.738Z" style="fill-rule:nonzero;"/><path d="M124.855,147.447l0.394,-1.211l-1.03,-0.749l-1.03,0.749l0.393,1.211l1.273,0Z"/><path d="M124.222,145.474l0.003,0.001c0.369,0.213 0.717,0.467 1.034,0.752c0.003,0.005 0.003,0.005 0.003,0.01c-0.089,0.417 -0.222,0.827 -0.396,1.217c-0.003,0.004 -0.003,0.004 -0.008,0.006c-0.424,0.044 -0.855,0.044 -1.279,0c-0.005,-0.002 -0.005,-0.002 -0.009,-0.006c-0.173,-0.39 -0.306,-0.8 -0.394,-1.217c0,-0.005 0,-0.005 0.003,-0.01c0.317,-0.285 0.666,-0.539 1.035,-0.752c0.003,-0.001 0.005,-0.001 0.008,-0.001Zm-1.018,0.767l0.387,1.193l1.255,0l0.388,-1.193l-1.015,-0.738c-0.338,0.246 -0.677,0.492 -1.015,0.738Z" style="fill-rule:nonzero;"/><path d="M99.695,90.674c0,0.4 -0.324,0.723 -0.723,0.723c-0.399,0 -0.722,-0.323 -0.722,-0.723c0,-0.398 0.323,-0.722 0.722,-0.722c0.399,0 0.723,0.324 0.723,0.722Z"/><path d="M98.993,89.848c0.63,0.024 1.078,0.898 0.564,1.411c-0.465,0.464 -1.505,0.098 -1.405,-0.69c0.051,-0.399 0.423,-0.727 0.841,-0.721Zm-0.037,0.208c-0.531,0.021 -0.854,0.903 -0.238,1.182c0.394,0.178 0.939,-0.183 0.866,-0.658c-0.045,-0.294 -0.319,-0.527 -0.628,-0.524Z" style="fill-rule:nonzero;"/><path d="M107.547,90.651c0,0.399 -0.324,0.724 -0.721,0.724c-0.4,0 -0.724,-0.325 -0.724,-0.724c0,-0.398 0.324,-0.723 0.724,-0.723c0.397,0 0.721,0.325 0.721,0.723Z"/><path d="M106.847,89.824c0.631,0.024 1.078,0.92 0.548,1.426c-0.513,0.491 -1.736,-0.03 -1.324,-0.939c0.134,-0.295 0.443,-0.491 0.776,-0.487Zm-0.037,0.209c-0.529,0.02 -0.863,0.9 -0.239,1.183c0.391,0.176 0.927,-0.174 0.867,-0.644c-0.038,-0.3 -0.316,-0.543 -0.628,-0.539Z" style="fill-rule:nonzero;"/><path d="M70.749,126.979c0,0.399 -0.324,0.722 -0.724,0.722c-0.398,0 -0.722,-0.323 -0.722,-0.722c0,-0.4 0.324,-0.724 0.722,-0.724c0.4,0 0.724,0.324 0.724,0.724Z"/><path d="M70.047,126.151c0.638,0.024 1.076,0.926 0.55,1.427c-0.481,0.457 -1.527,0.049 -1.386,-0.746c0.07,-0.388 0.392,-0.687 0.836,-0.681Zm-0.037,0.209c-0.532,0.02 -0.856,0.904 -0.239,1.183c0.391,0.176 0.929,-0.172 0.869,-0.643c-0.039,-0.302 -0.317,-0.544 -0.63,-0.54Z" style="fill-rule:nonzero;"/><path d="M136.988,126.88c0,0.4 -0.324,0.724 -0.722,0.724c-0.4,0 -0.724,-0.324 -0.724,-0.724c0,-0.398 0.324,-0.721 0.724,-0.721c0.398,0 0.722,0.323 0.722,0.721Z"/><path d="M136.287,126.055c0.579,0.022 1.014,0.742 0.675,1.272c-0.239,0.374 -0.801,0.495 -1.175,0.228c-0.551,-0.391 -0.352,-1.511 0.5,-1.5Zm-0.037,0.208c-0.371,0.015 -0.68,0.4 -0.584,0.772c0.088,0.34 0.498,0.551 0.826,0.422c0.506,-0.2 0.467,-1.202 -0.242,-1.194Z" style="fill-rule:nonzero;"/><path d="M90.331,188.757c0,0.399 -0.325,0.722 -0.723,0.722c-0.399,0 -0.724,-0.323 -0.724,-0.722c0,-0.399 0.325,-0.723 0.724,-0.723c0.398,0 0.723,0.324 0.723,0.723Z"/><path d="M89.629,187.93c0.639,0.024 1.072,0.928 0.549,1.425c-0.479,0.457 -1.527,0.049 -1.385,-0.744c0.07,-0.389 0.391,-0.687 0.836,-0.681Zm-0.037,0.209c-0.529,0.02 -0.863,0.9 -0.239,1.181c0.394,0.178 0.939,-0.183 0.866,-0.657c-0.045,-0.295 -0.319,-0.528 -0.627,-0.524Z" style="fill-rule:nonzero;"/><path d="M117.361,188.767c0,0.4 -0.324,0.724 -0.723,0.724c-0.399,0 -0.722,-0.324 -0.722,-0.724c0,-0.398 0.323,-0.722 0.722,-0.722c0.399,0 0.723,0.324 0.723,0.722Z"/><path d="M116.659,187.941c0.631,0.023 1.081,0.92 0.55,1.426c-0.48,0.457 -1.526,0.048 -1.384,-0.746c0.069,-0.388 0.39,-0.686 0.834,-0.68Zm-0.037,0.208c-0.531,0.021 -0.855,0.903 -0.238,1.183c0.477,0.216 1.152,-0.423 0.741,-0.946c-0.118,-0.15 -0.306,-0.239 -0.503,-0.237Z" style="fill-rule:nonzero;"/><path d="M97.058,184.825l1.503,-2.601l1.501,2.601l-3.004,0Z"/><path d="M98.563,182.203c0.006,0.001 0.009,0.003 0.013,0.007c0.599,0.804 1.003,1.736 1.504,2.604c0.005,0.012 0.007,0.024 -0.013,0.031c-0.996,0.117 -2.006,0.001 -3.009,0.001c-0.021,-0.003 -0.022,-0.015 -0.02,-0.027c0.398,-0.921 1.003,-1.737 1.505,-2.606c0.005,-0.006 0.005,-0.01 0.02,-0.01Zm-1.468,2.601l2.931,0l-1.465,-2.538c-0.489,0.846 -0.978,1.692 -1.466,2.538Z" style="fill-rule:nonzero;"/><path d="M105.906,184.802l1.501,-2.601l1.503,2.601l-3.004,0Z"/><path d="M107.415,182.181c0.004,0.002 0.004,0.002 0.008,0.005c0.599,0.804 1.003,1.737 1.505,2.605c0.008,0.02 -0.002,0.027 -0.013,0.031c-0.996,0.116 -2.006,0 -3.009,0c-0.021,-0.002 -0.022,-0.014 -0.02,-0.026c0.397,-0.921 1.002,-1.738 1.503,-2.606c0.006,-0.008 0.008,-0.013 0.026,-0.009Zm-1.473,2.6l2.932,0l-1.467,-2.539c-0.488,0.846 -0.976,1.693 -1.465,2.539Z" style="fill-rule:nonzero;"/><path d="M97.209,106.098l1.501,2.601l1.502,-2.601l-3.003,0Z"/><path d="M100.217,106.078c0.012,0.005 0.018,0.014 0.015,0.026c-0.397,0.921 -1.002,1.738 -1.504,2.606c-0.013,0.017 -0.023,0.012 -0.033,0.004c-0.599,-0.805 -1.003,-1.737 -1.504,-2.605c-0.009,-0.02 0.001,-0.027 0.013,-0.031c0.998,-0.117 2.016,-0.117 3.013,0Zm-2.972,0.041l1.465,2.539l1.466,-2.539c-0.977,0 -1.954,0 -2.931,0Z" style="fill-rule:nonzero;"/><path d="M105.398,106.226l1.503,2.601l1.501,-2.601l-3.004,0Z"/><path d="M108.407,106.205c0.012,0.005 0.018,0.014 0.015,0.027c-0.397,0.92 -1.002,1.737 -1.503,2.605c-0.007,0.01 -0.017,0.018 -0.033,0.004c-0.599,-0.804 -1.005,-1.737 -1.506,-2.605c-0.005,-0.012 -0.008,-0.023 0.013,-0.031c0.998,-0.116 2.016,-0.116 3.014,0Zm-2.973,0.041l1.467,2.539l1.465,-2.539c-0.977,0 -1.955,0 -2.932,0Z" style="fill-rule:nonzero;"/><path d="M115.849,127.315l-1.886,0.535l2.153,3.991l-0.267,-4.526Z" style="fill-rule:nonzero;"/><path d="M115.855,127.298c0.007,0.004 0.01,0.008 0.012,0.016l0.267,4.526c-0.002,0.024 -0.019,0.027 -0.033,0.009l-2.154,-3.991c-0.005,-0.015 0.002,-0.021 0.011,-0.025l1.887,-0.535c0.005,-0.001 0.005,-0.001 0.01,0Zm-1.867,0.562l2.107,3.904l-0.262,-4.427c-0.615,0.175 -1.23,0.349 -1.845,0.523Z" style="fill-rule:nonzero;"/><path d="M117.928,132.66l0.286,1.941l4.238,-1.615l-4.524,-0.326Z" style="fill-rule:nonzero;"/><path d="M122.453,132.969c0.025,0.005 0.025,0.022 0.005,0.033l-4.238,1.615c-0.009,0.002 -0.018,0.001 -0.023,-0.014l-0.286,-1.941c0,-0.01 0.003,-0.018 0.018,-0.019c1.508,0.108 3.016,0.217 4.524,0.326Zm-4.225,1.608l4.145,-1.579l-4.424,-0.319c0.093,0.632 0.186,1.265 0.279,1.898Z" style="fill-rule:nonzero;"/><path d="M89.953,127.315l1.887,0.535l-2.154,3.991l0.267,-4.526Z" style="fill-rule:nonzero;"/><path d="M89.958,127.298c0,0 1.892,0.537 1.892,0.537c0.007,0.007 0.009,0.013 0.006,0.023l-2.154,3.991c-0.015,0.02 -0.031,0.013 -0.033,-0.009l0.267,-4.526c0.002,-0.011 0.003,-0.018 0.022,-0.016Zm-0.25,4.466l2.107,-3.904l-1.846,-0.523c-0.087,1.476 -0.174,2.951 -0.261,4.427Z" style="fill-rule:nonzero;"/><path d="M87.672,132.66l-0.285,1.941l-4.237,-1.615l4.522,-0.326Z" style="fill-rule:nonzero;"/><path d="M87.676,132.643c0.01,0.004 0.013,0.009 0.013,0.019l-0.285,1.941c-0.002,0.01 -0.008,0.017 -0.023,0.014l-4.237,-1.615c-0.021,-0.012 -0.016,-0.028 0.005,-0.033c1.509,-0.109 3.019,-0.442 4.527,-0.326Zm-4.446,0.355l4.143,1.579l0.279,-1.898c-1.474,0.106 -2.948,0.212 -4.422,0.319Z" style="fill-rule:nonzero;"/><path d="M91.242,116.649l0.285,1.941l4.238,-1.615l-4.523,-0.326Z" style="fill-rule:nonzero;"/><path d="M95.766,116.958c0.024,0.005 0.024,0.022 0.005,0.033l-4.238,1.615c-0.01,0.002 -0.019,0.001 -0.023,-0.014l-0.285,-1.941c0,-0.01 0.002,-0.018 0.018,-0.019c1.508,0.108 3.015,0.217 4.523,0.326Zm-4.225,1.608l4.144,-1.579l-4.423,-0.319c0.093,0.632 0.186,1.265 0.279,1.898Z" style="fill-rule:nonzero;"/><path d="M84.355,160.039l0.285,1.94l4.238,-1.615l-4.523,-0.325Z" style="fill-rule:nonzero;"/><path d="M88.879,160.347c0.024,0.006 0.025,0.023 0.005,0.034l-4.238,1.614c-0.01,0.002 -0.019,0.002 -0.023,-0.013l-0.285,-1.94c0,-0.01 0.003,-0.019 0.018,-0.02c1.508,0.108 3.016,0.217 4.523,0.325Zm-4.225,1.608l4.145,-1.579l-4.424,-0.318c0.093,0.632 0.186,1.265 0.279,1.897Z" style="fill-rule:nonzero;"/><path d="M82.104,154.864l-1.887,0.536l2.154,3.992l-0.267,-4.528Z" style="fill-rule:nonzero;"/><path d="M82.109,154.847c0.007,0.004 0.01,0.008 0.012,0.016l0.267,4.528c-0.002,0.024 -0.019,0.027 -0.033,0.009l-2.154,-3.992c-0.003,-0.01 -0.003,-0.019 0.011,-0.025l1.887,-0.536c0.005,-0.001 0.005,-0.001 0.01,0Zm-1.867,0.563l2.107,3.905l-0.261,-4.429c-0.616,0.175 -1.231,0.35 -1.846,0.524Z" style="fill-rule:nonzero;"/><path d="M123.871,154.175l1.887,0.536l-2.155,3.992l0.268,-4.528Z" style="fill-rule:nonzero;"/><path d="M123.876,154.158c0,0 1.891,0.538 1.891,0.538c0.008,0.007 0.01,0.014 0.006,0.023l-2.155,3.992c-0.015,0.02 -0.03,0.013 -0.032,-0.009l0.268,-4.528c0.002,-0.011 0.002,-0.018 0.022,-0.016Zm-0.251,4.468l2.107,-3.904l-1.845,-0.525c-0.087,1.477 -0.175,2.953 -0.262,4.429Z" style="fill-rule:nonzero;"/><path d="M122.278,160.211l-0.283,1.941l-4.238,-1.615l4.521,-0.326Z" style="fill-rule:nonzero;"/><path d="M122.282,160.194c0.01,0.004 0.014,0.009 0.014,0.019l-0.284,1.941c-0.005,0.015 -0.014,0.016 -0.024,0.014l-4.238,-1.615c-0.021,-0.012 -0.016,-0.028 0.005,-0.033c1.509,-0.109 3.019,-0.442 4.527,-0.326Zm-4.446,0.355l4.145,1.579l0.277,-1.898c-1.474,0.106 -2.948,0.212 -4.422,0.319Z" style="fill-rule:nonzero;"/><path d="M114.36,116.649l-0.286,1.941l-4.237,-1.615l4.523,-0.326Z" style="fill-rule:nonzero;"/><path d="M114.364,116.632c0.009,0.004 0.013,0.009 0.013,0.019l-0.286,1.941c-0.003,0.01 -0.008,0.017 -0.023,0.014l-4.237,-1.615c-0.022,-0.012 -0.017,-0.028 0.005,-0.033c1.509,-0.109 3.019,-0.443 4.528,-0.326Zm-4.448,0.355l4.144,1.579l0.28,-1.898c-1.475,0.106 -2.949,0.212 -4.424,0.319Z" style="fill-rule:nonzero;"/><path d="M99.082,140.987l1.66,-1.046l-3.19,-3.223l1.53,4.269Z" style="fill-rule:nonzero;"/><path d="M97.555,136.701c0.005,0.001 0.005,0.001 0.009,0.004l3.191,3.223c0.005,0.009 0.008,0.017 -0.004,0.027l-1.66,1.047c-0.014,0.006 -0.021,0 -0.025,-0.009l-1.53,-4.27c-0.003,-0.013 -0.003,-0.023 0.019,-0.022Zm1.536,4.26l1.624,-1.023l-3.12,-3.153c0.499,1.392 0.997,2.784 1.496,4.176Z" style="fill-rule:nonzero;"/><path d="M107.133,141.136l-1.661,-1.046l3.191,-3.223l-1.53,4.269Z" style="fill-rule:nonzero;"/><path d="M108.67,136.851c0.009,0.006 0.011,0.012 0.009,0.022l-1.53,4.269c-0.004,0.008 -0.011,0.015 -0.025,0.008l-1.661,-1.045c-0.012,-0.01 -0.009,-0.019 -0.004,-0.027l3.192,-3.223c0.008,-0.006 0.009,-0.006 0.019,-0.004Zm-3.171,3.236l1.625,1.023l1.496,-4.175c-1.04,1.051 -2.08,2.101 -3.121,3.152Z" style="fill-rule:nonzero;"/><path d="M96.34,152.66c0,1.242 -1.006,2.248 -2.248,2.248c-1.243,0 -2.249,-1.006 -2.249,-2.248c0,-1.243 1.006,-2.251 2.249,-2.251c1.242,0 2.248,1.008 2.248,2.251Z"/><path d="M94.123,150.27c1.345,0.026 2.526,1.346 2.333,2.724c-0.157,1.124 -1.221,2.053 -2.364,2.053c-1.378,0 -2.604,-1.394 -2.351,-2.81c0.191,-1.075 1.182,-1.945 2.32,-1.967c0.031,0 0.031,0 0.062,0Zm-0.059,0.279c-1.387,0.026 -2.514,1.656 -1.885,3.002c0.452,0.969 1.712,1.47 2.71,1.062c1.094,-0.447 1.641,-1.914 1.045,-2.982c-0.36,-0.645 -1.069,-1.068 -1.815,-1.082c-0.027,0 -0.027,0 -0.055,0Z" style="fill-rule:nonzero;"/><path d="M113.706,152.815c0,1.241 -1.007,2.248 -2.248,2.248c-1.243,0 -2.249,-1.007 -2.249,-2.248c0,-1.244 1.006,-2.251 2.249,-2.251c1.241,0 2.248,1.007 2.248,2.251Z"/><path d="M111.489,150.425c1.343,0.026 2.526,1.344 2.333,2.723c-0.157,1.125 -1.221,2.054 -2.364,2.054c-1.387,0 -2.619,-1.411 -2.346,-2.84c0.203,-1.062 1.189,-1.916 2.315,-1.937c0.031,0 0.031,0 0.062,0Zm-0.058,0.279c-1.391,0.026 -2.515,1.655 -1.886,3.002c0.452,0.968 1.712,1.469 2.71,1.062c1.083,-0.443 1.639,-1.889 1.057,-2.96c-0.356,-0.657 -1.07,-1.09 -1.827,-1.104c-0.027,-0.001 -0.027,-0.001 -0.054,0Z" style="fill-rule:nonzero;"/><path d="M87.137,138.345c0,0.699 -0.569,1.267 -1.269,1.267c-0.699,0 -1.267,-0.568 -1.267,-1.267c0,-0.7 0.568,-1.269 1.267,-1.269c0.7,0 1.269,0.569 1.269,1.269Z"/><path d="M85.887,136.893c0.552,0.01 1.078,0.354 1.305,0.854c0.395,0.873 -0.327,2.048 -1.324,2.048c-0.648,0 -1.276,-0.491 -1.417,-1.14c-0.18,-0.826 0.48,-1.733 1.38,-1.762c0.018,0 0.037,0 0.056,0Zm-0.033,0.366c-0.843,0.016 -1.421,1.215 -0.734,1.871c0.529,0.504 1.585,0.28 1.796,-0.501c0.175,-0.644 -0.369,-1.374 -1.062,-1.37Z" style="fill-rule:nonzero;"/><path d="M122.007,138.345c0,0.699 -0.569,1.267 -1.269,1.267c-0.699,0 -1.267,-0.568 -1.267,-1.267c0,-0.7 0.568,-1.269 1.267,-1.269c0.7,0 1.269,0.569 1.269,1.269Z"/><path d="M120.757,136.893c0.553,0.01 1.078,0.354 1.305,0.854c0.394,0.873 -0.327,2.048 -1.324,2.048c-0.654,0 -1.286,-0.501 -1.421,-1.158c-0.168,-0.821 0.484,-1.715 1.384,-1.744c0.018,0 0.037,0 0.056,0Zm-0.033,0.366c-0.842,0.016 -1.422,1.215 -0.734,1.871c0.532,0.507 1.597,0.273 1.8,-0.514c0.165,-0.641 -0.373,-1.361 -1.066,-1.357Z" style="fill-rule:nonzero;"/></g><path d="M22.889,43.8c-0.045,0.03 -0.078,0.047 -0.13,0.08c-3.395,2.169 -7.354,6.396 -7.76,11.665c-0.193,2.507 1.41,4.243 3.482,4.281c1.324,0.024 2.388,-0.447 2.964,-1.344c0.479,-0.746 0.601,-1.899 0.679,-1.366c0.279,2.029 -0.571,3.979 -1.03,5.684c0.513,-0.187 1.156,-0.28 1.802,-0.283l0.011,0c0.644,0.003 1.287,0.096 1.799,0.283c-0.459,-1.705 -1.307,-3.655 -1.029,-5.684c0.078,-0.533 0.2,0.62 0.678,1.366c0.575,0.897 1.641,1.368 2.963,1.344c2.073,-0.038 3.676,-1.774 3.483,-4.281c-0.407,-5.269 -4.366,-9.496 -7.756,-11.665c-0.037,-0.026 -0.071,-0.043 -0.123,-0.08l-0.033,0Z"/><path d="M182.989,236.2c-0.045,-0.03 -0.078,-0.047 -0.13,-0.08c-3.395,-2.169 -7.354,-6.396 -7.76,-11.665c-0.193,-2.507 1.41,-4.243 3.482,-4.281c1.324,-0.024 2.388,0.447 2.964,1.344c0.479,0.746 0.601,1.899 0.679,1.366c0.279,-2.029 -0.571,-3.979 -1.03,-5.684c0.513,0.187 1.156,0.28 1.802,0.283l0.011,0c0.644,-0.003 1.287,-0.096 1.799,-0.283c-0.459,1.705 -1.307,3.655 -1.029,5.684c0.078,0.533 0.2,-0.62 0.678,-1.366c0.575,-0.897 1.641,-1.368 2.963,-1.344c2.073,0.038 3.676,1.774 3.483,4.281c-0.407,5.269 -4.366,9.496 -7.756,11.665c-0.037,0.026 -0.071,0.043 -0.123,0.08l-0.033,0Z"/></g></svg>