<?xml version="1.0" encoding="UTF-8" standalone="no"?><!DOCTYPE svg PUBLIC "-//W3C//DTD SVG 1.1//EN" "http://www.w3.org/Graphics/SVG/1.1/DTD/svg11.dtd"><svg width="100%" height="100%" viewBox="0 0 203 283" version="1.1" xmlns="http://www.w3.org/2000/svg" xmlns:xlink="http://www.w3.org/1999/xlink" xml:space="preserve" xmlns:serif="http://www.serif.com/" style="fill-rule:evenodd;clip-rule:evenodd;stroke-linejoin:round;stroke-miterlimit:1.41421;"><path d="M200,13c0,-5.519 -4.481,-10 -10,-10l-180,0c-5.519,0 -10,4.481 -10,10l0,260c0,5.519 4.481,10 10,10l180,0c5.519,0 10,-4.481 10,-10l0,-260Z" style="fill-opacity:0.08;"/><path d="M203,10c0,-5.519 -4.481,-10 -10,-10l-180,0c-5.519,0 -10,4.481 -10,10l0,260c0,5.519 4.481,10 10,10l180,0c5.519,0 10,-4.481 10,-10l0,-260Z" style="fill:#fff;"/><g id="_10" serif:id="10"><path d="M27.388,43.859c-1.397,-0.434 -3.568,0.33 -4.367,3.497c-0.066,0.173 -0.136,0.168 -0.199,-0.007c-1.151,-3.208 -3.048,-3.909 -4.382,-3.49c-1.976,0.637 -3.576,2.993 -3.431,5.998c0.041,5.247 4.735,7.89 7.905,12.906c3.169,-5.016 7.916,-7.651 7.931,-12.921c0.274,-3.037 -1.427,-5.359 -3.457,-5.983Z" style="fill:#e43f45;fill-rule:nonzero;"/><path d="M178.534,236.123c1.396,0.433 3.568,-0.33 4.366,-3.498c0.066,-0.172 0.137,-0.168 0.2,0.007c1.151,3.209 3.047,3.91 4.382,3.491c1.975,-0.637 3.576,-2.994 3.43,-5.998c-0.04,-5.247 -4.735,-7.89 -7.904,-12.906c-3.17,5.016 -7.917,7.651 -7.932,12.92c-0.274,3.037 1.427,5.359 3.458,5.984Z" style="fill:#e43f45;fill-rule:nonzero;"/><rect x="14.959" y="12" width="2.444" height="26.96" style="fill:#e43f45;fill-rule:nonzero;"/><path d="M22.512,37.524c-0.89,-0.915 -1.46,-2.22 -1.458,-3.655l0,-16.737c-0.002,-1.437 0.568,-2.741 1.458,-3.656c0.888,-0.919 2.106,-1.476 3.435,-1.476c1.327,0 2.545,0.557 3.436,1.476c0.889,0.915 1.46,2.219 1.458,3.656l0,16.737c0.002,1.435 -0.569,2.74 -1.458,3.655c-0.891,0.919 -2.109,1.476 -3.436,1.476c-1.329,0 -2.547,-0.557 -3.435,-1.476Zm1.677,-22.102c-0.439,0.457 -0.691,1.051 -0.692,1.71l0,16.737c0.001,0.659 0.253,1.25 0.692,1.71c0.439,0.454 1.058,0.745 1.758,0.745c0.701,0 1.318,-0.291 1.757,-0.745c0.441,-0.46 0.692,-1.051 0.693,-1.71l0,-16.737c-0.001,-0.659 -0.252,-1.253 -0.693,-1.71c-0.439,-0.454 -1.056,-0.746 -1.757,-0.746c-0.7,0 -1.319,0.292 -1.758,0.746Z" style="fill:#e43f45;fill-rule:nonzero;"/><rect x="188.497" y="241.04" width="2.444" height="26.96" style="fill:#e43f45;fill-rule:nonzero;"/><path d="M183.388,242.476c0.89,0.915 1.46,2.22 1.458,3.655l0,16.737c0.002,1.437 -0.568,2.741 -1.458,3.656c-0.888,0.919 -2.106,1.476 -3.435,1.476c-1.327,0 -2.545,-0.557 -3.436,-1.476c-0.889,-0.915 -1.46,-2.219 -1.458,-3.656l0,-16.737c-0.002,-1.435 0.569,-2.74 1.458,-3.655c0.891,-0.919 2.109,-1.476 3.436,-1.476c1.329,0 2.547,0.557 3.435,1.476Zm-1.677,22.102c0.439,-0.457 0.691,-1.051 0.692,-1.71l0,-16.737c-0.001,-0.659 -0.253,-1.25 -0.692,-1.71c-0.439,-0.454 -1.058,-0.745 -1.758,-0.745c-0.701,0 -1.318,0.291 -1.757,0.745c-0.441,0.46 -0.692,1.051 -0.693,1.71l0,16.737c0.001,0.659 0.252,1.253 0.693,1.71c0.439,0.454 1.056,0.746 1.757,0.746c0.7,0 1.319,-0.292 1.758,-0.746Z" style="fill:#e43f45;fill-rule:nonzero;"/><path d="M114.13,58.81c-3.491,-1.084 -8.932,0.824 -10.925,8.739c-0.167,0.433 -0.342,0.424 -0.5,-0.016c-2.877,-8.019 -7.616,-9.77 -10.952,-8.723c-4.937,1.593 -8.938,7.481 -8.571,14.995c0.098,13.119 11.83,19.725 19.753,32.264c7.936,-12.538 19.8,-19.126 19.834,-32.303c0.686,-7.592 -3.564,-13.391 -8.639,-14.956Z" style="fill:#e43f45;fill-rule:nonzero;"/><path d="M70.725,29.179c-3.491,-1.084 -8.919,0.824 -10.915,8.742c-0.165,0.432 -0.338,0.422 -0.496,-0.016c-2.878,-8.021 -7.621,-9.775 -10.956,-8.726c-4.939,1.593 -8.943,7.482 -8.575,14.997c0.097,13.115 11.832,19.718 19.758,32.259c7.927,-12.54 19.794,-19.126 19.827,-32.296c0.687,-7.595 -3.563,-13.396 -8.643,-14.96Z" style="fill:#e43f45;fill-rule:nonzero;"/><path d="M70.725,88.437c-3.491,-1.084 -8.919,0.825 -10.915,8.743c-0.165,0.432 -0.338,0.423 -0.497,-0.016c-2.877,-8.022 -7.62,-9.775 -10.955,-8.727c-4.939,1.594 -8.943,7.484 -8.575,14.998c0.097,13.115 11.832,19.718 19.758,32.258c7.927,-12.539 19.794,-19.125 19.827,-32.296c0.687,-7.594 -3.563,-13.395 -8.643,-14.96Z" style="fill:#e43f45;fill-rule:nonzero;"/><path d="M70.725,250.821c-3.491,1.084 -8.919,-0.824 -10.915,-8.742c-0.165,-0.432 -0.338,-0.422 -0.496,0.016c-2.878,8.021 -7.621,9.775 -10.956,8.726c-4.939,-1.593 -8.943,-7.482 -8.575,-14.997c0.097,-13.115 11.832,-19.718 19.758,-32.259c7.927,12.54 19.794,19.126 19.827,32.296c0.687,7.595 -3.563,13.396 -8.643,14.96Z" style="fill:#e43f45;fill-rule:nonzero;"/><path d="M70.725,191.563c-3.491,1.084 -8.919,-0.825 -10.915,-8.743c-0.165,-0.432 -0.338,-0.423 -0.497,0.016c-2.877,8.022 -7.62,9.775 -10.955,8.727c-4.939,-1.594 -8.943,-7.484 -8.575,-14.998c0.097,-13.115 11.832,-19.718 19.758,-32.258c7.927,12.539 19.794,19.125 19.827,32.296c0.687,7.594 -3.563,13.395 -8.643,14.96Z" style="fill:#e43f45;fill-rule:nonzero;"/><path d="M157.525,29.179c-3.491,-1.084 -8.919,0.824 -10.915,8.742c-0.165,0.432 -0.338,0.422 -0.496,-0.016c-2.878,-8.021 -7.621,-9.775 -10.956,-8.726c-4.939,1.593 -8.943,7.482 -8.575,14.997c0.097,13.115 11.832,19.718 19.758,32.259c7.927,-12.54 19.794,-19.126 19.827,-32.296c0.687,-7.595 -3.563,-13.396 -8.643,-14.96Z" style="fill:#e43f45;fill-rule:nonzero;"/><path d="M157.525,88.437c-3.491,-1.084 -8.919,0.825 -10.915,8.743c-0.165,0.432 -0.338,0.423 -0.497,-0.016c-2.877,-8.022 -7.62,-9.775 -10.955,-8.727c-4.939,1.594 -8.943,7.484 -8.575,14.998c0.097,13.115 11.832,19.718 19.758,32.258c7.927,-12.539 19.794,-19.125 19.827,-32.296c0.687,-7.594 -3.563,-13.395 -8.643,-14.96Z" style="fill:#e43f45;fill-rule:nonzero;"/><path d="M157.525,250.821c-3.491,1.084 -8.919,-0.824 -10.915,-8.742c-0.165,-0.432 -0.338,-0.422 -0.496,0.016c-2.878,8.021 -7.621,9.775 -10.956,8.726c-4.939,-1.593 -8.943,-7.482 -8.575,-14.997c0.097,-13.115 11.832,-19.718 19.758,-32.259c7.927,12.54 19.794,19.126 19.827,32.296c0.687,7.595 -3.563,13.396 -8.643,14.96Z" style="fill:#e43f45;fill-rule:nonzero;"/><path d="M157.525,191.563c-3.491,1.084 -8.919,-0.825 -10.915,-8.743c-0.165,-0.432 -0.338,-0.423 -0.497,0.016c-2.877,8.022 -7.62,9.775 -10.955,8.727c-4.939,-1.594 -8.943,-7.484 -8.575,-14.998c0.097,-13.115 11.832,-19.718 19.758,-32.258c7.927,12.539 19.794,19.125 19.827,32.296c0.687,7.594 -3.563,13.395 -8.643,14.96Z" style="fill:#e43f45;fill-rule:nonzero;"/><path d="M114.125,221.188c-3.491,1.084 -8.919,-0.824 -10.915,-8.742c-0.165,-0.432 -0.338,-0.423 -0.497,0.016c-2.877,8.022 -7.62,9.775 -10.955,8.726c-4.939,-1.593 -8.943,-7.483 -8.575,-14.998c0.097,-13.114 11.832,-19.717 19.758,-32.257c7.927,12.539 19.794,19.125 19.827,32.295c0.687,7.595 -3.563,13.396 -8.643,14.96Z" style="fill:#e43f45;fill-rule:nonzero;"/></g></svg>