<?xml version="1.0" encoding="UTF-8" standalone="no"?><!DOCTYPE svg PUBLIC "-//W3C//DTD SVG 1.1//EN" "http://www.w3.org/Graphics/SVG/1.1/DTD/svg11.dtd"><svg width="100%" height="100%" viewBox="0 0 203 283" version="1.1" xmlns="http://www.w3.org/2000/svg" xmlns:xlink="http://www.w3.org/1999/xlink" xml:space="preserve" xmlns:serif="http://www.serif.com/" style="fill-rule:evenodd;clip-rule:evenodd;stroke-linejoin:round;stroke-miterlimit:1.41421;"><path d="M200,13c0,-5.519 -4.481,-10 -10,-10l-180,0c-5.519,0 -10,4.481 -10,10l0,260c0,5.519 4.481,10 10,10l180,0c5.519,0 10,-4.481 10,-10l0,-260Z" style="fill-opacity:0.08;"/><path d="M203,10c0,-5.519 -4.481,-10 -10,-10l-180,0c-5.519,0 -10,4.481 -10,10l0,260c0,5.519 4.481,10 10,10l180,0c5.519,0 10,-4.481 10,-10l0,-260Z" style="fill:#fff;"/><g id="_3" serif:id="3"><path d="M27.388,43.859c-1.397,-0.434 -3.568,0.33 -4.367,3.497c-0.066,0.173 -0.136,0.168 -0.199,-0.007c-1.151,-3.208 -3.048,-3.909 -4.382,-3.49c-1.976,0.637 -3.576,2.993 -3.431,5.998c0.041,5.247 4.735,7.89 7.905,12.906c3.169,-5.016 7.916,-7.651 7.931,-12.921c0.274,-3.037 -1.427,-5.359 -3.457,-5.983Z" style="fill:#e43f45;fill-rule:nonzero;"/><path d="M114.13,29.21c-3.491,-1.084 -8.932,0.824 -10.925,8.739c-0.167,0.433 -0.342,0.424 -0.5,-0.016c-2.877,-8.019 -7.616,-9.77 -10.952,-8.723c-4.937,1.593 -8.938,7.481 -8.571,14.995c0.098,13.119 11.83,19.725 19.753,32.264c7.936,-12.538 19.8,-19.126 19.834,-32.303c0.686,-7.592 -3.564,-13.391 -8.639,-14.956Z" style="fill:#e43f45;fill-rule:nonzero;"/><path d="M24.085,20.728l6.586,-5.881l0.021,0l0,-0.019l0.007,-0.006l-0.007,-0.008l0,-2.814l-15.161,0.001l0.007,2.032l0,2.529l2.329,0l0,-1.728l8.868,0.009l-8.706,8.063l1.254,1.858c0.951,-0.874 2.143,-1.394 3.452,-1.394c1.534,0 3.072,0.717 4.08,1.882c1.005,1.166 1.623,2.763 1.623,4.541c0,1.779 -0.618,3.376 -1.623,4.542c-1.008,1.165 -2.546,1.882 -4.08,1.883c-1.537,-0.001 -2.915,-0.718 -3.922,-1.883c-0.727,-0.844 -1.253,-1.913 -1.487,-3.113l-2.367,0.488c0.761,4.165 3.952,7.289 7.776,7.29c4.389,-0.001 8.106,-4.121 8.106,-9.207c0,-4.552 -2.983,-8.322 -6.756,-9.065Z" style="fill:#e43f45;fill-rule:nonzero;"/><path d="M178.534,236.123c1.396,0.433 3.568,-0.33 4.366,-3.498c0.066,-0.172 0.137,-0.168 0.2,0.007c1.151,3.209 3.047,3.91 4.382,3.491c1.975,-0.637 3.576,-2.994 3.43,-5.998c-0.04,-5.247 -4.735,-7.89 -7.904,-12.906c-3.17,5.016 -7.917,7.651 -7.932,12.92c-0.274,3.037 1.427,5.359 3.458,5.984Z" style="fill:#e43f45;fill-rule:nonzero;"/><path d="M114.13,250.79c-3.491,1.084 -8.932,-0.824 -10.925,-8.739c-0.167,-0.433 -0.342,-0.424 -0.5,0.016c-2.877,8.019 -7.616,9.77 -10.952,8.723c-4.937,-1.593 -8.938,-7.481 -8.571,-14.995c0.098,-13.119 11.83,-19.725 19.753,-32.264c7.936,12.538 19.8,19.126 19.834,32.303c0.686,7.592 -3.564,13.391 -8.639,14.956Z" style="fill:#e43f45;fill-rule:nonzero;"/><path d="M114.13,116.51c-3.491,-1.084 -8.932,0.824 -10.925,8.739c-0.167,0.433 -0.342,0.424 -0.5,-0.016c-2.877,-8.019 -7.616,-9.77 -10.952,-8.723c-4.937,1.593 -8.938,7.481 -8.571,14.995c0.098,13.119 11.83,19.725 19.753,32.264c7.936,-12.538 19.8,-19.126 19.834,-32.303c0.686,-7.592 -3.564,-13.391 -8.639,-14.956Z" style="fill:#e43f45;fill-rule:nonzero;"/><path d="M181.815,259.272l-6.586,5.881l-0.021,0l0,0.019l-0.007,0.006l0.007,0.008l0,2.814l15.161,-0.001l-0.007,-2.032l0,-2.529l-2.329,0l0,1.728l-8.868,-0.009l8.706,-8.063l-1.254,-1.858c-0.951,0.874 -2.143,1.394 -3.452,1.394c-1.534,0 -3.072,-0.717 -4.08,-1.882c-1.005,-1.166 -1.623,-2.763 -1.623,-4.541c0,-1.779 0.618,-3.376 1.623,-4.542c1.008,-1.165 2.546,-1.882 4.08,-1.883c1.537,0.001 2.915,0.718 3.922,1.883c0.727,0.844 1.253,1.913 1.487,3.113l2.367,-0.488c-0.761,-4.165 -3.952,-7.289 -7.776,-7.29c-4.389,0.001 -8.106,4.121 -8.106,9.207c0,4.552 2.983,8.322 6.756,9.065Z" style="fill:#e43f45;fill-rule:nonzero;"/></g></svg>