<?xml version="1.0" encoding="UTF-8" standalone="no"?><!DOCTYPE svg PUBLIC "-//W3C//DTD SVG 1.1//EN" "http://www.w3.org/Graphics/SVG/1.1/DTD/svg11.dtd"><svg width="100%" height="100%" viewBox="0 0 203 283" version="1.1" xmlns="http://www.w3.org/2000/svg" xmlns:xlink="http://www.w3.org/1999/xlink" xml:space="preserve" xmlns:serif="http://www.serif.com/" style="fill-rule:evenodd;clip-rule:evenodd;stroke-linejoin:round;stroke-miterlimit:1.41421;"><path d="M200,13c0,-5.519 -4.481,-10 -10,-10l-180,0c-5.519,0 -10,4.481 -10,10l0,260c0,5.519 4.481,10 10,10l180,0c5.519,0 10,-4.481 10,-10l0,-260Z" style="fill-opacity:0.08;"/><path d="M203,10c0,-5.519 -4.481,-10 -10,-10l-180,0c-5.519,0 -10,4.481 -10,10l0,260c0,5.519 4.481,10 10,10l180,0c5.519,0 10,-4.481 10,-10l0,-260Z" style="fill:#fff;"/><g id="_4" serif:id="4"><path d="M27.388,43.859c-1.397,-0.434 -3.568,0.33 -4.367,3.497c-0.066,0.173 -0.136,0.168 -0.199,-0.007c-1.151,-3.208 -3.048,-3.909 -4.382,-3.49c-1.976,0.637 -3.576,2.993 -3.431,5.998c0.041,5.247 4.735,7.89 7.905,12.906c3.169,-5.016 7.916,-7.651 7.931,-12.921c0.274,-3.037 -1.427,-5.359 -3.457,-5.983Z" style="fill:#e43f45;fill-rule:nonzero;"/><path d="M70.73,29.21c-3.491,-1.084 -8.932,0.824 -10.925,8.739c-0.167,0.433 -0.342,0.424 -0.5,-0.016c-2.877,-8.019 -7.616,-9.77 -10.952,-8.723c-4.937,1.593 -8.938,7.481 -8.571,14.995c0.098,13.119 11.83,19.725 19.753,32.264c7.936,-12.538 19.8,-19.126 19.834,-32.303c0.686,-7.592 -3.564,-13.391 -8.639,-14.956Z" style="fill:#e43f45;fill-rule:nonzero;"/><path d="M178.534,236.123c1.396,0.433 3.568,-0.33 4.366,-3.498c0.066,-0.172 0.137,-0.168 0.2,0.007c1.151,3.209 3.047,3.91 4.382,3.491c1.975,-0.637 3.576,-2.994 3.43,-5.998c-0.04,-5.247 -4.735,-7.89 -7.904,-12.906c-3.17,5.016 -7.917,7.651 -7.932,12.92c-0.274,3.037 1.427,5.359 3.458,5.984Z" style="fill:#e43f45;fill-rule:nonzero;"/><path d="M70.73,250.79c-3.491,1.084 -8.932,-0.824 -10.925,-8.739c-0.167,-0.433 -0.342,-0.424 -0.5,0.016c-2.877,8.019 -7.616,9.77 -10.952,8.723c-4.937,-1.593 -8.938,-7.481 -8.571,-14.995c0.098,-13.119 11.83,-19.725 19.753,-32.264c7.936,12.538 19.8,19.126 19.834,32.303c0.686,7.592 -3.564,13.391 -8.639,14.956Z" style="fill:#e43f45;fill-rule:nonzero;"/><path d="M157.53,29.21c-3.491,-1.084 -8.932,0.824 -10.925,8.739c-0.167,0.433 -0.342,0.424 -0.5,-0.016c-2.877,-8.019 -7.616,-9.77 -10.952,-8.723c-4.937,1.593 -8.938,7.481 -8.571,14.995c0.098,13.119 11.83,19.725 19.753,32.264c7.936,-12.538 19.8,-19.126 19.834,-32.303c0.686,-7.592 -3.564,-13.391 -8.639,-14.956Z" style="fill:#e43f45;fill-rule:nonzero;"/><path d="M157.53,250.79c-3.491,1.084 -8.932,-0.824 -10.925,-8.739c-0.167,-0.433 -0.342,-0.424 -0.5,0.016c-2.877,8.019 -7.616,9.77 -10.952,8.723c-4.937,-1.593 -8.938,-7.481 -8.571,-14.995c0.098,-13.119 11.83,-19.725 19.753,-32.264c7.936,12.538 19.8,19.126 19.834,32.303c0.686,7.592 -3.564,13.391 -8.639,14.956Z" style="fill:#e43f45;fill-rule:nonzero;"/><path d="M30.841,32.123l0,-2.679l-3.337,0l-0.006,-17.444l-2.507,0.001l-0.085,0l-9.947,17.443l0,2.679l10.041,0l0.002,4.192l-1.676,0.005l0.008,2.68l5.867,-0.02l-0.009,-2.681l-1.685,0.006l-0.001,-4.182l3.335,0Zm-12.948,-2.679l7.1,-12.476l0.006,12.476l-7.106,0Z" style="fill:#e43f45;fill-rule:nonzero;"/><path d="M175.059,247.877l0,2.679l3.337,0l0.006,17.444l2.507,-0.001l0.085,0l9.947,-17.443l0,-2.679l-10.041,0l-0.002,-4.192l1.676,-0.005l-0.008,-2.68l-5.867,0.02l0.009,2.681l1.685,-0.006l0.001,4.182l-3.335,0Zm12.948,2.679l-7.1,12.476l-0.006,-12.476l7.106,0Z" style="fill:#e43f45;fill-rule:nonzero;"/></g></svg>