<?xml version="1.0" encoding="UTF-8" standalone="no"?><!DOCTYPE svg PUBLIC "-//W3C//DTD SVG 1.1//EN" "http://www.w3.org/Graphics/SVG/1.1/DTD/svg11.dtd"><svg width="100%" height="100%" viewBox="0 0 203 283" version="1.1" xmlns="http://www.w3.org/2000/svg" xmlns:xlink="http://www.w3.org/1999/xlink" xml:space="preserve" xmlns:serif="http://www.serif.com/" style="fill-rule:evenodd;clip-rule:evenodd;stroke-linejoin:round;stroke-miterlimit:1.41421;"><path d="M200,13c0,-5.519 -4.481,-10 -10,-10l-180,0c-5.519,0 -10,4.481 -10,10l0,260c0,5.519 4.481,10 10,10l180,0c5.519,0 10,-4.481 10,-10l0,-260Z" style="fill-opacity:0.08;"/><path d="M203,10c0,-5.519 -4.481,-10 -10,-10l-180,0c-5.519,0 -10,4.481 -10,10l0,260c0,5.519 4.481,10 10,10l180,0c5.519,0 10,-4.481 10,-10l0,-260Z" style="fill:#fff;"/><g id="_8" serif:id="8"><path d="M27.388,43.859c-1.397,-0.434 -3.568,0.33 -4.367,3.497c-0.066,0.173 -0.136,0.168 -0.199,-0.007c-1.151,-3.208 -3.048,-3.909 -4.382,-3.49c-1.976,0.637 -3.576,2.993 -3.431,5.998c0.041,5.247 4.735,7.89 7.905,12.906c3.169,-5.016 7.916,-7.651 7.931,-12.921c0.274,-3.037 -1.427,-5.359 -3.457,-5.983Z" style="fill:#e43f45;fill-rule:nonzero;"/><path d="M70.73,29.21c-3.491,-1.084 -8.932,0.824 -10.925,8.739c-0.167,0.433 -0.342,0.424 -0.5,-0.016c-2.877,-8.019 -7.616,-9.77 -10.952,-8.723c-4.937,1.593 -8.938,7.481 -8.571,14.995c0.098,13.119 11.83,19.725 19.753,32.264c7.936,-12.538 19.8,-19.126 19.834,-32.303c0.686,-7.592 -3.564,-13.391 -8.639,-14.956Z" style="fill:#e43f45;fill-rule:nonzero;"/><path d="M178.534,236.123c1.396,0.433 3.568,-0.33 4.366,-3.498c0.066,-0.172 0.137,-0.168 0.2,0.007c1.151,3.209 3.047,3.91 4.382,3.491c1.975,-0.637 3.576,-2.994 3.43,-5.998c-0.04,-5.247 -4.735,-7.89 -7.904,-12.906c-3.17,5.016 -7.917,7.651 -7.932,12.92c-0.274,3.037 1.427,5.359 3.458,5.984Z" style="fill:#e43f45;fill-rule:nonzero;"/><path d="M70.73,250.79c-3.491,1.084 -8.932,-0.824 -10.925,-8.739c-0.167,-0.433 -0.342,-0.424 -0.5,0.016c-2.877,8.019 -7.616,9.77 -10.952,8.723c-4.937,-1.593 -8.938,-7.481 -8.571,-14.995c0.098,-13.119 11.83,-19.725 19.753,-32.264c7.936,12.538 19.8,19.126 19.834,32.303c0.686,7.592 -3.564,13.391 -8.639,14.956Z" style="fill:#e43f45;fill-rule:nonzero;"/><path d="M157.53,29.21c-3.491,-1.084 -8.932,0.824 -10.925,8.739c-0.167,0.433 -0.342,0.424 -0.5,-0.016c-2.877,-8.019 -7.616,-9.77 -10.952,-8.723c-4.937,1.593 -8.938,7.481 -8.571,14.995c0.098,13.119 11.83,19.725 19.753,32.264c7.936,-12.538 19.8,-19.126 19.834,-32.303c0.686,-7.592 -3.564,-13.391 -8.639,-14.956Z" style="fill:#e43f45;fill-rule:nonzero;"/><path d="M157.53,250.79c-3.491,1.084 -8.932,-0.824 -10.925,-8.739c-0.167,-0.433 -0.342,-0.424 -0.5,0.016c-2.877,8.019 -7.616,9.77 -10.952,8.723c-4.937,-1.593 -8.938,-7.481 -8.571,-14.995c0.098,-13.119 11.83,-19.725 19.753,-32.264c7.936,12.538 19.8,19.126 19.834,32.303c0.686,7.592 -3.564,13.391 -8.639,14.956Z" style="fill:#e43f45;fill-rule:nonzero;"/><path d="M70.73,116.51c-3.491,-1.084 -8.932,0.824 -10.925,8.739c-0.167,0.433 -0.342,0.424 -0.5,-0.016c-2.877,-8.019 -7.616,-9.77 -10.952,-8.723c-4.937,1.593 -8.938,7.481 -8.571,14.995c0.098,13.119 11.83,19.725 19.753,32.264c7.936,-12.538 19.8,-19.126 19.834,-32.303c0.686,-7.592 -3.564,-13.391 -8.639,-14.956Z" style="fill:#e43f45;fill-rule:nonzero;"/><path d="M157.53,116.51c-3.491,-1.084 -8.932,0.824 -10.925,8.739c-0.167,0.433 -0.342,0.424 -0.5,-0.016c-2.877,-8.019 -7.616,-9.77 -10.952,-8.723c-4.937,1.593 -8.938,7.481 -8.571,14.995c0.098,13.119 11.83,19.725 19.753,32.264c7.936,-12.538 19.8,-19.126 19.834,-32.303c0.686,-7.592 -3.564,-13.391 -8.639,-14.956Z" style="fill:#e43f45;fill-rule:nonzero;"/><path d="M114.13,72.91c-3.491,-1.084 -8.932,0.824 -10.925,8.739c-0.167,0.433 -0.342,0.424 -0.5,-0.016c-2.877,-8.019 -7.616,-9.77 -10.952,-8.723c-4.937,1.593 -8.938,7.481 -8.571,14.995c0.098,13.119 11.83,19.725 19.753,32.264c7.936,-12.538 19.8,-19.126 19.834,-32.303c0.686,-7.592 -3.564,-13.391 -8.639,-14.956Z" style="fill:#e43f45;fill-rule:nonzero;"/><path d="M114.13,160.21c-3.491,-1.084 -8.932,0.824 -10.925,8.739c-0.167,0.433 -0.342,0.424 -0.5,-0.016c-2.877,-8.019 -7.616,-9.77 -10.952,-8.723c-4.937,1.593 -8.938,7.481 -8.571,14.995c0.098,13.119 11.83,19.725 19.753,32.264c7.936,-12.538 19.8,-19.126 19.834,-32.303c0.686,-7.592 -3.564,-13.391 -8.639,-14.956Z" style="fill:#e43f45;fill-rule:nonzero;"/><path d="M28.465,25.376c-0.413,-0.407 -0.874,-0.761 -1.367,-1.069c0.211,-0.162 0.413,-0.334 0.603,-0.52c1.249,-1.221 2.059,-2.972 2.056,-4.911c0.003,-1.94 -0.807,-3.689 -2.056,-4.912c-1.248,-1.227 -2.947,-1.963 -4.8,-1.964c-1.855,0.001 -3.553,0.737 -4.802,1.964c-1.248,1.223 -2.056,2.972 -2.055,4.912c-0.001,1.939 0.807,3.69 2.055,4.911c0.19,0.186 0.393,0.358 0.603,0.52c-0.492,0.308 -0.953,0.662 -1.367,1.069c-1.445,1.414 -2.377,3.435 -2.376,5.674c-0.001,2.237 0.931,4.258 2.376,5.673c1.445,1.421 3.414,2.276 5.566,2.277c2.15,-0.001 4.119,-0.856 5.564,-2.277c1.446,-1.415 2.379,-3.436 2.376,-5.673c0.003,-2.239 -0.93,-4.26 -2.376,-5.674Zm-8.731,-9.419c0.79,-0.777 1.908,-1.279 3.164,-1.279l0.003,0c1.258,-0.001 2.375,0.501 3.166,1.279c0.79,0.781 1.243,1.8 1.244,2.919c-0.001,1.119 -0.454,2.138 -1.244,2.92c-0.791,0.777 -1.908,1.28 -3.166,1.279c-1.258,0.001 -2.377,-0.502 -3.167,-1.279c-0.789,-0.782 -1.243,-1.801 -1.244,-2.92c0.001,-1.119 0.455,-2.138 1.244,-2.919Zm6.996,18.653c-0.959,0.942 -2.313,1.548 -3.829,1.547c-1.518,0.001 -2.872,-0.605 -3.831,-1.547c-0.958,-0.948 -1.512,-2.192 -1.515,-3.56c0.003,-1.369 0.557,-2.612 1.515,-3.562c0.959,-0.941 2.311,-1.548 3.828,-1.548l0.003,0c1.516,0 2.87,0.607 3.829,1.548c0.959,0.95 1.515,2.193 1.516,3.562c-0.001,1.368 -0.557,2.612 -1.516,3.56Z" style="fill:#e43f45;fill-rule:nonzero;"/><path d="M177.435,254.624c0.413,0.407 0.874,0.761 1.367,1.069c-0.211,0.162 -0.413,0.334 -0.603,0.52c-1.249,1.221 -2.059,2.972 -2.056,4.911c-0.003,1.94 0.807,3.689 2.056,4.912c1.248,1.227 2.947,1.963 4.8,1.964c1.855,-0.001 3.553,-0.737 4.802,-1.964c1.248,-1.223 2.056,-2.972 2.055,-4.912c0.001,-1.939 -0.807,-3.69 -2.055,-4.911c-0.19,-0.186 -0.393,-0.358 -0.603,-0.52c0.492,-0.308 0.953,-0.662 1.367,-1.069c1.445,-1.414 2.377,-3.435 2.376,-5.674c0.001,-2.237 -0.931,-4.258 -2.376,-5.673c-1.445,-1.421 -3.414,-2.276 -5.566,-2.277c-2.15,0.001 -4.119,0.856 -5.564,2.277c-1.446,1.415 -2.379,3.436 -2.376,5.673c-0.003,2.239 0.93,4.26 2.376,5.674Zm8.731,9.419c-0.79,0.777 -1.908,1.279 -3.164,1.279l-0.003,0c-1.258,0.001 -2.375,-0.501 -3.166,-1.279c-0.79,-0.781 -1.243,-1.8 -1.244,-2.919c0.001,-1.119 0.454,-2.138 1.244,-2.92c0.791,-0.777 1.908,-1.28 3.166,-1.279c1.258,-0.001 2.377,0.502 3.167,1.279c0.789,0.782 1.243,1.801 1.244,2.92c-0.001,1.119 -0.455,2.138 -1.244,2.919Zm-6.996,-18.653c0.959,-0.942 2.313,-1.548 3.829,-1.547c1.518,-0.001 2.872,0.605 3.831,1.547c0.958,0.948 1.512,2.192 1.515,3.56c-0.003,1.369 -0.557,2.612 -1.515,3.562c-0.959,0.941 -2.311,1.548 -3.828,1.548l-0.003,0c-1.516,0 -2.87,-0.607 -3.829,-1.548c-0.959,-0.95 -1.515,-2.193 -1.516,-3.562c0.001,-1.368 0.557,-2.612 1.516,-3.56Z" style="fill:#e43f45;fill-rule:nonzero;"/></g></svg>