<?xml version="1.0" encoding="UTF-8" standalone="no"?><!DOCTYPE svg PUBLIC "-//W3C//DTD SVG 1.1//EN" "http://www.w3.org/Graphics/SVG/1.1/DTD/svg11.dtd"><svg width="100%" height="100%" viewBox="0 0 203 283" version="1.1" xmlns="http://www.w3.org/2000/svg" xmlns:xlink="http://www.w3.org/1999/xlink" xml:space="preserve" xmlns:serif="http://www.serif.com/" style="fill-rule:evenodd;clip-rule:evenodd;stroke-linejoin:round;stroke-miterlimit:1.41421;"><path d="M200,13c0,-5.519 -4.481,-10 -10,-10l-180,0c-5.519,0 -10,4.481 -10,10l0,260c0,5.519 4.481,10 10,10l180,0c5.519,0 10,-4.481 10,-10l0,-260Z" style="fill-opacity:0.08;"/><path d="M203,10c0,-5.519 -4.481,-10 -10,-10l-180,0c-5.519,0 -10,4.481 -10,10l0,260c0,5.519 4.481,10 10,10l180,0c5.519,0 10,-4.481 10,-10l0,-260Z" style="fill:#fff;"/><g id="A"><path d="M27.388,43.859c-1.397,-0.434 -3.568,0.33 -4.367,3.497c-0.066,0.173 -0.136,0.168 -0.199,-0.007c-1.151,-3.208 -3.048,-3.909 -4.382,-3.49c-1.976,0.637 -3.576,2.993 -3.431,5.998c0.041,5.247 4.735,7.89 7.905,12.906c3.169,-5.016 7.916,-7.651 7.931,-12.921c0.274,-3.037 -1.427,-5.359 -3.457,-5.983Z" style="fill:#e43f45;fill-rule:nonzero;"/><path d="M29.069,36.405l-4.556,-24.376l-2.45,-0.029l0.003,0.018l-0.61,-0.006l-4.544,24.395l-1.908,0l-0.004,2.578l6.103,0l0.003,-2.578l-1.76,0l0.7,-3.734l5.891,-0.008l0.699,3.74l-1.867,-0.001l-0.004,2.578l6.105,0.003l0.003,-2.578l-1.804,-0.002Zm-8.498,-6.533l2.426,-12.945l2.417,12.939l-4.843,0.006Z" style="fill:#e43f45;fill-rule:nonzero;"/><path d="M178.586,236.104c1.397,0.434 3.568,-0.33 4.367,-3.497c0.066,-0.173 0.137,-0.168 0.199,0.007c1.152,3.208 3.048,3.909 4.383,3.49c1.975,-0.637 3.576,-2.993 3.43,-5.998c-0.04,-5.247 -4.735,-7.89 -7.905,-12.906c-3.169,5.016 -7.916,7.651 -7.931,12.921c-0.274,3.037 1.427,5.358 3.457,5.983Z" style="fill:#e43f45;fill-rule:nonzero;"/><path d="M176.905,243.558l4.556,24.376l2.451,0.029l-0.004,-0.018l0.611,0.006l4.543,-24.395l1.909,0l0.003,-2.578l-6.103,0l-0.003,2.578l1.761,0l-0.7,3.734l-5.892,0.008l-0.699,-3.74l1.867,0.001l0.004,-2.578l-6.104,-0.003l-0.004,2.578l1.804,0.002Zm8.498,6.533l-2.425,12.945l-2.418,-12.939l4.843,-0.006Z" style="fill:#e43f45;fill-rule:nonzero;"/><path d="M114.13,116.51c-3.491,-1.084 -8.932,0.824 -10.925,8.739c-0.167,0.433 -0.342,0.424 -0.5,-0.016c-2.877,-8.019 -7.616,-9.77 -10.952,-8.723c-4.937,1.593 -8.938,7.481 -8.571,14.995c0.098,13.119 11.83,19.725 19.753,32.264c7.936,-12.538 19.8,-19.126 19.834,-32.303c0.686,-7.592 -3.564,-13.391 -8.639,-14.956Z" style="fill:#e43f45;fill-rule:nonzero;"/></g></svg>