<?xml version="1.0" encoding="UTF-8" standalone="no"?><!DOCTYPE svg PUBLIC "-//W3C//DTD SVG 1.1//EN" "http://www.w3.org/Graphics/SVG/1.1/DTD/svg11.dtd"><svg width="100%" height="100%" viewBox="0 0 203 283" version="1.1" xmlns="http://www.w3.org/2000/svg" xmlns:xlink="http://www.w3.org/1999/xlink" xml:space="preserve" xmlns:serif="http://www.serif.com/" style="fill-rule:evenodd;clip-rule:evenodd;stroke-linejoin:round;stroke-miterlimit:1.41421;"><path d="M3,269.715c0,5.519 4.481,10 10,10l180,0c5.519,0 10,-4.481 10,-10l0,-260c0,-5.519 -4.481,-10 -10,-10l-180,0c-5.519,0 -10,4.481 -10,10l0,260Z" style="fill-opacity:0.08;"/><path d="M0,272.715c0,5.519 4.481,10 10,10l180,0c5.519,0 10,-4.481 10,-10l0,-260c0,-5.519 -4.481,-10 -10,-10l-180,0c-5.519,0 -10,4.481 -10,10l0,260Z" style="fill:#fff;"/><g id="Layer1"><path d="M9,268.255c0,3.014 2.447,5.46 5.46,5.46l171.08,0c3.013,0 5.46,-2.446 5.46,-5.46l0,-251.08c0,-3.013 -2.447,-5.46 -5.46,-5.46l-171.08,0c-3.013,0 -5.46,2.447 -5.46,5.46l0,251.08Z"/><path d="M185.611,11.716l0.07,0.001l0.07,0.002l0.07,0.003l0.069,0.004l0.07,0.005l0.069,0.006l0.069,0.006l0.069,0.008l0.068,0.008l0.068,0.009l0.068,0.01l0.068,0.011l0.067,0.011l0.067,0.013l0.067,0.013l0.066,0.014l0.066,0.015l0.066,0.016l0.066,0.016l0.065,0.017l0.065,0.018l0.065,0.019l0.064,0.02l0.064,0.02l0.063,0.021l0.064,0.022l0.063,0.023l0.062,0.023l0.062,0.024l0.062,0.025l0.061,0.025l0.061,0.027l0.061,0.027l0.06,0.027l0.06,0.029l0.06,0.029l0.059,0.03l0.058,0.03l0.059,0.032l0.057,0.031l0.058,0.033l0.057,0.033l0.056,0.034l0.056,0.035l0.056,0.035l0.055,0.036l0.055,0.036l0.054,0.037l0.054,0.038l0.053,0.038l0.053,0.039l0.052,0.04l0.052,0.04l0.051,0.041l0.051,0.042l0.051,0.042l0.049,0.042l0.05,0.043l0.048,0.044l0.049,0.045l0.047,0.045l0.047,0.045l0.047,0.046l0.046,0.047l0.046,0.047l0.045,0.048l0.044,0.048l0.044,0.049l0.043,0.049l0.043,0.05l0.042,0.05l0.041,0.051l0.041,0.051l0.04,0.052l0.04,0.052l0.039,0.053l0.038,0.053l0.038,0.054l0.037,0.054l0.036,0.055l0.036,0.055l0.036,0.056l0.034,0.056l0.034,0.056l0.033,0.057l0.033,0.058l0.032,0.057l0.031,0.059l0.03,0.058l0.03,0.059l0.029,0.06l0.029,0.06l0.027,0.06l0.027,0.061l0.027,0.061l0.025,0.061l0.025,0.062l0.024,0.062l0.023,0.063l0.023,0.063l0.022,0.063l0.021,0.063l0.02,0.064l0.02,0.065l0.019,0.064l0.018,0.065l0.017,0.065l0.016,0.066l0.016,0.066l0.015,0.066l0.014,0.066l0.013,0.067l0.013,0.067l0.011,0.067l0.011,0.068l0.01,0.068l0.009,0.068l0.008,0.069l0.008,0.068l0.006,0.069l0.006,0.069l0.005,0.07l0.004,0.069l0.003,0.07l0.002,0.07l0.002,0.071l0,0.07l0,251.08l0,0.071l-0.002,0.07l-0.002,0.07l-0.003,0.07l-0.004,0.07l-0.005,0.069l-0.006,0.069l-0.006,0.069l-0.008,0.069l-0.008,0.068l-0.009,0.068l-0.01,0.068l-0.011,0.068l-0.011,0.067l-0.013,0.067l-0.013,0.067l-0.014,0.066l-0.015,0.067l-0.016,0.065l-0.016,0.066l-0.017,0.065l-0.018,0.065l-0.019,0.065l-0.02,0.064l-0.02,0.064l-0.021,0.064l-0.022,0.063l-0.023,0.063l-0.023,0.062l-0.024,0.062l-0.025,0.062l-0.025,0.062l-0.027,0.061l-0.027,0.06l-0.027,0.061l-0.029,0.059l-0.029,0.06l-0.03,0.059l-0.03,0.059l-0.031,0.058l-0.032,0.058l-0.033,0.057l-0.033,0.057l-0.034,0.056l-0.034,0.057l-0.036,0.055l-0.036,0.055l-0.036,0.055l-0.037,0.054l-0.038,0.054l-0.038,0.053l-0.039,0.053l-0.04,0.052l-0.04,0.052l-0.041,0.052l-0.041,0.05l-0.042,0.051l-0.043,0.049l-0.043,0.05l-0.044,0.049l-0.044,0.048l-0.045,0.047l-0.046,0.048l-0.046,0.046l-0.047,0.046l-0.047,0.046l-0.047,0.045l-0.049,0.044l-0.048,0.044l-0.05,0.043l-0.049,0.043l-0.051,0.042l-0.051,0.041l-0.051,0.041l-0.052,0.04l-0.052,0.04l-0.053,0.039l-0.053,0.038l-0.054,0.038l-0.054,0.037l-0.055,0.037l-0.055,0.035l-0.056,0.036l-0.056,0.034l-0.056,0.034l-0.057,0.033l-0.058,0.033l-0.057,0.032l-0.059,0.031l-0.058,0.03l-0.059,0.03l-0.06,0.029l-0.06,0.029l-0.06,0.028l-0.061,0.027l-0.061,0.026l-0.061,0.025l-0.062,0.025l-0.062,0.024l-0.062,0.024l-0.063,0.022l-0.064,0.022l-0.063,0.021l-0.064,0.02l-0.064,0.02l-0.065,0.019l-0.065,0.018l-0.065,0.017l-0.066,0.017l-0.066,0.015l-0.066,0.015l-0.066,0.014l-0.067,0.013l-0.067,0.013l-0.067,0.011l-0.068,0.011l-0.068,0.01l-0.068,0.009l-0.068,0.009l-0.069,0.007l-0.069,0.006l-0.069,0.006l-0.07,0.005l-0.069,0.004l-0.07,0.003l-0.07,0.002l-0.07,0.002l-0.071,0l-171.08,0l-0.071,0l-0.07,-0.002l-0.07,-0.002l-0.07,-0.003l-0.069,-0.004l-0.07,-0.005l-0.069,-0.006l-0.069,-0.006l-0.069,-0.007l-0.068,-0.009l-0.068,-0.009l-0.068,-0.01l-0.068,-0.011l-0.067,-0.011l-0.067,-0.013l-0.067,-0.013l-0.066,-0.014l-0.066,-0.015l-0.066,-0.015l-0.066,-0.017l-0.065,-0.017l-0.065,-0.018l-0.065,-0.019l-0.064,-0.02l-0.064,-0.02l-0.063,-0.021l-0.064,-0.022l-0.063,-0.022l-0.062,-0.024l-0.062,-0.024l-0.062,-0.025l-0.061,-0.025l-0.061,-0.026l-0.061,-0.027l-0.06,-0.028l-0.06,-0.029l-0.06,-0.029l-0.059,-0.03l-0.058,-0.03l-0.059,-0.031l-0.057,-0.032l-0.058,-0.033l-0.057,-0.033l-0.056,-0.034l-0.056,-0.034l-0.056,-0.036l-0.055,-0.035l-0.055,-0.037l-0.054,-0.037l-0.054,-0.038l-0.053,-0.038l-0.053,-0.039l-0.052,-0.04l-0.052,-0.04l-0.051,-0.041l-0.051,-0.041l-0.051,-0.042l-0.049,-0.043l-0.05,-0.043l-0.048,-0.044l-0.049,-0.044l-0.047,-0.045l-0.047,-0.046l-0.047,-0.046l-0.046,-0.046l-0.046,-0.048l-0.045,-0.047l-0.044,-0.048l-0.044,-0.049l-0.043,-0.05l-0.043,-0.049l-0.042,-0.051l-0.041,-0.05l-0.041,-0.052l-0.04,-0.052l-0.04,-0.052l-0.039,-0.053l-0.038,-0.053l-0.038,-0.054l-0.037,-0.054l-0.036,-0.055l-0.036,-0.055l-0.036,-0.055l-0.034,-0.057l-0.034,-0.056l-0.033,-0.057l-0.033,-0.057l-0.032,-0.058l-0.031,-0.058l-0.03,-0.059l-0.03,-0.059l-0.029,-0.06l-0.029,-0.059l-0.027,-0.061l-0.027,-0.06l-0.027,-0.061l-0.025,-0.062l-0.025,-0.062l-0.024,-0.062l-0.023,-0.062l-0.023,-0.063l-0.022,-0.063l-0.021,-0.064l-0.02,-0.064l-0.02,-0.064l-0.019,-0.065l-0.018,-0.065l-0.017,-0.065l-0.016,-0.066l-0.016,-0.065l-0.015,-0.067l-0.014,-0.066l-0.013,-0.067l-0.013,-0.067l-0.011,-0.067l-0.011,-0.068l-0.01,-0.068l-0.009,-0.068l-0.008,-0.068l-0.008,-0.069l-0.006,-0.069l-0.006,-0.069l-0.005,-0.069l-0.004,-0.07l-0.003,-0.07l-0.002,-0.07l-0.002,-0.07l0,-0.071l0,-251.08l0,-0.07l0.002,-0.071l0.002,-0.07l0.003,-0.07l0.004,-0.069l0.005,-0.07l0.006,-0.069l0.006,-0.069l0.008,-0.068l0.008,-0.069l0.009,-0.068l0.01,-0.068l0.011,-0.068l0.011,-0.067l0.013,-0.067l0.013,-0.067l0.014,-0.066l0.015,-0.066l0.016,-0.066l0.016,-0.066l0.017,-0.065l0.018,-0.065l0.019,-0.064l0.02,-0.065l0.02,-0.064l0.021,-0.063l0.022,-0.063l0.023,-0.063l0.023,-0.063l0.024,-0.062l0.025,-0.062l0.025,-0.061l0.027,-0.061l0.027,-0.061l0.027,-0.06l0.029,-0.06l0.029,-0.06l0.03,-0.059l0.03,-0.058l0.031,-0.059l0.032,-0.057l0.033,-0.058l0.033,-0.057l0.034,-0.056l0.034,-0.056l0.036,-0.056l0.036,-0.055l0.036,-0.055l0.037,-0.054l0.038,-0.054l0.038,-0.053l0.039,-0.053l0.04,-0.052l0.04,-0.052l0.041,-0.051l0.041,-0.051l0.042,-0.05l0.043,-0.05l0.043,-0.049l0.044,-0.049l0.044,-0.048l0.045,-0.048l0.046,-0.047l0.046,-0.047l0.047,-0.046l0.047,-0.045l0.047,-0.045l0.049,-0.045l0.048,-0.044l0.05,-0.043l0.049,-0.042l0.051,-0.042l0.051,-0.042l0.051,-0.041l0.052,-0.04l0.052,-0.04l0.053,-0.039l0.053,-0.038l0.054,-0.038l0.054,-0.037l0.055,-0.036l0.055,-0.036l0.056,-0.035l0.056,-0.035l0.056,-0.034l0.057,-0.033l0.058,-0.033l0.057,-0.031l0.059,-0.032l0.058,-0.03l0.059,-0.03l0.06,-0.029l0.06,-0.029l0.06,-0.027l0.061,-0.027l0.061,-0.027l0.061,-0.025l0.062,-0.025l0.062,-0.024l0.062,-0.023l0.063,-0.023l0.064,-0.022l0.063,-0.021l0.064,-0.02l0.064,-0.02l0.065,-0.019l0.065,-0.018l0.065,-0.017l0.066,-0.016l0.066,-0.016l0.066,-0.015l0.066,-0.014l0.067,-0.013l0.067,-0.013l0.067,-0.011l0.068,-0.011l0.068,-0.01l0.068,-0.009l0.068,-0.008l0.069,-0.008l0.069,-0.006l0.069,-0.006l0.07,-0.005l0.069,-0.004l0.07,-0.003l0.07,-0.002l0.07,-0.001l0.071,-0.001l171.08,0l0.071,0.001Zm-171.146,1.499l-0.057,0l-0.051,0.001l-0.051,0.002l-0.051,0.002l-0.05,0.003l-0.051,0.004l-0.05,0.004l-0.05,0.005l-0.05,0.005l-0.05,0.006l-0.049,0.007l-0.049,0.007l-0.049,0.008l-0.049,0.008l-0.048,0.009l-0.049,0.01l-0.048,0.01l-0.048,0.011l-0.047,0.011l-0.048,0.012l-0.047,0.012l-0.047,0.013l-0.047,0.014l-0.046,0.014l-0.046,0.015l-0.046,0.015l-0.046,0.016l-0.045,0.016l-0.046,0.017l-0.045,0.017l-0.044,0.018l-0.045,0.019l-0.044,0.019l-0.044,0.019l-0.043,0.02l-0.044,0.021l-0.043,0.021l-0.043,0.022l-0.042,0.022l-0.042,0.022l-0.042,0.024l-0.042,0.023l-0.041,0.024l-0.041,0.025l-0.041,0.025l-0.04,0.025l-0.04,0.026l-0.04,0.027l-0.039,0.027l-0.039,0.027l-0.039,0.028l-0.038,0.029l-0.038,0.028l-0.038,0.03l-0.037,0.029l-0.037,0.03l-0.037,0.031l-0.036,0.031l-0.036,0.031l-0.035,0.032l-0.036,0.033l-0.034,0.032l-0.034,0.033l-0.034,0.034l-0.034,0.034l-0.033,0.034l-0.033,0.035l-0.032,0.035l-0.032,0.035l-0.031,0.036l-0.031,0.036l-0.031,0.037l-0.03,0.037l-0.03,0.037l-0.029,0.038l-0.029,0.038l-0.028,0.038l-0.028,0.039l-0.027,0.039l-0.027,0.039l-0.027,0.04l-0.026,0.04l-0.025,0.04l-0.025,0.041l-0.025,0.041l-0.024,0.041l-0.024,0.042l-0.023,0.042l-0.022,0.042l-0.022,0.042l-0.022,0.043l-0.021,0.043l-0.021,0.044l-0.02,0.043l-0.019,0.044l-0.019,0.044l-0.019,0.045l-0.018,0.045l-0.017,0.045l-0.017,0.045l-0.016,0.045l-0.016,0.046l-0.015,0.046l-0.015,0.046l-0.014,0.047l-0.014,0.046l-0.013,0.047l-0.012,0.047l-0.012,0.048l-0.012,0.047l-0.01,0.048l-0.01,0.048l-0.01,0.049l-0.009,0.048l-0.008,0.049l-0.008,0.049l-0.007,0.049l-0.007,0.05l-0.006,0.049l-0.005,0.05l-0.005,0.05l-0.004,0.05l-0.004,0.051l-0.003,0.05l-0.002,0.051l-0.002,0.051l-0.001,0.052l0,0.056l0,251.07l0,0.057l0.001,0.051l0.002,0.051l0.002,0.051l0.003,0.051l0.004,0.05l0.004,0.05l0.005,0.05l0.005,0.05l0.006,0.05l0.007,0.049l0.007,0.049l0.008,0.049l0.008,0.049l0.009,0.049l0.01,0.048l0.01,0.048l0.01,0.048l0.012,0.048l0.012,0.047l0.012,0.047l0.013,0.047l0.014,0.047l0.014,0.046l0.015,0.046l0.015,0.046l0.016,0.046l0.016,0.046l0.017,0.045l0.017,0.045l0.018,0.044l0.019,0.045l0.019,0.044l0.019,0.044l0.02,0.044l0.021,0.043l0.021,0.043l0.022,0.043l0.022,0.042l0.022,0.042l0.023,0.042l0.024,0.042l0.024,0.041l0.025,0.041l0.025,0.041l0.025,0.04l0.026,0.04l0.027,0.04l0.027,0.039l0.027,0.039l0.028,0.039l0.028,0.039l0.029,0.038l0.03,0.037l0.029,0.037l0.03,0.037l0.031,0.037l0.031,0.036l0.031,0.036l0.032,0.036l0.032,0.035l0.033,0.034l0.033,0.035l0.034,0.033l0.034,0.034l0.034,0.033l0.034,0.033l0.036,0.032l0.035,0.032l0.036,0.031l0.036,0.031l0.037,0.031l0.037,0.03l0.037,0.03l0.037,0.029l0.039,0.029l0.038,0.028l0.039,0.028l0.039,0.027l0.039,0.027l0.04,0.027l0.04,0.026l0.04,0.025l0.041,0.025l0.041,0.025l0.041,0.024l0.042,0.024l0.042,0.023l0.042,0.022l0.042,0.022l0.043,0.022l0.043,0.021l0.044,0.021l0.043,0.02l0.044,0.019l0.044,0.019l0.045,0.019l0.045,0.018l0.044,0.017l0.045,0.017l0.046,0.016l0.046,0.016l0.046,0.016l0.046,0.014l0.046,0.014l0.047,0.014l0.047,0.013l0.047,0.013l0.048,0.011l0.047,0.012l0.048,0.01l0.048,0.011l0.049,0.009l0.048,0.009l0.049,0.009l0.049,0.007l0.049,0.008l0.049,0.006l0.05,0.006l0.05,0.006l0.05,0.004l0.05,0.005l0.051,0.003l0.05,0.003l0.051,0.002l0.051,0.002l0.051,0.001l0.057,0l171.07,0l0.057,0l0.051,-0.001l0.051,-0.002l0.051,-0.002l0.05,-0.003l0.051,-0.003l0.05,-0.005l0.05,-0.004l0.05,-0.006l0.05,-0.006l0.049,-0.006l0.049,-0.008l0.049,-0.007l0.049,-0.009l0.048,-0.009l0.049,-0.009l0.048,-0.011l0.048,-0.01l0.047,-0.012l0.048,-0.011l0.047,-0.013l0.047,-0.013l0.047,-0.014l0.046,-0.014l0.046,-0.014l0.046,-0.016l0.046,-0.016l0.046,-0.016l0.045,-0.017l0.045,-0.017l0.044,-0.018l0.045,-0.019l0.044,-0.019l0.044,-0.019l0.043,-0.02l0.044,-0.021l0.043,-0.021l0.043,-0.022l0.042,-0.022l0.042,-0.022l0.042,-0.023l0.042,-0.024l0.041,-0.024l0.041,-0.025l0.041,-0.025l0.04,-0.025l0.04,-0.026l0.04,-0.027l0.039,-0.027l0.039,-0.027l0.039,-0.028l0.038,-0.028l0.038,-0.029l0.038,-0.029l0.037,-0.03l0.037,-0.03l0.037,-0.031l0.036,-0.031l0.036,-0.031l0.035,-0.032l0.036,-0.032l0.034,-0.033l0.034,-0.033l0.034,-0.033l0.034,-0.034l0.033,-0.035l0.033,-0.034l0.032,-0.035l0.032,-0.036l0.031,-0.036l0.031,-0.036l0.031,-0.037l0.03,-0.037l0.029,-0.037l0.03,-0.037l0.029,-0.038l0.028,-0.039l0.028,-0.039l0.027,-0.039l0.027,-0.039l0.027,-0.04l0.026,-0.04l0.025,-0.04l0.025,-0.041l0.025,-0.041l0.024,-0.041l0.024,-0.042l0.023,-0.041l0.022,-0.043l0.022,-0.042l0.022,-0.043l0.021,-0.043l0.021,-0.044l0.02,-0.043l0.019,-0.044l0.019,-0.044l0.019,-0.045l0.018,-0.044l0.017,-0.045l0.017,-0.046l0.016,-0.045l0.016,-0.046l0.015,-0.046l0.015,-0.046l0.014,-0.046l0.014,-0.047l0.013,-0.047l0.012,-0.047l0.012,-0.047l0.012,-0.048l0.01,-0.048l0.01,-0.048l0.01,-0.048l0.009,-0.049l0.008,-0.049l0.008,-0.048l0.007,-0.05l0.007,-0.049l0.006,-0.05l0.005,-0.05l0.005,-0.05l0.004,-0.05l0.004,-0.05l0.003,-0.051l0.002,-0.051l0.002,-0.051l0.001,-0.051l0,-0.057l0,-251.07l0,-0.056l-0.001,-0.052l-0.002,-0.051l-0.002,-0.051l-0.003,-0.05l-0.004,-0.051l-0.004,-0.05l-0.005,-0.05l-0.005,-0.05l-0.006,-0.049l-0.007,-0.05l-0.007,-0.049l-0.008,-0.049l-0.008,-0.049l-0.009,-0.048l-0.01,-0.049l-0.01,-0.048l-0.01,-0.047l-0.012,-0.048l-0.012,-0.048l-0.012,-0.047l-0.013,-0.047l-0.014,-0.046l-0.014,-0.047l-0.015,-0.046l-0.015,-0.046l-0.016,-0.046l-0.016,-0.045l-0.017,-0.045l-0.017,-0.046l-0.018,-0.044l-0.019,-0.045l-0.019,-0.044l-0.019,-0.044l-0.02,-0.043l-0.021,-0.044l-0.021,-0.043l-0.022,-0.042l-0.022,-0.043l-0.022,-0.042l-0.023,-0.042l-0.024,-0.042l-0.024,-0.041l-0.025,-0.041l-0.025,-0.041l-0.025,-0.04l-0.026,-0.04l-0.027,-0.04l-0.027,-0.039l-0.027,-0.039l-0.028,-0.039l-0.029,-0.038l-0.028,-0.038l-0.029,-0.038l-0.03,-0.037l-0.03,-0.037l-0.031,-0.037l-0.031,-0.036l-0.031,-0.036l-0.032,-0.035l-0.032,-0.035l-0.033,-0.035l-0.033,-0.034l-0.034,-0.034l-0.034,-0.034l-0.034,-0.033l-0.035,-0.033l-0.035,-0.032l-0.035,-0.032l-0.036,-0.031l-0.036,-0.031l-0.037,-0.031l-0.037,-0.03l-0.037,-0.029l-0.038,-0.03l-0.038,-0.028l-0.038,-0.029l-0.039,-0.028l-0.039,-0.027l-0.039,-0.027l-0.04,-0.027l-0.04,-0.026l-0.04,-0.025l-0.041,-0.025l-0.041,-0.025l-0.041,-0.024l-0.042,-0.023l-0.042,-0.023l-0.042,-0.023l-0.042,-0.022l-0.043,-0.022l-0.043,-0.021l-0.044,-0.02l-0.043,-0.021l-0.044,-0.019l-0.044,-0.019l-0.045,-0.019l-0.044,-0.018l-0.045,-0.017l-0.046,-0.017l-0.045,-0.016l-0.046,-0.016l-0.046,-0.015l-0.046,-0.015l-0.046,-0.014l-0.047,-0.014l-0.047,-0.013l-0.047,-0.012l-0.048,-0.012l-0.047,-0.011l-0.048,-0.011l-0.048,-0.01l-0.049,-0.01l-0.048,-0.009l-0.049,-0.008l-0.049,-0.008l-0.049,-0.007l-0.049,-0.007l-0.05,-0.006l-0.05,-0.005l-0.05,-0.005l-0.05,-0.004l-0.051,-0.004l-0.05,-0.003l-0.051,-0.002l-0.051,-0.002l-0.051,-0.001l-0.057,0l-171.07,0Z"/><path d="M9.871,282.714c-5.143,-0.098 -9.769,-4.549 -9.87,-9.87c-0.55,-86.751 -0.55,-173.507 0,-260.258c0.098,-5.147 4.481,-9.768 9.87,-9.87c60.085,-0.381 120.173,-0.381 180.258,0c5.143,0.098 9.769,4.55 9.87,9.87c0.55,86.751 0.55,173.507 0,260.258c-0.098,5.148 -4.481,9.768 -9.87,9.87c-60.085,0.381 -120.173,0.381 -180.258,0Zm180.123,-1.999c4.176,-0.026 7.923,-3.564 8.005,-7.896c0.55,-86.734 0.55,-173.474 0,-260.208c-0.078,-4.115 -3.577,-7.813 -7.895,-7.895c-60.068,-0.386 -120.14,-0.386 -180.208,0c-4.11,0.078 -7.814,3.631 -7.895,7.895c-0.549,86.734 -0.55,173.474 0,260.208c0.078,4.126 3.631,7.814 7.895,7.895c60.031,0.381 120.065,0.001 180.098,0.001Z" style="fill-rule:nonzero;"/><g><path d="M97.447,119.441l0,-15.295l1.662,0l0,1.891c0.305,-0.651 0.766,-1.153 1.382,-1.506c0.617,-0.353 1.334,-0.53 2.151,-0.53c0.914,0 1.721,0.228 2.421,0.686c0.699,0.457 1.243,1.098 1.631,1.922c0.388,0.824 0.582,1.776 0.582,2.857c0,1.081 -0.19,2.026 -0.571,2.837c-0.381,0.81 -0.925,1.437 -1.632,1.88c-0.706,0.444 -1.517,0.665 -2.431,0.665c-0.817,0 -1.531,-0.176 -2.141,-0.53c-0.609,-0.353 -1.066,-0.848 -1.371,-1.485l0,6.608l-1.683,0Zm4.863,-14.048c-1.026,0 -1.815,0.35 -2.37,1.05c-0.554,0.699 -0.831,1.693 -0.831,2.982c0,1.274 0.277,2.261 0.831,2.961c0.555,0.699 1.344,1.049 2.37,1.049c1.025,0 1.825,-0.346 2.4,-1.039c0.575,-0.692 0.862,-1.669 0.862,-2.93c0,-1.288 -0.287,-2.289 -0.862,-3.003c-0.575,-0.713 -1.375,-1.07 -2.4,-1.07Z" style="fill:#fff;fill-rule:nonzero;"/><path d="M85.435,109.425l7.669,0c-0.014,-1.33 -0.323,-2.335 -0.925,-3.014c-0.603,-0.678 -1.479,-1.018 -2.629,-1.018c-1.219,0 -2.341,0.409 -3.366,1.226l-0.562,-1.226c0.458,-0.429 1.043,-0.769 1.757,-1.018c0.713,-0.25 1.444,-0.374 2.192,-0.374c1.635,0 2.916,0.481 3.844,1.444c0.929,0.963 1.393,2.282 1.393,3.959c0,1.067 -0.208,2.012 -0.624,2.836c-0.415,0.825 -0.997,1.465 -1.746,1.923c-0.747,0.457 -1.599,0.685 -2.556,0.685c-1.385,0 -2.472,-0.453 -3.262,-1.361c-0.79,-0.907 -1.185,-2.158 -1.185,-3.751l0,-0.311Zm4.427,4.114c0.872,0 1.583,-0.263 2.13,-0.789c0.547,-0.527 0.897,-1.268 1.049,-2.224l-6.088,0c0.083,0.984 0.37,1.732 0.862,2.244c0.492,0.513 1.174,0.769 2.047,0.769Z" style="fill:#fff;fill-rule:nonzero;"/><path d="M75.458,114.578l-1.683,0l4.509,-10.432l1.6,0l4.447,10.432l-1.766,0l-3.533,-8.603l-3.574,8.603Z" style="fill:#fff;fill-rule:nonzero;"/><path d="M60.463,114.848c-2.314,0 -3.471,-1.378 -3.471,-4.135l0,-6.567l1.684,0l0,6.484c0,0.983 0.169,1.697 0.509,2.14c0.339,0.444 0.89,0.665 1.652,0.665c0.887,0 1.579,-0.298 2.078,-0.893c0.499,-0.596 0.748,-1.407 0.748,-2.432l0,-5.964l1.683,0l0,6.484c0,0.97 0.173,1.68 0.52,2.13c0.346,0.45 0.9,0.675 1.662,0.675c0.887,0 1.583,-0.298 2.089,-0.893c0.505,-0.596 0.758,-1.407 0.758,-2.432l0,-5.964l1.683,0l0,7.523c0,1.081 0.056,2.057 0.167,2.93l-1.6,0l-0.167,-1.829c-0.291,0.665 -0.723,1.178 -1.298,1.538c-0.575,0.36 -1.244,0.54 -2.006,0.54c-0.831,0 -1.51,-0.166 -2.036,-0.499c-0.527,-0.332 -0.915,-0.844 -1.164,-1.537c-0.319,0.623 -0.786,1.119 -1.403,1.486c-0.616,0.367 -1.312,0.55 -2.088,0.55Z" style="fill:#fff;fill-rule:nonzero;"/><path d="M45.043,109.425l7.669,0c-0.014,-1.33 -0.323,-2.335 -0.925,-3.014c-0.603,-0.678 -1.479,-1.018 -2.629,-1.018c-1.219,0 -2.341,0.409 -3.366,1.226l-0.561,-1.226c0.457,-0.429 1.042,-0.769 1.756,-1.018c0.713,-0.25 1.444,-0.374 2.192,-0.374c1.634,0 2.916,0.481 3.844,1.444c0.929,0.963 1.393,2.282 1.393,3.959c0,1.067 -0.208,2.012 -0.624,2.836c-0.415,0.825 -0.997,1.465 -1.745,1.923c-0.748,0.457 -1.6,0.685 -2.556,0.685c-1.386,0 -2.473,-0.453 -3.263,-1.361c-0.79,-0.907 -1.185,-2.158 -1.185,-3.751l0,-0.311Zm4.427,4.114c0.873,0 1.583,-0.263 2.13,-0.789c0.547,-0.527 0.897,-1.268 1.049,-2.224l-6.088,0c0.083,0.984 0.37,1.732 0.862,2.244c0.492,0.513 1.174,0.769 2.047,0.769Z" style="fill:#fff;fill-rule:nonzero;"/><path d="M37.271,114.848c-2.507,0 -3.761,-1.378 -3.761,-4.135l0,-6.567l1.683,0l0,6.484c0,0.97 0.194,1.68 0.582,2.13c0.388,0.45 0.998,0.675 1.829,0.675c0.97,0 1.746,-0.298 2.327,-0.893c0.582,-0.596 0.873,-1.399 0.873,-2.411l0,-5.985l1.683,0l0,7.523c0,1.081 0.056,2.057 0.167,2.93l-1.6,0l-0.167,-1.87c-0.318,0.679 -0.796,1.202 -1.434,1.569c-0.637,0.367 -1.364,0.55 -2.182,0.55Z" style="fill:#fff;fill-rule:nonzero;"/><rect x="110.774" y="104.146" width="16.6" height="2.039" style="fill:#fff;"/><path d="M94.878,130.446l-2.509,-4.345l34.996,0l-17.498,30.308l-14.989,-25.963Z" style="fill:#fff;fill-rule:nonzero;"/><path d="M63.478,126.101l19.572,0l0.155,0.27l7.014,12.146l0.75,1.3l14.239,24.663l-9.786,16.95l-12.217,-21.159l-2.022,-3.503l-0.75,-1.3l-16.955,-29.367Z" style="fill:#fff;fill-rule:nonzero;"/><path d="M33.5,126.101l20.82,0l3.057,5.295l18.477,32.003l-2.071,3.585l-8.339,14.446l-8.34,-14.446l-23.604,-40.883Z" style="fill:#fff;fill-rule:nonzero;"/><path d="M105.613,181.429l31.943,-55.326l4.659,8.068l9.783,16.953l2.089,3.612l-4.746,8.222l-11.785,-20.412l-17.704,30.661l44.895,0l2.242,3.881l2.511,4.341l-63.887,0Z" style="fill:#fce006;fill-rule:nonzero;"/></g></g></svg>